%TF.GenerationSoftware,KiCad,Pcbnew,9.0.2*%
%TF.CreationDate,2026-03-17T13:30:53+09:00*%
%TF.ProjectId,X610,58363130-2e6b-4696-9361-645f70636258,rev?*%
%TF.SameCoordinates,Original*%
%TF.FileFunction,Copper,L7,Inr*%
%TF.FilePolarity,Positive*%
%FSLAX46Y46*%
G04 Gerber Fmt 4.6, Leading zero omitted, Abs format (unit mm)*
G04 Created by KiCad (PCBNEW 9.0.2) date 2026-03-17 13:30:53*
%MOMM*%
%LPD*%
G01*
G04 APERTURE LIST*
G04 Aperture macros list*
%AMRoundRect*
0 Rectangle with rounded corners*
0 $1 Rounding radius*
0 $2 $3 $4 $5 $6 $7 $8 $9 X,Y pos of 4 corners*
0 Add a 4 corners polygon primitive as box body*
4,1,4,$2,$3,$4,$5,$6,$7,$8,$9,$2,$3,0*
0 Add four circle primitives for the rounded corners*
1,1,$1+$1,$2,$3*
1,1,$1+$1,$4,$5*
1,1,$1+$1,$6,$7*
1,1,$1+$1,$8,$9*
0 Add four rect primitives between the rounded corners*
20,1,$1+$1,$2,$3,$4,$5,0*
20,1,$1+$1,$4,$5,$6,$7,0*
20,1,$1+$1,$6,$7,$8,$9,0*
20,1,$1+$1,$8,$9,$2,$3,0*%
G04 Aperture macros list end*
%TA.AperFunction,ComponentPad*%
%ADD10C,1.500000*%
%TD*%
%TA.AperFunction,ComponentPad*%
%ADD11RoundRect,0.195000X-0.455000X0.455000X-0.455000X-0.455000X0.455000X-0.455000X0.455000X0.455000X0*%
%TD*%
%TA.AperFunction,ComponentPad*%
%ADD12C,1.300000*%
%TD*%
%TA.AperFunction,ViaPad*%
%ADD13C,0.400000*%
%TD*%
%TA.AperFunction,ViaPad*%
%ADD14C,0.600000*%
%TD*%
%TA.AperFunction,Conductor*%
%ADD15C,0.254000*%
%TD*%
%TA.AperFunction,Conductor*%
%ADD16C,0.609600*%
%TD*%
G04 APERTURE END LIST*
D10*
%TO.N,Net-(J1-Pin_1)*%
%TO.C,J1*%
X153146000Y-117094000D03*
%TO.N,/MCU/LIMIT_SW*%
X151146000Y-117094000D03*
%TD*%
%TO.N,+24V_L*%
%TO.C,J3*%
X153146000Y-115046000D03*
%TO.N,GND_L*%
X151146000Y-115046000D03*
%TO.N,/CANFD/CANFD_N*%
X153146000Y-113046000D03*
%TO.N,/CANFD/CANFD_P*%
X151146000Y-113046000D03*
%TD*%
D11*
%TO.N,Net-(J6-Pin_1)*%
%TO.C,J6*%
X180213000Y-110997000D03*
D12*
%TO.N,GND*%
X180213000Y-108997000D03*
%TO.N,Net-(J6-Pin_3)*%
X180213000Y-106997000D03*
%TO.N,Net-(J6-Pin_4)*%
X180213000Y-104997000D03*
%TO.N,GND*%
X180213000Y-102997000D03*
%TO.N,/MCU/SWD.CLK*%
X180213000Y-100997000D03*
%TO.N,Net-(J6-Pin_7)*%
X180213000Y-98997000D03*
%TD*%
D13*
%TO.N,GND*%
X160528000Y-101092000D03*
X154940000Y-118110000D03*
X153416000Y-119380000D03*
X150622000Y-119126000D03*
X155194000Y-111252000D03*
%TO.N,/DRIVER/nSLEEP*%
X156467545Y-106493045D03*
X159258000Y-114426000D03*
%TO.N,GND*%
X161036000Y-117223310D03*
X152654000Y-95758000D03*
X153162000Y-95758000D03*
X169545000Y-95631000D03*
X165989000Y-96139000D03*
X154178000Y-95250000D03*
X153670000Y-93726000D03*
X150622000Y-108966000D03*
X168910000Y-99060000D03*
X155702000Y-96266000D03*
X155194000Y-95250000D03*
X160020000Y-118110000D03*
X157480000Y-114935000D03*
X153670000Y-95250000D03*
X159131000Y-96266000D03*
X160147000Y-114427000D03*
X154178000Y-108458000D03*
X162052000Y-102616000D03*
X160528000Y-96266000D03*
X161290000Y-109474000D03*
X160020000Y-119380000D03*
X171450000Y-119380000D03*
X152654000Y-107950000D03*
X151638000Y-95250000D03*
X161290000Y-119380000D03*
X155194000Y-93726000D03*
X153670000Y-107950000D03*
X153670000Y-96774000D03*
X162673000Y-108077000D03*
X152146000Y-96774000D03*
X152146000Y-96266000D03*
X160274000Y-101600000D03*
X154178000Y-94234000D03*
X152400000Y-92710000D03*
X153670000Y-92710000D03*
X156210000Y-119380000D03*
X162433000Y-112649000D03*
X161036000Y-102616000D03*
X171450000Y-101600000D03*
X156972000Y-112141000D03*
X161544000Y-101092000D03*
X154178000Y-96774000D03*
X155194000Y-108966000D03*
X171450000Y-100330000D03*
X156210000Y-118110000D03*
X168275000Y-113792000D03*
X162052000Y-108204000D03*
X154178000Y-95758000D03*
X159131000Y-95504000D03*
X162052000Y-101092000D03*
X152654000Y-95250000D03*
X165608000Y-116967000D03*
X152146000Y-94234000D03*
X153670000Y-94742000D03*
X160782000Y-101600000D03*
X154178000Y-96266000D03*
X153162000Y-107950000D03*
X153162000Y-94742000D03*
X154686000Y-108458000D03*
X155194000Y-94742000D03*
X161544000Y-102616000D03*
X153670000Y-96266000D03*
X154686000Y-96266000D03*
X168910000Y-96266000D03*
X155194000Y-96266000D03*
X168910000Y-101600000D03*
X158750000Y-119380000D03*
X157480000Y-118110000D03*
X154686000Y-94234000D03*
X154686000Y-94742000D03*
X152654000Y-93726000D03*
X168910000Y-95631000D03*
X155194000Y-96774000D03*
X158750000Y-116840000D03*
X153670000Y-108458000D03*
X161036000Y-101092000D03*
X160782000Y-95504000D03*
X154686000Y-96774000D03*
X165989000Y-104775000D03*
X153162000Y-95250000D03*
X151638000Y-96774000D03*
X155702000Y-95250000D03*
X153670000Y-94234000D03*
X154686000Y-108966000D03*
X151130000Y-108458000D03*
X151638000Y-96266000D03*
X161798000Y-101600000D03*
X171450000Y-118110000D03*
X152654000Y-94234000D03*
X154686000Y-95758000D03*
X153162000Y-93726000D03*
X152146000Y-108458000D03*
X155194000Y-94234000D03*
X163195000Y-112649000D03*
X161290000Y-101600000D03*
X152146000Y-108966000D03*
X156464000Y-102743000D03*
X170307000Y-119126000D03*
X157480000Y-116840000D03*
X168910000Y-100330000D03*
X158750000Y-118110000D03*
X151638000Y-108966000D03*
X159893000Y-95504000D03*
X153162000Y-96774000D03*
X152146000Y-94742000D03*
X152146000Y-95758000D03*
X171323000Y-96266000D03*
X151638000Y-94234000D03*
X152654000Y-108966000D03*
X168275000Y-96266000D03*
X152654000Y-96266000D03*
X161036000Y-102108000D03*
X152654000Y-108458000D03*
X168275000Y-95631000D03*
X151130000Y-108966000D03*
X170180000Y-118110000D03*
X152146000Y-93726000D03*
X154178000Y-108966000D03*
X151638000Y-94742000D03*
X161544000Y-102108000D03*
X151638000Y-93726000D03*
X154686000Y-93726000D03*
X157480000Y-119380000D03*
X165735000Y-118872000D03*
X152146000Y-107950000D03*
X154178000Y-94742000D03*
X151638000Y-108458000D03*
X150622000Y-108458000D03*
X154178000Y-93726000D03*
X153670000Y-95758000D03*
X153162000Y-108458000D03*
X162306000Y-101600000D03*
X158496000Y-113030000D03*
X174884500Y-112202000D03*
X155194000Y-95758000D03*
X166370000Y-119380000D03*
X171323000Y-95631000D03*
X152654000Y-94742000D03*
X156210000Y-116840000D03*
X151638000Y-95758000D03*
X152654000Y-96774000D03*
X155702000Y-96774000D03*
X153670000Y-108966000D03*
X164719000Y-95504000D03*
X154686000Y-95250000D03*
X162052000Y-102108000D03*
X154940000Y-92710000D03*
X155702000Y-95758000D03*
X153162000Y-96266000D03*
X153162000Y-108966000D03*
X159893000Y-96266000D03*
X153162000Y-94234000D03*
X160528000Y-102108000D03*
X169545000Y-96266000D03*
X152146000Y-95250000D03*
%TO.N,+3.3V*%
X167386000Y-116099200D03*
X157861000Y-109220000D03*
X157859000Y-108204000D03*
X157861000Y-108712000D03*
X168783000Y-97661000D03*
X167075800Y-107150000D03*
X170344185Y-112813185D03*
X159766000Y-116332000D03*
X165227000Y-105509000D03*
X165988213Y-98679787D03*
X156434000Y-80844000D03*
%TO.N,/DRIVER/SHA*%
X157969000Y-100838000D03*
X158369000Y-92964000D03*
%TO.N,/DRIVER/SHB*%
X163576000Y-92964000D03*
X162687000Y-96935997D03*
%TO.N,/DRIVER/SHC*%
X168910000Y-92964000D03*
X162687000Y-97536000D03*
%TO.N,+5V*%
X152880000Y-105664000D03*
X157353000Y-107061000D03*
X168418000Y-118999000D03*
X173609000Y-110363000D03*
%TO.N,+24V*%
X163576000Y-91821000D03*
X169418000Y-91313000D03*
X152146000Y-88392000D03*
X159004000Y-91313000D03*
X153670000Y-91440000D03*
X152146000Y-89916000D03*
X155702000Y-89408000D03*
X164592000Y-91821000D03*
X154686000Y-89916000D03*
X153162000Y-88392000D03*
X163068000Y-91821000D03*
X155194000Y-89408000D03*
X152146000Y-90424000D03*
X155702000Y-90932000D03*
X152146000Y-91440000D03*
X152654000Y-88900000D03*
X153162000Y-89408000D03*
X154178000Y-89916000D03*
X165100000Y-91821000D03*
X152146000Y-90932000D03*
X163068000Y-91313000D03*
X159766000Y-94615000D03*
X153670000Y-88900000D03*
X168402000Y-91313000D03*
X152146000Y-88900000D03*
D14*
X155368200Y-99001200D03*
D13*
X169926000Y-94107000D03*
X154686000Y-90932000D03*
X154686000Y-90424000D03*
X168910000Y-91313000D03*
X168656000Y-94742000D03*
X165608000Y-91313000D03*
X153162000Y-90932000D03*
X154178000Y-90424000D03*
X155194000Y-88900000D03*
X152654000Y-90424000D03*
X152654000Y-91440000D03*
X164084000Y-91313000D03*
X158496000Y-91313000D03*
X155194000Y-90424000D03*
X159004000Y-93980000D03*
X152654000Y-89916000D03*
X151638000Y-89408000D03*
X158496000Y-91821000D03*
X151638000Y-89916000D03*
X169418000Y-91821000D03*
X153162000Y-89916000D03*
X163576000Y-91313000D03*
X155194000Y-89916000D03*
X168402000Y-91821000D03*
X153162000Y-88900000D03*
X153670000Y-89408000D03*
X159004000Y-91821000D03*
X151638000Y-88392000D03*
X154686000Y-89408000D03*
X155702000Y-91440000D03*
X160020000Y-91821000D03*
X155702000Y-89916000D03*
X165608000Y-91821000D03*
X167894000Y-91313000D03*
X163957000Y-94742000D03*
X168656000Y-94107000D03*
X151638000Y-90424000D03*
X155194000Y-88392000D03*
X164084000Y-91821000D03*
X159004000Y-94615000D03*
X151638000Y-90932000D03*
X165481000Y-94107000D03*
X153670000Y-88392000D03*
X160020000Y-91313000D03*
X152654000Y-88392000D03*
X169291000Y-94742000D03*
X154178000Y-90932000D03*
X155702000Y-90424000D03*
X169926000Y-91313000D03*
X154686000Y-88900000D03*
X169926000Y-91821000D03*
X155194000Y-91440000D03*
X155194000Y-90932000D03*
X154178000Y-88900000D03*
X152654000Y-90932000D03*
X163957000Y-94107000D03*
X152146000Y-89408000D03*
X151638000Y-91440000D03*
X152654000Y-89408000D03*
X151638000Y-88900000D03*
X154178000Y-89408000D03*
X153670000Y-89916000D03*
X165481000Y-94742000D03*
X160528000Y-94615000D03*
X159766000Y-93980000D03*
X165100000Y-91313000D03*
X154178000Y-91440000D03*
X153162000Y-90424000D03*
X168910000Y-91821000D03*
X159512000Y-91313000D03*
X154686000Y-88392000D03*
X154686000Y-91440000D03*
X153162000Y-91440000D03*
X154178000Y-88392000D03*
X153670000Y-90932000D03*
X164719000Y-94107000D03*
X153670000Y-90424000D03*
X164719000Y-94742000D03*
X164592000Y-91313000D03*
X159512000Y-91821000D03*
X169291000Y-94107000D03*
X169926000Y-94742000D03*
%TO.N,/MCU/USER_LED*%
X169782000Y-110821729D03*
%TO.N,/DRIVER/nFAULT*%
X160170888Y-104921000D03*
X164084000Y-114554000D03*
%TO.N,/MCU/SWD.CLK*%
X168418000Y-115570000D03*
X167680000Y-106623000D03*
%TO.N,/ENCODER/ADC_ENC1*%
X155184000Y-80844000D03*
X159745000Y-106178400D03*
%TO.N,/ENCODER/ADC_ENC2*%
X152684000Y-80844000D03*
X158496000Y-107442000D03*
%TO.N,/MCU/BOOT*%
X169293468Y-113161467D03*
%TO.N,/MCU/NRST*%
X161546000Y-115568000D03*
%TO.N,/DRIVER/OPAMP1.+*%
X157734000Y-112141000D03*
X165100000Y-99693000D03*
%TO.N,/DRIVER/SHUNT1+*%
X160020000Y-89408000D03*
X160528000Y-89916000D03*
X157988000Y-89408000D03*
X158496000Y-89916000D03*
X160020000Y-89916000D03*
X158496000Y-90424000D03*
X164084000Y-97663000D03*
X160528000Y-90424000D03*
X159004000Y-89916000D03*
X161036000Y-89408000D03*
X158496000Y-89408000D03*
X159004000Y-89408000D03*
X157988000Y-89916000D03*
X157988000Y-90424000D03*
X159512000Y-89408000D03*
X159004000Y-90424000D03*
X160020000Y-90424000D03*
X161036000Y-90424000D03*
X160528000Y-89408000D03*
X161036000Y-89916000D03*
X159512000Y-90424000D03*
X159512000Y-89916000D03*
%TO.N,/DRIVER/OPAMP2.+*%
X158423413Y-112085298D03*
X167132000Y-99314000D03*
%TO.N,/DRIVER/SHUNT2+*%
X164084000Y-89408000D03*
X163576000Y-90424000D03*
X165100000Y-89408000D03*
X164084000Y-90424000D03*
X166116000Y-89916000D03*
X166116000Y-89408000D03*
X164592000Y-90424000D03*
X165608000Y-90424000D03*
X165608000Y-89916000D03*
X163068000Y-89916000D03*
X165608000Y-89408000D03*
X164592000Y-89408000D03*
X166116000Y-90424000D03*
X165100000Y-89916000D03*
X163068000Y-89408000D03*
X164592000Y-89916000D03*
X163576000Y-89408000D03*
X164084000Y-89916000D03*
X167132000Y-97663000D03*
X165100000Y-90424000D03*
X163068000Y-90424000D03*
X163576000Y-89916000D03*
%TO.N,/DRIVER/OPAMP3.+*%
X160781947Y-114555926D03*
X170307000Y-99693000D03*
%TO.N,/DRIVER/SHUNT3+*%
X168402000Y-90424000D03*
X171323000Y-97663000D03*
X169926000Y-90424000D03*
X170434000Y-90424000D03*
X171450000Y-89408000D03*
X171450000Y-89916000D03*
X170942000Y-89916000D03*
X169418000Y-90424000D03*
X168402000Y-89408000D03*
X170942000Y-90424000D03*
X170942000Y-89408000D03*
X169926000Y-89408000D03*
X171450000Y-90424000D03*
X168910000Y-90424000D03*
X170434000Y-89916000D03*
X169418000Y-89408000D03*
X168910000Y-89916000D03*
X170434000Y-89408000D03*
X168402000Y-89916000D03*
X169926000Y-89916000D03*
X169418000Y-89916000D03*
X168910000Y-89408000D03*
%TO.N,/DRIVER/GHA*%
X156570000Y-94424000D03*
X159108908Y-100664611D03*
%TO.N,/DRIVER/GLA*%
X159769127Y-98639230D03*
X157565000Y-94131297D03*
%TO.N,Net-(U3-TXD)*%
X164211000Y-104521000D03*
X150855000Y-106436500D03*
%TO.N,/CANFD/CANFD.RX*%
X163825579Y-106172880D03*
X155807899Y-107846088D03*
%TO.N,/ENCODER/SPI.MISO*%
X167120000Y-109890001D03*
%TO.N,/ENCODER/SPI.SCK*%
X166681296Y-109480679D03*
%TO.N,/ENCODER/SPI.SS*%
X166624000Y-107950000D03*
%TO.N,/ENCODER/SPI.MOSI*%
X167120000Y-110490000D03*
%TO.N,/DRIVER/GLC*%
X167698716Y-95150540D03*
X164134499Y-100900692D03*
%TO.N,/DRIVER/GLB*%
X162814000Y-94107000D03*
X162018640Y-97590092D03*
%TO.N,/DRIVER/GHB*%
X162315769Y-94461873D03*
X161405205Y-97663000D03*
%TO.N,/DRIVER/GHC*%
X163449000Y-100711000D03*
X167215734Y-94571734D03*
%TO.N,Net-(U4-EN)*%
X159639000Y-99695000D03*
X154432000Y-112774000D03*
D14*
%TO.N,Net-(D6-K)*%
X158567949Y-98353055D03*
D13*
%TO.N,Net-(Q1-G1)*%
X156464000Y-92774000D03*
%TO.N,Net-(D7-K)*%
X167259000Y-86678000D03*
%TO.N,Net-(Q2-G1)*%
X162233115Y-93036885D03*
%TO.N,Net-(Q3-G1)*%
X167232736Y-93062736D03*
%TO.N,Net-(D8-K)*%
X162052000Y-86678000D03*
%TO.N,/DRIVER/DRVOFF*%
X171089000Y-103271000D03*
X164684003Y-114554000D03*
%TO.N,Net-(D3-A)*%
X156845000Y-85076000D03*
%TO.N,Net-(J2-Pin_1)*%
X158496000Y-85090000D03*
X161544000Y-84582000D03*
X158496000Y-87122000D03*
X162560000Y-82042000D03*
X163576000Y-83058000D03*
X162052000Y-83058000D03*
X163068000Y-84074000D03*
X161544000Y-84074000D03*
X160020000Y-84074000D03*
X159512000Y-82550000D03*
X163068000Y-81534000D03*
X163576000Y-83566000D03*
X161036000Y-82550000D03*
X162560000Y-84582000D03*
X163068000Y-85090000D03*
X163576000Y-84582000D03*
X162560000Y-85090000D03*
X163576000Y-85598000D03*
X160020000Y-84582000D03*
X159512000Y-84074000D03*
X163068000Y-83058000D03*
X159512000Y-84582000D03*
X160020000Y-85090000D03*
X160528000Y-82042000D03*
X158496000Y-85598000D03*
X159004000Y-84582000D03*
X160528000Y-87122000D03*
X160020000Y-82042000D03*
X163576000Y-81534000D03*
X163068000Y-84582000D03*
X160528000Y-85598000D03*
X163576000Y-82550000D03*
X161036000Y-84582000D03*
X161036000Y-84074000D03*
X162052000Y-82042000D03*
X160528000Y-86106000D03*
X161544000Y-81534000D03*
X161036000Y-86614000D03*
X163068000Y-85598000D03*
X160020000Y-86106000D03*
X163068000Y-82042000D03*
X161036000Y-86106000D03*
X158496000Y-84582000D03*
X159004000Y-83058000D03*
X162560000Y-81534000D03*
X162052000Y-85090000D03*
X159512000Y-85598000D03*
X161544000Y-82550000D03*
X162052000Y-81534000D03*
X161036000Y-87122000D03*
X158496000Y-86614000D03*
X162052000Y-84074000D03*
X159512000Y-86614000D03*
X159512000Y-86106000D03*
X159004000Y-83566000D03*
X158496000Y-86106000D03*
X160020000Y-83566000D03*
X163576000Y-84074000D03*
X161036000Y-85090000D03*
X160528000Y-84074000D03*
X162052000Y-83566000D03*
X161036000Y-82042000D03*
X160528000Y-84582000D03*
X159512000Y-85090000D03*
X161544000Y-82042000D03*
X163068000Y-82550000D03*
X161544000Y-85598000D03*
X163576000Y-82042000D03*
X162560000Y-85598000D03*
X162560000Y-84074000D03*
X159004000Y-84074000D03*
X160528000Y-86614000D03*
X160528000Y-83058000D03*
X160528000Y-85090000D03*
X160020000Y-86614000D03*
X161036000Y-83058000D03*
X159512000Y-87122000D03*
X159512000Y-83566000D03*
X160528000Y-81534000D03*
X161544000Y-83058000D03*
X160528000Y-82550000D03*
X161544000Y-85090000D03*
X163068000Y-83566000D03*
X162560000Y-83058000D03*
X160020000Y-85598000D03*
X161036000Y-81534000D03*
X158496000Y-83566000D03*
X162560000Y-82550000D03*
X160020000Y-87122000D03*
X161544000Y-83566000D03*
X159512000Y-83058000D03*
X160020000Y-83058000D03*
X158496000Y-84074000D03*
X159004000Y-85090000D03*
X160528000Y-83566000D03*
X162052000Y-84582000D03*
X161036000Y-83566000D03*
X159004000Y-85598000D03*
X161036000Y-85598000D03*
X162052000Y-85598000D03*
X162052000Y-82550000D03*
X159004000Y-86106000D03*
X163576000Y-85090000D03*
X160020000Y-82550000D03*
X159004000Y-87122000D03*
X159004000Y-86614000D03*
X162560000Y-83566000D03*
%TO.N,Net-(J2-Pin_3)*%
X170434000Y-84582000D03*
X170942000Y-84074000D03*
X171450000Y-84582000D03*
X168402000Y-85090000D03*
X170434000Y-83058000D03*
X170942000Y-84582000D03*
X170942000Y-81534000D03*
X171450000Y-85090000D03*
X168910000Y-83058000D03*
X171450000Y-81534000D03*
X168910000Y-84074000D03*
X168910000Y-87122000D03*
X168402000Y-84582000D03*
X168402000Y-85598000D03*
X169418000Y-86106000D03*
X171450000Y-83566000D03*
X169926000Y-84074000D03*
X170434000Y-84074000D03*
X169926000Y-82550000D03*
X171450000Y-85598000D03*
X169926000Y-86106000D03*
X171450000Y-83058000D03*
X170942000Y-86614000D03*
X169926000Y-87122000D03*
X168910000Y-82042000D03*
X169418000Y-83566000D03*
X170434000Y-85090000D03*
X169418000Y-85090000D03*
X170434000Y-85598000D03*
X171450000Y-86106000D03*
X168402000Y-83566000D03*
X170434000Y-87122000D03*
X170942000Y-85598000D03*
X168402000Y-83058000D03*
X171450000Y-84074000D03*
X168402000Y-84074000D03*
X169418000Y-87122000D03*
X169926000Y-83058000D03*
X169926000Y-84582000D03*
X168910000Y-82550000D03*
X170434000Y-82042000D03*
X169926000Y-85598000D03*
X168910000Y-86106000D03*
X169418000Y-84582000D03*
X171450000Y-86614000D03*
X170434000Y-86614000D03*
X171450000Y-87122000D03*
X169418000Y-85598000D03*
X169418000Y-84074000D03*
X169926000Y-83566000D03*
X169418000Y-82042000D03*
X168910000Y-85598000D03*
X169418000Y-86614000D03*
X170942000Y-83058000D03*
X170434000Y-81534000D03*
X170434000Y-82550000D03*
X168910000Y-83566000D03*
X168402000Y-81534000D03*
X169418000Y-81534000D03*
X170434000Y-86106000D03*
X168910000Y-85090000D03*
X168402000Y-82042000D03*
X169926000Y-81534000D03*
X169926000Y-85090000D03*
X170942000Y-82042000D03*
X169926000Y-86614000D03*
X169418000Y-82550000D03*
X168402000Y-86106000D03*
X170942000Y-82550000D03*
X169926000Y-82042000D03*
X168402000Y-82550000D03*
X170434000Y-83566000D03*
X168910000Y-81534000D03*
X170942000Y-85090000D03*
X170942000Y-86106000D03*
X168910000Y-84582000D03*
X170942000Y-83566000D03*
X168910000Y-86614000D03*
X171450000Y-82550000D03*
X171450000Y-82042000D03*
X169418000Y-83058000D03*
X170942000Y-87122000D03*
%TO.N,Net-(J2-Pin_2)*%
X166370000Y-83058000D03*
X166878000Y-81534000D03*
X166878000Y-82550000D03*
X164592000Y-86106000D03*
X166878000Y-84582000D03*
X164846000Y-83058000D03*
X165100000Y-86106000D03*
X164846000Y-82042000D03*
X166116000Y-86614000D03*
X165608000Y-86614000D03*
X165354000Y-84074000D03*
X165354000Y-83566000D03*
X165608000Y-86106000D03*
X166878000Y-85598000D03*
X165354000Y-81534000D03*
X164084000Y-87122000D03*
X165354000Y-83058000D03*
X164846000Y-85090000D03*
X164846000Y-84582000D03*
X166370000Y-85598000D03*
X164592000Y-87122000D03*
X165862000Y-82042000D03*
X165862000Y-83058000D03*
X166370000Y-84582000D03*
X166878000Y-85090000D03*
X166370000Y-84074000D03*
X166878000Y-83566000D03*
X165100000Y-86614000D03*
X166370000Y-82550000D03*
X165354000Y-82550000D03*
X166370000Y-82042000D03*
X165862000Y-82550000D03*
X165862000Y-83566000D03*
X165354000Y-85598000D03*
X165100000Y-87122000D03*
X166878000Y-82042000D03*
X165354000Y-84582000D03*
X164084000Y-86614000D03*
X164846000Y-85598000D03*
X166370000Y-83566000D03*
X166116000Y-87122000D03*
X165862000Y-81534000D03*
X164592000Y-86614000D03*
X164846000Y-82550000D03*
X166370000Y-85090000D03*
X164846000Y-83566000D03*
X165862000Y-84074000D03*
X165608000Y-87122000D03*
X166370000Y-81534000D03*
X165862000Y-84582000D03*
X164846000Y-84074000D03*
X165354000Y-85090000D03*
X166116000Y-86106000D03*
X165862000Y-85598000D03*
X164846000Y-81534000D03*
X163576000Y-86868000D03*
X166878000Y-83058000D03*
X165354000Y-82042000D03*
X166878000Y-84074000D03*
X165862000Y-85090000D03*
%TO.N,Net-(J6-Pin_7)*%
X169320000Y-114935000D03*
X168529000Y-104823000D03*
%TO.N,Net-(J6-Pin_3)*%
X168402000Y-116967000D03*
X169300000Y-108204000D03*
%TO.N,Net-(D9-K)*%
X156845000Y-86678000D03*
%TD*%
D15*
%TO.N,Net-(U4-EN)*%
X158277295Y-106899400D02*
X159526295Y-105650400D01*
X159526295Y-105650400D02*
X159639000Y-105650400D01*
X158277295Y-106914000D02*
X158277295Y-106899400D01*
X154432000Y-110759295D02*
X158277295Y-106914000D01*
X154432000Y-112774000D02*
X154432000Y-110759295D01*
X159639000Y-105650400D02*
X159639000Y-99695000D01*
D16*
%TO.N,+24V*%
X158369000Y-95189000D02*
X158369000Y-96000400D01*
X159131000Y-94427000D02*
X158369000Y-95189000D01*
X158369000Y-96000400D02*
X155368200Y-99001200D01*
%TD*%
%TA.AperFunction,Conductor*%
%TO.N,+24V*%
G36*
X156534039Y-88030685D02*
G01*
X156579794Y-88083489D01*
X156591000Y-88135000D01*
X156591000Y-90551000D01*
X157099000Y-91059000D01*
X171580000Y-91059000D01*
X171647039Y-91078685D01*
X171692794Y-91131489D01*
X171704000Y-91183000D01*
X171704000Y-94872000D01*
X171684315Y-94939039D01*
X171631511Y-94984794D01*
X171580000Y-94996000D01*
X168143541Y-94996000D01*
X168076502Y-94976315D01*
X168036154Y-94934000D01*
X168019196Y-94904627D01*
X167944629Y-94830060D01*
X167853303Y-94777333D01*
X167751443Y-94750040D01*
X167740234Y-94750040D01*
X167673195Y-94730355D01*
X167627440Y-94677551D01*
X167616234Y-94626040D01*
X167616234Y-94519009D01*
X167616234Y-94519007D01*
X167588941Y-94417147D01*
X167536214Y-94325821D01*
X167461647Y-94251254D01*
X167370321Y-94198527D01*
X167268461Y-94171234D01*
X167163007Y-94171234D01*
X167061147Y-94198527D01*
X167061144Y-94198528D01*
X166969819Y-94251255D01*
X166895255Y-94325819D01*
X166842528Y-94417144D01*
X166842527Y-94417147D01*
X166815234Y-94519007D01*
X166815234Y-94624461D01*
X166842527Y-94726321D01*
X166890841Y-94810003D01*
X166907313Y-94877899D01*
X166884461Y-94943926D01*
X166829540Y-94987117D01*
X166783453Y-94996000D01*
X162647397Y-94996000D01*
X162580358Y-94976315D01*
X162534603Y-94923511D01*
X162524659Y-94854353D01*
X162553684Y-94790797D01*
X162559716Y-94784319D01*
X162593995Y-94750040D01*
X162636249Y-94707786D01*
X162688976Y-94616460D01*
X162693545Y-94599404D01*
X162729910Y-94539746D01*
X162792757Y-94509217D01*
X162813320Y-94507500D01*
X162866725Y-94507500D01*
X162866727Y-94507500D01*
X162968587Y-94480207D01*
X163059913Y-94427480D01*
X163134480Y-94352913D01*
X163187207Y-94261587D01*
X163214500Y-94159727D01*
X163214500Y-94054273D01*
X163187207Y-93952413D01*
X163134480Y-93861087D01*
X163059913Y-93786520D01*
X162968587Y-93733793D01*
X162866727Y-93706500D01*
X162761273Y-93706500D01*
X162659413Y-93733793D01*
X162659410Y-93733794D01*
X162568085Y-93786521D01*
X162493521Y-93861085D01*
X162440794Y-93952410D01*
X162440794Y-93952411D01*
X162440793Y-93952413D01*
X162436223Y-93969468D01*
X162399859Y-94029127D01*
X162337012Y-94059656D01*
X162316449Y-94061373D01*
X162263042Y-94061373D01*
X162161182Y-94088666D01*
X162161179Y-94088667D01*
X162069854Y-94141394D01*
X161995290Y-94215958D01*
X161942563Y-94307283D01*
X161942562Y-94307286D01*
X161915269Y-94409146D01*
X161915269Y-94514600D01*
X161937993Y-94599406D01*
X161942562Y-94616459D01*
X161942563Y-94616462D01*
X161995290Y-94707787D01*
X162071822Y-94784319D01*
X162105307Y-94845642D01*
X162100323Y-94915334D01*
X162058451Y-94971267D01*
X161992987Y-94995684D01*
X161984141Y-94996000D01*
X158366000Y-94996000D01*
X158298961Y-94976315D01*
X158253206Y-94923511D01*
X158242000Y-94872000D01*
X158242000Y-93488500D01*
X158261685Y-93421461D01*
X158314489Y-93375706D01*
X158366000Y-93364500D01*
X158421725Y-93364500D01*
X158421727Y-93364500D01*
X158523587Y-93337207D01*
X158614913Y-93284480D01*
X158689480Y-93209913D01*
X158742207Y-93118587D01*
X158769500Y-93016727D01*
X158769500Y-92984158D01*
X161832615Y-92984158D01*
X161832615Y-93089612D01*
X161859908Y-93191472D01*
X161912635Y-93282798D01*
X161987202Y-93357365D01*
X162078528Y-93410092D01*
X162180388Y-93437385D01*
X162180390Y-93437385D01*
X162285840Y-93437385D01*
X162285842Y-93437385D01*
X162387702Y-93410092D01*
X162479028Y-93357365D01*
X162553595Y-93282798D01*
X162606322Y-93191472D01*
X162633615Y-93089612D01*
X162633615Y-92984158D01*
X162614086Y-92911273D01*
X163175500Y-92911273D01*
X163175500Y-93016727D01*
X163202793Y-93118587D01*
X163255520Y-93209913D01*
X163330087Y-93284480D01*
X163421413Y-93337207D01*
X163523273Y-93364500D01*
X163523275Y-93364500D01*
X163628725Y-93364500D01*
X163628727Y-93364500D01*
X163730587Y-93337207D01*
X163821913Y-93284480D01*
X163896480Y-93209913D01*
X163949207Y-93118587D01*
X163976500Y-93016727D01*
X163976500Y-93010009D01*
X166832236Y-93010009D01*
X166832236Y-93115463D01*
X166859529Y-93217323D01*
X166912256Y-93308649D01*
X166986823Y-93383216D01*
X167078149Y-93435943D01*
X167180009Y-93463236D01*
X167180011Y-93463236D01*
X167285461Y-93463236D01*
X167285463Y-93463236D01*
X167387323Y-93435943D01*
X167478649Y-93383216D01*
X167553216Y-93308649D01*
X167605943Y-93217323D01*
X167633236Y-93115463D01*
X167633236Y-93010009D01*
X167606780Y-92911273D01*
X168509500Y-92911273D01*
X168509500Y-93016727D01*
X168536793Y-93118587D01*
X168589520Y-93209913D01*
X168664087Y-93284480D01*
X168755413Y-93337207D01*
X168857273Y-93364500D01*
X168857275Y-93364500D01*
X168962725Y-93364500D01*
X168962727Y-93364500D01*
X169064587Y-93337207D01*
X169155913Y-93284480D01*
X169230480Y-93209913D01*
X169283207Y-93118587D01*
X169310500Y-93016727D01*
X169310500Y-92911273D01*
X169283207Y-92809413D01*
X169230480Y-92718087D01*
X169155913Y-92643520D01*
X169064587Y-92590793D01*
X168962727Y-92563500D01*
X168857273Y-92563500D01*
X168755413Y-92590793D01*
X168755410Y-92590794D01*
X168664085Y-92643521D01*
X168589521Y-92718085D01*
X168536794Y-92809410D01*
X168536793Y-92809413D01*
X168509500Y-92911273D01*
X167606780Y-92911273D01*
X167605943Y-92908149D01*
X167553216Y-92816823D01*
X167478649Y-92742256D01*
X167387323Y-92689529D01*
X167285463Y-92662236D01*
X167180009Y-92662236D01*
X167078149Y-92689529D01*
X167078146Y-92689530D01*
X166986821Y-92742257D01*
X166912257Y-92816821D01*
X166859530Y-92908146D01*
X166859529Y-92908149D01*
X166832236Y-93010009D01*
X163976500Y-93010009D01*
X163976500Y-92911273D01*
X163949207Y-92809413D01*
X163896480Y-92718087D01*
X163821913Y-92643520D01*
X163730587Y-92590793D01*
X163628727Y-92563500D01*
X163523273Y-92563500D01*
X163421413Y-92590793D01*
X163421410Y-92590794D01*
X163330085Y-92643521D01*
X163255521Y-92718085D01*
X163202794Y-92809410D01*
X163202793Y-92809413D01*
X163175500Y-92911273D01*
X162614086Y-92911273D01*
X162606322Y-92882298D01*
X162553595Y-92790972D01*
X162479028Y-92716405D01*
X162387702Y-92663678D01*
X162285842Y-92636385D01*
X162180388Y-92636385D01*
X162078528Y-92663678D01*
X162078525Y-92663679D01*
X161987200Y-92716406D01*
X161912636Y-92790970D01*
X161859909Y-92882295D01*
X161859908Y-92882298D01*
X161832615Y-92984158D01*
X158769500Y-92984158D01*
X158769500Y-92911273D01*
X158742207Y-92809413D01*
X158689480Y-92718087D01*
X158614913Y-92643520D01*
X158523587Y-92590793D01*
X158421727Y-92563500D01*
X158366000Y-92563500D01*
X158298961Y-92543815D01*
X158253206Y-92491011D01*
X158242000Y-92439500D01*
X158242000Y-92075000D01*
X151435362Y-92075000D01*
X151405921Y-92066355D01*
X151375935Y-92059832D01*
X151370919Y-92056077D01*
X151368323Y-92055315D01*
X151347681Y-92038681D01*
X151293319Y-91984319D01*
X151259834Y-91922996D01*
X151257000Y-91896638D01*
X151257000Y-88135000D01*
X151276685Y-88067961D01*
X151329489Y-88022206D01*
X151381000Y-88011000D01*
X156467000Y-88011000D01*
X156534039Y-88030685D01*
G37*
%TD.AperFunction*%
%TD*%
%TA.AperFunction,Conductor*%
%TO.N,GND*%
G36*
X167241255Y-94991919D02*
G01*
X167287010Y-95044723D01*
X167298216Y-95096234D01*
X167298216Y-95097813D01*
X167298216Y-95203267D01*
X167325509Y-95305127D01*
X167378236Y-95396453D01*
X167452803Y-95471020D01*
X167544129Y-95523747D01*
X167645989Y-95551040D01*
X167645991Y-95551040D01*
X167751441Y-95551040D01*
X167751443Y-95551040D01*
X167853303Y-95523747D01*
X167944629Y-95471020D01*
X168019196Y-95396453D01*
X168071923Y-95305127D01*
X168075063Y-95293406D01*
X168111428Y-95233746D01*
X168174275Y-95203217D01*
X168194838Y-95201500D01*
X171579991Y-95201500D01*
X171580000Y-95201500D01*
X171623684Y-95196803D01*
X171649141Y-95191265D01*
X171718833Y-95196249D01*
X171774766Y-95238120D01*
X171799184Y-95303584D01*
X171799500Y-95312431D01*
X171799500Y-97273745D01*
X171779815Y-97340784D01*
X171727011Y-97386539D01*
X171657853Y-97396483D01*
X171594297Y-97367458D01*
X171587819Y-97361426D01*
X171568914Y-97342521D01*
X171568913Y-97342520D01*
X171491799Y-97297998D01*
X171477589Y-97289794D01*
X171477588Y-97289793D01*
X171477587Y-97289793D01*
X171375727Y-97262500D01*
X171270273Y-97262500D01*
X171168413Y-97289793D01*
X171168410Y-97289794D01*
X171077085Y-97342521D01*
X171002521Y-97417085D01*
X170949794Y-97508410D01*
X170949793Y-97508413D01*
X170922500Y-97610273D01*
X170922500Y-97715727D01*
X170949793Y-97817587D01*
X171002520Y-97908913D01*
X171077087Y-97983480D01*
X171168413Y-98036207D01*
X171270273Y-98063500D01*
X171270275Y-98063500D01*
X171375725Y-98063500D01*
X171375727Y-98063500D01*
X171477587Y-98036207D01*
X171568913Y-97983480D01*
X171587819Y-97964574D01*
X171649142Y-97931089D01*
X171718834Y-97936073D01*
X171774767Y-97977945D01*
X171799184Y-98043409D01*
X171799500Y-98052255D01*
X171799500Y-107078931D01*
X171834626Y-107232826D01*
X171903114Y-107375042D01*
X171903116Y-107375045D01*
X171903117Y-107375046D01*
X172001538Y-107498462D01*
X172038312Y-107527788D01*
X172078453Y-107584976D01*
X172085000Y-107624736D01*
X172085000Y-112372985D01*
X172065315Y-112440024D01*
X172048677Y-112460670D01*
X171955913Y-112553425D01*
X171955909Y-112553430D01*
X171879249Y-112668145D01*
X171879247Y-112668147D01*
X171879247Y-112668149D01*
X171865864Y-112700453D01*
X171826435Y-112795622D01*
X171812448Y-112865911D01*
X171799507Y-112930945D01*
X171799504Y-112960108D01*
X171799500Y-112960118D01*
X171799500Y-112993897D01*
X171799500Y-112996298D01*
X171799500Y-112999946D01*
X171799495Y-113052795D01*
X171799500Y-113052842D01*
X171799500Y-119490242D01*
X171797973Y-119509639D01*
X171797973Y-119509641D01*
X171787913Y-119573154D01*
X171775925Y-119610049D01*
X171751217Y-119658542D01*
X171728413Y-119689929D01*
X171689929Y-119728413D01*
X171658542Y-119751217D01*
X171610049Y-119775925D01*
X171573154Y-119787913D01*
X171535734Y-119793840D01*
X171509639Y-119797973D01*
X171490243Y-119799500D01*
X150509757Y-119799500D01*
X150490360Y-119797973D01*
X150449549Y-119791509D01*
X150426845Y-119787913D01*
X150389950Y-119775925D01*
X150341457Y-119751217D01*
X150310070Y-119728413D01*
X150271586Y-119689929D01*
X150248782Y-119658542D01*
X150224073Y-119610046D01*
X150212086Y-119573152D01*
X150211427Y-119568993D01*
X150202027Y-119509639D01*
X150200500Y-119490242D01*
X150200500Y-119380000D01*
X162560000Y-119380000D01*
X164592000Y-119380000D01*
X164592000Y-118946273D01*
X168017500Y-118946273D01*
X168017500Y-119051727D01*
X168044793Y-119153587D01*
X168097520Y-119244913D01*
X168172087Y-119319480D01*
X168263413Y-119372207D01*
X168365273Y-119399500D01*
X168365275Y-119399500D01*
X168470725Y-119399500D01*
X168470727Y-119399500D01*
X168572587Y-119372207D01*
X168663913Y-119319480D01*
X168738480Y-119244913D01*
X168791207Y-119153587D01*
X168818500Y-119051727D01*
X168818500Y-118946273D01*
X168791207Y-118844413D01*
X168738480Y-118753087D01*
X168663913Y-118678520D01*
X168572587Y-118625793D01*
X168470727Y-118598500D01*
X168365273Y-118598500D01*
X168263413Y-118625793D01*
X168263410Y-118625794D01*
X168172085Y-118678521D01*
X168097521Y-118753085D01*
X168044794Y-118844410D01*
X168044793Y-118844413D01*
X168017500Y-118946273D01*
X164592000Y-118946273D01*
X164592000Y-116914273D01*
X168001500Y-116914273D01*
X168001500Y-117019727D01*
X168028793Y-117121587D01*
X168081520Y-117212913D01*
X168156087Y-117287480D01*
X168247413Y-117340207D01*
X168349273Y-117367500D01*
X168349275Y-117367500D01*
X168454725Y-117367500D01*
X168454727Y-117367500D01*
X168556587Y-117340207D01*
X168647913Y-117287480D01*
X168722480Y-117212913D01*
X168775207Y-117121587D01*
X168802500Y-117019727D01*
X168802500Y-116914273D01*
X168775207Y-116812413D01*
X168722480Y-116721087D01*
X168647913Y-116646520D01*
X168556587Y-116593793D01*
X168454727Y-116566500D01*
X168349273Y-116566500D01*
X168247413Y-116593793D01*
X168247410Y-116593794D01*
X168156085Y-116646521D01*
X168081521Y-116721085D01*
X168028794Y-116812410D01*
X168028793Y-116812413D01*
X168001500Y-116914273D01*
X164592000Y-116914273D01*
X164592000Y-116840000D01*
X162560000Y-116840000D01*
X162560000Y-119380000D01*
X150200500Y-119380000D01*
X150200500Y-117792073D01*
X150220185Y-117725034D01*
X150272989Y-117679279D01*
X150342147Y-117669335D01*
X150405703Y-117698360D01*
X150412181Y-117704392D01*
X150540088Y-117832299D01*
X150540092Y-117832302D01*
X150695762Y-117936318D01*
X150695768Y-117936321D01*
X150695769Y-117936322D01*
X150868749Y-118007973D01*
X151052379Y-118044499D01*
X151052383Y-118044500D01*
X151052384Y-118044500D01*
X151239617Y-118044500D01*
X151239618Y-118044499D01*
X151423251Y-118007973D01*
X151596231Y-117936322D01*
X151751908Y-117832302D01*
X151884302Y-117699908D01*
X151988322Y-117544231D01*
X152031439Y-117440138D01*
X152075280Y-117385734D01*
X152141574Y-117363669D01*
X152209273Y-117380948D01*
X152256884Y-117432085D01*
X152260561Y-117440138D01*
X152303674Y-117544224D01*
X152303681Y-117544237D01*
X152407697Y-117699907D01*
X152407700Y-117699911D01*
X152540088Y-117832299D01*
X152540092Y-117832302D01*
X152695762Y-117936318D01*
X152695768Y-117936321D01*
X152695769Y-117936322D01*
X152868749Y-118007973D01*
X153052379Y-118044499D01*
X153052383Y-118044500D01*
X153052384Y-118044500D01*
X153239617Y-118044500D01*
X153239618Y-118044499D01*
X153423251Y-118007973D01*
X153596231Y-117936322D01*
X153751908Y-117832302D01*
X153884302Y-117699908D01*
X153988322Y-117544231D01*
X154059973Y-117371251D01*
X154096500Y-117187616D01*
X154096500Y-117000384D01*
X154059973Y-116816749D01*
X153991930Y-116652480D01*
X153988323Y-116643771D01*
X153988318Y-116643762D01*
X153884302Y-116488092D01*
X153884299Y-116488088D01*
X153751911Y-116355700D01*
X153751907Y-116355697D01*
X153637531Y-116279273D01*
X159365500Y-116279273D01*
X159365500Y-116384727D01*
X159388994Y-116472406D01*
X159392793Y-116486586D01*
X159392794Y-116486589D01*
X159393662Y-116488092D01*
X159445520Y-116577913D01*
X159520087Y-116652480D01*
X159611413Y-116705207D01*
X159713273Y-116732500D01*
X159713275Y-116732500D01*
X159818725Y-116732500D01*
X159818727Y-116732500D01*
X159920587Y-116705207D01*
X160011913Y-116652480D01*
X160086480Y-116577913D01*
X160139207Y-116486587D01*
X160166500Y-116384727D01*
X160166500Y-116279273D01*
X160139207Y-116177413D01*
X160086480Y-116086087D01*
X160046866Y-116046473D01*
X166985500Y-116046473D01*
X166985500Y-116151927D01*
X167012793Y-116253787D01*
X167065520Y-116345113D01*
X167140087Y-116419680D01*
X167231413Y-116472407D01*
X167333273Y-116499700D01*
X167333275Y-116499700D01*
X167438725Y-116499700D01*
X167438727Y-116499700D01*
X167540587Y-116472407D01*
X167631913Y-116419680D01*
X167706480Y-116345113D01*
X167759207Y-116253787D01*
X167786500Y-116151927D01*
X167786500Y-116046473D01*
X167759207Y-115944613D01*
X167706480Y-115853287D01*
X167631913Y-115778720D01*
X167540587Y-115725993D01*
X167438727Y-115698700D01*
X167333273Y-115698700D01*
X167231413Y-115725993D01*
X167231410Y-115725994D01*
X167140085Y-115778721D01*
X167065521Y-115853285D01*
X167012794Y-115944610D01*
X167012793Y-115944613D01*
X166985500Y-116046473D01*
X160046866Y-116046473D01*
X160011913Y-116011520D01*
X159922631Y-115959973D01*
X159920589Y-115958794D01*
X159920588Y-115958793D01*
X159920587Y-115958793D01*
X159818727Y-115931500D01*
X159713273Y-115931500D01*
X159611413Y-115958793D01*
X159611410Y-115958794D01*
X159520085Y-116011521D01*
X159445521Y-116086085D01*
X159392794Y-116177410D01*
X159392793Y-116177413D01*
X159365500Y-116279273D01*
X153637531Y-116279273D01*
X153596237Y-116251681D01*
X153596228Y-116251676D01*
X153491210Y-116208177D01*
X153434194Y-116184560D01*
X153379793Y-116140720D01*
X153357728Y-116074426D01*
X153375007Y-116006727D01*
X153426144Y-115959116D01*
X153434186Y-115955443D01*
X153596231Y-115888322D01*
X153751908Y-115784302D01*
X153884302Y-115651908D01*
X153975599Y-115515273D01*
X161145500Y-115515273D01*
X161145500Y-115620727D01*
X161172793Y-115722587D01*
X161225520Y-115813913D01*
X161300087Y-115888480D01*
X161391413Y-115941207D01*
X161493273Y-115968500D01*
X161493275Y-115968500D01*
X161598725Y-115968500D01*
X161598727Y-115968500D01*
X161700587Y-115941207D01*
X161791913Y-115888480D01*
X161866480Y-115813913D01*
X161919207Y-115722587D01*
X161946500Y-115620727D01*
X161946500Y-115517273D01*
X168017500Y-115517273D01*
X168017500Y-115622727D01*
X168044793Y-115724587D01*
X168097520Y-115815913D01*
X168172087Y-115890480D01*
X168263413Y-115943207D01*
X168365273Y-115970500D01*
X168365275Y-115970500D01*
X168470725Y-115970500D01*
X168470727Y-115970500D01*
X168572587Y-115943207D01*
X168663913Y-115890480D01*
X168738480Y-115815913D01*
X168791207Y-115724587D01*
X168818500Y-115622727D01*
X168818500Y-115517273D01*
X168791207Y-115415413D01*
X168738480Y-115324087D01*
X168663913Y-115249520D01*
X168572587Y-115196793D01*
X168470727Y-115169500D01*
X168365273Y-115169500D01*
X168263413Y-115196793D01*
X168263410Y-115196794D01*
X168172085Y-115249521D01*
X168097521Y-115324085D01*
X168044794Y-115415410D01*
X168044793Y-115415413D01*
X168017500Y-115517273D01*
X161946500Y-115517273D01*
X161946500Y-115515273D01*
X161919207Y-115413413D01*
X161866480Y-115322087D01*
X161791913Y-115247520D01*
X161700587Y-115194793D01*
X161598727Y-115167500D01*
X161493273Y-115167500D01*
X161391413Y-115194793D01*
X161391410Y-115194794D01*
X161300085Y-115247521D01*
X161225521Y-115322085D01*
X161172794Y-115413410D01*
X161172793Y-115413413D01*
X161145500Y-115515273D01*
X153975599Y-115515273D01*
X153988322Y-115496231D01*
X154059973Y-115323251D01*
X154096500Y-115139616D01*
X154096500Y-114952384D01*
X154059973Y-114768749D01*
X153988322Y-114595769D01*
X153988321Y-114595768D01*
X153988318Y-114595762D01*
X153884303Y-114440093D01*
X153884298Y-114440087D01*
X153817484Y-114373273D01*
X158857500Y-114373273D01*
X158857500Y-114478727D01*
X158884793Y-114580587D01*
X158937520Y-114671913D01*
X159012087Y-114746480D01*
X159103413Y-114799207D01*
X159205273Y-114826500D01*
X159205275Y-114826500D01*
X159310725Y-114826500D01*
X159310727Y-114826500D01*
X159412587Y-114799207D01*
X159503913Y-114746480D01*
X159578480Y-114671913D01*
X159631207Y-114580587D01*
X159651943Y-114503199D01*
X160381447Y-114503199D01*
X160381447Y-114608653D01*
X160408740Y-114710513D01*
X160461467Y-114801839D01*
X160536034Y-114876406D01*
X160627360Y-114929133D01*
X160729220Y-114956426D01*
X160729222Y-114956426D01*
X160834672Y-114956426D01*
X160834674Y-114956426D01*
X160936534Y-114929133D01*
X161027860Y-114876406D01*
X161102427Y-114801839D01*
X161155154Y-114710513D01*
X161182447Y-114608653D01*
X161182447Y-114503199D01*
X161181931Y-114501273D01*
X163683500Y-114501273D01*
X163683500Y-114606727D01*
X163710793Y-114708587D01*
X163763520Y-114799913D01*
X163838087Y-114874480D01*
X163929413Y-114927207D01*
X164031273Y-114954500D01*
X164031275Y-114954500D01*
X164136725Y-114954500D01*
X164136727Y-114954500D01*
X164238587Y-114927207D01*
X164322004Y-114879045D01*
X164389900Y-114862574D01*
X164445999Y-114879046D01*
X164529416Y-114927207D01*
X164631276Y-114954500D01*
X164631278Y-114954500D01*
X164736728Y-114954500D01*
X164736730Y-114954500D01*
X164838590Y-114927207D01*
X164916418Y-114882273D01*
X168919500Y-114882273D01*
X168919500Y-114987727D01*
X168946793Y-115089587D01*
X168999520Y-115180913D01*
X169074087Y-115255480D01*
X169165413Y-115308207D01*
X169267273Y-115335500D01*
X169267275Y-115335500D01*
X169372725Y-115335500D01*
X169372727Y-115335500D01*
X169474587Y-115308207D01*
X169565913Y-115255480D01*
X169640480Y-115180913D01*
X169693207Y-115089587D01*
X169720500Y-114987727D01*
X169720500Y-114882273D01*
X169693207Y-114780413D01*
X169640480Y-114689087D01*
X169565913Y-114614520D01*
X169474587Y-114561793D01*
X169372727Y-114534500D01*
X169267273Y-114534500D01*
X169165413Y-114561793D01*
X169165410Y-114561794D01*
X169074085Y-114614521D01*
X168999521Y-114689085D01*
X168946794Y-114780410D01*
X168946793Y-114780413D01*
X168919500Y-114882273D01*
X164916418Y-114882273D01*
X164929916Y-114874480D01*
X165004483Y-114799913D01*
X165057210Y-114708587D01*
X165084503Y-114606727D01*
X165084503Y-114501273D01*
X165057210Y-114399413D01*
X165004483Y-114308087D01*
X164929916Y-114233520D01*
X164838590Y-114180793D01*
X164736730Y-114153500D01*
X164631276Y-114153500D01*
X164529416Y-114180793D01*
X164529415Y-114180793D01*
X164445999Y-114228953D01*
X164378099Y-114245424D01*
X164322001Y-114228952D01*
X164238587Y-114180793D01*
X164136727Y-114153500D01*
X164031273Y-114153500D01*
X163929413Y-114180793D01*
X163929410Y-114180794D01*
X163838085Y-114233521D01*
X163763521Y-114308085D01*
X163710794Y-114399410D01*
X163710793Y-114399413D01*
X163683500Y-114501273D01*
X161181931Y-114501273D01*
X161155154Y-114401339D01*
X161102427Y-114310013D01*
X161027860Y-114235446D01*
X160936534Y-114182719D01*
X160834674Y-114155426D01*
X160729220Y-114155426D01*
X160627360Y-114182719D01*
X160627357Y-114182720D01*
X160536032Y-114235447D01*
X160461468Y-114310011D01*
X160408741Y-114401336D01*
X160408740Y-114401339D01*
X160381447Y-114503199D01*
X159651943Y-114503199D01*
X159658500Y-114478727D01*
X159658500Y-114373273D01*
X159631207Y-114271413D01*
X159578480Y-114180087D01*
X159503913Y-114105520D01*
X159412587Y-114052793D01*
X159310727Y-114025500D01*
X159205273Y-114025500D01*
X159103413Y-114052793D01*
X159103410Y-114052794D01*
X159012085Y-114105521D01*
X158937521Y-114180085D01*
X158884794Y-114271410D01*
X158884793Y-114271413D01*
X158857500Y-114373273D01*
X153817484Y-114373273D01*
X153751911Y-114307700D01*
X153751907Y-114307697D01*
X153596237Y-114203681D01*
X153596224Y-114203674D01*
X153492138Y-114160561D01*
X153437734Y-114116720D01*
X153415669Y-114050426D01*
X153432948Y-113982727D01*
X153484085Y-113935116D01*
X153492138Y-113931439D01*
X153596224Y-113888325D01*
X153596224Y-113888324D01*
X153596231Y-113888322D01*
X153751908Y-113784302D01*
X153884302Y-113651908D01*
X153988322Y-113496231D01*
X154059973Y-113323251D01*
X154080023Y-113222448D01*
X154112407Y-113160540D01*
X154173122Y-113125966D01*
X154242892Y-113129705D01*
X154263634Y-113139252D01*
X154277413Y-113147207D01*
X154379273Y-113174500D01*
X154379275Y-113174500D01*
X154484725Y-113174500D01*
X154484727Y-113174500D01*
X154586587Y-113147207D01*
X154653214Y-113108740D01*
X168892968Y-113108740D01*
X168892968Y-113214193D01*
X168920261Y-113316053D01*
X168920262Y-113316056D01*
X168930015Y-113332948D01*
X168972988Y-113407380D01*
X169047555Y-113481947D01*
X169138881Y-113534674D01*
X169240741Y-113561967D01*
X169240743Y-113561967D01*
X169346193Y-113561967D01*
X169346195Y-113561967D01*
X169448055Y-113534674D01*
X169539381Y-113481947D01*
X169613948Y-113407380D01*
X169666675Y-113316054D01*
X169693968Y-113214194D01*
X169693968Y-113108740D01*
X169666675Y-113006880D01*
X169613948Y-112915554D01*
X169539381Y-112840987D01*
X169472527Y-112802389D01*
X169448057Y-112788261D01*
X169448056Y-112788260D01*
X169448055Y-112788260D01*
X169346195Y-112760967D01*
X169240741Y-112760967D01*
X169138881Y-112788260D01*
X169138878Y-112788261D01*
X169047553Y-112840988D01*
X168972989Y-112915552D01*
X168920262Y-113006877D01*
X168920261Y-113006880D01*
X168892968Y-113108740D01*
X154653214Y-113108740D01*
X154677913Y-113094480D01*
X154752480Y-113019913D01*
X154805207Y-112928587D01*
X154832500Y-112826727D01*
X154832500Y-112760458D01*
X169943685Y-112760458D01*
X169943685Y-112865912D01*
X169970978Y-112967772D01*
X170023705Y-113059098D01*
X170098272Y-113133665D01*
X170189598Y-113186392D01*
X170291458Y-113213685D01*
X170291460Y-113213685D01*
X170396910Y-113213685D01*
X170396912Y-113213685D01*
X170498772Y-113186392D01*
X170590098Y-113133665D01*
X170664665Y-113059098D01*
X170717392Y-112967772D01*
X170744685Y-112865912D01*
X170744685Y-112760458D01*
X170717392Y-112658598D01*
X170664665Y-112567272D01*
X170590098Y-112492705D01*
X170499706Y-112440517D01*
X170498774Y-112439979D01*
X170498773Y-112439978D01*
X170498772Y-112439978D01*
X170396912Y-112412685D01*
X170291458Y-112412685D01*
X170189598Y-112439978D01*
X170189595Y-112439979D01*
X170098270Y-112492706D01*
X170023706Y-112567270D01*
X169970979Y-112658595D01*
X169970978Y-112658598D01*
X169943685Y-112760458D01*
X154832500Y-112760458D01*
X154832500Y-112721273D01*
X154805207Y-112619413D01*
X154791558Y-112595772D01*
X154776113Y-112569019D01*
X154759500Y-112507020D01*
X154759500Y-112088273D01*
X157333500Y-112088273D01*
X157333500Y-112193727D01*
X157345869Y-112239887D01*
X157360793Y-112295586D01*
X157360794Y-112295589D01*
X157374922Y-112320059D01*
X157413520Y-112386913D01*
X157488087Y-112461480D01*
X157579413Y-112514207D01*
X157681273Y-112541500D01*
X157681275Y-112541500D01*
X157786725Y-112541500D01*
X157786727Y-112541500D01*
X157888587Y-112514207D01*
X157979913Y-112461480D01*
X158020324Y-112421068D01*
X158081645Y-112387584D01*
X158151336Y-112392568D01*
X158169832Y-112402803D01*
X158170462Y-112401714D01*
X158177498Y-112405776D01*
X158177500Y-112405778D01*
X158268826Y-112458505D01*
X158370686Y-112485798D01*
X158370688Y-112485798D01*
X158476138Y-112485798D01*
X158476140Y-112485798D01*
X158578000Y-112458505D01*
X158669326Y-112405778D01*
X158743893Y-112331211D01*
X158796620Y-112239885D01*
X158823913Y-112138025D01*
X158823913Y-112032571D01*
X158796620Y-111930711D01*
X158743893Y-111839385D01*
X158669326Y-111764818D01*
X158578000Y-111712091D01*
X158476140Y-111684798D01*
X158370686Y-111684798D01*
X158268826Y-111712091D01*
X158268823Y-111712092D01*
X158177498Y-111764819D01*
X158137086Y-111805230D01*
X158075762Y-111838714D01*
X158006071Y-111833728D01*
X157987583Y-111823488D01*
X157986951Y-111824584D01*
X157979914Y-111820521D01*
X157979913Y-111820520D01*
X157888587Y-111767793D01*
X157786727Y-111740500D01*
X157681273Y-111740500D01*
X157579413Y-111767793D01*
X157579410Y-111767794D01*
X157488085Y-111820521D01*
X157413521Y-111895085D01*
X157360794Y-111986410D01*
X157360793Y-111986413D01*
X157333500Y-112088273D01*
X154759500Y-112088273D01*
X154759500Y-110946312D01*
X154779185Y-110879273D01*
X154795819Y-110858631D01*
X156033951Y-109620499D01*
X157302007Y-108352442D01*
X157323946Y-108340463D01*
X157343600Y-108325007D01*
X157354085Y-108324005D01*
X157363328Y-108318959D01*
X157388265Y-108320742D01*
X157413154Y-108318366D01*
X157422514Y-108323191D01*
X157433020Y-108323943D01*
X157453034Y-108338925D01*
X157475256Y-108350382D01*
X157485158Y-108362974D01*
X157488953Y-108365815D01*
X157497073Y-108378125D01*
X157508393Y-108397732D01*
X157524866Y-108465633D01*
X157508394Y-108521731D01*
X157487793Y-108557412D01*
X157487793Y-108557413D01*
X157460500Y-108659273D01*
X157460500Y-108764726D01*
X157487793Y-108866586D01*
X157487793Y-108866587D01*
X157509394Y-108904001D01*
X157525866Y-108971901D01*
X157509394Y-109027999D01*
X157487793Y-109065412D01*
X157487793Y-109065413D01*
X157460500Y-109167273D01*
X157460500Y-109272727D01*
X157487793Y-109374587D01*
X157540520Y-109465913D01*
X157615087Y-109540480D01*
X157706413Y-109593207D01*
X157808273Y-109620500D01*
X157808275Y-109620500D01*
X157913725Y-109620500D01*
X157913727Y-109620500D01*
X158015587Y-109593207D01*
X158106913Y-109540480D01*
X158181480Y-109465913D01*
X158203397Y-109427952D01*
X166280796Y-109427952D01*
X166280796Y-109533406D01*
X166308089Y-109635266D01*
X166360816Y-109726592D01*
X166435383Y-109801159D01*
X166526709Y-109853886D01*
X166628569Y-109881179D01*
X166628571Y-109881179D01*
X166636419Y-109883282D01*
X166635719Y-109885894D01*
X166687464Y-109908774D01*
X166721324Y-109954501D01*
X166724857Y-109962724D01*
X166746793Y-110044588D01*
X166798606Y-110134332D01*
X166801489Y-110141039D01*
X166804839Y-110168758D01*
X166811424Y-110195898D01*
X166809083Y-110203867D01*
X166809874Y-110210404D01*
X166802990Y-110224620D01*
X166794952Y-110251998D01*
X166746793Y-110335412D01*
X166746793Y-110335413D01*
X166719500Y-110437273D01*
X166719500Y-110542727D01*
X166746793Y-110644587D01*
X166799520Y-110735913D01*
X166874087Y-110810480D01*
X166965413Y-110863207D01*
X167067273Y-110890500D01*
X167067275Y-110890500D01*
X167172725Y-110890500D01*
X167172727Y-110890500D01*
X167274587Y-110863207D01*
X167365913Y-110810480D01*
X167407391Y-110769002D01*
X169381500Y-110769002D01*
X169381500Y-110874456D01*
X169408793Y-110976316D01*
X169461520Y-111067642D01*
X169536087Y-111142209D01*
X169627413Y-111194936D01*
X169729273Y-111222229D01*
X169729275Y-111222229D01*
X169834725Y-111222229D01*
X169834727Y-111222229D01*
X169936587Y-111194936D01*
X170027913Y-111142209D01*
X170102480Y-111067642D01*
X170155207Y-110976316D01*
X170182500Y-110874456D01*
X170182500Y-110769002D01*
X170155207Y-110667142D01*
X170102480Y-110575816D01*
X170027913Y-110501249D01*
X169936587Y-110448522D01*
X169834727Y-110421229D01*
X169729273Y-110421229D01*
X169627413Y-110448522D01*
X169627410Y-110448523D01*
X169536085Y-110501250D01*
X169461521Y-110575814D01*
X169408794Y-110667139D01*
X169408793Y-110667142D01*
X169381500Y-110769002D01*
X167407391Y-110769002D01*
X167440480Y-110735913D01*
X167454186Y-110712172D01*
X167461865Y-110698874D01*
X167480185Y-110667142D01*
X167493207Y-110644587D01*
X167520500Y-110542727D01*
X167520500Y-110437273D01*
X167493207Y-110335413D01*
X167445047Y-110251998D01*
X167428575Y-110184100D01*
X167445046Y-110128005D01*
X167493207Y-110044588D01*
X167520500Y-109942728D01*
X167520500Y-109837274D01*
X167493207Y-109735414D01*
X167440480Y-109644088D01*
X167365913Y-109569521D01*
X167274587Y-109516794D01*
X167172727Y-109489501D01*
X167172726Y-109489501D01*
X167164877Y-109487398D01*
X167165575Y-109484791D01*
X167113805Y-109461883D01*
X167075340Y-109403555D01*
X167074132Y-109399350D01*
X167054503Y-109326092D01*
X167001776Y-109234766D01*
X166927209Y-109160199D01*
X166835883Y-109107472D01*
X166734023Y-109080179D01*
X166628569Y-109080179D01*
X166526709Y-109107472D01*
X166526706Y-109107473D01*
X166435381Y-109160200D01*
X166360817Y-109234764D01*
X166308090Y-109326089D01*
X166308089Y-109326092D01*
X166280796Y-109427952D01*
X158203397Y-109427952D01*
X158234207Y-109374587D01*
X158261500Y-109272727D01*
X158261500Y-109167273D01*
X158234207Y-109065413D01*
X158212606Y-109028000D01*
X158196133Y-108960101D01*
X158212607Y-108903999D01*
X158234207Y-108866587D01*
X158261500Y-108764727D01*
X158261500Y-108659273D01*
X158234207Y-108557413D01*
X158211605Y-108518266D01*
X158195133Y-108450367D01*
X158211605Y-108394269D01*
X158232207Y-108358587D01*
X158259500Y-108256727D01*
X158259500Y-108151273D01*
X158232207Y-108049413D01*
X158201935Y-107996981D01*
X158185462Y-107929083D01*
X158196471Y-107897273D01*
X166223500Y-107897273D01*
X166223500Y-108002727D01*
X166250793Y-108104587D01*
X166303520Y-108195913D01*
X166378087Y-108270480D01*
X166469413Y-108323207D01*
X166571273Y-108350500D01*
X166571275Y-108350500D01*
X166676725Y-108350500D01*
X166676727Y-108350500D01*
X166778587Y-108323207D01*
X166869913Y-108270480D01*
X166944480Y-108195913D01*
X166997207Y-108104587D01*
X167024500Y-108002727D01*
X167024500Y-107897273D01*
X166997207Y-107795413D01*
X166963192Y-107736497D01*
X166946720Y-107668601D01*
X166969572Y-107602574D01*
X167024493Y-107559383D01*
X167070580Y-107550500D01*
X167128525Y-107550500D01*
X167128527Y-107550500D01*
X167230387Y-107523207D01*
X167321713Y-107470480D01*
X167396280Y-107395913D01*
X167449007Y-107304587D01*
X167463571Y-107250234D01*
X168334500Y-107250234D01*
X168334500Y-107401766D01*
X168344460Y-107438936D01*
X168373719Y-107548136D01*
X168411602Y-107613750D01*
X168449485Y-107679365D01*
X168556635Y-107786515D01*
X168687865Y-107862281D01*
X168834234Y-107901500D01*
X168834235Y-107901500D01*
X168837795Y-107902454D01*
X168897456Y-107938819D01*
X168927985Y-108001666D01*
X168925477Y-108054321D01*
X168899500Y-108151271D01*
X168899500Y-108151273D01*
X168899500Y-108256727D01*
X168926793Y-108358587D01*
X168979520Y-108449913D01*
X169054087Y-108524480D01*
X169145413Y-108577207D01*
X169247273Y-108604500D01*
X169247275Y-108604500D01*
X169352725Y-108604500D01*
X169352727Y-108604500D01*
X169454587Y-108577207D01*
X169545913Y-108524480D01*
X169620480Y-108449913D01*
X169673207Y-108358587D01*
X169700500Y-108256727D01*
X169700500Y-108151273D01*
X169673207Y-108049413D01*
X169620480Y-107958087D01*
X169545913Y-107883520D01*
X169454587Y-107830793D01*
X169454585Y-107830792D01*
X169447080Y-107827684D01*
X169448420Y-107824447D01*
X169402504Y-107796465D01*
X169371970Y-107733620D01*
X169380259Y-107664244D01*
X169386857Y-107651059D01*
X169446281Y-107548135D01*
X169485500Y-107401766D01*
X169485500Y-107250234D01*
X169446281Y-107103865D01*
X169370515Y-106972635D01*
X169263365Y-106865485D01*
X169196742Y-106827020D01*
X169132136Y-106789719D01*
X169058950Y-106770109D01*
X168985766Y-106750500D01*
X168834234Y-106750500D01*
X168687863Y-106789719D01*
X168556635Y-106865485D01*
X168556632Y-106865487D01*
X168449487Y-106972632D01*
X168449485Y-106972635D01*
X168373719Y-107103863D01*
X168343783Y-107215589D01*
X168334500Y-107250234D01*
X167463571Y-107250234D01*
X167476300Y-107202727D01*
X167476300Y-107140712D01*
X167476548Y-107136801D01*
X167487205Y-107107506D01*
X167495985Y-107077607D01*
X167499048Y-107074952D01*
X167500435Y-107071142D01*
X167525237Y-107052259D01*
X167548789Y-107031852D01*
X167552800Y-107031275D01*
X167556027Y-107028819D01*
X167587100Y-107026343D01*
X167617947Y-107021908D01*
X167622892Y-107022922D01*
X167625583Y-107023277D01*
X167625676Y-107023270D01*
X167625724Y-107023295D01*
X167627271Y-107023499D01*
X167627273Y-107023500D01*
X167627275Y-107023500D01*
X167732725Y-107023500D01*
X167732727Y-107023500D01*
X167834587Y-106996207D01*
X167925913Y-106943480D01*
X168000480Y-106868913D01*
X168053207Y-106777587D01*
X168080500Y-106675727D01*
X168080500Y-106570273D01*
X168053207Y-106468413D01*
X168000480Y-106377087D01*
X167925913Y-106302520D01*
X167834587Y-106249793D01*
X167732727Y-106222500D01*
X167627273Y-106222500D01*
X167525413Y-106249793D01*
X167525410Y-106249794D01*
X167434085Y-106302521D01*
X167359521Y-106377085D01*
X167306794Y-106468410D01*
X167306793Y-106468413D01*
X167279500Y-106570273D01*
X167279500Y-106628353D01*
X167259815Y-106695392D01*
X167207011Y-106741147D01*
X167137853Y-106751091D01*
X167132908Y-106750077D01*
X167128528Y-106749500D01*
X167128527Y-106749500D01*
X167023073Y-106749500D01*
X166921213Y-106776793D01*
X166921210Y-106776794D01*
X166829885Y-106829521D01*
X166755321Y-106904085D01*
X166702594Y-106995410D01*
X166702593Y-106995413D01*
X166675300Y-107097273D01*
X166675300Y-107202727D01*
X166702593Y-107304587D01*
X166736607Y-107363502D01*
X166753080Y-107431399D01*
X166730228Y-107497426D01*
X166675307Y-107540617D01*
X166629220Y-107549500D01*
X166571273Y-107549500D01*
X166469413Y-107576793D01*
X166469410Y-107576794D01*
X166378085Y-107629521D01*
X166303521Y-107704085D01*
X166250794Y-107795410D01*
X166250793Y-107795413D01*
X166223500Y-107897273D01*
X158196471Y-107897273D01*
X158208314Y-107863056D01*
X158263234Y-107819865D01*
X158332788Y-107813223D01*
X158341411Y-107815206D01*
X158341413Y-107815207D01*
X158443273Y-107842500D01*
X158443275Y-107842500D01*
X158548725Y-107842500D01*
X158548727Y-107842500D01*
X158650587Y-107815207D01*
X158741913Y-107762480D01*
X158816480Y-107687913D01*
X158869207Y-107596587D01*
X158896500Y-107494727D01*
X158896500Y-107389273D01*
X158869207Y-107287413D01*
X158816480Y-107196087D01*
X158741913Y-107121520D01*
X158740110Y-107120479D01*
X158738893Y-107119203D01*
X158735467Y-107116574D01*
X158735877Y-107116039D01*
X158691897Y-107069910D01*
X158678677Y-107001302D01*
X158704648Y-106936439D01*
X158714426Y-106925422D01*
X159233805Y-106406043D01*
X159295126Y-106372560D01*
X159364818Y-106377544D01*
X159419859Y-106418238D01*
X159424518Y-106424310D01*
X159424520Y-106424313D01*
X159499087Y-106498880D01*
X159590413Y-106551607D01*
X159692273Y-106578900D01*
X159692275Y-106578900D01*
X159797725Y-106578900D01*
X159797727Y-106578900D01*
X159899587Y-106551607D01*
X159990913Y-106498880D01*
X160065480Y-106424313D01*
X160118207Y-106332987D01*
X160145500Y-106231127D01*
X160145500Y-106125673D01*
X160144021Y-106120153D01*
X163425079Y-106120153D01*
X163425079Y-106225607D01*
X163452372Y-106327467D01*
X163505099Y-106418793D01*
X163579666Y-106493360D01*
X163670992Y-106546087D01*
X163772852Y-106573380D01*
X163772854Y-106573380D01*
X163878304Y-106573380D01*
X163878306Y-106573380D01*
X163980166Y-106546087D01*
X164071492Y-106493360D01*
X164146059Y-106418793D01*
X164198786Y-106327467D01*
X164226079Y-106225607D01*
X164226079Y-106120153D01*
X164198786Y-106018293D01*
X164146059Y-105926967D01*
X164071492Y-105852400D01*
X163980166Y-105799673D01*
X163878306Y-105772380D01*
X163772852Y-105772380D01*
X163670992Y-105799673D01*
X163670989Y-105799674D01*
X163579664Y-105852401D01*
X163505100Y-105926965D01*
X163452373Y-106018290D01*
X163452372Y-106018293D01*
X163425079Y-106120153D01*
X160144021Y-106120153D01*
X160118207Y-106023813D01*
X160065480Y-105932487D01*
X159990913Y-105857920D01*
X159987539Y-105854546D01*
X159954054Y-105793223D01*
X159955444Y-105734773D01*
X159966500Y-105693516D01*
X159966500Y-105456273D01*
X164826500Y-105456273D01*
X164826500Y-105561727D01*
X164853793Y-105663587D01*
X164906520Y-105754913D01*
X164981087Y-105829480D01*
X165072413Y-105882207D01*
X165174273Y-105909500D01*
X165174275Y-105909500D01*
X165279725Y-105909500D01*
X165279727Y-105909500D01*
X165381587Y-105882207D01*
X165472913Y-105829480D01*
X165547480Y-105754913D01*
X165600207Y-105663587D01*
X165627500Y-105561727D01*
X165627500Y-105456273D01*
X165600207Y-105354413D01*
X165547480Y-105263087D01*
X165472913Y-105188520D01*
X165381587Y-105135793D01*
X165279727Y-105108500D01*
X165174273Y-105108500D01*
X165072413Y-105135793D01*
X165072410Y-105135794D01*
X164981085Y-105188521D01*
X164906521Y-105263085D01*
X164853794Y-105354410D01*
X164853793Y-105354413D01*
X164826500Y-105456273D01*
X159966500Y-105456273D01*
X159966500Y-105442462D01*
X159986185Y-105375423D01*
X160038989Y-105329668D01*
X160108147Y-105319724D01*
X160114366Y-105321000D01*
X160118159Y-105321499D01*
X160118161Y-105321500D01*
X160118163Y-105321500D01*
X160223613Y-105321500D01*
X160223615Y-105321500D01*
X160325475Y-105294207D01*
X160416801Y-105241480D01*
X160491368Y-105166913D01*
X160544095Y-105075587D01*
X160571388Y-104973727D01*
X160571388Y-104868273D01*
X160544095Y-104766413D01*
X160491368Y-104675087D01*
X160416801Y-104600520D01*
X160325475Y-104547793D01*
X160223615Y-104520500D01*
X160118161Y-104520500D01*
X160118159Y-104520500D01*
X160110105Y-104521561D01*
X160109769Y-104519011D01*
X160052716Y-104517640D01*
X159994863Y-104478464D01*
X159990502Y-104468273D01*
X163810500Y-104468273D01*
X163810500Y-104573727D01*
X163837793Y-104675587D01*
X163890520Y-104766913D01*
X163965087Y-104841480D01*
X164056413Y-104894207D01*
X164158273Y-104921500D01*
X164158275Y-104921500D01*
X164263725Y-104921500D01*
X164263727Y-104921500D01*
X164365587Y-104894207D01*
X164456913Y-104841480D01*
X164528120Y-104770273D01*
X168128500Y-104770273D01*
X168128500Y-104875727D01*
X168155793Y-104977587D01*
X168208520Y-105068913D01*
X168283087Y-105143480D01*
X168316395Y-105162710D01*
X168364609Y-105213277D01*
X168377831Y-105281884D01*
X168374168Y-105302189D01*
X168373719Y-105303865D01*
X168334500Y-105450234D01*
X168334500Y-105601766D01*
X168337048Y-105611275D01*
X168373719Y-105748136D01*
X168403475Y-105799674D01*
X168449485Y-105879365D01*
X168556635Y-105986515D01*
X168687865Y-106062281D01*
X168834234Y-106101500D01*
X168834236Y-106101500D01*
X168985764Y-106101500D01*
X168985766Y-106101500D01*
X169132135Y-106062281D01*
X169263365Y-105986515D01*
X169370515Y-105879365D01*
X169446281Y-105748135D01*
X169485500Y-105601766D01*
X169485500Y-105450234D01*
X169446281Y-105303865D01*
X169370515Y-105172635D01*
X169263365Y-105065485D01*
X169194975Y-105026000D01*
X169132136Y-104989719D01*
X169021407Y-104960050D01*
X168961746Y-104923685D01*
X168931217Y-104860838D01*
X168929500Y-104840275D01*
X168929500Y-104770275D01*
X168929500Y-104770273D01*
X168902207Y-104668413D01*
X168849480Y-104577087D01*
X168774913Y-104502520D01*
X168683587Y-104449793D01*
X168581727Y-104422500D01*
X168476273Y-104422500D01*
X168374413Y-104449793D01*
X168374410Y-104449794D01*
X168283085Y-104502521D01*
X168208521Y-104577085D01*
X168155794Y-104668410D01*
X168155793Y-104668413D01*
X168128500Y-104770273D01*
X164528120Y-104770273D01*
X164531480Y-104766913D01*
X164584207Y-104675587D01*
X164611500Y-104573727D01*
X164611500Y-104468273D01*
X164584207Y-104366413D01*
X164531480Y-104275087D01*
X164456913Y-104200520D01*
X164365587Y-104147793D01*
X164263727Y-104120500D01*
X164158273Y-104120500D01*
X164056413Y-104147793D01*
X164056410Y-104147794D01*
X163965085Y-104200521D01*
X163890521Y-104275085D01*
X163837794Y-104366410D01*
X163837793Y-104366413D01*
X163810500Y-104468273D01*
X159990502Y-104468273D01*
X159967374Y-104414230D01*
X159966500Y-104399537D01*
X159966500Y-103218273D01*
X170688500Y-103218273D01*
X170688500Y-103323727D01*
X170715793Y-103425587D01*
X170768520Y-103516913D01*
X170843087Y-103591480D01*
X170934413Y-103644207D01*
X171036273Y-103671500D01*
X171036275Y-103671500D01*
X171141725Y-103671500D01*
X171141727Y-103671500D01*
X171243587Y-103644207D01*
X171334913Y-103591480D01*
X171409480Y-103516913D01*
X171462207Y-103425587D01*
X171489500Y-103323727D01*
X171489500Y-103218273D01*
X171462207Y-103116413D01*
X171409480Y-103025087D01*
X171334913Y-102950520D01*
X171243587Y-102897793D01*
X171141727Y-102870500D01*
X171036273Y-102870500D01*
X170934413Y-102897793D01*
X170934410Y-102897794D01*
X170843085Y-102950521D01*
X170768521Y-103025085D01*
X170715794Y-103116410D01*
X170715793Y-103116413D01*
X170688500Y-103218273D01*
X159966500Y-103218273D01*
X159966500Y-100658273D01*
X163048500Y-100658273D01*
X163048500Y-100763727D01*
X163075793Y-100865587D01*
X163128520Y-100956913D01*
X163203087Y-101031480D01*
X163294413Y-101084207D01*
X163396273Y-101111500D01*
X163396275Y-101111500D01*
X163501725Y-101111500D01*
X163501727Y-101111500D01*
X163603587Y-101084207D01*
X163627005Y-101070686D01*
X163694903Y-101054213D01*
X163760930Y-101077064D01*
X163796390Y-101116071D01*
X163814019Y-101146605D01*
X163888586Y-101221172D01*
X163979912Y-101273899D01*
X164081772Y-101301192D01*
X164081774Y-101301192D01*
X164187224Y-101301192D01*
X164187226Y-101301192D01*
X164289086Y-101273899D01*
X164380412Y-101221172D01*
X164454979Y-101146605D01*
X164507706Y-101055279D01*
X164534999Y-100953419D01*
X164534999Y-100847965D01*
X164507706Y-100746105D01*
X164454979Y-100654779D01*
X164380412Y-100580212D01*
X164289086Y-100527485D01*
X164187226Y-100500192D01*
X164081772Y-100500192D01*
X163979912Y-100527485D01*
X163956491Y-100541007D01*
X163888590Y-100557477D01*
X163822564Y-100534624D01*
X163787109Y-100495621D01*
X163769480Y-100465087D01*
X163694913Y-100390520D01*
X163628059Y-100351922D01*
X163603589Y-100337794D01*
X163603588Y-100337793D01*
X163603587Y-100337793D01*
X163501727Y-100310500D01*
X163396273Y-100310500D01*
X163294413Y-100337793D01*
X163294410Y-100337794D01*
X163203085Y-100390521D01*
X163128521Y-100465085D01*
X163075794Y-100556410D01*
X163075793Y-100556413D01*
X163048500Y-100658273D01*
X159966500Y-100658273D01*
X159966500Y-99961979D01*
X159983113Y-99899978D01*
X160012207Y-99849587D01*
X160039500Y-99747727D01*
X160039500Y-99642273D01*
X160038964Y-99640273D01*
X164699500Y-99640273D01*
X164699500Y-99745727D01*
X164726793Y-99847587D01*
X164779520Y-99938913D01*
X164854087Y-100013480D01*
X164945413Y-100066207D01*
X165047273Y-100093500D01*
X165047275Y-100093500D01*
X165152725Y-100093500D01*
X165152727Y-100093500D01*
X165254587Y-100066207D01*
X165345913Y-100013480D01*
X165420480Y-99938913D01*
X165473207Y-99847587D01*
X165500500Y-99745727D01*
X165500500Y-99640273D01*
X165473207Y-99538413D01*
X165420480Y-99447087D01*
X165345913Y-99372520D01*
X165254587Y-99319793D01*
X165152727Y-99292500D01*
X165047273Y-99292500D01*
X164945413Y-99319793D01*
X164945410Y-99319794D01*
X164854085Y-99372521D01*
X164779521Y-99447085D01*
X164726794Y-99538410D01*
X164726793Y-99538413D01*
X164699500Y-99640273D01*
X160038964Y-99640273D01*
X160012207Y-99540413D01*
X159959480Y-99449087D01*
X159884913Y-99374520D01*
X159793587Y-99321793D01*
X159691727Y-99294500D01*
X159586273Y-99294500D01*
X159484413Y-99321793D01*
X159484410Y-99321794D01*
X159393085Y-99374521D01*
X159318521Y-99449085D01*
X159265794Y-99540410D01*
X159265793Y-99540413D01*
X159238500Y-99642273D01*
X159238500Y-99747726D01*
X159265793Y-99849587D01*
X159294887Y-99899978D01*
X159299037Y-99915467D01*
X159306477Y-99927044D01*
X159311500Y-99961979D01*
X159311500Y-100142667D01*
X159291815Y-100209706D01*
X159239011Y-100255461D01*
X159169853Y-100265405D01*
X159166964Y-100264812D01*
X159161636Y-100264111D01*
X159161635Y-100264111D01*
X159056181Y-100264111D01*
X158954321Y-100291404D01*
X158954318Y-100291405D01*
X158862993Y-100344132D01*
X158788429Y-100418696D01*
X158735702Y-100510021D01*
X158735701Y-100510024D01*
X158708408Y-100611884D01*
X158708408Y-100717338D01*
X158735701Y-100819198D01*
X158788428Y-100910524D01*
X158862995Y-100985091D01*
X158954321Y-101037818D01*
X159056181Y-101065111D01*
X159056183Y-101065111D01*
X159161633Y-101065111D01*
X159161635Y-101065111D01*
X159161636Y-101065110D01*
X159169691Y-101064050D01*
X159170096Y-101067133D01*
X159225230Y-101068434D01*
X159283101Y-101107583D01*
X159310620Y-101171805D01*
X159311500Y-101186554D01*
X159311500Y-105350678D01*
X159291815Y-105417717D01*
X159275181Y-105438359D01*
X158079412Y-106634127D01*
X158079405Y-106634134D01*
X158076205Y-106637335D01*
X158015230Y-106698310D01*
X157997580Y-106728878D01*
X157989907Y-106737764D01*
X157987776Y-106739137D01*
X157983742Y-106744396D01*
X157875437Y-106852701D01*
X157814114Y-106886186D01*
X157744422Y-106881202D01*
X157688489Y-106839330D01*
X157680373Y-106827026D01*
X157673480Y-106815087D01*
X157598913Y-106740520D01*
X157507587Y-106687793D01*
X157405727Y-106660500D01*
X157300273Y-106660500D01*
X157198413Y-106687793D01*
X157198410Y-106687794D01*
X157107085Y-106740521D01*
X157032521Y-106815085D01*
X156979794Y-106906410D01*
X156979793Y-106906413D01*
X156952500Y-107008273D01*
X156952500Y-107113727D01*
X156979793Y-107215587D01*
X157032520Y-107306913D01*
X157107087Y-107381480D01*
X157119021Y-107388370D01*
X157167236Y-107438936D01*
X157180458Y-107507543D01*
X157154490Y-107572408D01*
X157144701Y-107583437D01*
X154230910Y-110497230D01*
X154169936Y-110558203D01*
X154169934Y-110558206D01*
X154126819Y-110632884D01*
X154104500Y-110716180D01*
X154104500Y-112361846D01*
X154084815Y-112428885D01*
X154032011Y-112474640D01*
X153962853Y-112484584D01*
X153899297Y-112455559D01*
X153884652Y-112440517D01*
X153884303Y-112440092D01*
X153751911Y-112307700D01*
X153751907Y-112307697D01*
X153596237Y-112203681D01*
X153596228Y-112203676D01*
X153423251Y-112132027D01*
X153423243Y-112132025D01*
X153239620Y-112095500D01*
X153239616Y-112095500D01*
X153052384Y-112095500D01*
X153052379Y-112095500D01*
X152868756Y-112132025D01*
X152868748Y-112132027D01*
X152695771Y-112203676D01*
X152695762Y-112203681D01*
X152540092Y-112307697D01*
X152540088Y-112307700D01*
X152407700Y-112440088D01*
X152407697Y-112440092D01*
X152303681Y-112595762D01*
X152303676Y-112595772D01*
X152260561Y-112699862D01*
X152216720Y-112754265D01*
X152150426Y-112776330D01*
X152082726Y-112759051D01*
X152035116Y-112707913D01*
X152031439Y-112699862D01*
X152014347Y-112658598D01*
X151988322Y-112595769D01*
X151988320Y-112595766D01*
X151988318Y-112595762D01*
X151884302Y-112440092D01*
X151884299Y-112440088D01*
X151751911Y-112307700D01*
X151751907Y-112307697D01*
X151596237Y-112203681D01*
X151596228Y-112203676D01*
X151423251Y-112132027D01*
X151423243Y-112132025D01*
X151239620Y-112095500D01*
X151239616Y-112095500D01*
X151052384Y-112095500D01*
X151052379Y-112095500D01*
X150868756Y-112132025D01*
X150868748Y-112132027D01*
X150695771Y-112203676D01*
X150695762Y-112203681D01*
X150540092Y-112307697D01*
X150540088Y-112307700D01*
X150412181Y-112435608D01*
X150350858Y-112469093D01*
X150281166Y-112464109D01*
X150225233Y-112422237D01*
X150200816Y-112356773D01*
X150200500Y-112347927D01*
X150200500Y-107793361D01*
X155407399Y-107793361D01*
X155407399Y-107898815D01*
X155408119Y-107901500D01*
X155434692Y-108000674D01*
X155434693Y-108000677D01*
X155435876Y-108002726D01*
X155487419Y-108092001D01*
X155561986Y-108166568D01*
X155653312Y-108219295D01*
X155755172Y-108246588D01*
X155755174Y-108246588D01*
X155860624Y-108246588D01*
X155860626Y-108246588D01*
X155962486Y-108219295D01*
X156053812Y-108166568D01*
X156128379Y-108092001D01*
X156181106Y-108000675D01*
X156208399Y-107898815D01*
X156208399Y-107793361D01*
X156181106Y-107691501D01*
X156128379Y-107600175D01*
X156053812Y-107525608D01*
X155962486Y-107472881D01*
X155860626Y-107445588D01*
X155755172Y-107445588D01*
X155653312Y-107472881D01*
X155653309Y-107472882D01*
X155561984Y-107525609D01*
X155487420Y-107600173D01*
X155434693Y-107691498D01*
X155434692Y-107691501D01*
X155407399Y-107793361D01*
X150200500Y-107793361D01*
X150200500Y-106383773D01*
X150454500Y-106383773D01*
X150454500Y-106489227D01*
X150481793Y-106591087D01*
X150534520Y-106682413D01*
X150609087Y-106756980D01*
X150700413Y-106809707D01*
X150802273Y-106837000D01*
X150802275Y-106837000D01*
X150907725Y-106837000D01*
X150907727Y-106837000D01*
X151009587Y-106809707D01*
X151100913Y-106756980D01*
X151175480Y-106682413D01*
X151228207Y-106591087D01*
X151255500Y-106489227D01*
X151255500Y-106440318D01*
X156067045Y-106440318D01*
X156067045Y-106545772D01*
X156094338Y-106647632D01*
X156147065Y-106738958D01*
X156221632Y-106813525D01*
X156312958Y-106866252D01*
X156414818Y-106893545D01*
X156414820Y-106893545D01*
X156520270Y-106893545D01*
X156520272Y-106893545D01*
X156622132Y-106866252D01*
X156713458Y-106813525D01*
X156788025Y-106738958D01*
X156840752Y-106647632D01*
X156868045Y-106545772D01*
X156868045Y-106440318D01*
X156840752Y-106338458D01*
X156788025Y-106247132D01*
X156713458Y-106172565D01*
X156622132Y-106119838D01*
X156520272Y-106092545D01*
X156414818Y-106092545D01*
X156312958Y-106119838D01*
X156312955Y-106119839D01*
X156221630Y-106172566D01*
X156147066Y-106247130D01*
X156094339Y-106338455D01*
X156094338Y-106338458D01*
X156067045Y-106440318D01*
X151255500Y-106440318D01*
X151255500Y-106383773D01*
X151228207Y-106281913D01*
X151175480Y-106190587D01*
X151100913Y-106116020D01*
X151009587Y-106063293D01*
X150907727Y-106036000D01*
X150802273Y-106036000D01*
X150700413Y-106063293D01*
X150700410Y-106063294D01*
X150609085Y-106116021D01*
X150534521Y-106190585D01*
X150481794Y-106281910D01*
X150481793Y-106281913D01*
X150454500Y-106383773D01*
X150200500Y-106383773D01*
X150200500Y-105611273D01*
X152479500Y-105611273D01*
X152479500Y-105716727D01*
X152506793Y-105818587D01*
X152559520Y-105909913D01*
X152634087Y-105984480D01*
X152725413Y-106037207D01*
X152827273Y-106064500D01*
X152827275Y-106064500D01*
X152932725Y-106064500D01*
X152932727Y-106064500D01*
X153034587Y-106037207D01*
X153125913Y-105984480D01*
X153200480Y-105909913D01*
X153253207Y-105818587D01*
X153280500Y-105716727D01*
X153280500Y-105611273D01*
X153253207Y-105509413D01*
X153200480Y-105418087D01*
X153125913Y-105343520D01*
X153057225Y-105303863D01*
X153034589Y-105290794D01*
X153034588Y-105290793D01*
X153034587Y-105290793D01*
X152932727Y-105263500D01*
X152827273Y-105263500D01*
X152725413Y-105290793D01*
X152725410Y-105290794D01*
X152634085Y-105343521D01*
X152559521Y-105418085D01*
X152506794Y-105509410D01*
X152506793Y-105509413D01*
X152479500Y-105611273D01*
X150200500Y-105611273D01*
X150200500Y-105026000D01*
X150220185Y-104958961D01*
X150272989Y-104913206D01*
X150324500Y-104902000D01*
X155575000Y-104902000D01*
X155575000Y-100785273D01*
X157568500Y-100785273D01*
X157568500Y-100890727D01*
X157595793Y-100992587D01*
X157648520Y-101083913D01*
X157723087Y-101158480D01*
X157814413Y-101211207D01*
X157916273Y-101238500D01*
X157916275Y-101238500D01*
X158021725Y-101238500D01*
X158021727Y-101238500D01*
X158123587Y-101211207D01*
X158214913Y-101158480D01*
X158289480Y-101083913D01*
X158342207Y-100992587D01*
X158369500Y-100890727D01*
X158369500Y-100785273D01*
X158342207Y-100683413D01*
X158289480Y-100592087D01*
X158214913Y-100517520D01*
X158123587Y-100464793D01*
X158021727Y-100437500D01*
X157916273Y-100437500D01*
X157814413Y-100464793D01*
X157814410Y-100464794D01*
X157723085Y-100517521D01*
X157648521Y-100592085D01*
X157595794Y-100683410D01*
X157595793Y-100683413D01*
X157568500Y-100785273D01*
X155575000Y-100785273D01*
X155575000Y-99536865D01*
X155594685Y-99469826D01*
X155637002Y-99429477D01*
X155649305Y-99422373D01*
X155678461Y-99405541D01*
X155822729Y-99261273D01*
X166731500Y-99261273D01*
X166731500Y-99366727D01*
X166758793Y-99468587D01*
X166811520Y-99559913D01*
X166886087Y-99634480D01*
X166977413Y-99687207D01*
X167079273Y-99714500D01*
X167079275Y-99714500D01*
X167184725Y-99714500D01*
X167184727Y-99714500D01*
X167286587Y-99687207D01*
X167367879Y-99640273D01*
X169906500Y-99640273D01*
X169906500Y-99745727D01*
X169933793Y-99847587D01*
X169986520Y-99938913D01*
X170061087Y-100013480D01*
X170152413Y-100066207D01*
X170254273Y-100093500D01*
X170254275Y-100093500D01*
X170359725Y-100093500D01*
X170359727Y-100093500D01*
X170461587Y-100066207D01*
X170552913Y-100013480D01*
X170627480Y-99938913D01*
X170680207Y-99847587D01*
X170707500Y-99745727D01*
X170707500Y-99640273D01*
X170680207Y-99538413D01*
X170627480Y-99447087D01*
X170552913Y-99372520D01*
X170461587Y-99319793D01*
X170359727Y-99292500D01*
X170254273Y-99292500D01*
X170152413Y-99319793D01*
X170152410Y-99319794D01*
X170061085Y-99372521D01*
X169986521Y-99447085D01*
X169933794Y-99538410D01*
X169933793Y-99538413D01*
X169906500Y-99640273D01*
X167367879Y-99640273D01*
X167377913Y-99634480D01*
X167452480Y-99559913D01*
X167505207Y-99468587D01*
X167532500Y-99366727D01*
X167532500Y-99261273D01*
X167505207Y-99159413D01*
X167452480Y-99068087D01*
X167377913Y-98993520D01*
X167286587Y-98940793D01*
X167184727Y-98913500D01*
X167079273Y-98913500D01*
X166977413Y-98940793D01*
X166977410Y-98940794D01*
X166886085Y-98993521D01*
X166811521Y-99068085D01*
X166758794Y-99159410D01*
X166758793Y-99159413D01*
X166731500Y-99261273D01*
X155822729Y-99261273D01*
X156796839Y-98287163D01*
X158067449Y-98287163D01*
X158067449Y-98418946D01*
X158101557Y-98546242D01*
X158124802Y-98586503D01*
X158167449Y-98660369D01*
X158260635Y-98753555D01*
X158374763Y-98819447D01*
X158502057Y-98853555D01*
X158502059Y-98853555D01*
X158633839Y-98853555D01*
X158633841Y-98853555D01*
X158761135Y-98819447D01*
X158875263Y-98753555D01*
X158968449Y-98660369D01*
X159011096Y-98586503D01*
X159368627Y-98586503D01*
X159368627Y-98691957D01*
X159395920Y-98793817D01*
X159448647Y-98885143D01*
X159523214Y-98959710D01*
X159614540Y-99012437D01*
X159716400Y-99039730D01*
X159716402Y-99039730D01*
X159821852Y-99039730D01*
X159821854Y-99039730D01*
X159923714Y-99012437D01*
X160015040Y-98959710D01*
X160089607Y-98885143D01*
X160142334Y-98793817D01*
X160169627Y-98691957D01*
X160169627Y-98627060D01*
X165587713Y-98627060D01*
X165587713Y-98732514D01*
X165615006Y-98834374D01*
X165667733Y-98925700D01*
X165742300Y-99000267D01*
X165833626Y-99052994D01*
X165935486Y-99080287D01*
X165935488Y-99080287D01*
X166040938Y-99080287D01*
X166040940Y-99080287D01*
X166142800Y-99052994D01*
X166234126Y-99000267D01*
X166308693Y-98925700D01*
X166361420Y-98834374D01*
X166388713Y-98732514D01*
X166388713Y-98627060D01*
X166361420Y-98525200D01*
X166308693Y-98433874D01*
X166234126Y-98359307D01*
X166142800Y-98306580D01*
X166040940Y-98279287D01*
X165935486Y-98279287D01*
X165833626Y-98306580D01*
X165833623Y-98306581D01*
X165742298Y-98359308D01*
X165667734Y-98433872D01*
X165615007Y-98525197D01*
X165615006Y-98525200D01*
X165587713Y-98627060D01*
X160169627Y-98627060D01*
X160169627Y-98586503D01*
X160142334Y-98484643D01*
X160089607Y-98393317D01*
X160015040Y-98318750D01*
X159923714Y-98266023D01*
X159821854Y-98238730D01*
X159716400Y-98238730D01*
X159614540Y-98266023D01*
X159614537Y-98266024D01*
X159523212Y-98318751D01*
X159448648Y-98393315D01*
X159395921Y-98484640D01*
X159395920Y-98484643D01*
X159368627Y-98586503D01*
X159011096Y-98586503D01*
X159034341Y-98546241D01*
X159068449Y-98418947D01*
X159068449Y-98287163D01*
X159034341Y-98159869D01*
X158968449Y-98045741D01*
X158875263Y-97952555D01*
X158818199Y-97919609D01*
X158761136Y-97886663D01*
X158697488Y-97869609D01*
X158633841Y-97852555D01*
X158502057Y-97852555D01*
X158374761Y-97886663D01*
X158260635Y-97952555D01*
X158260632Y-97952557D01*
X158167451Y-98045738D01*
X158167449Y-98045741D01*
X158101557Y-98159867D01*
X158067449Y-98287163D01*
X156796839Y-98287163D01*
X157473729Y-97610273D01*
X161004705Y-97610273D01*
X161004705Y-97715727D01*
X161031998Y-97817587D01*
X161084725Y-97908913D01*
X161159292Y-97983480D01*
X161250618Y-98036207D01*
X161352478Y-98063500D01*
X161352480Y-98063500D01*
X161457930Y-98063500D01*
X161457932Y-98063500D01*
X161559792Y-98036207D01*
X161651118Y-97983480D01*
X161674573Y-97960024D01*
X161735892Y-97926541D01*
X161805584Y-97931524D01*
X161824252Y-97940320D01*
X161864053Y-97963299D01*
X161965913Y-97990592D01*
X161965915Y-97990592D01*
X162071365Y-97990592D01*
X162071367Y-97990592D01*
X162173227Y-97963299D01*
X162264553Y-97910572D01*
X162296183Y-97878941D01*
X162357503Y-97845457D01*
X162427195Y-97850441D01*
X162445854Y-97859232D01*
X162532413Y-97909207D01*
X162634273Y-97936500D01*
X162634275Y-97936500D01*
X162739725Y-97936500D01*
X162739727Y-97936500D01*
X162841587Y-97909207D01*
X162932913Y-97856480D01*
X163007480Y-97781913D01*
X163060207Y-97690587D01*
X163081727Y-97610273D01*
X163683500Y-97610273D01*
X163683500Y-97715727D01*
X163710793Y-97817587D01*
X163763520Y-97908913D01*
X163838087Y-97983480D01*
X163929413Y-98036207D01*
X164031273Y-98063500D01*
X164031275Y-98063500D01*
X164136725Y-98063500D01*
X164136727Y-98063500D01*
X164238587Y-98036207D01*
X164329913Y-97983480D01*
X164404480Y-97908913D01*
X164457207Y-97817587D01*
X164484500Y-97715727D01*
X164484500Y-97610273D01*
X166731500Y-97610273D01*
X166731500Y-97715727D01*
X166758793Y-97817587D01*
X166811520Y-97908913D01*
X166886087Y-97983480D01*
X166977413Y-98036207D01*
X167079273Y-98063500D01*
X167079275Y-98063500D01*
X167184725Y-98063500D01*
X167184727Y-98063500D01*
X167286587Y-98036207D01*
X167377913Y-97983480D01*
X167452480Y-97908913D01*
X167505207Y-97817587D01*
X167532500Y-97715727D01*
X167532500Y-97610273D01*
X167531964Y-97608273D01*
X168382500Y-97608273D01*
X168382500Y-97713727D01*
X168409793Y-97815587D01*
X168462520Y-97906913D01*
X168537087Y-97981480D01*
X168628413Y-98034207D01*
X168730273Y-98061500D01*
X168730275Y-98061500D01*
X168835725Y-98061500D01*
X168835727Y-98061500D01*
X168937587Y-98034207D01*
X169028913Y-97981480D01*
X169103480Y-97906913D01*
X169156207Y-97815587D01*
X169183500Y-97713727D01*
X169183500Y-97608273D01*
X169156207Y-97506413D01*
X169103480Y-97415087D01*
X169028913Y-97340520D01*
X168946724Y-97293068D01*
X168937589Y-97287794D01*
X168937588Y-97287793D01*
X168937587Y-97287793D01*
X168835727Y-97260500D01*
X168730273Y-97260500D01*
X168628413Y-97287793D01*
X168628410Y-97287794D01*
X168537085Y-97340521D01*
X168462521Y-97415085D01*
X168409794Y-97506410D01*
X168409793Y-97506413D01*
X168382500Y-97608273D01*
X167531964Y-97608273D01*
X167505207Y-97508413D01*
X167452480Y-97417087D01*
X167377913Y-97342520D01*
X167300799Y-97297998D01*
X167286589Y-97289794D01*
X167286588Y-97289793D01*
X167286587Y-97289793D01*
X167184727Y-97262500D01*
X167079273Y-97262500D01*
X166977413Y-97289793D01*
X166977410Y-97289794D01*
X166886085Y-97342521D01*
X166811521Y-97417085D01*
X166758794Y-97508410D01*
X166758793Y-97508413D01*
X166731500Y-97610273D01*
X164484500Y-97610273D01*
X164457207Y-97508413D01*
X164404480Y-97417087D01*
X164329913Y-97342520D01*
X164252799Y-97297998D01*
X164238589Y-97289794D01*
X164238588Y-97289793D01*
X164238587Y-97289793D01*
X164136727Y-97262500D01*
X164031273Y-97262500D01*
X163929413Y-97289793D01*
X163929410Y-97289794D01*
X163838085Y-97342521D01*
X163763521Y-97417085D01*
X163710794Y-97508410D01*
X163710793Y-97508413D01*
X163683500Y-97610273D01*
X163081727Y-97610273D01*
X163087500Y-97588727D01*
X163087500Y-97483273D01*
X163060207Y-97381413D01*
X163012046Y-97297996D01*
X162995574Y-97230098D01*
X163012045Y-97174002D01*
X163060207Y-97090584D01*
X163087500Y-96988724D01*
X163087500Y-96883270D01*
X163060207Y-96781410D01*
X163007480Y-96690084D01*
X162932913Y-96615517D01*
X162841587Y-96562790D01*
X162739727Y-96535497D01*
X162634273Y-96535497D01*
X162532413Y-96562790D01*
X162532410Y-96562791D01*
X162441085Y-96615518D01*
X162366521Y-96690082D01*
X162313794Y-96781407D01*
X162313793Y-96781410D01*
X162286500Y-96883270D01*
X162286500Y-96988725D01*
X162305538Y-97059778D01*
X162303875Y-97129628D01*
X162264711Y-97187490D01*
X162200483Y-97214993D01*
X162153671Y-97211645D01*
X162071367Y-97189592D01*
X161965913Y-97189592D01*
X161864053Y-97216885D01*
X161864050Y-97216886D01*
X161772724Y-97269613D01*
X161749269Y-97293068D01*
X161687945Y-97326551D01*
X161618253Y-97321564D01*
X161599591Y-97312771D01*
X161559794Y-97289794D01*
X161559793Y-97289793D01*
X161559792Y-97289793D01*
X161457932Y-97262500D01*
X161352478Y-97262500D01*
X161250618Y-97289793D01*
X161250615Y-97289794D01*
X161159290Y-97342521D01*
X161084726Y-97417085D01*
X161031999Y-97508410D01*
X161031998Y-97508413D01*
X161004705Y-97610273D01*
X157473729Y-97610273D01*
X158773341Y-96310662D01*
X158839864Y-96195438D01*
X158874300Y-96066924D01*
X158874300Y-95449664D01*
X158882944Y-95420223D01*
X158889468Y-95390237D01*
X158893222Y-95385221D01*
X158893985Y-95382625D01*
X158910619Y-95361983D01*
X159034783Y-95237819D01*
X159096106Y-95204334D01*
X159122464Y-95201500D01*
X161984145Y-95201500D01*
X161984595Y-95201491D01*
X161991477Y-95201369D01*
X162000323Y-95201053D01*
X162064802Y-95188227D01*
X162130266Y-95163810D01*
X162153235Y-95153603D01*
X162222961Y-95094421D01*
X162222969Y-95094409D01*
X162226618Y-95090532D01*
X162286885Y-95055182D01*
X162356697Y-95058027D01*
X162410659Y-95094279D01*
X162416157Y-95100624D01*
X162425052Y-95110889D01*
X162442643Y-95128843D01*
X162442644Y-95128844D01*
X162442646Y-95128845D01*
X162522456Y-95173488D01*
X162522460Y-95173490D01*
X162589499Y-95193175D01*
X162647397Y-95201500D01*
X162647401Y-95201500D01*
X166783447Y-95201500D01*
X166783453Y-95201500D01*
X166822346Y-95197786D01*
X166868433Y-95188903D01*
X166873906Y-95187771D01*
X166956573Y-95148650D01*
X167011494Y-95105459D01*
X167030265Y-95088741D01*
X167066511Y-95030618D01*
X167073903Y-95024034D01*
X167078015Y-95015031D01*
X167099560Y-95001184D01*
X167118687Y-94984151D01*
X167130031Y-94981602D01*
X167136793Y-94977257D01*
X167171728Y-94972234D01*
X167174216Y-94972234D01*
X167241255Y-94991919D01*
G37*
%TD.AperFunction*%
%TA.AperFunction,Conductor*%
G36*
X158742539Y-76220185D02*
G01*
X158788294Y-76272989D01*
X158799500Y-76324500D01*
X158799500Y-80094486D01*
X158829059Y-80281118D01*
X158887454Y-80460836D01*
X158957388Y-80598087D01*
X158973240Y-80629199D01*
X159084310Y-80782073D01*
X159217927Y-80915690D01*
X159370801Y-81026760D01*
X159423199Y-81053458D01*
X159539163Y-81112545D01*
X159539165Y-81112545D01*
X159539168Y-81112547D01*
X159635497Y-81143846D01*
X159718881Y-81170940D01*
X159910331Y-81201263D01*
X159909960Y-81203599D01*
X159966145Y-81224930D01*
X160007689Y-81281107D01*
X160012266Y-81350827D01*
X159978937Y-81411442D01*
X158006014Y-83384365D01*
X158006012Y-83384366D01*
X157991325Y-83400716D01*
X157991313Y-83400730D01*
X157974672Y-83421379D01*
X157937509Y-83492424D01*
X157917826Y-83559456D01*
X157909500Y-83617365D01*
X157909500Y-87252007D01*
X157914197Y-87295686D01*
X157925397Y-87347174D01*
X157927890Y-87357372D01*
X157927891Y-87357375D01*
X157970899Y-87438083D01*
X157970901Y-87438086D01*
X158016660Y-87490895D01*
X158034242Y-87508839D01*
X158034246Y-87508843D01*
X158034247Y-87508844D01*
X158034249Y-87508845D01*
X158113516Y-87553184D01*
X158114063Y-87553490D01*
X158181102Y-87573175D01*
X158239000Y-87581500D01*
X158239004Y-87581500D01*
X161673991Y-87581500D01*
X161674000Y-87581500D01*
X161717684Y-87576803D01*
X161746875Y-87570452D01*
X161769174Y-87565602D01*
X161769190Y-87565598D01*
X161769195Y-87565597D01*
X161779373Y-87563110D01*
X161860085Y-87520100D01*
X161912889Y-87474345D01*
X161930843Y-87456754D01*
X161975490Y-87376937D01*
X161995175Y-87309898D01*
X162003500Y-87252000D01*
X162003500Y-87200571D01*
X162023185Y-87133532D01*
X162075989Y-87087777D01*
X162097170Y-87081697D01*
X162096877Y-87080603D01*
X162104725Y-87078500D01*
X162104727Y-87078500D01*
X162206587Y-87051207D01*
X162297913Y-86998480D01*
X162372480Y-86923913D01*
X162425207Y-86832587D01*
X162452500Y-86730727D01*
X162452500Y-86625273D01*
X162444279Y-86594591D01*
X162445942Y-86524743D01*
X162485105Y-86466881D01*
X162549333Y-86439377D01*
X162564054Y-86438500D01*
X162998199Y-86438500D01*
X163065238Y-86458185D01*
X163110993Y-86510989D01*
X163120936Y-86580144D01*
X163120936Y-86580150D01*
X163116500Y-86610994D01*
X163116500Y-87252007D01*
X163121197Y-87295686D01*
X163132397Y-87347174D01*
X163134890Y-87357372D01*
X163134891Y-87357375D01*
X163177899Y-87438083D01*
X163177901Y-87438086D01*
X163223660Y-87490895D01*
X163241242Y-87508839D01*
X163241246Y-87508843D01*
X163241247Y-87508844D01*
X163241249Y-87508845D01*
X163320516Y-87553184D01*
X163321063Y-87553490D01*
X163388102Y-87573175D01*
X163446000Y-87581500D01*
X163446004Y-87581500D01*
X166880991Y-87581500D01*
X166881000Y-87581500D01*
X166924684Y-87576803D01*
X166953875Y-87570452D01*
X166976174Y-87565602D01*
X166976190Y-87565598D01*
X166976195Y-87565597D01*
X166986373Y-87563110D01*
X167067085Y-87520100D01*
X167119889Y-87474345D01*
X167137843Y-87456754D01*
X167182490Y-87376937D01*
X167202175Y-87309898D01*
X167210500Y-87252000D01*
X167210500Y-87200571D01*
X167230185Y-87133532D01*
X167282989Y-87087777D01*
X167304170Y-87081697D01*
X167303877Y-87080603D01*
X167311725Y-87078500D01*
X167311727Y-87078500D01*
X167413587Y-87051207D01*
X167504913Y-86998480D01*
X167579480Y-86923913D01*
X167632207Y-86832587D01*
X167659500Y-86730727D01*
X167659500Y-86625273D01*
X167632207Y-86523413D01*
X167632202Y-86523405D01*
X167629265Y-86516313D01*
X167621795Y-86446844D01*
X167653068Y-86384364D01*
X167713155Y-86348710D01*
X167782981Y-86351201D01*
X167804808Y-86362758D01*
X167805505Y-86361513D01*
X167846356Y-86384364D01*
X167893063Y-86410490D01*
X167960102Y-86430175D01*
X168018000Y-86438500D01*
X168018013Y-86438500D01*
X168020192Y-86438656D01*
X168020884Y-86438914D01*
X168022385Y-86439130D01*
X168022338Y-86439456D01*
X168085659Y-86463066D01*
X168099040Y-86474660D01*
X168287181Y-86662801D01*
X168320666Y-86724124D01*
X168323500Y-86750482D01*
X168323500Y-87252007D01*
X168328197Y-87295686D01*
X168339397Y-87347174D01*
X168341890Y-87357372D01*
X168341891Y-87357375D01*
X168384899Y-87438083D01*
X168384901Y-87438086D01*
X168430660Y-87490895D01*
X168448242Y-87508839D01*
X168448246Y-87508843D01*
X168448247Y-87508844D01*
X168448249Y-87508845D01*
X168527516Y-87553184D01*
X168528063Y-87553490D01*
X168595102Y-87573175D01*
X168653000Y-87581500D01*
X168653004Y-87581500D01*
X171675500Y-87581500D01*
X171742539Y-87601185D01*
X171788294Y-87653989D01*
X171799500Y-87705500D01*
X171799500Y-88889002D01*
X171779815Y-88956041D01*
X171727011Y-89001796D01*
X171657853Y-89011740D01*
X171614967Y-88997223D01*
X171605126Y-88991718D01*
X171577937Y-88976510D01*
X171577935Y-88976509D01*
X171510903Y-88956826D01*
X171510899Y-88956825D01*
X171510898Y-88956825D01*
X171453000Y-88948500D01*
X168272000Y-88948500D01*
X168271992Y-88948500D01*
X168228313Y-88953197D01*
X168176825Y-88964397D01*
X168166627Y-88966890D01*
X168166624Y-88966891D01*
X168085916Y-89009899D01*
X168085913Y-89009901D01*
X168033104Y-89055660D01*
X168015160Y-89073242D01*
X168015154Y-89073249D01*
X167970511Y-89153059D01*
X167970509Y-89153064D01*
X167950826Y-89220096D01*
X167950825Y-89220101D01*
X167950825Y-89220102D01*
X167942502Y-89277992D01*
X167942500Y-89278003D01*
X167942500Y-90427007D01*
X167947197Y-90470686D01*
X167958397Y-90522174D01*
X167960342Y-90530133D01*
X167960890Y-90532373D01*
X168003900Y-90613085D01*
X168034412Y-90648298D01*
X168063437Y-90711853D01*
X168053494Y-90781011D01*
X168007739Y-90833815D01*
X167940699Y-90853500D01*
X166580261Y-90853500D01*
X166513222Y-90833815D01*
X166467467Y-90781011D01*
X166457523Y-90711853D01*
X166486548Y-90648297D01*
X166493479Y-90640929D01*
X166495921Y-90638535D01*
X166502843Y-90631754D01*
X166547490Y-90551937D01*
X166567175Y-90484898D01*
X166575500Y-90427000D01*
X166575500Y-89278000D01*
X166570803Y-89234316D01*
X166566025Y-89212351D01*
X166559602Y-89182825D01*
X166559348Y-89181789D01*
X166557110Y-89172627D01*
X166514100Y-89091915D01*
X166468345Y-89039111D01*
X166468339Y-89039104D01*
X166450757Y-89021160D01*
X166450756Y-89021159D01*
X166450754Y-89021157D01*
X166450752Y-89021156D01*
X166450750Y-89021154D01*
X166370940Y-88976511D01*
X166370935Y-88976509D01*
X166303903Y-88956826D01*
X166303899Y-88956825D01*
X166303898Y-88956825D01*
X166246000Y-88948500D01*
X163065000Y-88948500D01*
X163064992Y-88948500D01*
X163021313Y-88953197D01*
X162969825Y-88964397D01*
X162959627Y-88966890D01*
X162959624Y-88966891D01*
X162878916Y-89009899D01*
X162878913Y-89009901D01*
X162826104Y-89055660D01*
X162808160Y-89073242D01*
X162808154Y-89073250D01*
X162780739Y-89122260D01*
X162760205Y-89149400D01*
X162756548Y-89153059D01*
X162747519Y-89162088D01*
X162747517Y-89162091D01*
X162694794Y-89253410D01*
X162694793Y-89253413D01*
X162667500Y-89355273D01*
X162667500Y-89460726D01*
X162694794Y-89562589D01*
X162694795Y-89562592D01*
X162716392Y-89599998D01*
X162732866Y-89667898D01*
X162716394Y-89723997D01*
X162694795Y-89761408D01*
X162694793Y-89761413D01*
X162667500Y-89863273D01*
X162667500Y-89968726D01*
X162694794Y-90070589D01*
X162694795Y-90070592D01*
X162716392Y-90107998D01*
X162732866Y-90175898D01*
X162716394Y-90231997D01*
X162694795Y-90269408D01*
X162694793Y-90269413D01*
X162667500Y-90371273D01*
X162667500Y-90476727D01*
X162687653Y-90551937D01*
X162694793Y-90578586D01*
X162694794Y-90578589D01*
X162746127Y-90667500D01*
X162762600Y-90735400D01*
X162739747Y-90801427D01*
X162684826Y-90844618D01*
X162638740Y-90853500D01*
X161465260Y-90853500D01*
X161398221Y-90833815D01*
X161352466Y-90781011D01*
X161342522Y-90711853D01*
X161357873Y-90667500D01*
X161385500Y-90619648D01*
X161409207Y-90578587D01*
X161436500Y-90476727D01*
X161436500Y-90371273D01*
X161409207Y-90269413D01*
X161387605Y-90231998D01*
X161371133Y-90164099D01*
X161387607Y-90107998D01*
X161409207Y-90070587D01*
X161436500Y-89968727D01*
X161436500Y-89863273D01*
X161409207Y-89761413D01*
X161387605Y-89723998D01*
X161371133Y-89656099D01*
X161387607Y-89599998D01*
X161409207Y-89562587D01*
X161436500Y-89460727D01*
X161436500Y-89355273D01*
X161409207Y-89253413D01*
X161356480Y-89162087D01*
X161343882Y-89149489D01*
X161322132Y-89120124D01*
X161307100Y-89091915D01*
X161261345Y-89039111D01*
X161261339Y-89039104D01*
X161243757Y-89021160D01*
X161243756Y-89021159D01*
X161243754Y-89021157D01*
X161243752Y-89021156D01*
X161243750Y-89021154D01*
X161163940Y-88976511D01*
X161163935Y-88976509D01*
X161096903Y-88956826D01*
X161096899Y-88956825D01*
X161096898Y-88956825D01*
X161039000Y-88948500D01*
X157858000Y-88948500D01*
X157857992Y-88948500D01*
X157814313Y-88953197D01*
X157762825Y-88964397D01*
X157752627Y-88966890D01*
X157752624Y-88966891D01*
X157671916Y-89009899D01*
X157671913Y-89009901D01*
X157619104Y-89055660D01*
X157601160Y-89073242D01*
X157601154Y-89073249D01*
X157556511Y-89153059D01*
X157556509Y-89153064D01*
X157536826Y-89220096D01*
X157536825Y-89220101D01*
X157536825Y-89220102D01*
X157528502Y-89277992D01*
X157528500Y-89278003D01*
X157528500Y-90427007D01*
X157533197Y-90470686D01*
X157544397Y-90522174D01*
X157546342Y-90530133D01*
X157546890Y-90532373D01*
X157589900Y-90613085D01*
X157620412Y-90648298D01*
X157649437Y-90711853D01*
X157639494Y-90781011D01*
X157593739Y-90833815D01*
X157526699Y-90853500D01*
X157235482Y-90853500D01*
X157168443Y-90833815D01*
X157147801Y-90817181D01*
X156832819Y-90502199D01*
X156799334Y-90440876D01*
X156796500Y-90414518D01*
X156796500Y-88135008D01*
X156796499Y-88134992D01*
X156791803Y-88091316D01*
X156787897Y-88073364D01*
X156780602Y-88039825D01*
X156780348Y-88038789D01*
X156778110Y-88029627D01*
X156735100Y-87948915D01*
X156689345Y-87896111D01*
X156689339Y-87896104D01*
X156671757Y-87878160D01*
X156671756Y-87878159D01*
X156671754Y-87878157D01*
X156671752Y-87878156D01*
X156671750Y-87878154D01*
X156591940Y-87833511D01*
X156591935Y-87833509D01*
X156524903Y-87813826D01*
X156524899Y-87813825D01*
X156524898Y-87813825D01*
X156467000Y-87805500D01*
X151381000Y-87805500D01*
X151380992Y-87805500D01*
X151337313Y-87810197D01*
X151285825Y-87821397D01*
X151275627Y-87823890D01*
X151275624Y-87823891D01*
X151194916Y-87866899D01*
X151194913Y-87866901D01*
X151142104Y-87912660D01*
X151124160Y-87930242D01*
X151124154Y-87930249D01*
X151079511Y-88010059D01*
X151079509Y-88010064D01*
X151059826Y-88077096D01*
X151059825Y-88077101D01*
X151059825Y-88077102D01*
X151051502Y-88134992D01*
X151051500Y-88135003D01*
X151051500Y-91896638D01*
X151052678Y-91918618D01*
X151055511Y-91944965D01*
X151055512Y-91944967D01*
X151079470Y-92021478D01*
X151079471Y-92021483D01*
X151093872Y-92047855D01*
X151112956Y-92082805D01*
X151112958Y-92082808D01*
X151112960Y-92082811D01*
X151147998Y-92129615D01*
X151148001Y-92129619D01*
X151148009Y-92129629D01*
X151148017Y-92129637D01*
X151202365Y-92183986D01*
X151202374Y-92183995D01*
X151213669Y-92194141D01*
X151213695Y-92194163D01*
X151218738Y-92198693D01*
X151239380Y-92215327D01*
X151239387Y-92215330D01*
X151244477Y-92218667D01*
X151244320Y-92218905D01*
X151251884Y-92223670D01*
X151252782Y-92224342D01*
X151283013Y-92238148D01*
X151310445Y-92252496D01*
X151313041Y-92253258D01*
X151313402Y-92252026D01*
X151332253Y-92260636D01*
X151350762Y-92264662D01*
X151359310Y-92266844D01*
X151377464Y-92272175D01*
X151435362Y-92280500D01*
X156091745Y-92280500D01*
X156158784Y-92300185D01*
X156204539Y-92352989D01*
X156214483Y-92422147D01*
X156185458Y-92485703D01*
X156179426Y-92492181D01*
X156143521Y-92528085D01*
X156090794Y-92619410D01*
X156090793Y-92619413D01*
X156063500Y-92721273D01*
X156063500Y-92826727D01*
X156090793Y-92928587D01*
X156143520Y-93019913D01*
X156218087Y-93094480D01*
X156309413Y-93147207D01*
X156411273Y-93174500D01*
X156411275Y-93174500D01*
X156516725Y-93174500D01*
X156516727Y-93174500D01*
X156618587Y-93147207D01*
X156709913Y-93094480D01*
X156784480Y-93019913D01*
X156837207Y-92928587D01*
X156864500Y-92826727D01*
X156864500Y-92721273D01*
X156837207Y-92619413D01*
X156784480Y-92528087D01*
X156748574Y-92492181D01*
X156715089Y-92430858D01*
X156720073Y-92361166D01*
X156761945Y-92305233D01*
X156827409Y-92280816D01*
X156836255Y-92280500D01*
X157912500Y-92280500D01*
X157979539Y-92300185D01*
X158025294Y-92352989D01*
X158033831Y-92378910D01*
X158036500Y-92391564D01*
X158036500Y-92439500D01*
X158041197Y-92483184D01*
X158052403Y-92534695D01*
X158054890Y-92544873D01*
X158077968Y-92588181D01*
X158081597Y-92605387D01*
X158080194Y-92623397D01*
X158083853Y-92641084D01*
X158077537Y-92657503D01*
X158076171Y-92675046D01*
X158065254Y-92689438D01*
X158058770Y-92706296D01*
X158049017Y-92717437D01*
X158048521Y-92718083D01*
X157995794Y-92809410D01*
X157995793Y-92809413D01*
X157968500Y-92911273D01*
X157968500Y-93016726D01*
X157995793Y-93118586D01*
X157995794Y-93118589D01*
X158048522Y-93209916D01*
X158053469Y-93216363D01*
X158052153Y-93217372D01*
X158081037Y-93270268D01*
X158076053Y-93339960D01*
X158068094Y-93357155D01*
X158064512Y-93363558D01*
X158064509Y-93363564D01*
X158044826Y-93430596D01*
X158036500Y-93488503D01*
X158036500Y-93737042D01*
X158016815Y-93804081D01*
X157964011Y-93849836D01*
X157894853Y-93859780D01*
X157831297Y-93830755D01*
X157824819Y-93824723D01*
X157810914Y-93810818D01*
X157810913Y-93810817D01*
X157719587Y-93758090D01*
X157617727Y-93730797D01*
X157512273Y-93730797D01*
X157410413Y-93758090D01*
X157410410Y-93758091D01*
X157319085Y-93810818D01*
X157244521Y-93885382D01*
X157191794Y-93976707D01*
X157191793Y-93976710D01*
X157164500Y-94078570D01*
X157164500Y-94184024D01*
X157191793Y-94285884D01*
X157244520Y-94377210D01*
X157319087Y-94451777D01*
X157410413Y-94504504D01*
X157512273Y-94531797D01*
X157512275Y-94531797D01*
X157617725Y-94531797D01*
X157617727Y-94531797D01*
X157719587Y-94504504D01*
X157810913Y-94451777D01*
X157824819Y-94437871D01*
X157844255Y-94427258D01*
X157860989Y-94412758D01*
X157874320Y-94410841D01*
X157886142Y-94404386D01*
X157908228Y-94405965D01*
X157930147Y-94402814D01*
X157942398Y-94408409D01*
X157955834Y-94409370D01*
X157973560Y-94422640D01*
X157993703Y-94431839D01*
X158000985Y-94443170D01*
X158011767Y-94451242D01*
X158019504Y-94471987D01*
X158031477Y-94490617D01*
X158034628Y-94512535D01*
X158036184Y-94516706D01*
X158036500Y-94525552D01*
X158036500Y-94755536D01*
X158016815Y-94822575D01*
X158000181Y-94843217D01*
X157964660Y-94878737D01*
X157964658Y-94878739D01*
X157907716Y-94977370D01*
X157907714Y-94977372D01*
X157898136Y-94993959D01*
X157880969Y-95058027D01*
X157871218Y-95094421D01*
X157863700Y-95122477D01*
X157863700Y-95739735D01*
X157844015Y-95806774D01*
X157827381Y-95827416D01*
X154963860Y-98690937D01*
X154963858Y-98690940D01*
X154897336Y-98806161D01*
X154897336Y-98806162D01*
X154862901Y-98934676D01*
X154862901Y-99067724D01*
X154887065Y-99157909D01*
X154885403Y-99227756D01*
X154846241Y-99285619D01*
X154782012Y-99313123D01*
X154767291Y-99314000D01*
X150324500Y-99314000D01*
X150257461Y-99294315D01*
X150211706Y-99241511D01*
X150200500Y-99190000D01*
X150200500Y-94371273D01*
X156169500Y-94371273D01*
X156169500Y-94476727D01*
X156196793Y-94578587D01*
X156249520Y-94669913D01*
X156324087Y-94744480D01*
X156415413Y-94797207D01*
X156517273Y-94824500D01*
X156517275Y-94824500D01*
X156622725Y-94824500D01*
X156622727Y-94824500D01*
X156724587Y-94797207D01*
X156815913Y-94744480D01*
X156890480Y-94669913D01*
X156943207Y-94578587D01*
X156970500Y-94476727D01*
X156970500Y-94371273D01*
X156943207Y-94269413D01*
X156890480Y-94178087D01*
X156815913Y-94103520D01*
X156724587Y-94050793D01*
X156622727Y-94023500D01*
X156517273Y-94023500D01*
X156415413Y-94050793D01*
X156415410Y-94050794D01*
X156324085Y-94103521D01*
X156249521Y-94178085D01*
X156196794Y-94269410D01*
X156196793Y-94269413D01*
X156169500Y-94371273D01*
X150200500Y-94371273D01*
X150200500Y-86625273D01*
X156444500Y-86625273D01*
X156444500Y-86730727D01*
X156471793Y-86832587D01*
X156524520Y-86923913D01*
X156599087Y-86998480D01*
X156690413Y-87051207D01*
X156792273Y-87078500D01*
X156792275Y-87078500D01*
X156897725Y-87078500D01*
X156897727Y-87078500D01*
X156999587Y-87051207D01*
X157090913Y-86998480D01*
X157165480Y-86923913D01*
X157218207Y-86832587D01*
X157245500Y-86730727D01*
X157245500Y-86625273D01*
X157218207Y-86523413D01*
X157165480Y-86432087D01*
X157090913Y-86357520D01*
X156999587Y-86304793D01*
X156897727Y-86277500D01*
X156792273Y-86277500D01*
X156690413Y-86304793D01*
X156690410Y-86304794D01*
X156599085Y-86357521D01*
X156524521Y-86432085D01*
X156471794Y-86523410D01*
X156471793Y-86523413D01*
X156444500Y-86625273D01*
X150200500Y-86625273D01*
X150200500Y-85023273D01*
X156444500Y-85023273D01*
X156444500Y-85128727D01*
X156471793Y-85230587D01*
X156524520Y-85321913D01*
X156599087Y-85396480D01*
X156690413Y-85449207D01*
X156792273Y-85476500D01*
X156792275Y-85476500D01*
X156897725Y-85476500D01*
X156897727Y-85476500D01*
X156999587Y-85449207D01*
X157090913Y-85396480D01*
X157165480Y-85321913D01*
X157218207Y-85230587D01*
X157245500Y-85128727D01*
X157245500Y-85023273D01*
X157218207Y-84921413D01*
X157165480Y-84830087D01*
X157090913Y-84755520D01*
X156999587Y-84702793D01*
X156897727Y-84675500D01*
X156792273Y-84675500D01*
X156690413Y-84702793D01*
X156690410Y-84702794D01*
X156599085Y-84755521D01*
X156524521Y-84830085D01*
X156471794Y-84921410D01*
X156471793Y-84921413D01*
X156444500Y-85023273D01*
X150200500Y-85023273D01*
X150200500Y-80791273D01*
X152283500Y-80791273D01*
X152283500Y-80896727D01*
X152310793Y-80998587D01*
X152363520Y-81089913D01*
X152438087Y-81164480D01*
X152529413Y-81217207D01*
X152631273Y-81244500D01*
X152631275Y-81244500D01*
X152736725Y-81244500D01*
X152736727Y-81244500D01*
X152838587Y-81217207D01*
X152929913Y-81164480D01*
X153004480Y-81089913D01*
X153057207Y-80998587D01*
X153084500Y-80896727D01*
X153084500Y-80791273D01*
X154783500Y-80791273D01*
X154783500Y-80896727D01*
X154810793Y-80998587D01*
X154863520Y-81089913D01*
X154938087Y-81164480D01*
X155029413Y-81217207D01*
X155131273Y-81244500D01*
X155131275Y-81244500D01*
X155236725Y-81244500D01*
X155236727Y-81244500D01*
X155338587Y-81217207D01*
X155429913Y-81164480D01*
X155504480Y-81089913D01*
X155557207Y-80998587D01*
X155584500Y-80896727D01*
X155584500Y-80791273D01*
X156033500Y-80791273D01*
X156033500Y-80896727D01*
X156060793Y-80998587D01*
X156113520Y-81089913D01*
X156188087Y-81164480D01*
X156279413Y-81217207D01*
X156381273Y-81244500D01*
X156381275Y-81244500D01*
X156486725Y-81244500D01*
X156486727Y-81244500D01*
X156588587Y-81217207D01*
X156679913Y-81164480D01*
X156754480Y-81089913D01*
X156807207Y-80998587D01*
X156834500Y-80896727D01*
X156834500Y-80791273D01*
X156807207Y-80689413D01*
X156754480Y-80598087D01*
X156679913Y-80523520D01*
X156588587Y-80470793D01*
X156486727Y-80443500D01*
X156381273Y-80443500D01*
X156279413Y-80470793D01*
X156279410Y-80470794D01*
X156188085Y-80523521D01*
X156113521Y-80598085D01*
X156060794Y-80689410D01*
X156060793Y-80689413D01*
X156033500Y-80791273D01*
X155584500Y-80791273D01*
X155557207Y-80689413D01*
X155504480Y-80598087D01*
X155429913Y-80523520D01*
X155338587Y-80470793D01*
X155236727Y-80443500D01*
X155131273Y-80443500D01*
X155029413Y-80470793D01*
X155029410Y-80470794D01*
X154938085Y-80523521D01*
X154863521Y-80598085D01*
X154810794Y-80689410D01*
X154810793Y-80689413D01*
X154783500Y-80791273D01*
X153084500Y-80791273D01*
X153057207Y-80689413D01*
X153004480Y-80598087D01*
X152929913Y-80523520D01*
X152838587Y-80470793D01*
X152736727Y-80443500D01*
X152631273Y-80443500D01*
X152529413Y-80470793D01*
X152529410Y-80470794D01*
X152438085Y-80523521D01*
X152363521Y-80598085D01*
X152310794Y-80689410D01*
X152310793Y-80689413D01*
X152283500Y-80791273D01*
X150200500Y-80791273D01*
X150200500Y-76324500D01*
X150220185Y-76257461D01*
X150272989Y-76211706D01*
X150324500Y-76200500D01*
X158675500Y-76200500D01*
X158742539Y-76220185D01*
G37*
%TD.AperFunction*%
%TD*%
%TA.AperFunction,Conductor*%
%TO.N,Net-(J2-Pin_1)*%
G36*
X163773039Y-81299685D02*
G01*
X163818794Y-81352489D01*
X163830000Y-81404000D01*
X163830000Y-85800638D01*
X163810315Y-85867677D01*
X163793681Y-85888319D01*
X163485319Y-86196681D01*
X163423996Y-86230166D01*
X163397638Y-86233000D01*
X161924999Y-86233000D01*
X161787885Y-86370114D01*
X161776595Y-86387011D01*
X161731521Y-86432085D01*
X161678794Y-86523410D01*
X161678793Y-86523413D01*
X161651500Y-86625273D01*
X161651500Y-86730727D01*
X161661645Y-86768587D01*
X161678793Y-86832586D01*
X161678794Y-86832589D01*
X161731521Y-86923914D01*
X161761681Y-86954074D01*
X161776384Y-86981001D01*
X161792977Y-87006820D01*
X161793868Y-87013020D01*
X161795166Y-87015397D01*
X161798000Y-87041755D01*
X161798000Y-87252000D01*
X161778315Y-87319039D01*
X161725511Y-87364794D01*
X161674000Y-87376000D01*
X158239000Y-87376000D01*
X158171961Y-87356315D01*
X158126206Y-87303511D01*
X158115000Y-87252000D01*
X158115000Y-83617362D01*
X158134685Y-83550323D01*
X158151319Y-83529681D01*
X160364681Y-81316319D01*
X160426004Y-81282834D01*
X160452362Y-81280000D01*
X163706000Y-81280000D01*
X163773039Y-81299685D01*
G37*
%TD.AperFunction*%
%TD*%
%TA.AperFunction,Conductor*%
%TO.N,/DRIVER/SHUNT1+*%
G36*
X161106039Y-89173685D02*
G01*
X161151794Y-89226489D01*
X161163000Y-89278000D01*
X161163000Y-90427000D01*
X161143315Y-90494039D01*
X161090511Y-90539794D01*
X161039000Y-90551000D01*
X157858000Y-90551000D01*
X157790961Y-90531315D01*
X157745206Y-90478511D01*
X157734000Y-90427000D01*
X157734000Y-89278000D01*
X157753685Y-89210961D01*
X157806489Y-89165206D01*
X157858000Y-89154000D01*
X161039000Y-89154000D01*
X161106039Y-89173685D01*
G37*
%TD.AperFunction*%
%TD*%
%TA.AperFunction,Conductor*%
%TO.N,/DRIVER/SHUNT2+*%
G36*
X166313039Y-89173685D02*
G01*
X166358794Y-89226489D01*
X166370000Y-89278000D01*
X166370000Y-90427000D01*
X166350315Y-90494039D01*
X166297511Y-90539794D01*
X166246000Y-90551000D01*
X163065000Y-90551000D01*
X162997961Y-90531315D01*
X162952206Y-90478511D01*
X162941000Y-90427000D01*
X162941000Y-89278000D01*
X162960685Y-89210961D01*
X163013489Y-89165206D01*
X163065000Y-89154000D01*
X166246000Y-89154000D01*
X166313039Y-89173685D01*
G37*
%TD.AperFunction*%
%TD*%
%TA.AperFunction,Conductor*%
%TO.N,Net-(J2-Pin_2)*%
G36*
X167329039Y-81299685D02*
G01*
X167374794Y-81352489D01*
X167386000Y-81404000D01*
X167386000Y-86109000D01*
X167366315Y-86176039D01*
X167313511Y-86221794D01*
X167262000Y-86233000D01*
X167131999Y-86233000D01*
X166994885Y-86370114D01*
X166983595Y-86387011D01*
X166938521Y-86432085D01*
X166885794Y-86523410D01*
X166885793Y-86523413D01*
X166858500Y-86625273D01*
X166858500Y-86730726D01*
X166885793Y-86832586D01*
X166885794Y-86832589D01*
X166938521Y-86923914D01*
X166968681Y-86954074D01*
X166983384Y-86981001D01*
X166999977Y-87006820D01*
X167000868Y-87013020D01*
X167002166Y-87015397D01*
X167005000Y-87041755D01*
X167005000Y-87252000D01*
X166985315Y-87319039D01*
X166932511Y-87364794D01*
X166881000Y-87376000D01*
X163446000Y-87376000D01*
X163378961Y-87356315D01*
X163333206Y-87303511D01*
X163322000Y-87252000D01*
X163322000Y-86611000D01*
X163341685Y-86543961D01*
X163394489Y-86498206D01*
X163446000Y-86487000D01*
X163830000Y-86487000D01*
X164465000Y-85852000D01*
X164465000Y-81404000D01*
X164484685Y-81336961D01*
X164537489Y-81291206D01*
X164589000Y-81280000D01*
X167262000Y-81280000D01*
X167329039Y-81299685D01*
G37*
%TD.AperFunction*%
%TD*%
%TA.AperFunction,Conductor*%
%TO.N,/DRIVER/SHUNT3+*%
G36*
X171520039Y-89173685D02*
G01*
X171565794Y-89226489D01*
X171577000Y-89278000D01*
X171577000Y-90427000D01*
X171557315Y-90494039D01*
X171504511Y-90539794D01*
X171453000Y-90551000D01*
X168272000Y-90551000D01*
X168204961Y-90531315D01*
X168159206Y-90478511D01*
X168148000Y-90427000D01*
X168148000Y-89278000D01*
X168167685Y-89210961D01*
X168220489Y-89165206D01*
X168272000Y-89154000D01*
X171453000Y-89154000D01*
X171520039Y-89173685D01*
G37*
%TD.AperFunction*%
%TD*%
%TA.AperFunction,Conductor*%
%TO.N,Net-(J2-Pin_3)*%
G36*
X171742539Y-81426685D02*
G01*
X171788294Y-81479489D01*
X171799500Y-81531000D01*
X171799500Y-83078931D01*
X171827891Y-83203315D01*
X171831000Y-83230908D01*
X171831000Y-84769090D01*
X171827891Y-84796683D01*
X171799500Y-84921069D01*
X171799500Y-87252000D01*
X171779815Y-87319039D01*
X171727011Y-87364794D01*
X171675500Y-87376000D01*
X168653000Y-87376000D01*
X168585961Y-87356315D01*
X168540206Y-87303511D01*
X168529000Y-87252000D01*
X168529000Y-86614000D01*
X168148000Y-86233000D01*
X168018000Y-86233000D01*
X167950961Y-86213315D01*
X167905206Y-86160511D01*
X167894000Y-86109000D01*
X167894000Y-81531000D01*
X167913685Y-81463961D01*
X167966489Y-81418206D01*
X168018000Y-81407000D01*
X171675500Y-81407000D01*
X171742539Y-81426685D01*
G37*
%TD.AperFunction*%
%TD*%
M02*
