%TF.GenerationSoftware,KiCad,Pcbnew,9.0.2*%
%TF.CreationDate,2026-03-17T13:30:53+09:00*%
%TF.ProjectId,X610,58363130-2e6b-4696-9361-645f70636258,rev?*%
%TF.SameCoordinates,Original*%
%TF.FileFunction,Copper,L6,Inr*%
%TF.FilePolarity,Positive*%
%FSLAX46Y46*%
G04 Gerber Fmt 4.6, Leading zero omitted, Abs format (unit mm)*
G04 Created by KiCad (PCBNEW 9.0.2) date 2026-03-17 13:30:53*
%MOMM*%
%LPD*%
G01*
G04 APERTURE LIST*
G04 Aperture macros list*
%AMRoundRect*
0 Rectangle with rounded corners*
0 $1 Rounding radius*
0 $2 $3 $4 $5 $6 $7 $8 $9 X,Y pos of 4 corners*
0 Add a 4 corners polygon primitive as box body*
4,1,4,$2,$3,$4,$5,$6,$7,$8,$9,$2,$3,0*
0 Add four circle primitives for the rounded corners*
1,1,$1+$1,$2,$3*
1,1,$1+$1,$4,$5*
1,1,$1+$1,$6,$7*
1,1,$1+$1,$8,$9*
0 Add four rect primitives between the rounded corners*
20,1,$1+$1,$2,$3,$4,$5,0*
20,1,$1+$1,$4,$5,$6,$7,0*
20,1,$1+$1,$6,$7,$8,$9,0*
20,1,$1+$1,$8,$9,$2,$3,0*%
G04 Aperture macros list end*
%TA.AperFunction,ComponentPad*%
%ADD10C,1.500000*%
%TD*%
%TA.AperFunction,ComponentPad*%
%ADD11RoundRect,0.195000X-0.455000X0.455000X-0.455000X-0.455000X0.455000X-0.455000X0.455000X0.455000X0*%
%TD*%
%TA.AperFunction,ComponentPad*%
%ADD12C,1.300000*%
%TD*%
%TA.AperFunction,ViaPad*%
%ADD13C,0.400000*%
%TD*%
%TA.AperFunction,ViaPad*%
%ADD14C,0.600000*%
%TD*%
%TA.AperFunction,Conductor*%
%ADD15C,0.177800*%
%TD*%
%TA.AperFunction,Conductor*%
%ADD16C,0.254000*%
%TD*%
%TA.AperFunction,Conductor*%
%ADD17C,0.508000*%
%TD*%
G04 APERTURE END LIST*
D10*
%TO.N,Net-(J1-Pin_1)*%
%TO.C,J1*%
X153146000Y-117094000D03*
%TO.N,/MCU/LIMIT_SW*%
X151146000Y-117094000D03*
%TD*%
%TO.N,+24V_L*%
%TO.C,J3*%
X153146000Y-115046000D03*
%TO.N,GND_L*%
X151146000Y-115046000D03*
%TO.N,/CANFD/CANFD_N*%
X153146000Y-113046000D03*
%TO.N,/CANFD/CANFD_P*%
X151146000Y-113046000D03*
%TD*%
D11*
%TO.N,Net-(J6-Pin_1)*%
%TO.C,J6*%
X180213000Y-110997000D03*
D12*
%TO.N,GND*%
X180213000Y-108997000D03*
%TO.N,Net-(J6-Pin_3)*%
X180213000Y-106997000D03*
%TO.N,Net-(J6-Pin_4)*%
X180213000Y-104997000D03*
%TO.N,GND*%
X180213000Y-102997000D03*
%TO.N,/MCU/SWD.CLK*%
X180213000Y-100997000D03*
%TO.N,Net-(J6-Pin_7)*%
X180213000Y-98997000D03*
%TD*%
D13*
%TO.N,GND*%
X160528000Y-101092000D03*
X154940000Y-118110000D03*
X153416000Y-119380000D03*
X150622000Y-119126000D03*
X155194000Y-111252000D03*
%TO.N,/DRIVER/nSLEEP*%
X156467545Y-106493045D03*
X159258000Y-114426000D03*
%TO.N,GND*%
X161036000Y-117223310D03*
X152654000Y-95758000D03*
X153162000Y-95758000D03*
X169545000Y-95631000D03*
X165989000Y-96139000D03*
X154178000Y-95250000D03*
X153670000Y-93726000D03*
X150622000Y-108966000D03*
X168910000Y-99060000D03*
X155702000Y-96266000D03*
X155194000Y-95250000D03*
X160020000Y-118110000D03*
X157480000Y-114935000D03*
X153670000Y-95250000D03*
X159131000Y-96266000D03*
X160147000Y-114427000D03*
X154178000Y-108458000D03*
X162052000Y-102616000D03*
X160528000Y-96266000D03*
X161290000Y-109474000D03*
X160020000Y-119380000D03*
X171450000Y-119380000D03*
X152654000Y-107950000D03*
X151638000Y-95250000D03*
X161290000Y-119380000D03*
X155194000Y-93726000D03*
X153670000Y-107950000D03*
X153670000Y-96774000D03*
X162673000Y-108077000D03*
X152146000Y-96774000D03*
X152146000Y-96266000D03*
X160274000Y-101600000D03*
X154178000Y-94234000D03*
X152400000Y-92710000D03*
X153670000Y-92710000D03*
X156210000Y-119380000D03*
X162433000Y-112649000D03*
X161036000Y-102616000D03*
X171450000Y-101600000D03*
X156972000Y-112141000D03*
X161544000Y-101092000D03*
X154178000Y-96774000D03*
X155194000Y-108966000D03*
X171450000Y-100330000D03*
X156210000Y-118110000D03*
X168275000Y-113792000D03*
X162052000Y-108204000D03*
X154178000Y-95758000D03*
X159131000Y-95504000D03*
X162052000Y-101092000D03*
X152654000Y-95250000D03*
X165608000Y-116967000D03*
X152146000Y-94234000D03*
X153670000Y-94742000D03*
X160782000Y-101600000D03*
X154178000Y-96266000D03*
X153162000Y-107950000D03*
X153162000Y-94742000D03*
X154686000Y-108458000D03*
X155194000Y-94742000D03*
X161544000Y-102616000D03*
X153670000Y-96266000D03*
X154686000Y-96266000D03*
X168910000Y-96266000D03*
X155194000Y-96266000D03*
X168910000Y-101600000D03*
X158750000Y-119380000D03*
X157480000Y-118110000D03*
X154686000Y-94234000D03*
X154686000Y-94742000D03*
X152654000Y-93726000D03*
X168910000Y-95631000D03*
X155194000Y-96774000D03*
X158750000Y-116840000D03*
X153670000Y-108458000D03*
X161036000Y-101092000D03*
X160782000Y-95504000D03*
X154686000Y-96774000D03*
X165989000Y-104775000D03*
X153162000Y-95250000D03*
X151638000Y-96774000D03*
X155702000Y-95250000D03*
X153670000Y-94234000D03*
X154686000Y-108966000D03*
X151130000Y-108458000D03*
X151638000Y-96266000D03*
X161798000Y-101600000D03*
X171450000Y-118110000D03*
X152654000Y-94234000D03*
X154686000Y-95758000D03*
X153162000Y-93726000D03*
X152146000Y-108458000D03*
X155194000Y-94234000D03*
X163195000Y-112649000D03*
X161290000Y-101600000D03*
X152146000Y-108966000D03*
X156464000Y-102743000D03*
X170307000Y-119126000D03*
X157480000Y-116840000D03*
X168910000Y-100330000D03*
X158750000Y-118110000D03*
X151638000Y-108966000D03*
X159893000Y-95504000D03*
X153162000Y-96774000D03*
X152146000Y-94742000D03*
X152146000Y-95758000D03*
X171323000Y-96266000D03*
X151638000Y-94234000D03*
X152654000Y-108966000D03*
X168275000Y-96266000D03*
X152654000Y-96266000D03*
X161036000Y-102108000D03*
X152654000Y-108458000D03*
X168275000Y-95631000D03*
X151130000Y-108966000D03*
X170180000Y-118110000D03*
X152146000Y-93726000D03*
X154178000Y-108966000D03*
X151638000Y-94742000D03*
X161544000Y-102108000D03*
X151638000Y-93726000D03*
X154686000Y-93726000D03*
X157480000Y-119380000D03*
X165735000Y-118872000D03*
X152146000Y-107950000D03*
X154178000Y-94742000D03*
X151638000Y-108458000D03*
X150622000Y-108458000D03*
X154178000Y-93726000D03*
X153670000Y-95758000D03*
X153162000Y-108458000D03*
X162306000Y-101600000D03*
X158496000Y-113030000D03*
X174884500Y-112202000D03*
X155194000Y-95758000D03*
X166370000Y-119380000D03*
X171323000Y-95631000D03*
X152654000Y-94742000D03*
X156210000Y-116840000D03*
X151638000Y-95758000D03*
X152654000Y-96774000D03*
X155702000Y-96774000D03*
X153670000Y-108966000D03*
X164719000Y-95504000D03*
X154686000Y-95250000D03*
X162052000Y-102108000D03*
X154940000Y-92710000D03*
X155702000Y-95758000D03*
X153162000Y-96266000D03*
X153162000Y-108966000D03*
X159893000Y-96266000D03*
X153162000Y-94234000D03*
X160528000Y-102108000D03*
X169545000Y-96266000D03*
X152146000Y-95250000D03*
%TO.N,+3.3V*%
X167386000Y-116099200D03*
X157861000Y-109220000D03*
X157859000Y-108204000D03*
X157861000Y-108712000D03*
X168783000Y-97661000D03*
X167075800Y-107150000D03*
X170344185Y-112813185D03*
X159766000Y-116332000D03*
X165227000Y-105509000D03*
X165988213Y-98679787D03*
X156434000Y-80844000D03*
%TO.N,/DRIVER/SHA*%
X157969000Y-100838000D03*
X158369000Y-92964000D03*
%TO.N,/DRIVER/SHB*%
X163576000Y-92964000D03*
X162687000Y-96935997D03*
%TO.N,/DRIVER/SHC*%
X168910000Y-92964000D03*
X162687000Y-97536000D03*
%TO.N,+5V*%
X152880000Y-105664000D03*
X157353000Y-107061000D03*
X168418000Y-118999000D03*
X173609000Y-110363000D03*
%TO.N,+24V*%
X163576000Y-91821000D03*
X169418000Y-91313000D03*
X152146000Y-88392000D03*
X159004000Y-91313000D03*
X153670000Y-91440000D03*
X152146000Y-89916000D03*
X155702000Y-89408000D03*
X164592000Y-91821000D03*
X154686000Y-89916000D03*
X153162000Y-88392000D03*
X163068000Y-91821000D03*
X155194000Y-89408000D03*
X152146000Y-90424000D03*
X155702000Y-90932000D03*
X152146000Y-91440000D03*
X152654000Y-88900000D03*
X153162000Y-89408000D03*
X154178000Y-89916000D03*
X165100000Y-91821000D03*
X152146000Y-90932000D03*
X163068000Y-91313000D03*
X159766000Y-94615000D03*
X153670000Y-88900000D03*
X168402000Y-91313000D03*
X152146000Y-88900000D03*
D14*
X155368200Y-99001200D03*
D13*
X169926000Y-94107000D03*
X154686000Y-90932000D03*
X154686000Y-90424000D03*
X168910000Y-91313000D03*
X168656000Y-94742000D03*
X165608000Y-91313000D03*
X153162000Y-90932000D03*
X154178000Y-90424000D03*
X155194000Y-88900000D03*
X152654000Y-90424000D03*
X152654000Y-91440000D03*
X164084000Y-91313000D03*
X158496000Y-91313000D03*
X155194000Y-90424000D03*
X159004000Y-93980000D03*
X152654000Y-89916000D03*
X151638000Y-89408000D03*
X158496000Y-91821000D03*
X151638000Y-89916000D03*
X169418000Y-91821000D03*
X153162000Y-89916000D03*
X163576000Y-91313000D03*
X155194000Y-89916000D03*
X168402000Y-91821000D03*
X153162000Y-88900000D03*
X153670000Y-89408000D03*
X159004000Y-91821000D03*
X151638000Y-88392000D03*
X154686000Y-89408000D03*
X155702000Y-91440000D03*
X160020000Y-91821000D03*
X155702000Y-89916000D03*
X165608000Y-91821000D03*
X167894000Y-91313000D03*
X163957000Y-94742000D03*
X168656000Y-94107000D03*
X151638000Y-90424000D03*
X155194000Y-88392000D03*
X164084000Y-91821000D03*
X159004000Y-94615000D03*
X151638000Y-90932000D03*
X165481000Y-94107000D03*
X153670000Y-88392000D03*
X160020000Y-91313000D03*
X152654000Y-88392000D03*
X169291000Y-94742000D03*
X154178000Y-90932000D03*
X155702000Y-90424000D03*
X169926000Y-91313000D03*
X154686000Y-88900000D03*
X169926000Y-91821000D03*
X155194000Y-91440000D03*
X155194000Y-90932000D03*
X154178000Y-88900000D03*
X152654000Y-90932000D03*
X163957000Y-94107000D03*
X152146000Y-89408000D03*
X151638000Y-91440000D03*
X152654000Y-89408000D03*
X151638000Y-88900000D03*
X154178000Y-89408000D03*
X153670000Y-89916000D03*
X165481000Y-94742000D03*
X160528000Y-94615000D03*
X159766000Y-93980000D03*
X165100000Y-91313000D03*
X154178000Y-91440000D03*
X153162000Y-90424000D03*
X168910000Y-91821000D03*
X159512000Y-91313000D03*
X154686000Y-88392000D03*
X154686000Y-91440000D03*
X153162000Y-91440000D03*
X154178000Y-88392000D03*
X153670000Y-90932000D03*
X164719000Y-94107000D03*
X153670000Y-90424000D03*
X164719000Y-94742000D03*
X164592000Y-91313000D03*
X159512000Y-91821000D03*
X169291000Y-94107000D03*
X169926000Y-94742000D03*
%TO.N,/MCU/USER_LED*%
X169782000Y-110821729D03*
%TO.N,/DRIVER/nFAULT*%
X160170888Y-104921000D03*
X164084000Y-114554000D03*
%TO.N,/MCU/SWD.CLK*%
X168418000Y-115570000D03*
X167680000Y-106623000D03*
%TO.N,/ENCODER/ADC_ENC1*%
X155184000Y-80844000D03*
X159745000Y-106178400D03*
%TO.N,/ENCODER/ADC_ENC2*%
X152684000Y-80844000D03*
X158496000Y-107442000D03*
%TO.N,/MCU/BOOT*%
X169293468Y-113161467D03*
%TO.N,/MCU/NRST*%
X161546000Y-115568000D03*
%TO.N,/DRIVER/OPAMP1.+*%
X157734000Y-112141000D03*
X165100000Y-99693000D03*
%TO.N,/DRIVER/SHUNT1+*%
X160020000Y-89408000D03*
X160528000Y-89916000D03*
X157988000Y-89408000D03*
X158496000Y-89916000D03*
X160020000Y-89916000D03*
X158496000Y-90424000D03*
X164084000Y-97663000D03*
X160528000Y-90424000D03*
X159004000Y-89916000D03*
X161036000Y-89408000D03*
X158496000Y-89408000D03*
X159004000Y-89408000D03*
X157988000Y-89916000D03*
X157988000Y-90424000D03*
X159512000Y-89408000D03*
X159004000Y-90424000D03*
X160020000Y-90424000D03*
X161036000Y-90424000D03*
X160528000Y-89408000D03*
X161036000Y-89916000D03*
X159512000Y-90424000D03*
X159512000Y-89916000D03*
%TO.N,/DRIVER/OPAMP2.+*%
X158423413Y-112085298D03*
X167132000Y-99314000D03*
%TO.N,/DRIVER/SHUNT2+*%
X164084000Y-89408000D03*
X163576000Y-90424000D03*
X165100000Y-89408000D03*
X164084000Y-90424000D03*
X166116000Y-89916000D03*
X166116000Y-89408000D03*
X164592000Y-90424000D03*
X165608000Y-90424000D03*
X165608000Y-89916000D03*
X163068000Y-89916000D03*
X165608000Y-89408000D03*
X164592000Y-89408000D03*
X166116000Y-90424000D03*
X165100000Y-89916000D03*
X163068000Y-89408000D03*
X164592000Y-89916000D03*
X163576000Y-89408000D03*
X164084000Y-89916000D03*
X167132000Y-97663000D03*
X165100000Y-90424000D03*
X163068000Y-90424000D03*
X163576000Y-89916000D03*
%TO.N,/DRIVER/OPAMP3.+*%
X160781947Y-114555926D03*
X170307000Y-99693000D03*
%TO.N,/DRIVER/SHUNT3+*%
X168402000Y-90424000D03*
X171323000Y-97663000D03*
X169926000Y-90424000D03*
X170434000Y-90424000D03*
X171450000Y-89408000D03*
X171450000Y-89916000D03*
X170942000Y-89916000D03*
X169418000Y-90424000D03*
X168402000Y-89408000D03*
X170942000Y-90424000D03*
X170942000Y-89408000D03*
X169926000Y-89408000D03*
X171450000Y-90424000D03*
X168910000Y-90424000D03*
X170434000Y-89916000D03*
X169418000Y-89408000D03*
X168910000Y-89916000D03*
X170434000Y-89408000D03*
X168402000Y-89916000D03*
X169926000Y-89916000D03*
X169418000Y-89916000D03*
X168910000Y-89408000D03*
%TO.N,/DRIVER/GHA*%
X156570000Y-94424000D03*
X159108908Y-100664611D03*
%TO.N,/DRIVER/GLA*%
X159769127Y-98639230D03*
X157565000Y-94131297D03*
%TO.N,Net-(U3-TXD)*%
X164211000Y-104521000D03*
X150855000Y-106436500D03*
%TO.N,/CANFD/CANFD.RX*%
X163825579Y-106172880D03*
X155807899Y-107846088D03*
%TO.N,/ENCODER/SPI.MISO*%
X167120000Y-109890001D03*
%TO.N,/ENCODER/SPI.SCK*%
X166681296Y-109480679D03*
%TO.N,/ENCODER/SPI.SS*%
X166624000Y-107950000D03*
%TO.N,/ENCODER/SPI.MOSI*%
X167120000Y-110490000D03*
%TO.N,/DRIVER/GLC*%
X167698716Y-95150540D03*
X164134499Y-100900692D03*
%TO.N,/DRIVER/GLB*%
X162814000Y-94107000D03*
X162018640Y-97590092D03*
%TO.N,/DRIVER/GHB*%
X162315769Y-94461873D03*
X161405205Y-97663000D03*
%TO.N,/DRIVER/GHC*%
X163449000Y-100711000D03*
X167215734Y-94571734D03*
%TO.N,Net-(U4-EN)*%
X159639000Y-99695000D03*
X154432000Y-112774000D03*
D14*
%TO.N,Net-(D6-K)*%
X158567949Y-98353055D03*
D13*
%TO.N,Net-(Q1-G1)*%
X156464000Y-92774000D03*
%TO.N,Net-(D7-K)*%
X167259000Y-86678000D03*
%TO.N,Net-(Q2-G1)*%
X162233115Y-93036885D03*
%TO.N,Net-(Q3-G1)*%
X167232736Y-93062736D03*
%TO.N,Net-(D8-K)*%
X162052000Y-86678000D03*
%TO.N,/DRIVER/DRVOFF*%
X171089000Y-103271000D03*
X164684003Y-114554000D03*
%TO.N,Net-(D3-A)*%
X156845000Y-85076000D03*
%TO.N,Net-(J2-Pin_1)*%
X158496000Y-85090000D03*
X161544000Y-84582000D03*
X158496000Y-87122000D03*
X162560000Y-82042000D03*
X163576000Y-83058000D03*
X162052000Y-83058000D03*
X163068000Y-84074000D03*
X161544000Y-84074000D03*
X160020000Y-84074000D03*
X159512000Y-82550000D03*
X163068000Y-81534000D03*
X163576000Y-83566000D03*
X161036000Y-82550000D03*
X162560000Y-84582000D03*
X163068000Y-85090000D03*
X163576000Y-84582000D03*
X162560000Y-85090000D03*
X163576000Y-85598000D03*
X160020000Y-84582000D03*
X159512000Y-84074000D03*
X163068000Y-83058000D03*
X159512000Y-84582000D03*
X160020000Y-85090000D03*
X160528000Y-82042000D03*
X158496000Y-85598000D03*
X159004000Y-84582000D03*
X160528000Y-87122000D03*
X160020000Y-82042000D03*
X163576000Y-81534000D03*
X163068000Y-84582000D03*
X160528000Y-85598000D03*
X163576000Y-82550000D03*
X161036000Y-84582000D03*
X161036000Y-84074000D03*
X162052000Y-82042000D03*
X160528000Y-86106000D03*
X161544000Y-81534000D03*
X161036000Y-86614000D03*
X163068000Y-85598000D03*
X160020000Y-86106000D03*
X163068000Y-82042000D03*
X161036000Y-86106000D03*
X158496000Y-84582000D03*
X159004000Y-83058000D03*
X162560000Y-81534000D03*
X162052000Y-85090000D03*
X159512000Y-85598000D03*
X161544000Y-82550000D03*
X162052000Y-81534000D03*
X161036000Y-87122000D03*
X158496000Y-86614000D03*
X162052000Y-84074000D03*
X159512000Y-86614000D03*
X159512000Y-86106000D03*
X159004000Y-83566000D03*
X158496000Y-86106000D03*
X160020000Y-83566000D03*
X163576000Y-84074000D03*
X161036000Y-85090000D03*
X160528000Y-84074000D03*
X162052000Y-83566000D03*
X161036000Y-82042000D03*
X160528000Y-84582000D03*
X159512000Y-85090000D03*
X161544000Y-82042000D03*
X163068000Y-82550000D03*
X161544000Y-85598000D03*
X163576000Y-82042000D03*
X162560000Y-85598000D03*
X162560000Y-84074000D03*
X159004000Y-84074000D03*
X160528000Y-86614000D03*
X160528000Y-83058000D03*
X160528000Y-85090000D03*
X160020000Y-86614000D03*
X161036000Y-83058000D03*
X159512000Y-87122000D03*
X159512000Y-83566000D03*
X160528000Y-81534000D03*
X161544000Y-83058000D03*
X160528000Y-82550000D03*
X161544000Y-85090000D03*
X163068000Y-83566000D03*
X162560000Y-83058000D03*
X160020000Y-85598000D03*
X161036000Y-81534000D03*
X158496000Y-83566000D03*
X162560000Y-82550000D03*
X160020000Y-87122000D03*
X161544000Y-83566000D03*
X159512000Y-83058000D03*
X160020000Y-83058000D03*
X158496000Y-84074000D03*
X159004000Y-85090000D03*
X160528000Y-83566000D03*
X162052000Y-84582000D03*
X161036000Y-83566000D03*
X159004000Y-85598000D03*
X161036000Y-85598000D03*
X162052000Y-85598000D03*
X162052000Y-82550000D03*
X159004000Y-86106000D03*
X163576000Y-85090000D03*
X160020000Y-82550000D03*
X159004000Y-87122000D03*
X159004000Y-86614000D03*
X162560000Y-83566000D03*
%TO.N,Net-(J2-Pin_3)*%
X170434000Y-84582000D03*
X170942000Y-84074000D03*
X171450000Y-84582000D03*
X168402000Y-85090000D03*
X170434000Y-83058000D03*
X170942000Y-84582000D03*
X170942000Y-81534000D03*
X171450000Y-85090000D03*
X168910000Y-83058000D03*
X171450000Y-81534000D03*
X168910000Y-84074000D03*
X168910000Y-87122000D03*
X168402000Y-84582000D03*
X168402000Y-85598000D03*
X169418000Y-86106000D03*
X171450000Y-83566000D03*
X169926000Y-84074000D03*
X170434000Y-84074000D03*
X169926000Y-82550000D03*
X171450000Y-85598000D03*
X169926000Y-86106000D03*
X171450000Y-83058000D03*
X170942000Y-86614000D03*
X169926000Y-87122000D03*
X168910000Y-82042000D03*
X169418000Y-83566000D03*
X170434000Y-85090000D03*
X169418000Y-85090000D03*
X170434000Y-85598000D03*
X171450000Y-86106000D03*
X168402000Y-83566000D03*
X170434000Y-87122000D03*
X170942000Y-85598000D03*
X168402000Y-83058000D03*
X171450000Y-84074000D03*
X168402000Y-84074000D03*
X169418000Y-87122000D03*
X169926000Y-83058000D03*
X169926000Y-84582000D03*
X168910000Y-82550000D03*
X170434000Y-82042000D03*
X169926000Y-85598000D03*
X168910000Y-86106000D03*
X169418000Y-84582000D03*
X171450000Y-86614000D03*
X170434000Y-86614000D03*
X171450000Y-87122000D03*
X169418000Y-85598000D03*
X169418000Y-84074000D03*
X169926000Y-83566000D03*
X169418000Y-82042000D03*
X168910000Y-85598000D03*
X169418000Y-86614000D03*
X170942000Y-83058000D03*
X170434000Y-81534000D03*
X170434000Y-82550000D03*
X168910000Y-83566000D03*
X168402000Y-81534000D03*
X169418000Y-81534000D03*
X170434000Y-86106000D03*
X168910000Y-85090000D03*
X168402000Y-82042000D03*
X169926000Y-81534000D03*
X169926000Y-85090000D03*
X170942000Y-82042000D03*
X169926000Y-86614000D03*
X169418000Y-82550000D03*
X168402000Y-86106000D03*
X170942000Y-82550000D03*
X169926000Y-82042000D03*
X168402000Y-82550000D03*
X170434000Y-83566000D03*
X168910000Y-81534000D03*
X170942000Y-85090000D03*
X170942000Y-86106000D03*
X168910000Y-84582000D03*
X170942000Y-83566000D03*
X168910000Y-86614000D03*
X171450000Y-82550000D03*
X171450000Y-82042000D03*
X169418000Y-83058000D03*
X170942000Y-87122000D03*
%TO.N,Net-(J2-Pin_2)*%
X166370000Y-83058000D03*
X166878000Y-81534000D03*
X166878000Y-82550000D03*
X164592000Y-86106000D03*
X166878000Y-84582000D03*
X164846000Y-83058000D03*
X165100000Y-86106000D03*
X164846000Y-82042000D03*
X166116000Y-86614000D03*
X165608000Y-86614000D03*
X165354000Y-84074000D03*
X165354000Y-83566000D03*
X165608000Y-86106000D03*
X166878000Y-85598000D03*
X165354000Y-81534000D03*
X164084000Y-87122000D03*
X165354000Y-83058000D03*
X164846000Y-85090000D03*
X164846000Y-84582000D03*
X166370000Y-85598000D03*
X164592000Y-87122000D03*
X165862000Y-82042000D03*
X165862000Y-83058000D03*
X166370000Y-84582000D03*
X166878000Y-85090000D03*
X166370000Y-84074000D03*
X166878000Y-83566000D03*
X165100000Y-86614000D03*
X166370000Y-82550000D03*
X165354000Y-82550000D03*
X166370000Y-82042000D03*
X165862000Y-82550000D03*
X165862000Y-83566000D03*
X165354000Y-85598000D03*
X165100000Y-87122000D03*
X166878000Y-82042000D03*
X165354000Y-84582000D03*
X164084000Y-86614000D03*
X164846000Y-85598000D03*
X166370000Y-83566000D03*
X166116000Y-87122000D03*
X165862000Y-81534000D03*
X164592000Y-86614000D03*
X164846000Y-82550000D03*
X166370000Y-85090000D03*
X164846000Y-83566000D03*
X165862000Y-84074000D03*
X165608000Y-87122000D03*
X166370000Y-81534000D03*
X165862000Y-84582000D03*
X164846000Y-84074000D03*
X165354000Y-85090000D03*
X166116000Y-86106000D03*
X165862000Y-85598000D03*
X164846000Y-81534000D03*
X163576000Y-86868000D03*
X166878000Y-83058000D03*
X165354000Y-82042000D03*
X166878000Y-84074000D03*
X165862000Y-85090000D03*
%TO.N,Net-(J6-Pin_7)*%
X169320000Y-114935000D03*
X168529000Y-104823000D03*
%TO.N,Net-(J6-Pin_3)*%
X168402000Y-116967000D03*
X169300000Y-108204000D03*
%TO.N,Net-(D9-K)*%
X156845000Y-86678000D03*
%TD*%
D15*
%TO.N,/DRIVER/nSLEEP*%
X159238900Y-114445100D02*
X159258000Y-114426000D01*
X157363909Y-114445100D02*
X159238900Y-114445100D01*
X155773100Y-112854291D02*
X157363909Y-114445100D01*
X155317999Y-108397175D02*
X155773100Y-108852276D01*
X155333493Y-108064507D02*
X155317999Y-108080001D01*
X155317999Y-108049012D02*
X155333493Y-108064507D01*
X155317999Y-108080001D02*
X155317999Y-108397175D01*
X155773100Y-108852276D02*
X155773100Y-112854291D01*
X156467545Y-106493618D02*
X155317999Y-107643164D01*
X156467545Y-106493045D02*
X156467545Y-106493618D01*
X155317999Y-107643164D02*
X155317999Y-108049012D01*
%TO.N,/CANFD/CANFD.RX*%
X159542076Y-106668300D02*
X163330159Y-106668300D01*
X157080900Y-106571100D02*
X159444876Y-106571100D01*
X155807899Y-107844101D02*
X157080900Y-106571100D01*
X159444876Y-106571100D02*
X159542076Y-106668300D01*
X155807899Y-107846088D02*
X155807899Y-107844101D01*
X163330159Y-106668300D02*
X163825579Y-106172880D01*
D16*
%TO.N,/DRIVER/SHA*%
X158457517Y-101307517D02*
X157988000Y-100838000D01*
X158369000Y-92964000D02*
X158369000Y-96266000D01*
X158369000Y-96266000D02*
X160401000Y-98298000D01*
X160401000Y-100330000D02*
X159423483Y-101307517D01*
X159423483Y-101307517D02*
X158457517Y-101307517D01*
X160401000Y-98298000D02*
X160401000Y-100330000D01*
%TO.N,/DRIVER/SHB*%
X163342000Y-93888295D02*
X163342000Y-94325705D01*
X163322000Y-94345705D02*
X163322000Y-96300997D01*
X163322000Y-93868295D02*
X163342000Y-93888295D01*
X163342000Y-94325705D02*
X163322000Y-94345705D01*
X163322000Y-93218000D02*
X163322000Y-93868295D01*
X163576000Y-92964000D02*
X163322000Y-93218000D01*
X163322000Y-96300997D02*
X162687000Y-96935997D01*
%TO.N,/DRIVER/SHC*%
X163468702Y-96901000D02*
X164139763Y-96901000D01*
X162905705Y-97463997D02*
X163468702Y-96901000D01*
X162759003Y-97463997D02*
X162687000Y-97536000D01*
X168076763Y-92964000D02*
X164139763Y-96901000D01*
X168910000Y-92964000D02*
X168076763Y-92964000D01*
X162905705Y-97463997D02*
X162759003Y-97463997D01*
D17*
%TO.N,+5V*%
X171524000Y-114771310D02*
X168418000Y-117877310D01*
X157353000Y-107227297D02*
X156317000Y-108263297D01*
X171524000Y-111305000D02*
X171524000Y-114771310D01*
X161905000Y-113772000D02*
X163576000Y-115443000D01*
X163576000Y-115443000D02*
X165100000Y-115443000D01*
X157353000Y-107115000D02*
X157353000Y-107227297D01*
X168418000Y-117877310D02*
X168418000Y-118999000D01*
X172466000Y-110363000D02*
X171524000Y-111305000D01*
X156317000Y-108263297D02*
X156317000Y-112629000D01*
X156317000Y-112629000D02*
X157460000Y-113772000D01*
X167534310Y-117877310D02*
X168418000Y-117877310D01*
X173609000Y-110363000D02*
X172466000Y-110363000D01*
X165100000Y-115443000D02*
X167534310Y-117877310D01*
X157460000Y-113772000D02*
X161905000Y-113772000D01*
D16*
%TO.N,/MCU/SWD.CLK*%
X168402000Y-115570000D02*
X167680000Y-114848000D01*
X167680000Y-114848000D02*
X167680000Y-106623000D01*
X168418000Y-115570000D02*
X168402000Y-115570000D01*
%TO.N,/DRIVER/GHA*%
X156845000Y-98400703D02*
X156845000Y-94699000D01*
X159108908Y-100664611D02*
X156845000Y-98400703D01*
X156845000Y-94699000D02*
X156570000Y-94424000D01*
%TO.N,/DRIVER/GLA*%
X157480000Y-94216297D02*
X157480000Y-96350103D01*
X157480000Y-96350103D02*
X159769127Y-98639230D01*
X157565000Y-94131297D02*
X157480000Y-94216297D01*
D15*
%TO.N,Net-(U3-TXD)*%
X163068000Y-105664000D02*
X155194000Y-105664000D01*
X155194000Y-105664000D02*
X154559000Y-106299000D01*
X154559000Y-106299000D02*
X150992500Y-106299000D01*
X164211000Y-104521000D02*
X163068000Y-105664000D01*
X150992500Y-106299000D02*
X150855000Y-106436500D01*
D16*
%TO.N,/DRIVER/GLC*%
X167640000Y-95209256D02*
X167698716Y-95150540D01*
X164118631Y-99668837D02*
X165341468Y-98446000D01*
X165349935Y-98446000D02*
X167534000Y-96261935D01*
X167534000Y-96253468D02*
X167640000Y-96147467D01*
X167640000Y-96147467D02*
X167640000Y-95209256D01*
X164134499Y-100900692D02*
X164118631Y-100884824D01*
X167534000Y-96261935D02*
X167534000Y-96253468D01*
X165341468Y-98446000D02*
X165349935Y-98446000D01*
X164118631Y-100884824D02*
X164118631Y-99668837D01*
%TO.N,/DRIVER/GLB*%
X162842768Y-94135768D02*
X162842768Y-95983232D01*
X162842768Y-95983232D02*
X162018640Y-96807360D01*
X162018640Y-96807360D02*
X162018640Y-97590092D01*
X162814000Y-94107000D02*
X162842768Y-94135768D01*
%TO.N,/DRIVER/GHB*%
X162314768Y-94462874D02*
X162314768Y-95867764D01*
X162315769Y-94461873D02*
X162314768Y-94462874D01*
X162314768Y-95867764D02*
X161405205Y-96777327D01*
X161405205Y-96777327D02*
X161405205Y-97663000D01*
%TO.N,/DRIVER/GHC*%
X165161467Y-97991000D02*
X165153000Y-97991000D01*
X167079000Y-96073468D02*
X165161467Y-97991000D01*
X167112000Y-95214705D02*
X167185000Y-95287705D01*
X167185000Y-95959000D02*
X167079000Y-96065000D01*
X165153000Y-97991000D02*
X163449000Y-99695000D01*
X167079000Y-96065000D02*
X167079000Y-96073468D01*
X167215734Y-94673561D02*
X167112000Y-94777295D01*
X163449000Y-99695000D02*
X163449000Y-100711000D01*
X167185000Y-95287705D02*
X167185000Y-95959000D01*
X167215734Y-94571734D02*
X167215734Y-94673561D01*
X167112000Y-94777295D02*
X167112000Y-95214705D01*
%TO.N,Net-(J6-Pin_7)*%
X168529000Y-104823000D02*
X168212500Y-105139500D01*
X168207000Y-105817192D02*
X168208000Y-105818192D01*
X168207000Y-105234808D02*
X168207000Y-105817192D01*
X169320000Y-113948000D02*
X169320000Y-114935000D01*
X168212500Y-105229308D02*
X168207000Y-105234808D01*
X168212500Y-105139500D02*
X168212500Y-105229308D01*
X168208000Y-105818192D02*
X168208000Y-112836000D01*
X168208000Y-112836000D02*
X169320000Y-113948000D01*
%TO.N,Net-(J6-Pin_3)*%
X170942000Y-109846000D02*
X169300000Y-108204000D01*
X168402000Y-116967000D02*
X170942000Y-114427000D01*
X170942000Y-114427000D02*
X170942000Y-109846000D01*
%TD*%
%TA.AperFunction,Conductor*%
%TO.N,+24V*%
G36*
X156534039Y-88030685D02*
G01*
X156579794Y-88083489D01*
X156591000Y-88135000D01*
X156591000Y-90551000D01*
X157099000Y-91059000D01*
X171580000Y-91059000D01*
X171647039Y-91078685D01*
X171692794Y-91131489D01*
X171704000Y-91183000D01*
X171704000Y-94872000D01*
X171684315Y-94939039D01*
X171631511Y-94984794D01*
X171580000Y-94996000D01*
X168143541Y-94996000D01*
X168076502Y-94976315D01*
X168036154Y-94934000D01*
X168019196Y-94904627D01*
X167944629Y-94830060D01*
X167853303Y-94777333D01*
X167751443Y-94750040D01*
X167740234Y-94750040D01*
X167673195Y-94730355D01*
X167627440Y-94677551D01*
X167616234Y-94626040D01*
X167616234Y-94519009D01*
X167616234Y-94519007D01*
X167588941Y-94417147D01*
X167536214Y-94325821D01*
X167461647Y-94251254D01*
X167461644Y-94251252D01*
X167455572Y-94246593D01*
X167414370Y-94190164D01*
X167410216Y-94120418D01*
X167443377Y-94060539D01*
X168176099Y-93327819D01*
X168237422Y-93294334D01*
X168263780Y-93291500D01*
X168643021Y-93291500D01*
X168705020Y-93308112D01*
X168755413Y-93337207D01*
X168857273Y-93364500D01*
X168857275Y-93364500D01*
X168962725Y-93364500D01*
X168962727Y-93364500D01*
X169064587Y-93337207D01*
X169155913Y-93284480D01*
X169230480Y-93209913D01*
X169283207Y-93118587D01*
X169310500Y-93016727D01*
X169310500Y-92911273D01*
X169283207Y-92809413D01*
X169230480Y-92718087D01*
X169155913Y-92643520D01*
X169064587Y-92590793D01*
X168962727Y-92563500D01*
X168857273Y-92563500D01*
X168755413Y-92590793D01*
X168755410Y-92590794D01*
X168705021Y-92619887D01*
X168643021Y-92636500D01*
X168119879Y-92636500D01*
X168033647Y-92636500D01*
X167978117Y-92651379D01*
X167950352Y-92658819D01*
X167875674Y-92701933D01*
X167743317Y-92834290D01*
X167681993Y-92867774D01*
X167612302Y-92862789D01*
X167557259Y-92822093D01*
X167553218Y-92816826D01*
X167553216Y-92816823D01*
X167478649Y-92742256D01*
X167387323Y-92689529D01*
X167285463Y-92662236D01*
X167180009Y-92662236D01*
X167078149Y-92689529D01*
X167078146Y-92689530D01*
X166986821Y-92742257D01*
X166912257Y-92816821D01*
X166859530Y-92908146D01*
X166859529Y-92908149D01*
X166832236Y-93010009D01*
X166832236Y-93115463D01*
X166859529Y-93217323D01*
X166912256Y-93308649D01*
X166986823Y-93383216D01*
X166986826Y-93383218D01*
X166992093Y-93387259D01*
X167033297Y-93443686D01*
X167037452Y-93513432D01*
X167004289Y-93573317D01*
X165617926Y-94959681D01*
X165556603Y-94993166D01*
X165530245Y-94996000D01*
X163773500Y-94996000D01*
X163706461Y-94976315D01*
X163660706Y-94923511D01*
X163649500Y-94872000D01*
X163649500Y-94459786D01*
X163653725Y-94427692D01*
X163656551Y-94417147D01*
X163669500Y-94368821D01*
X163669500Y-94282589D01*
X163669500Y-93845179D01*
X163656216Y-93795604D01*
X163653725Y-93786306D01*
X163649500Y-93754213D01*
X163649500Y-93453648D01*
X163669185Y-93386609D01*
X163721989Y-93340854D01*
X163726051Y-93339085D01*
X163730577Y-93337209D01*
X163730587Y-93337207D01*
X163821913Y-93284480D01*
X163896480Y-93209913D01*
X163949207Y-93118587D01*
X163976500Y-93016727D01*
X163976500Y-92911273D01*
X163949207Y-92809413D01*
X163896480Y-92718087D01*
X163821913Y-92643520D01*
X163730587Y-92590793D01*
X163628727Y-92563500D01*
X163523273Y-92563500D01*
X163421413Y-92590793D01*
X163421410Y-92590794D01*
X163330085Y-92643521D01*
X163255522Y-92718084D01*
X163202792Y-92809413D01*
X163202791Y-92809416D01*
X163187731Y-92865620D01*
X163179714Y-92879505D01*
X163176790Y-92892950D01*
X163155641Y-92921202D01*
X163120910Y-92955935D01*
X163059936Y-93016908D01*
X163059934Y-93016911D01*
X163016819Y-93091589D01*
X162994500Y-93174885D01*
X162994500Y-93582500D01*
X162974815Y-93649539D01*
X162922011Y-93695294D01*
X162870500Y-93706500D01*
X162761273Y-93706500D01*
X162659413Y-93733793D01*
X162659410Y-93733794D01*
X162568085Y-93786521D01*
X162493521Y-93861085D01*
X162440794Y-93952410D01*
X162440794Y-93952411D01*
X162440793Y-93952413D01*
X162436223Y-93969468D01*
X162399859Y-94029127D01*
X162337012Y-94059656D01*
X162316449Y-94061373D01*
X162263042Y-94061373D01*
X162161182Y-94088666D01*
X162161179Y-94088667D01*
X162069854Y-94141394D01*
X161995290Y-94215958D01*
X161942563Y-94307283D01*
X161942562Y-94307286D01*
X161915269Y-94409146D01*
X161915269Y-94514600D01*
X161916451Y-94519009D01*
X161942562Y-94616459D01*
X161942563Y-94616462D01*
X161970655Y-94665118D01*
X161974805Y-94680606D01*
X161982245Y-94692183D01*
X161987268Y-94727118D01*
X161987268Y-94872000D01*
X161967583Y-94939039D01*
X161914779Y-94984794D01*
X161863268Y-94996000D01*
X158820500Y-94996000D01*
X158753461Y-94976315D01*
X158707706Y-94923511D01*
X158696500Y-94872000D01*
X158696500Y-93230979D01*
X158713113Y-93168978D01*
X158742207Y-93118587D01*
X158769500Y-93016727D01*
X158769500Y-92984158D01*
X161832615Y-92984158D01*
X161832615Y-93089612D01*
X161859908Y-93191472D01*
X161912635Y-93282798D01*
X161987202Y-93357365D01*
X162078528Y-93410092D01*
X162180388Y-93437385D01*
X162180390Y-93437385D01*
X162285840Y-93437385D01*
X162285842Y-93437385D01*
X162387702Y-93410092D01*
X162479028Y-93357365D01*
X162553595Y-93282798D01*
X162606322Y-93191472D01*
X162633615Y-93089612D01*
X162633615Y-92984158D01*
X162606322Y-92882298D01*
X162553595Y-92790972D01*
X162479028Y-92716405D01*
X162387702Y-92663678D01*
X162285842Y-92636385D01*
X162180388Y-92636385D01*
X162078528Y-92663678D01*
X162078525Y-92663679D01*
X161987200Y-92716406D01*
X161912636Y-92790970D01*
X161859909Y-92882295D01*
X161859908Y-92882298D01*
X161832615Y-92984158D01*
X158769500Y-92984158D01*
X158769500Y-92911273D01*
X158742207Y-92809413D01*
X158689480Y-92718087D01*
X158614913Y-92643520D01*
X158523587Y-92590793D01*
X158421727Y-92563500D01*
X158366000Y-92563500D01*
X158298961Y-92543815D01*
X158253206Y-92491011D01*
X158242000Y-92439500D01*
X158242000Y-92075000D01*
X151435362Y-92075000D01*
X151405921Y-92066355D01*
X151375935Y-92059832D01*
X151370919Y-92056077D01*
X151368323Y-92055315D01*
X151347681Y-92038681D01*
X151293319Y-91984319D01*
X151259834Y-91922996D01*
X151257000Y-91896638D01*
X151257000Y-88135000D01*
X151276685Y-88067961D01*
X151329489Y-88022206D01*
X151381000Y-88011000D01*
X156467000Y-88011000D01*
X156534039Y-88030685D01*
G37*
%TD.AperFunction*%
%TD*%
%TA.AperFunction,Conductor*%
%TO.N,GND*%
G36*
X158742539Y-76220185D02*
G01*
X158788294Y-76272989D01*
X158799500Y-76324500D01*
X158799500Y-80094486D01*
X158829059Y-80281118D01*
X158887454Y-80460836D01*
X158957388Y-80598087D01*
X158973240Y-80629199D01*
X159084310Y-80782073D01*
X159217927Y-80915690D01*
X159370801Y-81026760D01*
X159423199Y-81053458D01*
X159539163Y-81112545D01*
X159539165Y-81112545D01*
X159539168Y-81112547D01*
X159635497Y-81143846D01*
X159718881Y-81170940D01*
X159910331Y-81201263D01*
X159909960Y-81203599D01*
X159966145Y-81224930D01*
X160007689Y-81281107D01*
X160012266Y-81350827D01*
X159978937Y-81411442D01*
X158006014Y-83384365D01*
X158006012Y-83384366D01*
X157991325Y-83400716D01*
X157991313Y-83400730D01*
X157974672Y-83421379D01*
X157937509Y-83492424D01*
X157917826Y-83559456D01*
X157909500Y-83617365D01*
X157909500Y-87252007D01*
X157914197Y-87295686D01*
X157925397Y-87347174D01*
X157927890Y-87357372D01*
X157927891Y-87357375D01*
X157970899Y-87438083D01*
X157970901Y-87438086D01*
X158016660Y-87490895D01*
X158034242Y-87508839D01*
X158034246Y-87508843D01*
X158034247Y-87508844D01*
X158034249Y-87508845D01*
X158113516Y-87553184D01*
X158114063Y-87553490D01*
X158181102Y-87573175D01*
X158239000Y-87581500D01*
X158239004Y-87581500D01*
X161673991Y-87581500D01*
X161674000Y-87581500D01*
X161717684Y-87576803D01*
X161746875Y-87570452D01*
X161769174Y-87565602D01*
X161769190Y-87565598D01*
X161769195Y-87565597D01*
X161779373Y-87563110D01*
X161860085Y-87520100D01*
X161912889Y-87474345D01*
X161930843Y-87456754D01*
X161975490Y-87376937D01*
X161995175Y-87309898D01*
X162003500Y-87252000D01*
X162003500Y-87200571D01*
X162023185Y-87133532D01*
X162075989Y-87087777D01*
X162097170Y-87081697D01*
X162096877Y-87080603D01*
X162104725Y-87078500D01*
X162104727Y-87078500D01*
X162206587Y-87051207D01*
X162297913Y-86998480D01*
X162372480Y-86923913D01*
X162425207Y-86832587D01*
X162452500Y-86730727D01*
X162452500Y-86625273D01*
X162444279Y-86594591D01*
X162445942Y-86524743D01*
X162485105Y-86466881D01*
X162549333Y-86439377D01*
X162564054Y-86438500D01*
X162998199Y-86438500D01*
X163065238Y-86458185D01*
X163110993Y-86510989D01*
X163120936Y-86580144D01*
X163120936Y-86580150D01*
X163116500Y-86610994D01*
X163116500Y-87252007D01*
X163121197Y-87295686D01*
X163132397Y-87347174D01*
X163134890Y-87357372D01*
X163134891Y-87357375D01*
X163177899Y-87438083D01*
X163177901Y-87438086D01*
X163223660Y-87490895D01*
X163241242Y-87508839D01*
X163241246Y-87508843D01*
X163241247Y-87508844D01*
X163241249Y-87508845D01*
X163320516Y-87553184D01*
X163321063Y-87553490D01*
X163388102Y-87573175D01*
X163446000Y-87581500D01*
X163446004Y-87581500D01*
X166880991Y-87581500D01*
X166881000Y-87581500D01*
X166924684Y-87576803D01*
X166953875Y-87570452D01*
X166976174Y-87565602D01*
X166976190Y-87565598D01*
X166976195Y-87565597D01*
X166986373Y-87563110D01*
X167067085Y-87520100D01*
X167119889Y-87474345D01*
X167137843Y-87456754D01*
X167182490Y-87376937D01*
X167202175Y-87309898D01*
X167210500Y-87252000D01*
X167210500Y-87200571D01*
X167230185Y-87133532D01*
X167282989Y-87087777D01*
X167304170Y-87081697D01*
X167303877Y-87080603D01*
X167311725Y-87078500D01*
X167311727Y-87078500D01*
X167413587Y-87051207D01*
X167504913Y-86998480D01*
X167579480Y-86923913D01*
X167632207Y-86832587D01*
X167659500Y-86730727D01*
X167659500Y-86625273D01*
X167632207Y-86523413D01*
X167632202Y-86523405D01*
X167629265Y-86516313D01*
X167621795Y-86446844D01*
X167653068Y-86384364D01*
X167713155Y-86348710D01*
X167782981Y-86351201D01*
X167804808Y-86362758D01*
X167805505Y-86361513D01*
X167846356Y-86384364D01*
X167893063Y-86410490D01*
X167960102Y-86430175D01*
X168018000Y-86438500D01*
X168018013Y-86438500D01*
X168020192Y-86438656D01*
X168020884Y-86438914D01*
X168022385Y-86439130D01*
X168022338Y-86439456D01*
X168085659Y-86463066D01*
X168099040Y-86474660D01*
X168287181Y-86662801D01*
X168320666Y-86724124D01*
X168323500Y-86750482D01*
X168323500Y-87252007D01*
X168328197Y-87295686D01*
X168339397Y-87347174D01*
X168341890Y-87357372D01*
X168341891Y-87357375D01*
X168384899Y-87438083D01*
X168384901Y-87438086D01*
X168430660Y-87490895D01*
X168448242Y-87508839D01*
X168448246Y-87508843D01*
X168448247Y-87508844D01*
X168448249Y-87508845D01*
X168527516Y-87553184D01*
X168528063Y-87553490D01*
X168595102Y-87573175D01*
X168653000Y-87581500D01*
X168653004Y-87581500D01*
X171675500Y-87581500D01*
X171742539Y-87601185D01*
X171788294Y-87653989D01*
X171799500Y-87705500D01*
X171799500Y-88889002D01*
X171779815Y-88956041D01*
X171727011Y-89001796D01*
X171657853Y-89011740D01*
X171614967Y-88997223D01*
X171605126Y-88991718D01*
X171577937Y-88976510D01*
X171577935Y-88976509D01*
X171510903Y-88956826D01*
X171510899Y-88956825D01*
X171510898Y-88956825D01*
X171453000Y-88948500D01*
X168272000Y-88948500D01*
X168271992Y-88948500D01*
X168228313Y-88953197D01*
X168176825Y-88964397D01*
X168166627Y-88966890D01*
X168166624Y-88966891D01*
X168085916Y-89009899D01*
X168085913Y-89009901D01*
X168033104Y-89055660D01*
X168015160Y-89073242D01*
X168015154Y-89073249D01*
X167970511Y-89153059D01*
X167970509Y-89153064D01*
X167950826Y-89220096D01*
X167950825Y-89220101D01*
X167950825Y-89220102D01*
X167942502Y-89277992D01*
X167942500Y-89278003D01*
X167942500Y-90427007D01*
X167947197Y-90470686D01*
X167958397Y-90522174D01*
X167960342Y-90530133D01*
X167960890Y-90532373D01*
X168003900Y-90613085D01*
X168034412Y-90648298D01*
X168063437Y-90711853D01*
X168053494Y-90781011D01*
X168007739Y-90833815D01*
X167940699Y-90853500D01*
X166580261Y-90853500D01*
X166513222Y-90833815D01*
X166467467Y-90781011D01*
X166457523Y-90711853D01*
X166486548Y-90648297D01*
X166493479Y-90640929D01*
X166495921Y-90638535D01*
X166502843Y-90631754D01*
X166547490Y-90551937D01*
X166567175Y-90484898D01*
X166575500Y-90427000D01*
X166575500Y-89278000D01*
X166570803Y-89234316D01*
X166566025Y-89212351D01*
X166559602Y-89182825D01*
X166559348Y-89181789D01*
X166557110Y-89172627D01*
X166514100Y-89091915D01*
X166468345Y-89039111D01*
X166468339Y-89039104D01*
X166450757Y-89021160D01*
X166450756Y-89021159D01*
X166450754Y-89021157D01*
X166450752Y-89021156D01*
X166450750Y-89021154D01*
X166370940Y-88976511D01*
X166370935Y-88976509D01*
X166303903Y-88956826D01*
X166303899Y-88956825D01*
X166303898Y-88956825D01*
X166246000Y-88948500D01*
X163065000Y-88948500D01*
X163064992Y-88948500D01*
X163021313Y-88953197D01*
X162969825Y-88964397D01*
X162959627Y-88966890D01*
X162959624Y-88966891D01*
X162878916Y-89009899D01*
X162878913Y-89009901D01*
X162826104Y-89055660D01*
X162808160Y-89073242D01*
X162808154Y-89073250D01*
X162780739Y-89122260D01*
X162760205Y-89149400D01*
X162756548Y-89153059D01*
X162747519Y-89162088D01*
X162747517Y-89162091D01*
X162694794Y-89253410D01*
X162694793Y-89253413D01*
X162667500Y-89355273D01*
X162667500Y-89460726D01*
X162694794Y-89562589D01*
X162694795Y-89562592D01*
X162716392Y-89599998D01*
X162732866Y-89667898D01*
X162716394Y-89723997D01*
X162694795Y-89761408D01*
X162694793Y-89761413D01*
X162667500Y-89863273D01*
X162667500Y-89968726D01*
X162694794Y-90070589D01*
X162694795Y-90070592D01*
X162716392Y-90107998D01*
X162732866Y-90175898D01*
X162716394Y-90231997D01*
X162694795Y-90269408D01*
X162694793Y-90269413D01*
X162667500Y-90371273D01*
X162667500Y-90476727D01*
X162687653Y-90551937D01*
X162694793Y-90578586D01*
X162694794Y-90578589D01*
X162746127Y-90667500D01*
X162762600Y-90735400D01*
X162739747Y-90801427D01*
X162684826Y-90844618D01*
X162638740Y-90853500D01*
X161465260Y-90853500D01*
X161398221Y-90833815D01*
X161352466Y-90781011D01*
X161342522Y-90711853D01*
X161357873Y-90667500D01*
X161385500Y-90619648D01*
X161409207Y-90578587D01*
X161436500Y-90476727D01*
X161436500Y-90371273D01*
X161409207Y-90269413D01*
X161387605Y-90231998D01*
X161371133Y-90164099D01*
X161387607Y-90107998D01*
X161409207Y-90070587D01*
X161436500Y-89968727D01*
X161436500Y-89863273D01*
X161409207Y-89761413D01*
X161387605Y-89723998D01*
X161371133Y-89656099D01*
X161387607Y-89599998D01*
X161409207Y-89562587D01*
X161436500Y-89460727D01*
X161436500Y-89355273D01*
X161409207Y-89253413D01*
X161356480Y-89162087D01*
X161343882Y-89149489D01*
X161322132Y-89120124D01*
X161307100Y-89091915D01*
X161261345Y-89039111D01*
X161261339Y-89039104D01*
X161243757Y-89021160D01*
X161243756Y-89021159D01*
X161243754Y-89021157D01*
X161243752Y-89021156D01*
X161243750Y-89021154D01*
X161163940Y-88976511D01*
X161163935Y-88976509D01*
X161096903Y-88956826D01*
X161096899Y-88956825D01*
X161096898Y-88956825D01*
X161039000Y-88948500D01*
X157858000Y-88948500D01*
X157857992Y-88948500D01*
X157814313Y-88953197D01*
X157762825Y-88964397D01*
X157752627Y-88966890D01*
X157752624Y-88966891D01*
X157671916Y-89009899D01*
X157671913Y-89009901D01*
X157619104Y-89055660D01*
X157601160Y-89073242D01*
X157601154Y-89073249D01*
X157556511Y-89153059D01*
X157556509Y-89153064D01*
X157536826Y-89220096D01*
X157536825Y-89220101D01*
X157536825Y-89220102D01*
X157528502Y-89277992D01*
X157528500Y-89278003D01*
X157528500Y-90427007D01*
X157533197Y-90470686D01*
X157544397Y-90522174D01*
X157546342Y-90530133D01*
X157546890Y-90532373D01*
X157589900Y-90613085D01*
X157620412Y-90648298D01*
X157649437Y-90711853D01*
X157639494Y-90781011D01*
X157593739Y-90833815D01*
X157526699Y-90853500D01*
X157235482Y-90853500D01*
X157168443Y-90833815D01*
X157147801Y-90817181D01*
X156832819Y-90502199D01*
X156799334Y-90440876D01*
X156796500Y-90414518D01*
X156796500Y-88135008D01*
X156796499Y-88134992D01*
X156791803Y-88091316D01*
X156787897Y-88073364D01*
X156780602Y-88039825D01*
X156780348Y-88038789D01*
X156778110Y-88029627D01*
X156735100Y-87948915D01*
X156689345Y-87896111D01*
X156689339Y-87896104D01*
X156671757Y-87878160D01*
X156671756Y-87878159D01*
X156671754Y-87878157D01*
X156671752Y-87878156D01*
X156671750Y-87878154D01*
X156591940Y-87833511D01*
X156591935Y-87833509D01*
X156524903Y-87813826D01*
X156524899Y-87813825D01*
X156524898Y-87813825D01*
X156467000Y-87805500D01*
X151381000Y-87805500D01*
X151380992Y-87805500D01*
X151337313Y-87810197D01*
X151285825Y-87821397D01*
X151275627Y-87823890D01*
X151275624Y-87823891D01*
X151194916Y-87866899D01*
X151194913Y-87866901D01*
X151142104Y-87912660D01*
X151124160Y-87930242D01*
X151124154Y-87930249D01*
X151079511Y-88010059D01*
X151079509Y-88010064D01*
X151059826Y-88077096D01*
X151059825Y-88077101D01*
X151059825Y-88077102D01*
X151051502Y-88134992D01*
X151051500Y-88135003D01*
X151051500Y-91896638D01*
X151052678Y-91918618D01*
X151055511Y-91944965D01*
X151055512Y-91944967D01*
X151079470Y-92021478D01*
X151079471Y-92021483D01*
X151093872Y-92047855D01*
X151112956Y-92082805D01*
X151112958Y-92082808D01*
X151112960Y-92082811D01*
X151147998Y-92129615D01*
X151148001Y-92129619D01*
X151148009Y-92129629D01*
X151148017Y-92129637D01*
X151202365Y-92183986D01*
X151202374Y-92183995D01*
X151213669Y-92194141D01*
X151213695Y-92194163D01*
X151218738Y-92198693D01*
X151239380Y-92215327D01*
X151239387Y-92215330D01*
X151244477Y-92218667D01*
X151244320Y-92218905D01*
X151251884Y-92223670D01*
X151252782Y-92224342D01*
X151283013Y-92238148D01*
X151310445Y-92252496D01*
X151313041Y-92253258D01*
X151313402Y-92252026D01*
X151332253Y-92260636D01*
X151350762Y-92264662D01*
X151359310Y-92266844D01*
X151377464Y-92272175D01*
X151435362Y-92280500D01*
X156091745Y-92280500D01*
X156158784Y-92300185D01*
X156204539Y-92352989D01*
X156214483Y-92422147D01*
X156185458Y-92485703D01*
X156179426Y-92492181D01*
X156143521Y-92528085D01*
X156090794Y-92619410D01*
X156090793Y-92619413D01*
X156063500Y-92721273D01*
X156063500Y-92826727D01*
X156090793Y-92928587D01*
X156143520Y-93019913D01*
X156218087Y-93094480D01*
X156309413Y-93147207D01*
X156411273Y-93174500D01*
X156411275Y-93174500D01*
X156516725Y-93174500D01*
X156516727Y-93174500D01*
X156618587Y-93147207D01*
X156709913Y-93094480D01*
X156784480Y-93019913D01*
X156837207Y-92928587D01*
X156864500Y-92826727D01*
X156864500Y-92721273D01*
X156837207Y-92619413D01*
X156784480Y-92528087D01*
X156748574Y-92492181D01*
X156715089Y-92430858D01*
X156720073Y-92361166D01*
X156761945Y-92305233D01*
X156827409Y-92280816D01*
X156836255Y-92280500D01*
X157912500Y-92280500D01*
X157979539Y-92300185D01*
X158025294Y-92352989D01*
X158033831Y-92378910D01*
X158036500Y-92391564D01*
X158036500Y-92439500D01*
X158041197Y-92483184D01*
X158052403Y-92534695D01*
X158054890Y-92544873D01*
X158077968Y-92588181D01*
X158081597Y-92605387D01*
X158080194Y-92623397D01*
X158083853Y-92641084D01*
X158077537Y-92657503D01*
X158076171Y-92675046D01*
X158065254Y-92689438D01*
X158058770Y-92706296D01*
X158049017Y-92717437D01*
X158048521Y-92718083D01*
X157995794Y-92809410D01*
X157995793Y-92809413D01*
X157968500Y-92911273D01*
X157968500Y-93016727D01*
X157995793Y-93118587D01*
X158012316Y-93147206D01*
X158024887Y-93168978D01*
X158041500Y-93230979D01*
X158041500Y-93742042D01*
X158021815Y-93809081D01*
X157969011Y-93854836D01*
X157899853Y-93864780D01*
X157836297Y-93835755D01*
X157829819Y-93829723D01*
X157810914Y-93810818D01*
X157810913Y-93810817D01*
X157719587Y-93758090D01*
X157617727Y-93730797D01*
X157512273Y-93730797D01*
X157410413Y-93758090D01*
X157410410Y-93758091D01*
X157319085Y-93810818D01*
X157244521Y-93885382D01*
X157191794Y-93976707D01*
X157191793Y-93976710D01*
X157164500Y-94078570D01*
X157164500Y-94112071D01*
X157161847Y-94137585D01*
X157161150Y-94140896D01*
X157152500Y-94173181D01*
X157152500Y-94182040D01*
X157149847Y-94194659D01*
X157139170Y-94214538D01*
X157132815Y-94236184D01*
X157122960Y-94244722D01*
X157116790Y-94256213D01*
X157097061Y-94267165D01*
X157080011Y-94281939D01*
X157067104Y-94283794D01*
X157055701Y-94290125D01*
X157033184Y-94288672D01*
X157010853Y-94291883D01*
X156998990Y-94286465D01*
X156985977Y-94285626D01*
X156967821Y-94272231D01*
X156947297Y-94262858D01*
X156935108Y-94248096D01*
X156929753Y-94244145D01*
X156927960Y-94239438D01*
X156921114Y-94231148D01*
X156890480Y-94178087D01*
X156815913Y-94103520D01*
X156724587Y-94050793D01*
X156622727Y-94023500D01*
X156517273Y-94023500D01*
X156415413Y-94050793D01*
X156415410Y-94050794D01*
X156324085Y-94103521D01*
X156249521Y-94178085D01*
X156196794Y-94269410D01*
X156196793Y-94269413D01*
X156169500Y-94371273D01*
X156169500Y-94476727D01*
X156196793Y-94578587D01*
X156249520Y-94669913D01*
X156324087Y-94744480D01*
X156415413Y-94797207D01*
X156425591Y-94799934D01*
X156485252Y-94836297D01*
X156515783Y-94899144D01*
X156517500Y-94919709D01*
X156517500Y-98357587D01*
X156517500Y-98443819D01*
X156532742Y-98500700D01*
X156539819Y-98527113D01*
X156582934Y-98601791D01*
X156582936Y-98601794D01*
X158236692Y-100255550D01*
X158270177Y-100316873D01*
X158265193Y-100386565D01*
X158223321Y-100442498D01*
X158157857Y-100466915D01*
X158116918Y-100463006D01*
X158046060Y-100444020D01*
X158021727Y-100437500D01*
X157916273Y-100437500D01*
X157814413Y-100464793D01*
X157814410Y-100464794D01*
X157723085Y-100517521D01*
X157648521Y-100592085D01*
X157595794Y-100683410D01*
X157595793Y-100683413D01*
X157568500Y-100785273D01*
X157568500Y-100890727D01*
X157595793Y-100992587D01*
X157648520Y-101083913D01*
X157723087Y-101158480D01*
X157814413Y-101211207D01*
X157896573Y-101233221D01*
X157952159Y-101265314D01*
X158195452Y-101508607D01*
X158256427Y-101569582D01*
X158331107Y-101612698D01*
X158414401Y-101635017D01*
X158414403Y-101635017D01*
X159466597Y-101635017D01*
X159466599Y-101635017D01*
X159549893Y-101612698D01*
X159624573Y-101569582D01*
X160663065Y-100531090D01*
X160706181Y-100456410D01*
X160728500Y-100373116D01*
X160728500Y-100286884D01*
X160728500Y-98254884D01*
X160706181Y-98171590D01*
X160663065Y-98096910D01*
X160602090Y-98035935D01*
X158732819Y-96166664D01*
X158699334Y-96105341D01*
X158696500Y-96078983D01*
X158696500Y-95325500D01*
X158716185Y-95258461D01*
X158768989Y-95212706D01*
X158820500Y-95201500D01*
X161863268Y-95201500D01*
X161930307Y-95221185D01*
X161976062Y-95273989D01*
X161987268Y-95325500D01*
X161987268Y-95680747D01*
X161967583Y-95747786D01*
X161950949Y-95768428D01*
X161143141Y-96576235D01*
X161143139Y-96576238D01*
X161100024Y-96650916D01*
X161100024Y-96650917D01*
X161083816Y-96711407D01*
X161077705Y-96734212D01*
X161077705Y-97396020D01*
X161061092Y-97458019D01*
X161032001Y-97508406D01*
X161031998Y-97508413D01*
X161004705Y-97610273D01*
X161004705Y-97715727D01*
X161031998Y-97817587D01*
X161084725Y-97908913D01*
X161159292Y-97983480D01*
X161250618Y-98036207D01*
X161352478Y-98063500D01*
X161352480Y-98063500D01*
X161457930Y-98063500D01*
X161457932Y-98063500D01*
X161559792Y-98036207D01*
X161651118Y-97983480D01*
X161674573Y-97960024D01*
X161735892Y-97926541D01*
X161805584Y-97931524D01*
X161824252Y-97940320D01*
X161864053Y-97963299D01*
X161965913Y-97990592D01*
X161965915Y-97990592D01*
X162071365Y-97990592D01*
X162071367Y-97990592D01*
X162173227Y-97963299D01*
X162264553Y-97910572D01*
X162296183Y-97878941D01*
X162357503Y-97845457D01*
X162427195Y-97850441D01*
X162445854Y-97859232D01*
X162532413Y-97909207D01*
X162634273Y-97936500D01*
X162634275Y-97936500D01*
X162739725Y-97936500D01*
X162739727Y-97936500D01*
X162841587Y-97909207D01*
X162932913Y-97856480D01*
X162994364Y-97795028D01*
X163025604Y-97774156D01*
X163025076Y-97773241D01*
X163032112Y-97769178D01*
X163032115Y-97769178D01*
X163106795Y-97726062D01*
X163568038Y-97264819D01*
X163594965Y-97250115D01*
X163620784Y-97233523D01*
X163626984Y-97232631D01*
X163629361Y-97231334D01*
X163655719Y-97228500D01*
X163657627Y-97228500D01*
X163724666Y-97248185D01*
X163770421Y-97300989D01*
X163780365Y-97370147D01*
X163765014Y-97414500D01*
X163710794Y-97508410D01*
X163710793Y-97508413D01*
X163683500Y-97610273D01*
X163683500Y-97715727D01*
X163710793Y-97817587D01*
X163763520Y-97908913D01*
X163838087Y-97983480D01*
X163929413Y-98036207D01*
X164031273Y-98063500D01*
X164031275Y-98063500D01*
X164136725Y-98063500D01*
X164136727Y-98063500D01*
X164238587Y-98036207D01*
X164329913Y-97983480D01*
X164404480Y-97908913D01*
X164457207Y-97817587D01*
X164484500Y-97715727D01*
X164484500Y-97610273D01*
X164457207Y-97508413D01*
X164404480Y-97417087D01*
X164333103Y-97345710D01*
X164299618Y-97284387D01*
X164304602Y-97214695D01*
X164337078Y-97170784D01*
X164335106Y-97168812D01*
X166572819Y-94931098D01*
X166634142Y-94897613D01*
X166703834Y-94902597D01*
X166759767Y-94944469D01*
X166784184Y-95009933D01*
X166784500Y-95018779D01*
X166784500Y-95171589D01*
X166784500Y-95257821D01*
X166796762Y-95303584D01*
X166806819Y-95341116D01*
X166806820Y-95341117D01*
X166840887Y-95400123D01*
X166857500Y-95462123D01*
X166857500Y-95771982D01*
X166851098Y-95793781D01*
X166849261Y-95816427D01*
X166840478Y-95829949D01*
X166837815Y-95839021D01*
X166832051Y-95847240D01*
X166827030Y-95853814D01*
X166816935Y-95863910D01*
X166809538Y-95876719D01*
X166804694Y-95883064D01*
X166801634Y-95885309D01*
X166793824Y-95895487D01*
X164983484Y-97705826D01*
X164957810Y-97725528D01*
X164951908Y-97728935D01*
X164951907Y-97728936D01*
X163247910Y-99432935D01*
X163186936Y-99493908D01*
X163186934Y-99493911D01*
X163143819Y-99568589D01*
X163143819Y-99568590D01*
X163124076Y-99642273D01*
X163121500Y-99651885D01*
X163121500Y-100444020D01*
X163104887Y-100506019D01*
X163075796Y-100556406D01*
X163075793Y-100556413D01*
X163048500Y-100658273D01*
X163048500Y-100763727D01*
X163075793Y-100865587D01*
X163128520Y-100956913D01*
X163203087Y-101031480D01*
X163294413Y-101084207D01*
X163396273Y-101111500D01*
X163396275Y-101111500D01*
X163501725Y-101111500D01*
X163501727Y-101111500D01*
X163603587Y-101084207D01*
X163627005Y-101070686D01*
X163694903Y-101054213D01*
X163760930Y-101077064D01*
X163796390Y-101116071D01*
X163814019Y-101146605D01*
X163888586Y-101221172D01*
X163979912Y-101273899D01*
X164081772Y-101301192D01*
X164081774Y-101301192D01*
X164187224Y-101301192D01*
X164187226Y-101301192D01*
X164289086Y-101273899D01*
X164380412Y-101221172D01*
X164454979Y-101146605D01*
X164507706Y-101055279D01*
X164534999Y-100953419D01*
X164534999Y-100847965D01*
X164507706Y-100746105D01*
X164462743Y-100668227D01*
X164446131Y-100606229D01*
X164446131Y-99855853D01*
X164454775Y-99826412D01*
X164461299Y-99796426D01*
X164465053Y-99791410D01*
X164465816Y-99788814D01*
X164482446Y-99768176D01*
X164506508Y-99744114D01*
X164567830Y-99710630D01*
X164637522Y-99715614D01*
X164693455Y-99757486D01*
X164713962Y-99799701D01*
X164726793Y-99847587D01*
X164779520Y-99938913D01*
X164854087Y-100013480D01*
X164945413Y-100066207D01*
X165047273Y-100093500D01*
X165047275Y-100093500D01*
X165152725Y-100093500D01*
X165152727Y-100093500D01*
X165254587Y-100066207D01*
X165345913Y-100013480D01*
X165420480Y-99938913D01*
X165473207Y-99847587D01*
X165500500Y-99745727D01*
X165500500Y-99640273D01*
X165473207Y-99538413D01*
X165420480Y-99447087D01*
X165345913Y-99372520D01*
X165254587Y-99319793D01*
X165197306Y-99304444D01*
X165188420Y-99300494D01*
X165168905Y-99283925D01*
X165147042Y-99270599D01*
X165142712Y-99261685D01*
X165142227Y-99261273D01*
X166731500Y-99261273D01*
X166731500Y-99366727D01*
X166758793Y-99468587D01*
X166811520Y-99559913D01*
X166886087Y-99634480D01*
X166977413Y-99687207D01*
X167079273Y-99714500D01*
X167079275Y-99714500D01*
X167184725Y-99714500D01*
X167184727Y-99714500D01*
X167286587Y-99687207D01*
X167367879Y-99640273D01*
X169906500Y-99640273D01*
X169906500Y-99745727D01*
X169933793Y-99847587D01*
X169986520Y-99938913D01*
X170061087Y-100013480D01*
X170152413Y-100066207D01*
X170254273Y-100093500D01*
X170254275Y-100093500D01*
X170359725Y-100093500D01*
X170359727Y-100093500D01*
X170461587Y-100066207D01*
X170552913Y-100013480D01*
X170627480Y-99938913D01*
X170680207Y-99847587D01*
X170707500Y-99745727D01*
X170707500Y-99640273D01*
X170680207Y-99538413D01*
X170627480Y-99447087D01*
X170552913Y-99372520D01*
X170461587Y-99319793D01*
X170359727Y-99292500D01*
X170254273Y-99292500D01*
X170152413Y-99319793D01*
X170152410Y-99319794D01*
X170061085Y-99372521D01*
X169986521Y-99447085D01*
X169933794Y-99538410D01*
X169933793Y-99538413D01*
X169906500Y-99640273D01*
X167367879Y-99640273D01*
X167377913Y-99634480D01*
X167452480Y-99559913D01*
X167505207Y-99468587D01*
X167532500Y-99366727D01*
X167532500Y-99261273D01*
X167505207Y-99159413D01*
X167452480Y-99068087D01*
X167377913Y-98993520D01*
X167286587Y-98940793D01*
X167184727Y-98913500D01*
X167079273Y-98913500D01*
X166977413Y-98940793D01*
X166977410Y-98940794D01*
X166886085Y-98993521D01*
X166811521Y-99068085D01*
X166758794Y-99159410D01*
X166758793Y-99159413D01*
X166731500Y-99261273D01*
X165142227Y-99261273D01*
X165135158Y-99255272D01*
X165127698Y-99230778D01*
X165116512Y-99207752D01*
X165117688Y-99197913D01*
X165114801Y-99188434D01*
X165121766Y-99163797D01*
X165124806Y-99138376D01*
X165131931Y-99127849D01*
X165133811Y-99121200D01*
X165140337Y-99115429D01*
X165151111Y-99099510D01*
X165427989Y-98822632D01*
X165489310Y-98789149D01*
X165559002Y-98794133D01*
X165614935Y-98836005D01*
X165623053Y-98848312D01*
X165667733Y-98925700D01*
X165742300Y-99000267D01*
X165833626Y-99052994D01*
X165935486Y-99080287D01*
X165935488Y-99080287D01*
X166040938Y-99080287D01*
X166040940Y-99080287D01*
X166142800Y-99052994D01*
X166234126Y-99000267D01*
X166308693Y-98925700D01*
X166361420Y-98834374D01*
X166388713Y-98732514D01*
X166388713Y-98627060D01*
X166361420Y-98525200D01*
X166308693Y-98433874D01*
X166234126Y-98359307D01*
X166231147Y-98357587D01*
X166162109Y-98317727D01*
X166113894Y-98267160D01*
X166100672Y-98198553D01*
X166126640Y-98133688D01*
X166136422Y-98122667D01*
X166539875Y-97719213D01*
X166601196Y-97685730D01*
X166670887Y-97690714D01*
X166726821Y-97732585D01*
X166747329Y-97774802D01*
X166758793Y-97817588D01*
X166758794Y-97817589D01*
X166811520Y-97908913D01*
X166886087Y-97983480D01*
X166977413Y-98036207D01*
X167079273Y-98063500D01*
X167079275Y-98063500D01*
X167184725Y-98063500D01*
X167184727Y-98063500D01*
X167286587Y-98036207D01*
X167377913Y-97983480D01*
X167452480Y-97908913D01*
X167505207Y-97817587D01*
X167532500Y-97715727D01*
X167532500Y-97610273D01*
X167531964Y-97608273D01*
X168382500Y-97608273D01*
X168382500Y-97713727D01*
X168409793Y-97815587D01*
X168462520Y-97906913D01*
X168537087Y-97981480D01*
X168628413Y-98034207D01*
X168730273Y-98061500D01*
X168730275Y-98061500D01*
X168835725Y-98061500D01*
X168835727Y-98061500D01*
X168937587Y-98034207D01*
X169028913Y-97981480D01*
X169103480Y-97906913D01*
X169156207Y-97815587D01*
X169183500Y-97713727D01*
X169183500Y-97608273D01*
X169156207Y-97506413D01*
X169103480Y-97415087D01*
X169028913Y-97340520D01*
X168960253Y-97300879D01*
X168937589Y-97287794D01*
X168937588Y-97287793D01*
X168937587Y-97287793D01*
X168835727Y-97260500D01*
X168730273Y-97260500D01*
X168628413Y-97287793D01*
X168628410Y-97287794D01*
X168537085Y-97340521D01*
X168462521Y-97415085D01*
X168409794Y-97506410D01*
X168409793Y-97506413D01*
X168382500Y-97608273D01*
X167531964Y-97608273D01*
X167505207Y-97508413D01*
X167452480Y-97417087D01*
X167377913Y-97342520D01*
X167286589Y-97289794D01*
X167286588Y-97289793D01*
X167243802Y-97278329D01*
X167184141Y-97241963D01*
X167153613Y-97179116D01*
X167161908Y-97109741D01*
X167188212Y-97070876D01*
X167796065Y-96463025D01*
X167799467Y-96457131D01*
X167819170Y-96431451D01*
X167902066Y-96348556D01*
X167927183Y-96305051D01*
X167945181Y-96273877D01*
X167967500Y-96190583D01*
X167967500Y-95499511D01*
X167984883Y-95436196D01*
X167992822Y-95422826D01*
X168019196Y-95396453D01*
X168071923Y-95305127D01*
X168079489Y-95276887D01*
X168088221Y-95262185D01*
X168101785Y-95249565D01*
X168111428Y-95233746D01*
X168126835Y-95226261D01*
X168139377Y-95214594D01*
X168157611Y-95211311D01*
X168174275Y-95203217D01*
X168194838Y-95201500D01*
X171579991Y-95201500D01*
X171580000Y-95201500D01*
X171623684Y-95196803D01*
X171649141Y-95191265D01*
X171718833Y-95196249D01*
X171774766Y-95238120D01*
X171799184Y-95303584D01*
X171799500Y-95312431D01*
X171799500Y-97273745D01*
X171779815Y-97340784D01*
X171727011Y-97386539D01*
X171657853Y-97396483D01*
X171594297Y-97367458D01*
X171587819Y-97361426D01*
X171568914Y-97342521D01*
X171568913Y-97342520D01*
X171477587Y-97289793D01*
X171375727Y-97262500D01*
X171270273Y-97262500D01*
X171168413Y-97289793D01*
X171168410Y-97289794D01*
X171077085Y-97342521D01*
X171002521Y-97417085D01*
X170949794Y-97508410D01*
X170949793Y-97508413D01*
X170922500Y-97610273D01*
X170922500Y-97715727D01*
X170949793Y-97817587D01*
X171002520Y-97908913D01*
X171077087Y-97983480D01*
X171168413Y-98036207D01*
X171270273Y-98063500D01*
X171270275Y-98063500D01*
X171375725Y-98063500D01*
X171375727Y-98063500D01*
X171477587Y-98036207D01*
X171568913Y-97983480D01*
X171587819Y-97964574D01*
X171649142Y-97931089D01*
X171718834Y-97936073D01*
X171774767Y-97977945D01*
X171799184Y-98043409D01*
X171799500Y-98052255D01*
X171799500Y-107078931D01*
X171834626Y-107232826D01*
X171903114Y-107375042D01*
X171903116Y-107375045D01*
X171903117Y-107375046D01*
X172001538Y-107498462D01*
X172038312Y-107527788D01*
X172078453Y-107584976D01*
X172085000Y-107624736D01*
X172085000Y-110049877D01*
X172065315Y-110116916D01*
X172048681Y-110137558D01*
X171481181Y-110705058D01*
X171419858Y-110738543D01*
X171350166Y-110733559D01*
X171294233Y-110691687D01*
X171269816Y-110626223D01*
X171269500Y-110617377D01*
X171269500Y-109802885D01*
X171249057Y-109726592D01*
X171247181Y-109719590D01*
X171204065Y-109644910D01*
X171143090Y-109583935D01*
X169720360Y-108161205D01*
X169688267Y-108105618D01*
X169673207Y-108049413D01*
X169620480Y-107958087D01*
X169545913Y-107883520D01*
X169454587Y-107830793D01*
X169454585Y-107830792D01*
X169447080Y-107827684D01*
X169448420Y-107824447D01*
X169402504Y-107796465D01*
X169371970Y-107733620D01*
X169380259Y-107664244D01*
X169386857Y-107651059D01*
X169446281Y-107548135D01*
X169485500Y-107401766D01*
X169485500Y-107250234D01*
X169446281Y-107103865D01*
X169439365Y-107091887D01*
X169410274Y-107041500D01*
X169370515Y-106972635D01*
X169263365Y-106865485D01*
X169197750Y-106827602D01*
X169132136Y-106789719D01*
X169058950Y-106770109D01*
X168985766Y-106750500D01*
X168834234Y-106750500D01*
X168691593Y-106788720D01*
X168621743Y-106787057D01*
X168563881Y-106747894D01*
X168536377Y-106683665D01*
X168535500Y-106668945D01*
X168535500Y-106183054D01*
X168555185Y-106116015D01*
X168607989Y-106070260D01*
X168677147Y-106060316D01*
X168691575Y-106063275D01*
X168834234Y-106101500D01*
X168834237Y-106101500D01*
X168985764Y-106101500D01*
X168985766Y-106101500D01*
X169132135Y-106062281D01*
X169263365Y-105986515D01*
X169370515Y-105879365D01*
X169446281Y-105748135D01*
X169485500Y-105601766D01*
X169485500Y-105450234D01*
X169446281Y-105303865D01*
X169370515Y-105172635D01*
X169263365Y-105065485D01*
X169172613Y-105013089D01*
X169132136Y-104989719D01*
X169021407Y-104960050D01*
X168961746Y-104923685D01*
X168931217Y-104860838D01*
X168929500Y-104840275D01*
X168929500Y-104770275D01*
X168929500Y-104770273D01*
X168902207Y-104668413D01*
X168849480Y-104577087D01*
X168774913Y-104502520D01*
X168683587Y-104449793D01*
X168581727Y-104422500D01*
X168476273Y-104422500D01*
X168374413Y-104449793D01*
X168374410Y-104449794D01*
X168283085Y-104502521D01*
X168208522Y-104577084D01*
X168155792Y-104668413D01*
X168155792Y-104668414D01*
X168140731Y-104724619D01*
X168132714Y-104738503D01*
X168129790Y-104751949D01*
X168108639Y-104780203D01*
X168011410Y-104877434D01*
X168011410Y-104877435D01*
X167950433Y-104938411D01*
X167907319Y-105013089D01*
X167885000Y-105096385D01*
X167885000Y-105154841D01*
X167880776Y-105186928D01*
X167879500Y-105191692D01*
X167879500Y-105191694D01*
X167879500Y-105860785D01*
X167880500Y-105876031D01*
X167880500Y-106100560D01*
X167860815Y-106167599D01*
X167808011Y-106213354D01*
X167740313Y-106223499D01*
X167732728Y-106222500D01*
X167732727Y-106222500D01*
X167627273Y-106222500D01*
X167525413Y-106249793D01*
X167525410Y-106249794D01*
X167434085Y-106302521D01*
X167359521Y-106377085D01*
X167306794Y-106468410D01*
X167306793Y-106468413D01*
X167279500Y-106570273D01*
X167279500Y-106628353D01*
X167259815Y-106695392D01*
X167207011Y-106741147D01*
X167137853Y-106751091D01*
X167132908Y-106750077D01*
X167128528Y-106749500D01*
X167128527Y-106749500D01*
X167023073Y-106749500D01*
X166921213Y-106776793D01*
X166921210Y-106776794D01*
X166829885Y-106829521D01*
X166755321Y-106904085D01*
X166702594Y-106995410D01*
X166702593Y-106995413D01*
X166675300Y-107097273D01*
X166675300Y-107202727D01*
X166702593Y-107304587D01*
X166736607Y-107363502D01*
X166753080Y-107431399D01*
X166730228Y-107497426D01*
X166675307Y-107540617D01*
X166629220Y-107549500D01*
X166571273Y-107549500D01*
X166469413Y-107576793D01*
X166469410Y-107576794D01*
X166378085Y-107629521D01*
X166303521Y-107704085D01*
X166250794Y-107795410D01*
X166250793Y-107795413D01*
X166223500Y-107897273D01*
X166223500Y-108002727D01*
X166250793Y-108104587D01*
X166303520Y-108195913D01*
X166378087Y-108270480D01*
X166469413Y-108323207D01*
X166571273Y-108350500D01*
X166571275Y-108350500D01*
X166676725Y-108350500D01*
X166676727Y-108350500D01*
X166778587Y-108323207D01*
X166869913Y-108270480D01*
X166944480Y-108195913D01*
X166997207Y-108104587D01*
X167024500Y-108002727D01*
X167024500Y-107897273D01*
X166997207Y-107795413D01*
X166963192Y-107736497D01*
X166955598Y-107705198D01*
X166946580Y-107674276D01*
X166947413Y-107671457D01*
X166946720Y-107668601D01*
X166957255Y-107638159D01*
X166966386Y-107607272D01*
X166968610Y-107605351D01*
X166969572Y-107602574D01*
X166994892Y-107582661D01*
X167019273Y-107561613D01*
X167022563Y-107560900D01*
X167024493Y-107559383D01*
X167053155Y-107551730D01*
X167061821Y-107550500D01*
X167128527Y-107550500D01*
X167203659Y-107530368D01*
X167211075Y-107529316D01*
X167238526Y-107533313D01*
X167266256Y-107533974D01*
X167272615Y-107538278D01*
X167280215Y-107539385D01*
X167301145Y-107557587D01*
X167324119Y-107573136D01*
X167327141Y-107580195D01*
X167332937Y-107585235D01*
X167340704Y-107611868D01*
X167351623Y-107637365D01*
X167352500Y-107652086D01*
X167352500Y-109376071D01*
X167332815Y-109443110D01*
X167280011Y-109488865D01*
X167210853Y-109498809D01*
X167196408Y-109495846D01*
X167164878Y-109487398D01*
X167165576Y-109484791D01*
X167113805Y-109461883D01*
X167075340Y-109403555D01*
X167074132Y-109399350D01*
X167054503Y-109326092D01*
X167001776Y-109234766D01*
X166927209Y-109160199D01*
X166835883Y-109107472D01*
X166734023Y-109080179D01*
X166628569Y-109080179D01*
X166526709Y-109107472D01*
X166526706Y-109107473D01*
X166435381Y-109160200D01*
X166360817Y-109234764D01*
X166308090Y-109326089D01*
X166308089Y-109326092D01*
X166280796Y-109427952D01*
X166280796Y-109533406D01*
X166304133Y-109620499D01*
X166308089Y-109635265D01*
X166308090Y-109635268D01*
X166322218Y-109659738D01*
X166360816Y-109726592D01*
X166435383Y-109801159D01*
X166526709Y-109853886D01*
X166628569Y-109881179D01*
X166628571Y-109881179D01*
X166636419Y-109883282D01*
X166635719Y-109885894D01*
X166687464Y-109908774D01*
X166721324Y-109954501D01*
X166724857Y-109962724D01*
X166746793Y-110044588D01*
X166798606Y-110134332D01*
X166801489Y-110141039D01*
X166804839Y-110168758D01*
X166811424Y-110195898D01*
X166809083Y-110203867D01*
X166809874Y-110210404D01*
X166802990Y-110224620D01*
X166794952Y-110251998D01*
X166746793Y-110335412D01*
X166746793Y-110335413D01*
X166719500Y-110437273D01*
X166719500Y-110542727D01*
X166746793Y-110644587D01*
X166799520Y-110735913D01*
X166874087Y-110810480D01*
X166965413Y-110863207D01*
X167067273Y-110890500D01*
X167067275Y-110890500D01*
X167172725Y-110890500D01*
X167172727Y-110890500D01*
X167196406Y-110884155D01*
X167266254Y-110885816D01*
X167324118Y-110924978D01*
X167351623Y-110989206D01*
X167352500Y-111003929D01*
X167352500Y-114804884D01*
X167352500Y-114891116D01*
X167374819Y-114974410D01*
X167382507Y-114987727D01*
X167417934Y-115049088D01*
X167417936Y-115049091D01*
X168003495Y-115634650D01*
X168035588Y-115690236D01*
X168044791Y-115724582D01*
X168044792Y-115724586D01*
X168044793Y-115724587D01*
X168097520Y-115815913D01*
X168172087Y-115890480D01*
X168263413Y-115943207D01*
X168365273Y-115970500D01*
X168365275Y-115970500D01*
X168470725Y-115970500D01*
X168470727Y-115970500D01*
X168572587Y-115943207D01*
X168663913Y-115890480D01*
X168738480Y-115815913D01*
X168791207Y-115724587D01*
X168818500Y-115622727D01*
X168818500Y-115517273D01*
X168791207Y-115415413D01*
X168738480Y-115324087D01*
X168663913Y-115249520D01*
X168572587Y-115196793D01*
X168494525Y-115175876D01*
X168438938Y-115143783D01*
X168043819Y-114748664D01*
X168010334Y-114687341D01*
X168007500Y-114660983D01*
X168007500Y-113398017D01*
X168027185Y-113330978D01*
X168079989Y-113285223D01*
X168149147Y-113275279D01*
X168212703Y-113304304D01*
X168219181Y-113310336D01*
X168956181Y-114047336D01*
X168989666Y-114108659D01*
X168992500Y-114135017D01*
X168992500Y-114668020D01*
X168975887Y-114730019D01*
X168946796Y-114780406D01*
X168946793Y-114780413D01*
X168919500Y-114882273D01*
X168919500Y-114987727D01*
X168946793Y-115089587D01*
X168999520Y-115180913D01*
X169074087Y-115255480D01*
X169165413Y-115308207D01*
X169267273Y-115335500D01*
X169267275Y-115335500D01*
X169270982Y-115335500D01*
X169273995Y-115336384D01*
X169275333Y-115336561D01*
X169275305Y-115336769D01*
X169338021Y-115355185D01*
X169383776Y-115407989D01*
X169393720Y-115477147D01*
X169364695Y-115540703D01*
X169358663Y-115547181D01*
X168359205Y-116546638D01*
X168303620Y-116578731D01*
X168247414Y-116593792D01*
X168247413Y-116593792D01*
X168175384Y-116635378D01*
X168160849Y-116643771D01*
X168156084Y-116646522D01*
X168081521Y-116721085D01*
X168028794Y-116812410D01*
X168028793Y-116812413D01*
X168001500Y-116914273D01*
X168001500Y-117019727D01*
X168028793Y-117121587D01*
X168066915Y-117187617D01*
X168081522Y-117212916D01*
X168086469Y-117219363D01*
X168084892Y-117220572D01*
X168113221Y-117272452D01*
X168108237Y-117342144D01*
X168066365Y-117398077D01*
X168000901Y-117422494D01*
X167992055Y-117422810D01*
X167773932Y-117422810D01*
X167706893Y-117403125D01*
X167686251Y-117386491D01*
X166346233Y-116046473D01*
X166985500Y-116046473D01*
X166985500Y-116151927D01*
X167012793Y-116253787D01*
X167065520Y-116345113D01*
X167140087Y-116419680D01*
X167231413Y-116472407D01*
X167333273Y-116499700D01*
X167333275Y-116499700D01*
X167438725Y-116499700D01*
X167438727Y-116499700D01*
X167540587Y-116472407D01*
X167631913Y-116419680D01*
X167706480Y-116345113D01*
X167759207Y-116253787D01*
X167786500Y-116151927D01*
X167786500Y-116046473D01*
X167759207Y-115944613D01*
X167706480Y-115853287D01*
X167631913Y-115778720D01*
X167540587Y-115725993D01*
X167438727Y-115698700D01*
X167333273Y-115698700D01*
X167231413Y-115725993D01*
X167231410Y-115725994D01*
X167140085Y-115778721D01*
X167065521Y-115853285D01*
X167012794Y-115944610D01*
X167012793Y-115944613D01*
X166985500Y-116046473D01*
X166346233Y-116046473D01*
X165470761Y-115171001D01*
X165470759Y-115170998D01*
X165379072Y-115079311D01*
X165379066Y-115079306D01*
X165275434Y-115019474D01*
X165275429Y-115019472D01*
X165251003Y-115012926D01*
X165251003Y-115012927D01*
X165205419Y-115000713D01*
X165159836Y-114988499D01*
X165110376Y-114988499D01*
X165043337Y-114968814D01*
X164997582Y-114916010D01*
X164987638Y-114846852D01*
X165002989Y-114802498D01*
X165004479Y-114799916D01*
X165004483Y-114799913D01*
X165057210Y-114708587D01*
X165084503Y-114606727D01*
X165084503Y-114501273D01*
X165057210Y-114399413D01*
X165004483Y-114308087D01*
X164929916Y-114233520D01*
X164838590Y-114180793D01*
X164736730Y-114153500D01*
X164631276Y-114153500D01*
X164529416Y-114180793D01*
X164529415Y-114180793D01*
X164445999Y-114228953D01*
X164378099Y-114245424D01*
X164322001Y-114228952D01*
X164238587Y-114180793D01*
X164136727Y-114153500D01*
X164031273Y-114153500D01*
X163929413Y-114180793D01*
X163929410Y-114180794D01*
X163838085Y-114233521D01*
X163763521Y-114308085D01*
X163710794Y-114399410D01*
X163710793Y-114399413D01*
X163683500Y-114501273D01*
X163683500Y-114608378D01*
X163663815Y-114675417D01*
X163611011Y-114721172D01*
X163541853Y-114731116D01*
X163478297Y-114702091D01*
X163471819Y-114696059D01*
X162275761Y-113500001D01*
X162275759Y-113499998D01*
X162184072Y-113408311D01*
X162184066Y-113408306D01*
X162080434Y-113348474D01*
X162080429Y-113348472D01*
X162056003Y-113341926D01*
X162056003Y-113341927D01*
X162010419Y-113329713D01*
X161964836Y-113317499D01*
X161845164Y-113317499D01*
X161837568Y-113317499D01*
X161837552Y-113317500D01*
X157699622Y-113317500D01*
X157632583Y-113297815D01*
X157611941Y-113281181D01*
X156807819Y-112477059D01*
X156774334Y-112415736D01*
X156771500Y-112389378D01*
X156771500Y-112088273D01*
X157333500Y-112088273D01*
X157333500Y-112193727D01*
X157345869Y-112239887D01*
X157360793Y-112295586D01*
X157360794Y-112295589D01*
X157374922Y-112320059D01*
X157413520Y-112386913D01*
X157488087Y-112461480D01*
X157579413Y-112514207D01*
X157681273Y-112541500D01*
X157681275Y-112541500D01*
X157786725Y-112541500D01*
X157786727Y-112541500D01*
X157888587Y-112514207D01*
X157979913Y-112461480D01*
X158020324Y-112421068D01*
X158081645Y-112387584D01*
X158151336Y-112392568D01*
X158169832Y-112402803D01*
X158170462Y-112401714D01*
X158177498Y-112405776D01*
X158177500Y-112405778D01*
X158268826Y-112458505D01*
X158370686Y-112485798D01*
X158370688Y-112485798D01*
X158476138Y-112485798D01*
X158476140Y-112485798D01*
X158578000Y-112458505D01*
X158669326Y-112405778D01*
X158743893Y-112331211D01*
X158796620Y-112239885D01*
X158823913Y-112138025D01*
X158823913Y-112032571D01*
X158796620Y-111930711D01*
X158743893Y-111839385D01*
X158669326Y-111764818D01*
X158578000Y-111712091D01*
X158476140Y-111684798D01*
X158370686Y-111684798D01*
X158268826Y-111712091D01*
X158268823Y-111712092D01*
X158177498Y-111764819D01*
X158137086Y-111805230D01*
X158075762Y-111838714D01*
X158006071Y-111833728D01*
X157987583Y-111823488D01*
X157986951Y-111824584D01*
X157979914Y-111820521D01*
X157979913Y-111820520D01*
X157888587Y-111767793D01*
X157786727Y-111740500D01*
X157681273Y-111740500D01*
X157579413Y-111767793D01*
X157579410Y-111767794D01*
X157488085Y-111820521D01*
X157413521Y-111895085D01*
X157360794Y-111986410D01*
X157360793Y-111986413D01*
X157333500Y-112088273D01*
X156771500Y-112088273D01*
X156771500Y-108502918D01*
X156791185Y-108435879D01*
X156807815Y-108415241D01*
X157272820Y-107950236D01*
X157334140Y-107916753D01*
X157403831Y-107921737D01*
X157459765Y-107963608D01*
X157484182Y-108029073D01*
X157480273Y-108070011D01*
X157458500Y-108151271D01*
X157458500Y-108151273D01*
X157458500Y-108256727D01*
X157476294Y-108323133D01*
X157485793Y-108358586D01*
X157485796Y-108358593D01*
X157508393Y-108397733D01*
X157524866Y-108465633D01*
X157508394Y-108521731D01*
X157487793Y-108557412D01*
X157487793Y-108557413D01*
X157460500Y-108659273D01*
X157460500Y-108764726D01*
X157487793Y-108866586D01*
X157487793Y-108866587D01*
X157509394Y-108904001D01*
X157525866Y-108971901D01*
X157509394Y-109027999D01*
X157487793Y-109065412D01*
X157487793Y-109065413D01*
X157460500Y-109167273D01*
X157460500Y-109272727D01*
X157487793Y-109374587D01*
X157540520Y-109465913D01*
X157615087Y-109540480D01*
X157706413Y-109593207D01*
X157808273Y-109620500D01*
X157808275Y-109620500D01*
X157913725Y-109620500D01*
X157913727Y-109620500D01*
X158015587Y-109593207D01*
X158106913Y-109540480D01*
X158181480Y-109465913D01*
X158234207Y-109374587D01*
X158261500Y-109272727D01*
X158261500Y-109167273D01*
X158234207Y-109065413D01*
X158212606Y-109028000D01*
X158196133Y-108960101D01*
X158212607Y-108903999D01*
X158234207Y-108866587D01*
X158261500Y-108764727D01*
X158261500Y-108659273D01*
X158234207Y-108557413D01*
X158211605Y-108518266D01*
X158195133Y-108450367D01*
X158211605Y-108394269D01*
X158232207Y-108358587D01*
X158259500Y-108256727D01*
X158259500Y-108151273D01*
X158232207Y-108049413D01*
X158201935Y-107996981D01*
X158185462Y-107929083D01*
X158208314Y-107863056D01*
X158263234Y-107819865D01*
X158332788Y-107813223D01*
X158341411Y-107815206D01*
X158341413Y-107815207D01*
X158443273Y-107842500D01*
X158443275Y-107842500D01*
X158548725Y-107842500D01*
X158548727Y-107842500D01*
X158650587Y-107815207D01*
X158741913Y-107762480D01*
X158816480Y-107687913D01*
X158869207Y-107596587D01*
X158896500Y-107494727D01*
X158896500Y-107389273D01*
X158869207Y-107287413D01*
X158816480Y-107196087D01*
X158741913Y-107121520D01*
X158690584Y-107091885D01*
X158642371Y-107041319D01*
X158629149Y-106972712D01*
X158655117Y-106907848D01*
X158712031Y-106867320D01*
X158752587Y-106860500D01*
X159273640Y-106860500D01*
X159340679Y-106880185D01*
X159340965Y-106880368D01*
X159352012Y-106887510D01*
X159364380Y-106899878D01*
X159424847Y-106934788D01*
X159430372Y-106937978D01*
X159503976Y-106957700D01*
X159503977Y-106957700D01*
X159503978Y-106957700D01*
X163368257Y-106957700D01*
X163368259Y-106957700D01*
X163441863Y-106937978D01*
X163507855Y-106899877D01*
X163798034Y-106609699D01*
X163859357Y-106576214D01*
X163870324Y-106575034D01*
X163870246Y-106574441D01*
X163878297Y-106573380D01*
X163878306Y-106573380D01*
X163980166Y-106546087D01*
X164071492Y-106493360D01*
X164146059Y-106418793D01*
X164198786Y-106327467D01*
X164226079Y-106225607D01*
X164226079Y-106120153D01*
X164198786Y-106018293D01*
X164146059Y-105926967D01*
X164071492Y-105852400D01*
X163980166Y-105799673D01*
X163878306Y-105772380D01*
X163772852Y-105772380D01*
X163772850Y-105772380D01*
X163668037Y-105800464D01*
X163598187Y-105798801D01*
X163540325Y-105759638D01*
X163512822Y-105695409D01*
X163524409Y-105626507D01*
X163548261Y-105593011D01*
X163684999Y-105456273D01*
X164826500Y-105456273D01*
X164826500Y-105561727D01*
X164853793Y-105663587D01*
X164906520Y-105754913D01*
X164981087Y-105829480D01*
X165072413Y-105882207D01*
X165174273Y-105909500D01*
X165174275Y-105909500D01*
X165279725Y-105909500D01*
X165279727Y-105909500D01*
X165381587Y-105882207D01*
X165472913Y-105829480D01*
X165547480Y-105754913D01*
X165600207Y-105663587D01*
X165627500Y-105561727D01*
X165627500Y-105456273D01*
X165600207Y-105354413D01*
X165547480Y-105263087D01*
X165472913Y-105188520D01*
X165381587Y-105135793D01*
X165279727Y-105108500D01*
X165174273Y-105108500D01*
X165072413Y-105135793D01*
X165072410Y-105135794D01*
X164981085Y-105188521D01*
X164906521Y-105263085D01*
X164853794Y-105354410D01*
X164853793Y-105354413D01*
X164826500Y-105456273D01*
X163684999Y-105456273D01*
X164183454Y-104957819D01*
X164244777Y-104924334D01*
X164255745Y-104923154D01*
X164255667Y-104922561D01*
X164263718Y-104921500D01*
X164263727Y-104921500D01*
X164365587Y-104894207D01*
X164456913Y-104841480D01*
X164531480Y-104766913D01*
X164584207Y-104675587D01*
X164611500Y-104573727D01*
X164611500Y-104468273D01*
X164584207Y-104366413D01*
X164531480Y-104275087D01*
X164456913Y-104200520D01*
X164365587Y-104147793D01*
X164263727Y-104120500D01*
X164158273Y-104120500D01*
X164056413Y-104147793D01*
X164056410Y-104147794D01*
X163965085Y-104200521D01*
X163890521Y-104275085D01*
X163837794Y-104366410D01*
X163837793Y-104366413D01*
X163810500Y-104468273D01*
X163809439Y-104476333D01*
X163806087Y-104475891D01*
X163790815Y-104527904D01*
X163774181Y-104548546D01*
X162984446Y-105338281D01*
X162923123Y-105371766D01*
X162896765Y-105374600D01*
X160583043Y-105374600D01*
X160516004Y-105354915D01*
X160470249Y-105302111D01*
X160460305Y-105232953D01*
X160487233Y-105173987D01*
X160486419Y-105173363D01*
X160489135Y-105169822D01*
X160489330Y-105169397D01*
X160490080Y-105168590D01*
X160491365Y-105166916D01*
X160491368Y-105166913D01*
X160544095Y-105075587D01*
X160571388Y-104973727D01*
X160571388Y-104868273D01*
X160544095Y-104766413D01*
X160491368Y-104675087D01*
X160416801Y-104600520D01*
X160325475Y-104547793D01*
X160223615Y-104520500D01*
X160118161Y-104520500D01*
X160016301Y-104547793D01*
X160016298Y-104547794D01*
X159924973Y-104600521D01*
X159850409Y-104675085D01*
X159797682Y-104766410D01*
X159797681Y-104766413D01*
X159770388Y-104868273D01*
X159770388Y-104973727D01*
X159797681Y-105075587D01*
X159832441Y-105135794D01*
X159850410Y-105166916D01*
X159855357Y-105173363D01*
X159853073Y-105175115D01*
X159879899Y-105224242D01*
X159874915Y-105293934D01*
X159833043Y-105349867D01*
X159767579Y-105374284D01*
X159758733Y-105374600D01*
X155155898Y-105374600D01*
X155122569Y-105383530D01*
X155122569Y-105383531D01*
X155082296Y-105394322D01*
X155082294Y-105394322D01*
X155082294Y-105394323D01*
X155016305Y-105432421D01*
X155016302Y-105432423D01*
X154475446Y-105973281D01*
X154414123Y-106006766D01*
X154387765Y-106009600D01*
X153357700Y-106009600D01*
X153290661Y-105989915D01*
X153244906Y-105937111D01*
X153234962Y-105867953D01*
X153250312Y-105823602D01*
X153251383Y-105821744D01*
X153253207Y-105818587D01*
X153280500Y-105716727D01*
X153280500Y-105611273D01*
X153253207Y-105509413D01*
X153200480Y-105418087D01*
X153125913Y-105343520D01*
X153040500Y-105294207D01*
X153034589Y-105290794D01*
X153034588Y-105290793D01*
X153034587Y-105290793D01*
X152932727Y-105263500D01*
X152827273Y-105263500D01*
X152725413Y-105290793D01*
X152725410Y-105290794D01*
X152634085Y-105343521D01*
X152559521Y-105418085D01*
X152506794Y-105509410D01*
X152506793Y-105509413D01*
X152479500Y-105611273D01*
X152479500Y-105716727D01*
X152501726Y-105799674D01*
X152506793Y-105818586D01*
X152506795Y-105818591D01*
X152509688Y-105823602D01*
X152526159Y-105891502D01*
X152503306Y-105957528D01*
X152448385Y-106000718D01*
X152402300Y-106009600D01*
X150954400Y-106009600D01*
X150901680Y-106023726D01*
X150901635Y-106023737D01*
X150901356Y-106023813D01*
X150880795Y-106029322D01*
X150880507Y-106029488D01*
X150872567Y-106031649D01*
X150862853Y-106031455D01*
X150840006Y-106036000D01*
X150802273Y-106036000D01*
X150700413Y-106063293D01*
X150700410Y-106063294D01*
X150609085Y-106116021D01*
X150534521Y-106190585D01*
X150481794Y-106281910D01*
X150481793Y-106281913D01*
X150454500Y-106383773D01*
X150454500Y-106489227D01*
X150481793Y-106591087D01*
X150534520Y-106682413D01*
X150609087Y-106756980D01*
X150700413Y-106809707D01*
X150802273Y-106837000D01*
X150802275Y-106837000D01*
X150907725Y-106837000D01*
X150907727Y-106837000D01*
X151009587Y-106809707D01*
X151100913Y-106756980D01*
X151175480Y-106682413D01*
X151193964Y-106650398D01*
X151244532Y-106602183D01*
X151301350Y-106588400D01*
X154597098Y-106588400D01*
X154597100Y-106588400D01*
X154670704Y-106568678D01*
X154736696Y-106530577D01*
X155277555Y-105989719D01*
X155338878Y-105956234D01*
X155365236Y-105953400D01*
X156141962Y-105953400D01*
X156209001Y-105973085D01*
X156254756Y-106025889D01*
X156264700Y-106095047D01*
X156235675Y-106158603D01*
X156227173Y-106166612D01*
X156227379Y-106166818D01*
X156147066Y-106247130D01*
X156094339Y-106338455D01*
X156094338Y-106338458D01*
X156067045Y-106440318D01*
X156065984Y-106448378D01*
X156062794Y-106447958D01*
X156047360Y-106500521D01*
X156030726Y-106521163D01*
X155140303Y-107411587D01*
X155086424Y-107465465D01*
X155086418Y-107465474D01*
X155048323Y-107531454D01*
X155048322Y-107531457D01*
X155048321Y-107531459D01*
X155048321Y-107531460D01*
X155028599Y-107605064D01*
X155028599Y-108041901D01*
X155028599Y-108049413D01*
X155028598Y-108087102D01*
X155028599Y-108087105D01*
X155028599Y-108359075D01*
X155028599Y-108435275D01*
X155036733Y-108465633D01*
X155048322Y-108508881D01*
X155048323Y-108508884D01*
X155076341Y-108557410D01*
X155086422Y-108574871D01*
X155086424Y-108574873D01*
X155447381Y-108935830D01*
X155480866Y-108997153D01*
X155483700Y-109023511D01*
X155483700Y-112816191D01*
X155483700Y-112892391D01*
X155499669Y-112951990D01*
X155503423Y-112965997D01*
X155503424Y-112966000D01*
X155539815Y-113029029D01*
X155541523Y-113031987D01*
X157186213Y-114676678D01*
X157230230Y-114702091D01*
X157241479Y-114708585D01*
X157241481Y-114708587D01*
X157244821Y-114710515D01*
X157252205Y-114714778D01*
X157325809Y-114734500D01*
X157325810Y-114734500D01*
X157402009Y-114734500D01*
X158958113Y-114734500D01*
X159020109Y-114751111D01*
X159103413Y-114799207D01*
X159205273Y-114826500D01*
X159205275Y-114826500D01*
X159310725Y-114826500D01*
X159310727Y-114826500D01*
X159412587Y-114799207D01*
X159503913Y-114746480D01*
X159578480Y-114671913D01*
X159631207Y-114580587D01*
X159658500Y-114478727D01*
X159658500Y-114373273D01*
X159658500Y-114373270D01*
X159657633Y-114366684D01*
X159668399Y-114297649D01*
X159714780Y-114245393D01*
X159780572Y-114226500D01*
X160295582Y-114226500D01*
X160362621Y-114246185D01*
X160408376Y-114298989D01*
X160418320Y-114368147D01*
X160410143Y-114397954D01*
X160408740Y-114401337D01*
X160408740Y-114401339D01*
X160381447Y-114503199D01*
X160381447Y-114608653D01*
X160408740Y-114710513D01*
X160461467Y-114801839D01*
X160536034Y-114876406D01*
X160627360Y-114929133D01*
X160729220Y-114956426D01*
X160729222Y-114956426D01*
X160834672Y-114956426D01*
X160834674Y-114956426D01*
X160936534Y-114929133D01*
X161027860Y-114876406D01*
X161102427Y-114801839D01*
X161155154Y-114710513D01*
X161182447Y-114608653D01*
X161182447Y-114503199D01*
X161155154Y-114401339D01*
X161155149Y-114401331D01*
X161153751Y-114397954D01*
X161153418Y-114394864D01*
X161153050Y-114393488D01*
X161153264Y-114393430D01*
X161146282Y-114328485D01*
X161177556Y-114266005D01*
X161237645Y-114230352D01*
X161268312Y-114226500D01*
X161665378Y-114226500D01*
X161732417Y-114246185D01*
X161753059Y-114262819D01*
X163207968Y-115717728D01*
X163207978Y-115717739D01*
X163212308Y-115722069D01*
X163212309Y-115722070D01*
X163296930Y-115806691D01*
X163400569Y-115866527D01*
X163424993Y-115873071D01*
X163424995Y-115873072D01*
X163424996Y-115873072D01*
X163455386Y-115881215D01*
X163516164Y-115897501D01*
X163516166Y-115897501D01*
X163643432Y-115897501D01*
X163643448Y-115897500D01*
X164860378Y-115897500D01*
X164927417Y-115917185D01*
X164948059Y-115933819D01*
X167166278Y-118152038D01*
X167166288Y-118152049D01*
X167170618Y-118156379D01*
X167170619Y-118156380D01*
X167255240Y-118241001D01*
X167255242Y-118241002D01*
X167255243Y-118241003D01*
X167358875Y-118300835D01*
X167358876Y-118300835D01*
X167358879Y-118300837D01*
X167474474Y-118331811D01*
X167474477Y-118331811D01*
X167601742Y-118331811D01*
X167601758Y-118331810D01*
X167839500Y-118331810D01*
X167906539Y-118351495D01*
X167952294Y-118404299D01*
X167963500Y-118455810D01*
X167963500Y-119058836D01*
X167994473Y-119174431D01*
X168054309Y-119278070D01*
X168138930Y-119362691D01*
X168242569Y-119422527D01*
X168358164Y-119453500D01*
X168358166Y-119453500D01*
X168477834Y-119453500D01*
X168477836Y-119453500D01*
X168593431Y-119422527D01*
X168697070Y-119362691D01*
X168781691Y-119278070D01*
X168841527Y-119174431D01*
X168872500Y-119058836D01*
X168872500Y-118116932D01*
X168892185Y-118049893D01*
X168908819Y-118029251D01*
X171587819Y-115350251D01*
X171649142Y-115316766D01*
X171718834Y-115321750D01*
X171774767Y-115363622D01*
X171799184Y-115429086D01*
X171799500Y-115437932D01*
X171799500Y-119490242D01*
X171797973Y-119509639D01*
X171797973Y-119509641D01*
X171787913Y-119573154D01*
X171775925Y-119610049D01*
X171751217Y-119658542D01*
X171728413Y-119689929D01*
X171689929Y-119728413D01*
X171658542Y-119751217D01*
X171610049Y-119775925D01*
X171573154Y-119787913D01*
X171535734Y-119793840D01*
X171509639Y-119797973D01*
X171490243Y-119799500D01*
X150509757Y-119799500D01*
X150490360Y-119797973D01*
X150449549Y-119791509D01*
X150426845Y-119787913D01*
X150389950Y-119775925D01*
X150341457Y-119751217D01*
X150310070Y-119728413D01*
X150271586Y-119689929D01*
X150248782Y-119658542D01*
X150224073Y-119610046D01*
X150212086Y-119573152D01*
X150211427Y-119568993D01*
X150202027Y-119509639D01*
X150200500Y-119490242D01*
X150200500Y-119380000D01*
X162560000Y-119380000D01*
X164592000Y-119380000D01*
X164592000Y-116840000D01*
X162560000Y-116840000D01*
X162560000Y-119380000D01*
X150200500Y-119380000D01*
X150200500Y-117792073D01*
X150220185Y-117725034D01*
X150272989Y-117679279D01*
X150342147Y-117669335D01*
X150405703Y-117698360D01*
X150412181Y-117704392D01*
X150540088Y-117832299D01*
X150540092Y-117832302D01*
X150695762Y-117936318D01*
X150695768Y-117936321D01*
X150695769Y-117936322D01*
X150868749Y-118007973D01*
X150975722Y-118029251D01*
X151052379Y-118044499D01*
X151052383Y-118044500D01*
X151052384Y-118044500D01*
X151239617Y-118044500D01*
X151239618Y-118044499D01*
X151423251Y-118007973D01*
X151596231Y-117936322D01*
X151751908Y-117832302D01*
X151884302Y-117699908D01*
X151988322Y-117544231D01*
X152031439Y-117440138D01*
X152075280Y-117385734D01*
X152141574Y-117363669D01*
X152209273Y-117380948D01*
X152256884Y-117432085D01*
X152260561Y-117440138D01*
X152303674Y-117544224D01*
X152303681Y-117544237D01*
X152407697Y-117699907D01*
X152407700Y-117699911D01*
X152540088Y-117832299D01*
X152540092Y-117832302D01*
X152695762Y-117936318D01*
X152695768Y-117936321D01*
X152695769Y-117936322D01*
X152868749Y-118007973D01*
X152975722Y-118029251D01*
X153052379Y-118044499D01*
X153052383Y-118044500D01*
X153052384Y-118044500D01*
X153239617Y-118044500D01*
X153239618Y-118044499D01*
X153423251Y-118007973D01*
X153596231Y-117936322D01*
X153751908Y-117832302D01*
X153884302Y-117699908D01*
X153988322Y-117544231D01*
X154059973Y-117371251D01*
X154096500Y-117187616D01*
X154096500Y-117000384D01*
X154059973Y-116816749D01*
X153991930Y-116652480D01*
X153988323Y-116643771D01*
X153988318Y-116643762D01*
X153884302Y-116488092D01*
X153884299Y-116488088D01*
X153751911Y-116355700D01*
X153751907Y-116355697D01*
X153637531Y-116279273D01*
X159365500Y-116279273D01*
X159365500Y-116384727D01*
X159388994Y-116472406D01*
X159392793Y-116486586D01*
X159392794Y-116486589D01*
X159393662Y-116488092D01*
X159445520Y-116577913D01*
X159520087Y-116652480D01*
X159611413Y-116705207D01*
X159713273Y-116732500D01*
X159713275Y-116732500D01*
X159818725Y-116732500D01*
X159818727Y-116732500D01*
X159920587Y-116705207D01*
X160011913Y-116652480D01*
X160086480Y-116577913D01*
X160139207Y-116486587D01*
X160166500Y-116384727D01*
X160166500Y-116279273D01*
X160139207Y-116177413D01*
X160086480Y-116086087D01*
X160011913Y-116011520D01*
X159922631Y-115959973D01*
X159920589Y-115958794D01*
X159920588Y-115958793D01*
X159920587Y-115958793D01*
X159818727Y-115931500D01*
X159713273Y-115931500D01*
X159611413Y-115958793D01*
X159611410Y-115958794D01*
X159520085Y-116011521D01*
X159445521Y-116086085D01*
X159392794Y-116177410D01*
X159392793Y-116177413D01*
X159365500Y-116279273D01*
X153637531Y-116279273D01*
X153596237Y-116251681D01*
X153596228Y-116251676D01*
X153491210Y-116208177D01*
X153434194Y-116184560D01*
X153379793Y-116140720D01*
X153357728Y-116074426D01*
X153375007Y-116006727D01*
X153426144Y-115959116D01*
X153434186Y-115955443D01*
X153596231Y-115888322D01*
X153751908Y-115784302D01*
X153884302Y-115651908D01*
X153975599Y-115515273D01*
X161145500Y-115515273D01*
X161145500Y-115620727D01*
X161172793Y-115722587D01*
X161225520Y-115813913D01*
X161300087Y-115888480D01*
X161391413Y-115941207D01*
X161493273Y-115968500D01*
X161493275Y-115968500D01*
X161598725Y-115968500D01*
X161598727Y-115968500D01*
X161700587Y-115941207D01*
X161791913Y-115888480D01*
X161866480Y-115813913D01*
X161919207Y-115722587D01*
X161946500Y-115620727D01*
X161946500Y-115515273D01*
X161919207Y-115413413D01*
X161866480Y-115322087D01*
X161791913Y-115247520D01*
X161700587Y-115194793D01*
X161598727Y-115167500D01*
X161493273Y-115167500D01*
X161391413Y-115194793D01*
X161391410Y-115194794D01*
X161300085Y-115247521D01*
X161225521Y-115322085D01*
X161172794Y-115413410D01*
X161172793Y-115413413D01*
X161145500Y-115515273D01*
X153975599Y-115515273D01*
X153988322Y-115496231D01*
X154012471Y-115437932D01*
X154021799Y-115415410D01*
X154059973Y-115323251D01*
X154096500Y-115139616D01*
X154096500Y-114952384D01*
X154059973Y-114768749D01*
X153988322Y-114595769D01*
X153988321Y-114595768D01*
X153988318Y-114595762D01*
X153884302Y-114440092D01*
X153884299Y-114440088D01*
X153751911Y-114307700D01*
X153751907Y-114307697D01*
X153596237Y-114203681D01*
X153596224Y-114203674D01*
X153492138Y-114160561D01*
X153437734Y-114116720D01*
X153415669Y-114050426D01*
X153432948Y-113982727D01*
X153484085Y-113935116D01*
X153492138Y-113931439D01*
X153596224Y-113888325D01*
X153596224Y-113888324D01*
X153596231Y-113888322D01*
X153751908Y-113784302D01*
X153884302Y-113651908D01*
X153988322Y-113496231D01*
X154059973Y-113323251D01*
X154080023Y-113222448D01*
X154112407Y-113160540D01*
X154173122Y-113125966D01*
X154242892Y-113129705D01*
X154263634Y-113139252D01*
X154277413Y-113147207D01*
X154379273Y-113174500D01*
X154379275Y-113174500D01*
X154484725Y-113174500D01*
X154484727Y-113174500D01*
X154586587Y-113147207D01*
X154677913Y-113094480D01*
X154752480Y-113019913D01*
X154805207Y-112928587D01*
X154832500Y-112826727D01*
X154832500Y-112721273D01*
X154805207Y-112619413D01*
X154752480Y-112528087D01*
X154677913Y-112453520D01*
X154595218Y-112405776D01*
X154586589Y-112400794D01*
X154586588Y-112400793D01*
X154586587Y-112400793D01*
X154484727Y-112373500D01*
X154379273Y-112373500D01*
X154277413Y-112400793D01*
X154277410Y-112400794D01*
X154186087Y-112453520D01*
X154117398Y-112522209D01*
X154056074Y-112555693D01*
X153986383Y-112550708D01*
X153930449Y-112508837D01*
X153926614Y-112503417D01*
X153919457Y-112492706D01*
X153884302Y-112440092D01*
X153884300Y-112440089D01*
X153751911Y-112307700D01*
X153751907Y-112307697D01*
X153596237Y-112203681D01*
X153596228Y-112203676D01*
X153423251Y-112132027D01*
X153423243Y-112132025D01*
X153239620Y-112095500D01*
X153239616Y-112095500D01*
X153052384Y-112095500D01*
X153052379Y-112095500D01*
X152868756Y-112132025D01*
X152868748Y-112132027D01*
X152695771Y-112203676D01*
X152695762Y-112203681D01*
X152540092Y-112307697D01*
X152540088Y-112307700D01*
X152407700Y-112440088D01*
X152407697Y-112440092D01*
X152303681Y-112595762D01*
X152303676Y-112595772D01*
X152260561Y-112699862D01*
X152216720Y-112754265D01*
X152150426Y-112776330D01*
X152082726Y-112759051D01*
X152035116Y-112707913D01*
X152031439Y-112699862D01*
X152014347Y-112658598D01*
X151988322Y-112595769D01*
X151988320Y-112595766D01*
X151988318Y-112595762D01*
X151884302Y-112440092D01*
X151884299Y-112440088D01*
X151751911Y-112307700D01*
X151751907Y-112307697D01*
X151596237Y-112203681D01*
X151596228Y-112203676D01*
X151423251Y-112132027D01*
X151423243Y-112132025D01*
X151239620Y-112095500D01*
X151239616Y-112095500D01*
X151052384Y-112095500D01*
X151052379Y-112095500D01*
X150868756Y-112132025D01*
X150868748Y-112132027D01*
X150695771Y-112203676D01*
X150695762Y-112203681D01*
X150540092Y-112307697D01*
X150540088Y-112307700D01*
X150412181Y-112435608D01*
X150350858Y-112469093D01*
X150281166Y-112464109D01*
X150225233Y-112422237D01*
X150200816Y-112356773D01*
X150200500Y-112347927D01*
X150200500Y-105026000D01*
X150220185Y-104958961D01*
X150272989Y-104913206D01*
X150324500Y-104902000D01*
X155575000Y-104902000D01*
X155575000Y-103218273D01*
X170688500Y-103218273D01*
X170688500Y-103323727D01*
X170715793Y-103425587D01*
X170768520Y-103516913D01*
X170843087Y-103591480D01*
X170934413Y-103644207D01*
X171036273Y-103671500D01*
X171036275Y-103671500D01*
X171141725Y-103671500D01*
X171141727Y-103671500D01*
X171243587Y-103644207D01*
X171334913Y-103591480D01*
X171409480Y-103516913D01*
X171462207Y-103425587D01*
X171489500Y-103323727D01*
X171489500Y-103218273D01*
X171462207Y-103116413D01*
X171409480Y-103025087D01*
X171334913Y-102950520D01*
X171243587Y-102897793D01*
X171141727Y-102870500D01*
X171036273Y-102870500D01*
X170934413Y-102897793D01*
X170934410Y-102897794D01*
X170843085Y-102950521D01*
X170768521Y-103025085D01*
X170715794Y-103116410D01*
X170715793Y-103116413D01*
X170688500Y-103218273D01*
X155575000Y-103218273D01*
X155575000Y-99531323D01*
X155594685Y-99464284D01*
X155637001Y-99423935D01*
X155675514Y-99401700D01*
X155768700Y-99308514D01*
X155834592Y-99194386D01*
X155868700Y-99067092D01*
X155868700Y-98935308D01*
X155834592Y-98808014D01*
X155768700Y-98693886D01*
X155675514Y-98600700D01*
X155582945Y-98547255D01*
X155561387Y-98534808D01*
X155473473Y-98511252D01*
X155434092Y-98500700D01*
X155302308Y-98500700D01*
X155175012Y-98534808D01*
X155060886Y-98600700D01*
X155060883Y-98600702D01*
X154967702Y-98693883D01*
X154967700Y-98693886D01*
X154901808Y-98808012D01*
X154881141Y-98885145D01*
X154867700Y-98935308D01*
X154867700Y-99067092D01*
X154886800Y-99138376D01*
X154892034Y-99157907D01*
X154890371Y-99227757D01*
X154851208Y-99285619D01*
X154786980Y-99313123D01*
X154772259Y-99314000D01*
X150324500Y-99314000D01*
X150257461Y-99294315D01*
X150211706Y-99241511D01*
X150200500Y-99190000D01*
X150200500Y-86625273D01*
X156444500Y-86625273D01*
X156444500Y-86730727D01*
X156471793Y-86832587D01*
X156524520Y-86923913D01*
X156599087Y-86998480D01*
X156690413Y-87051207D01*
X156792273Y-87078500D01*
X156792275Y-87078500D01*
X156897725Y-87078500D01*
X156897727Y-87078500D01*
X156999587Y-87051207D01*
X157090913Y-86998480D01*
X157165480Y-86923913D01*
X157218207Y-86832587D01*
X157245500Y-86730727D01*
X157245500Y-86625273D01*
X157218207Y-86523413D01*
X157165480Y-86432087D01*
X157090913Y-86357520D01*
X156999587Y-86304793D01*
X156897727Y-86277500D01*
X156792273Y-86277500D01*
X156690413Y-86304793D01*
X156690410Y-86304794D01*
X156599085Y-86357521D01*
X156524521Y-86432085D01*
X156471794Y-86523410D01*
X156471793Y-86523413D01*
X156444500Y-86625273D01*
X150200500Y-86625273D01*
X150200500Y-85023273D01*
X156444500Y-85023273D01*
X156444500Y-85128727D01*
X156471793Y-85230587D01*
X156524520Y-85321913D01*
X156599087Y-85396480D01*
X156690413Y-85449207D01*
X156792273Y-85476500D01*
X156792275Y-85476500D01*
X156897725Y-85476500D01*
X156897727Y-85476500D01*
X156999587Y-85449207D01*
X157090913Y-85396480D01*
X157165480Y-85321913D01*
X157218207Y-85230587D01*
X157245500Y-85128727D01*
X157245500Y-85023273D01*
X157218207Y-84921413D01*
X157165480Y-84830087D01*
X157090913Y-84755520D01*
X156999587Y-84702793D01*
X156897727Y-84675500D01*
X156792273Y-84675500D01*
X156690413Y-84702793D01*
X156690410Y-84702794D01*
X156599085Y-84755521D01*
X156524521Y-84830085D01*
X156471794Y-84921410D01*
X156471793Y-84921413D01*
X156444500Y-85023273D01*
X150200500Y-85023273D01*
X150200500Y-80791273D01*
X152283500Y-80791273D01*
X152283500Y-80896727D01*
X152310793Y-80998587D01*
X152363520Y-81089913D01*
X152438087Y-81164480D01*
X152529413Y-81217207D01*
X152631273Y-81244500D01*
X152631275Y-81244500D01*
X152736725Y-81244500D01*
X152736727Y-81244500D01*
X152838587Y-81217207D01*
X152929913Y-81164480D01*
X153004480Y-81089913D01*
X153057207Y-80998587D01*
X153084500Y-80896727D01*
X153084500Y-80791273D01*
X154783500Y-80791273D01*
X154783500Y-80896727D01*
X154810793Y-80998587D01*
X154863520Y-81089913D01*
X154938087Y-81164480D01*
X155029413Y-81217207D01*
X155131273Y-81244500D01*
X155131275Y-81244500D01*
X155236725Y-81244500D01*
X155236727Y-81244500D01*
X155338587Y-81217207D01*
X155429913Y-81164480D01*
X155504480Y-81089913D01*
X155557207Y-80998587D01*
X155584500Y-80896727D01*
X155584500Y-80791273D01*
X156033500Y-80791273D01*
X156033500Y-80896727D01*
X156060793Y-80998587D01*
X156113520Y-81089913D01*
X156188087Y-81164480D01*
X156279413Y-81217207D01*
X156381273Y-81244500D01*
X156381275Y-81244500D01*
X156486725Y-81244500D01*
X156486727Y-81244500D01*
X156588587Y-81217207D01*
X156679913Y-81164480D01*
X156754480Y-81089913D01*
X156807207Y-80998587D01*
X156834500Y-80896727D01*
X156834500Y-80791273D01*
X156807207Y-80689413D01*
X156754480Y-80598087D01*
X156679913Y-80523520D01*
X156588587Y-80470793D01*
X156486727Y-80443500D01*
X156381273Y-80443500D01*
X156279413Y-80470793D01*
X156279410Y-80470794D01*
X156188085Y-80523521D01*
X156113521Y-80598085D01*
X156060794Y-80689410D01*
X156060793Y-80689413D01*
X156033500Y-80791273D01*
X155584500Y-80791273D01*
X155557207Y-80689413D01*
X155504480Y-80598087D01*
X155429913Y-80523520D01*
X155338587Y-80470793D01*
X155236727Y-80443500D01*
X155131273Y-80443500D01*
X155029413Y-80470793D01*
X155029410Y-80470794D01*
X154938085Y-80523521D01*
X154863521Y-80598085D01*
X154810794Y-80689410D01*
X154810793Y-80689413D01*
X154783500Y-80791273D01*
X153084500Y-80791273D01*
X153057207Y-80689413D01*
X153004480Y-80598087D01*
X152929913Y-80523520D01*
X152838587Y-80470793D01*
X152736727Y-80443500D01*
X152631273Y-80443500D01*
X152529413Y-80470793D01*
X152529410Y-80470794D01*
X152438085Y-80523521D01*
X152363521Y-80598085D01*
X152310794Y-80689410D01*
X152310793Y-80689413D01*
X152283500Y-80791273D01*
X150200500Y-80791273D01*
X150200500Y-76324500D01*
X150220185Y-76257461D01*
X150272989Y-76211706D01*
X150324500Y-76200500D01*
X158675500Y-76200500D01*
X158742539Y-76220185D01*
G37*
%TD.AperFunction*%
%TA.AperFunction,Conductor*%
G36*
X165143785Y-95221185D02*
G01*
X165189540Y-95273989D01*
X165199484Y-95343147D01*
X165170459Y-95406703D01*
X165164427Y-95413181D01*
X164040427Y-96537181D01*
X164013499Y-96551884D01*
X163987681Y-96568477D01*
X163981480Y-96569368D01*
X163979104Y-96570666D01*
X163952746Y-96573500D01*
X163749635Y-96573500D01*
X163682596Y-96553815D01*
X163636841Y-96501011D01*
X163626897Y-96431853D01*
X163629856Y-96417422D01*
X163649500Y-96344113D01*
X163649500Y-96257881D01*
X163649500Y-95325500D01*
X163669185Y-95258461D01*
X163721989Y-95212706D01*
X163773500Y-95201500D01*
X165076746Y-95201500D01*
X165143785Y-95221185D01*
G37*
%TD.AperFunction*%
%TD*%
%TA.AperFunction,Conductor*%
%TO.N,Net-(J2-Pin_1)*%
G36*
X163773039Y-81299685D02*
G01*
X163818794Y-81352489D01*
X163830000Y-81404000D01*
X163830000Y-85800638D01*
X163810315Y-85867677D01*
X163793681Y-85888319D01*
X163485319Y-86196681D01*
X163423996Y-86230166D01*
X163397638Y-86233000D01*
X161924999Y-86233000D01*
X161787885Y-86370114D01*
X161776595Y-86387011D01*
X161731521Y-86432085D01*
X161678794Y-86523410D01*
X161678793Y-86523413D01*
X161651500Y-86625273D01*
X161651500Y-86730727D01*
X161661645Y-86768587D01*
X161678793Y-86832586D01*
X161678794Y-86832589D01*
X161731521Y-86923914D01*
X161761681Y-86954074D01*
X161776384Y-86981001D01*
X161792977Y-87006820D01*
X161793868Y-87013020D01*
X161795166Y-87015397D01*
X161798000Y-87041755D01*
X161798000Y-87252000D01*
X161778315Y-87319039D01*
X161725511Y-87364794D01*
X161674000Y-87376000D01*
X158239000Y-87376000D01*
X158171961Y-87356315D01*
X158126206Y-87303511D01*
X158115000Y-87252000D01*
X158115000Y-83617362D01*
X158134685Y-83550323D01*
X158151319Y-83529681D01*
X160364681Y-81316319D01*
X160426004Y-81282834D01*
X160452362Y-81280000D01*
X163706000Y-81280000D01*
X163773039Y-81299685D01*
G37*
%TD.AperFunction*%
%TD*%
%TA.AperFunction,Conductor*%
%TO.N,/DRIVER/SHUNT1+*%
G36*
X161106039Y-89173685D02*
G01*
X161151794Y-89226489D01*
X161163000Y-89278000D01*
X161163000Y-90427000D01*
X161143315Y-90494039D01*
X161090511Y-90539794D01*
X161039000Y-90551000D01*
X157858000Y-90551000D01*
X157790961Y-90531315D01*
X157745206Y-90478511D01*
X157734000Y-90427000D01*
X157734000Y-89278000D01*
X157753685Y-89210961D01*
X157806489Y-89165206D01*
X157858000Y-89154000D01*
X161039000Y-89154000D01*
X161106039Y-89173685D01*
G37*
%TD.AperFunction*%
%TD*%
%TA.AperFunction,Conductor*%
%TO.N,/DRIVER/SHUNT2+*%
G36*
X166313039Y-89173685D02*
G01*
X166358794Y-89226489D01*
X166370000Y-89278000D01*
X166370000Y-90427000D01*
X166350315Y-90494039D01*
X166297511Y-90539794D01*
X166246000Y-90551000D01*
X163065000Y-90551000D01*
X162997961Y-90531315D01*
X162952206Y-90478511D01*
X162941000Y-90427000D01*
X162941000Y-89278000D01*
X162960685Y-89210961D01*
X163013489Y-89165206D01*
X163065000Y-89154000D01*
X166246000Y-89154000D01*
X166313039Y-89173685D01*
G37*
%TD.AperFunction*%
%TD*%
%TA.AperFunction,Conductor*%
%TO.N,Net-(J2-Pin_2)*%
G36*
X167329039Y-81299685D02*
G01*
X167374794Y-81352489D01*
X167386000Y-81404000D01*
X167386000Y-86109000D01*
X167366315Y-86176039D01*
X167313511Y-86221794D01*
X167262000Y-86233000D01*
X167131999Y-86233000D01*
X166994885Y-86370114D01*
X166983595Y-86387011D01*
X166938521Y-86432085D01*
X166885794Y-86523410D01*
X166885793Y-86523413D01*
X166858500Y-86625273D01*
X166858500Y-86730726D01*
X166885793Y-86832586D01*
X166885794Y-86832589D01*
X166938521Y-86923914D01*
X166968681Y-86954074D01*
X166983384Y-86981001D01*
X166999977Y-87006820D01*
X167000868Y-87013020D01*
X167002166Y-87015397D01*
X167005000Y-87041755D01*
X167005000Y-87252000D01*
X166985315Y-87319039D01*
X166932511Y-87364794D01*
X166881000Y-87376000D01*
X163446000Y-87376000D01*
X163378961Y-87356315D01*
X163333206Y-87303511D01*
X163322000Y-87252000D01*
X163322000Y-86611000D01*
X163341685Y-86543961D01*
X163394489Y-86498206D01*
X163446000Y-86487000D01*
X163830000Y-86487000D01*
X164465000Y-85852000D01*
X164465000Y-81404000D01*
X164484685Y-81336961D01*
X164537489Y-81291206D01*
X164589000Y-81280000D01*
X167262000Y-81280000D01*
X167329039Y-81299685D01*
G37*
%TD.AperFunction*%
%TD*%
%TA.AperFunction,Conductor*%
%TO.N,/DRIVER/SHUNT3+*%
G36*
X171520039Y-89173685D02*
G01*
X171565794Y-89226489D01*
X171577000Y-89278000D01*
X171577000Y-90427000D01*
X171557315Y-90494039D01*
X171504511Y-90539794D01*
X171453000Y-90551000D01*
X168272000Y-90551000D01*
X168204961Y-90531315D01*
X168159206Y-90478511D01*
X168148000Y-90427000D01*
X168148000Y-89278000D01*
X168167685Y-89210961D01*
X168220489Y-89165206D01*
X168272000Y-89154000D01*
X171453000Y-89154000D01*
X171520039Y-89173685D01*
G37*
%TD.AperFunction*%
%TD*%
%TA.AperFunction,Conductor*%
%TO.N,Net-(J2-Pin_3)*%
G36*
X171742539Y-81426685D02*
G01*
X171788294Y-81479489D01*
X171799500Y-81531000D01*
X171799500Y-83078931D01*
X171827891Y-83203315D01*
X171831000Y-83230908D01*
X171831000Y-84769090D01*
X171827891Y-84796683D01*
X171799500Y-84921069D01*
X171799500Y-87252000D01*
X171779815Y-87319039D01*
X171727011Y-87364794D01*
X171675500Y-87376000D01*
X168653000Y-87376000D01*
X168585961Y-87356315D01*
X168540206Y-87303511D01*
X168529000Y-87252000D01*
X168529000Y-86614000D01*
X168148000Y-86233000D01*
X168018000Y-86233000D01*
X167950961Y-86213315D01*
X167905206Y-86160511D01*
X167894000Y-86109000D01*
X167894000Y-81531000D01*
X167913685Y-81463961D01*
X167966489Y-81418206D01*
X168018000Y-81407000D01*
X171675500Y-81407000D01*
X171742539Y-81426685D01*
G37*
%TD.AperFunction*%
%TD*%
M02*
