M48
; DRILL file {KiCad 9.0.2} date 2026-03-17T13:30:53+0900
; FORMAT={-:-/ absolute / inch / decimal}
; #@! TF.CreationDate,2026-03-17T13:30:53+09:00
; #@! TF.GenerationSoftware,Kicad,Pcbnew,9.0.2
; #@! TF.FileFunction,Plated,1,8,PTH
FMAT,2
INCH
; #@! TA.AperFunction,Plated,PTH,ViaDrill
T1C0.0118
; #@! TA.AperFunction,Plated,PTH,ComponentDrill
T2C0.0315
; #@! TA.AperFunction,Plated,PTH,ComponentDrill
T3C0.0394
%
G90
G05
T1
X5.93Y-4.27
X5.93Y-4.29
X5.93Y-4.69
X5.9392Y-4.1904
X5.95Y-4.27
X5.95Y-4.29
X5.97Y-3.48
X5.97Y-3.5
X5.97Y-3.52
X5.97Y-3.54
X5.97Y-3.56
X5.97Y-3.58
X5.97Y-3.6
X5.97Y-3.69
X5.97Y-3.71
X5.97Y-3.73
X5.97Y-3.75
X5.97Y-3.77
X5.97Y-3.79
X5.97Y-3.81
X5.97Y-4.27
X5.97Y-4.29
X5.99Y-3.48
X5.99Y-3.5
X5.99Y-3.52
X5.99Y-3.54
X5.99Y-3.56
X5.99Y-3.58
X5.99Y-3.6
X5.99Y-3.69
X5.99Y-3.71
X5.99Y-3.73
X5.99Y-3.75
X5.99Y-3.77
X5.99Y-3.79
X5.99Y-3.81
X5.99Y-4.25
X5.99Y-4.27
X5.99Y-4.29
X6.0Y-3.65
X6.01Y-3.48
X6.01Y-3.5
X6.01Y-3.52
X6.01Y-3.54
X6.01Y-3.56
X6.01Y-3.58
X6.01Y-3.6
X6.01Y-3.69
X6.01Y-3.71
X6.01Y-3.73
X6.01Y-3.75
X6.01Y-3.77
X6.01Y-3.79
X6.01Y-3.81
X6.01Y-4.25
X6.01Y-4.27
X6.01Y-4.29
X6.0112Y-3.1828
X6.0189Y-4.16
X6.03Y-3.48
X6.03Y-3.5
X6.03Y-3.52
X6.03Y-3.54
X6.03Y-3.56
X6.03Y-3.58
X6.03Y-3.6
X6.03Y-3.69
X6.03Y-3.71
X6.03Y-3.73
X6.03Y-3.75
X6.03Y-3.77
X6.03Y-3.79
X6.03Y-3.81
X6.03Y-4.25
X6.03Y-4.27
X6.03Y-4.29
X6.04Y-4.7
X6.05Y-3.48
X6.05Y-3.5
X6.05Y-3.52
X6.05Y-3.54
X6.05Y-3.56
X6.05Y-3.58
X6.05Y-3.6
X6.05Y-3.65
X6.05Y-3.69
X6.05Y-3.71
X6.05Y-3.73
X6.05Y-3.75
X6.05Y-3.77
X6.05Y-3.79
X6.05Y-3.81
X6.05Y-4.25
X6.05Y-4.27
X6.05Y-4.29
X6.07Y-3.48
X6.07Y-3.5
X6.07Y-3.52
X6.07Y-3.54
X6.07Y-3.56
X6.07Y-3.58
X6.07Y-3.6
X6.07Y-3.69
X6.07Y-3.71
X6.07Y-3.73
X6.07Y-3.75
X6.07Y-3.77
X6.07Y-3.79
X6.07Y-3.81
X6.07Y-4.27
X6.07Y-4.29
X6.08Y-4.4399
X6.09Y-3.48
X6.09Y-3.5
X6.09Y-3.52
X6.09Y-3.54
X6.09Y-3.56
X6.09Y-3.58
X6.09Y-3.6
X6.09Y-3.69
X6.09Y-3.71
X6.09Y-3.73
X6.09Y-3.75
X6.09Y-3.77
X6.09Y-3.79
X6.09Y-3.81
X6.09Y-4.27
X6.09Y-4.29
X6.1Y-3.65
X6.1Y-4.65
X6.1096Y-3.1828
X6.11Y-3.48
X6.11Y-3.5
X6.11Y-3.52
X6.11Y-3.54
X6.11Y-3.56
X6.11Y-3.58
X6.11Y-3.6
X6.11Y-3.69
X6.11Y-3.71
X6.11Y-3.73
X6.11Y-3.75
X6.11Y-3.77
X6.11Y-3.79
X6.11Y-3.81
X6.11Y-4.29
X6.11Y-4.38
X6.1169Y-3.8977
X6.13Y-3.52
X6.13Y-3.54
X6.13Y-3.56
X6.13Y-3.58
X6.13Y-3.6
X6.13Y-3.75
X6.13Y-3.77
X6.13Y-3.79
X6.13Y-3.81
X6.1342Y-4.2459
X6.15Y-4.6
X6.15Y-4.65
X6.15Y-4.7
X6.1588Y-3.1828
X6.16Y-3.6525
X6.16Y-4.045
X6.1601Y-4.1926
X6.1642Y-3.7175
X6.175Y-3.3494
X6.175Y-3.4125
X6.18Y-4.415
X6.195Y-4.215
X6.2Y-4.525
X6.2Y-4.6
X6.2Y-4.65
X6.2Y-4.7
X6.2033Y-3.706
X6.21Y-4.415
X6.2149Y-4.26
X6.215Y-4.28
X6.215Y-4.3
X6.2193Y-3.97
X6.22Y-3.52
X6.22Y-3.54
X6.22Y-3.56
X6.235Y-3.66
X6.2371Y-4.4128
X6.24Y-3.29
X6.24Y-3.31
X6.24Y-3.33
X6.24Y-3.35
X6.24Y-3.37
X6.24Y-3.39
X6.24Y-3.41
X6.24Y-3.43
X6.24Y-3.52
X6.24Y-3.54
X6.24Y-3.56
X6.24Y-3.595
X6.24Y-3.615
X6.24Y-4.23
X6.24Y-4.45
X6.2428Y-3.8722
X6.25Y-4.6
X6.25Y-4.65
X6.25Y-4.7
X6.26Y-3.27
X6.26Y-3.29
X6.26Y-3.31
X6.26Y-3.33
X6.26Y-3.35
X6.26Y-3.37
X6.26Y-3.39
X6.26Y-3.41
X6.26Y-3.43
X6.26Y-3.52
X6.26Y-3.54
X6.26Y-3.56
X6.26Y-3.595
X6.26Y-3.615
X6.26Y-3.7
X6.26Y-3.725
X6.2641Y-3.9632
X6.265Y-3.76
X6.265Y-3.79
X6.27Y-4.505
X6.28Y-3.25
X6.28Y-3.27
X6.28Y-3.29
X6.28Y-3.31
X6.28Y-3.33
X6.28Y-3.35
X6.28Y-3.37
X6.28Y-3.39
X6.28Y-3.41
X6.28Y-3.43
X6.28Y-3.52
X6.28Y-3.54
X6.28Y-3.56
X6.28Y-3.595
X6.28Y-3.615
X6.285Y-3.925
X6.2892Y-4.1803
X6.29Y-3.7
X6.29Y-3.725
X6.29Y-4.58
X6.2901Y-3.8834
X6.295Y-3.76
X6.295Y-3.79
X6.3Y-3.23
X6.3Y-3.25
X6.3Y-3.27
X6.3Y-3.29
X6.3Y-3.31
X6.3Y-3.33
X6.3Y-3.35
X6.3Y-3.37
X6.3Y-3.39
X6.3Y-3.41
X6.3Y-3.43
X6.3Y-3.52
X6.3Y-3.54
X6.3Y-3.56
X6.3Y-3.595
X6.3Y-3.615
X6.3Y-4.65
X6.3Y-4.7
X6.305Y-4.505
X6.3059Y-4.1307
X6.31Y-4.0
X6.32Y-3.21
X6.32Y-3.23
X6.32Y-3.25
X6.32Y-3.27
X6.32Y-3.29
X6.32Y-3.31
X6.32Y-3.33
X6.32Y-3.35
X6.32Y-3.37
X6.32Y-3.39
X6.32Y-3.41
X6.32Y-3.43
X6.32Y-3.52
X6.32Y-3.54
X6.32Y-3.56
X6.32Y-3.725
X6.32Y-3.79
X6.32Y-3.98
X6.32Y-4.02
X6.33Y-4.5101
X6.33Y-3.76
X6.33Y-4.0
X6.34Y-3.21
X6.34Y-3.23
X6.34Y-3.25
X6.34Y-3.27
X6.34Y-3.29
X6.34Y-3.31
X6.34Y-3.33
X6.34Y-3.35
X6.34Y-3.37
X6.34Y-3.39
X6.34Y-3.41
X6.34Y-3.43
X6.34Y-3.52
X6.34Y-3.54
X6.34Y-3.56
X6.34Y-3.98
X6.34Y-4.02
X6.34Y-4.04
X6.34Y-4.6151
X6.35Y-4.0
X6.35Y-4.31
X6.35Y-4.7
X6.3545Y-3.845
X6.36Y-3.21
X6.36Y-3.23
X6.36Y-3.25
X6.36Y-3.27
X6.36Y-3.29
X6.36Y-3.31
X6.36Y-3.33
X6.36Y-3.35
X6.36Y-3.37
X6.36Y-3.98
X6.36Y-4.02
X6.36Y-4.04
X6.3601Y-4.5499
X6.37Y-4.0
X6.3787Y-3.8421
X6.38Y-3.21
X6.38Y-3.23
X6.38Y-3.25
X6.38Y-3.27
X6.38Y-3.29
X6.38Y-3.31
X6.38Y-3.33
X6.38Y-3.35
X6.38Y-3.37
X6.38Y-3.4125
X6.38Y-3.98
X6.38Y-4.02
X6.38Y-4.04
X6.38Y-4.26
X6.3871Y-3.6629
X6.39Y-4.0
X6.3904Y-3.719
X6.395Y-4.435
X6.4Y-3.21
X6.4Y-3.23
X6.4Y-3.25
X6.4Y-3.27
X6.4Y-3.29
X6.4Y-3.31
X6.4Y-3.33
X6.4Y-3.35
X6.4Y-3.37
X6.4044Y-4.255
X6.405Y-3.8164
X6.405Y-3.84
X6.41Y-3.705
X6.42Y-3.21
X6.42Y-3.23
X6.42Y-3.25
X6.42Y-3.27
X6.42Y-3.29
X6.42Y-3.31
X6.42Y-3.33
X6.42Y-3.35
X6.42Y-3.37
X6.42Y-3.52
X6.42Y-3.54
X6.42Y-3.56
X6.42Y-3.595
X6.42Y-3.615
X6.425Y-4.435
X6.435Y-3.965
X6.44Y-3.21
X6.44Y-3.23
X6.44Y-3.25
X6.44Y-3.27
X6.44Y-3.29
X6.44Y-3.31
X6.44Y-3.33
X6.44Y-3.35
X6.44Y-3.37
X6.44Y-3.42
X6.44Y-3.52
X6.44Y-3.54
X6.44Y-3.56
X6.44Y-3.595
X6.44Y-3.615
X6.44Y-3.66
X6.4498Y-4.18
X6.455Y-3.705
X6.455Y-3.73
X6.46Y-3.41
X6.46Y-3.43
X6.46Y-3.52
X6.46Y-3.54
X6.46Y-3.56
X6.46Y-3.595
X6.46Y-3.615
X6.46Y-3.845
X6.46Y-4.51
X6.462Y-3.9725
X6.465Y-4.115
X6.48Y-3.39
X6.48Y-3.41
X6.48Y-3.43
X6.48Y-3.52
X6.48Y-3.54
X6.48Y-3.56
X6.48Y-3.595
X6.48Y-3.615
X6.4836Y-4.51
X6.485Y-3.705
X6.485Y-3.73
X6.485Y-3.76
X6.49Y-3.21
X6.49Y-3.23
X6.49Y-3.25
X6.49Y-3.27
X6.49Y-3.29
X6.49Y-3.31
X6.49Y-3.33
X6.49Y-3.35
X6.49Y-3.37
X6.5Y-3.39
X6.5Y-3.41
X6.5Y-3.43
X6.5Y-3.52
X6.5Y-3.54
X6.5Y-3.56
X6.5Y-3.595
X6.5Y-3.615
X6.5Y-3.9249
X6.505Y-4.1539
X6.51Y-3.21
X6.51Y-3.23
X6.51Y-3.25
X6.51Y-3.27
X6.51Y-3.29
X6.51Y-3.31
X6.51Y-3.33
X6.51Y-3.35
X6.51Y-3.37
X6.515Y-3.705
X6.515Y-3.73
X6.52Y-3.39
X6.52Y-3.41
X6.52Y-3.43
X6.52Y-3.52
X6.52Y-3.54
X6.52Y-3.56
X6.52Y-3.595
X6.52Y-3.615
X6.52Y-4.605
X6.525Y-4.68
X6.53Y-3.21
X6.53Y-3.23
X6.53Y-3.25
X6.53Y-3.27
X6.53Y-3.29
X6.53Y-3.31
X6.53Y-3.33
X6.53Y-3.35
X6.53Y-3.37
X6.535Y-3.885
X6.535Y-3.785
X6.535Y-4.125
X6.54Y-3.39
X6.54Y-3.41
X6.54Y-3.43
X6.54Y-3.52
X6.54Y-3.54
X6.54Y-3.56
X6.55Y-3.21
X6.55Y-3.23
X6.55Y-3.25
X6.55Y-3.27
X6.55Y-3.29
X6.55Y-3.31
X6.55Y-3.33
X6.55Y-3.35
X6.55Y-3.37
X6.55Y-4.7
X6.56Y-4.25
X6.5623Y-4.3103
X6.57Y-3.21
X6.57Y-3.23
X6.57Y-3.25
X6.57Y-3.27
X6.57Y-3.29
X6.57Y-3.31
X6.57Y-3.33
X6.57Y-3.35
X6.57Y-3.37
X6.5778Y-4.2185
X6.5795Y-4.3264
X6.5795Y-4.35
X6.58Y-3.845
X6.58Y-3.91
X6.5833Y-3.7233
X6.584Y-3.6639
X6.585Y-3.4125
X6.59Y-4.5708
X6.6016Y-4.1978
X6.6023Y-3.7461
X6.61Y-3.595
X6.625Y-3.765
X6.625Y-3.79
X6.625Y-4.48
X6.63Y-3.21
X6.63Y-3.23
X6.63Y-3.25
X6.63Y-3.27
X6.63Y-3.29
X6.63Y-3.31
X6.63Y-3.33
X6.63Y-3.35
X6.63Y-3.37
X6.63Y-3.39
X6.63Y-3.52
X6.63Y-3.54
X6.63Y-3.56
X6.63Y-3.595
X6.63Y-3.615
X6.63Y-4.605
X6.6306Y-4.55
X6.6306Y-4.685
X6.635Y-4.1269
X6.64Y-3.705
X6.64Y-3.73
X6.645Y-3.8449
X6.65Y-3.21
X6.65Y-3.23
X6.65Y-3.25
X6.65Y-3.27
X6.65Y-3.29
X6.65Y-3.31
X6.65Y-3.33
X6.65Y-3.35
X6.65Y-3.37
X6.65Y-3.39
X6.65Y-3.41
X6.65Y-3.43
X6.65Y-3.52
X6.65Y-3.54
X6.65Y-3.56
X6.65Y-3.595
X6.65Y-3.615
X6.65Y-3.66
X6.65Y-3.765
X6.65Y-3.79
X6.65Y-3.9
X6.65Y-3.95
X6.65Y-4.0
X6.665Y-3.705
X6.665Y-3.73
X6.6651Y-4.4552
X6.6654Y-4.26
X6.6661Y-4.525
X6.67Y-3.21
X6.67Y-3.23
X6.67Y-3.25
X6.67Y-3.27
X6.67Y-3.29
X6.67Y-3.31
X6.67Y-3.33
X6.67Y-3.35
X6.67Y-3.37
X6.67Y-3.39
X6.67Y-3.41
X6.67Y-3.43
X6.67Y-3.52
X6.67Y-3.54
X6.67Y-3.56
X6.67Y-3.595
X6.67Y-3.615
X6.675Y-3.765
X6.675Y-3.79
X6.6843Y-4.3631
X6.69Y-3.21
X6.69Y-3.23
X6.69Y-3.25
X6.69Y-3.27
X6.69Y-3.29
X6.69Y-3.31
X6.69Y-3.33
X6.69Y-3.35
X6.69Y-3.37
X6.69Y-3.39
X6.69Y-3.41
X6.69Y-3.43
X6.69Y-3.52
X6.69Y-3.54
X6.69Y-3.56
X6.69Y-3.595
X6.69Y-3.615
X6.69Y-3.705
X6.69Y-3.73
X6.7Y-4.65
X6.705Y-3.9249
X6.705Y-4.69
X6.7065Y-4.4415
X6.71Y-3.21
X6.71Y-3.23
X6.71Y-3.25
X6.71Y-3.27
X6.71Y-3.29
X6.71Y-3.31
X6.71Y-3.33
X6.71Y-3.35
X6.71Y-3.37
X6.71Y-3.39
X6.71Y-3.41
X6.71Y-3.43
X6.71Y-3.52
X6.71Y-3.54
X6.71Y-3.56
X6.73Y-3.21
X6.73Y-3.23
X6.73Y-3.25
X6.73Y-3.27
X6.73Y-3.29
X6.73Y-3.31
X6.73Y-3.33
X6.73Y-3.35
X6.73Y-3.37
X6.73Y-3.39
X6.73Y-3.41
X6.73Y-3.43
X6.73Y-3.52
X6.73Y-3.54
X6.73Y-3.56
X6.7358Y-4.0658
X6.745Y-3.765
X6.745Y-3.79
X6.745Y-3.845
X6.75Y-3.21
X6.75Y-3.23
X6.75Y-3.25
X6.75Y-3.27
X6.75Y-3.29
X6.75Y-3.31
X6.75Y-3.33
X6.75Y-3.35
X6.75Y-3.37
X6.75Y-3.39
X6.75Y-3.41
X6.75Y-3.43
X6.75Y-3.52
X6.75Y-3.54
X6.75Y-3.56
X6.75Y-3.95
X6.75Y-4.0
X6.75Y-4.65
X6.75Y-4.7
X6.835Y-4.345
X6.8852Y-4.4174
T2
X7.095Y-3.8975
X7.095Y-3.9763
X7.095Y-4.055
X7.095Y-4.1337
X7.095Y-4.2125
X7.095Y-4.2912
X7.095Y-4.37
T3
X5.9506Y-4.4506
X5.9506Y-4.5294
X5.9506Y-4.61
X6.0294Y-4.4506
X6.0294Y-4.5294
X6.0294Y-4.61
M30
