%TF.GenerationSoftware,KiCad,Pcbnew,9.0.2*%
%TF.CreationDate,2026-03-17T13:30:53+09:00*%
%TF.ProjectId,X610,58363130-2e6b-4696-9361-645f70636258,rev?*%
%TF.SameCoordinates,Original*%
%TF.FileFunction,Legend,Bot*%
%TF.FilePolarity,Positive*%
%FSLAX46Y46*%
G04 Gerber Fmt 4.6, Leading zero omitted, Abs format (unit mm)*
G04 Created by KiCad (PCBNEW 9.0.2) date 2026-03-17 13:30:53*
%MOMM*%
%LPD*%
G01*
G04 APERTURE LIST*
G04 Aperture macros list*
%AMRoundRect*
0 Rectangle with rounded corners*
0 $1 Rounding radius*
0 $2 $3 $4 $5 $6 $7 $8 $9 X,Y pos of 4 corners*
0 Add a 4 corners polygon primitive as box body*
4,1,4,$2,$3,$4,$5,$6,$7,$8,$9,$2,$3,0*
0 Add four circle primitives for the rounded corners*
1,1,$1+$1,$2,$3*
1,1,$1+$1,$4,$5*
1,1,$1+$1,$6,$7*
1,1,$1+$1,$8,$9*
0 Add four rect primitives between the rounded corners*
20,1,$1+$1,$2,$3,$4,$5,0*
20,1,$1+$1,$4,$5,$6,$7,0*
20,1,$1+$1,$6,$7,$8,$9,0*
20,1,$1+$1,$8,$9,$2,$3,0*%
G04 Aperture macros list end*
%ADD10C,0.100000*%
%ADD11C,0.150000*%
%ADD12C,0.120000*%
%ADD13C,0.100000*%
%ADD14C,1.500000*%
%ADD15C,3.200000*%
%ADD16C,0.900000*%
%ADD17RoundRect,0.195000X-0.455000X0.455000X-0.455000X-0.455000X0.455000X-0.455000X0.455000X0.455000X0*%
%ADD18C,1.300000*%
%ADD19RoundRect,0.135000X-0.185000X0.135000X-0.185000X-0.135000X0.185000X-0.135000X0.185000X0.135000X0*%
%ADD20RoundRect,0.140000X0.170000X-0.140000X0.170000X0.140000X-0.170000X0.140000X-0.170000X-0.140000X0*%
%ADD21C,1.000000*%
%ADD22RoundRect,0.135000X0.185000X-0.135000X0.185000X0.135000X-0.185000X0.135000X-0.185000X-0.135000X0*%
%ADD23RoundRect,0.135000X-0.135000X-0.185000X0.135000X-0.185000X0.135000X0.185000X-0.135000X0.185000X0*%
%ADD24RoundRect,0.135000X0.135000X0.185000X-0.135000X0.185000X-0.135000X-0.185000X0.135000X-0.185000X0*%
%ADD25RoundRect,0.102000X-0.323000X0.373000X-0.323000X-0.373000X0.323000X-0.373000X0.323000X0.373000X0*%
%ADD26RoundRect,0.140000X0.140000X0.170000X-0.140000X0.170000X-0.140000X-0.170000X0.140000X-0.170000X0*%
%ADD27RoundRect,0.225000X0.225000X0.250000X-0.225000X0.250000X-0.225000X-0.250000X0.225000X-0.250000X0*%
%ADD28RoundRect,0.112500X-0.187500X-0.112500X0.187500X-0.112500X0.187500X0.112500X-0.187500X0.112500X0*%
%ADD29RoundRect,0.150000X-0.512500X-0.150000X0.512500X-0.150000X0.512500X0.150000X-0.512500X0.150000X0*%
%ADD30RoundRect,0.140000X-0.140000X-0.170000X0.140000X-0.170000X0.140000X0.170000X-0.140000X0.170000X0*%
%ADD31RoundRect,0.200000X0.275000X-0.200000X0.275000X0.200000X-0.275000X0.200000X-0.275000X-0.200000X0*%
%ADD32RoundRect,0.250000X-1.425000X0.362500X-1.425000X-0.362500X1.425000X-0.362500X1.425000X0.362500X0*%
%ADD33RoundRect,0.225000X0.225000X0.375000X-0.225000X0.375000X-0.225000X-0.375000X0.225000X-0.375000X0*%
%ADD34RoundRect,0.062500X0.062500X-0.375000X0.062500X0.375000X-0.062500X0.375000X-0.062500X-0.375000X0*%
%ADD35RoundRect,0.062500X0.375000X-0.062500X0.375000X0.062500X-0.375000X0.062500X-0.375000X-0.062500X0*%
%ADD36R,5.600000X5.600000*%
%ADD37RoundRect,0.140000X-0.170000X0.140000X-0.170000X-0.140000X0.170000X-0.140000X0.170000X0.140000X0*%
%ADD38RoundRect,0.087500X-0.087500X0.337500X-0.087500X-0.337500X0.087500X-0.337500X0.087500X0.337500X0*%
%ADD39R,2.400000X1.650000*%
%ADD40RoundRect,0.050000X-0.362500X-0.050000X0.362500X-0.050000X0.362500X0.050000X-0.362500X0.050000X0*%
%ADD41RoundRect,0.050000X-0.050000X-0.362500X0.050000X-0.362500X0.050000X0.362500X-0.050000X0.362500X0*%
%ADD42R,2.700000X2.700000*%
G04 APERTURE END LIST*
D10*
G36*
X166902801Y-119065395D02*
G01*
X167279179Y-119065395D01*
X167279179Y-119440552D01*
X167384387Y-119440552D01*
X167384387Y-119065395D01*
X167760765Y-119065395D01*
X167760765Y-118963790D01*
X167384387Y-118963790D01*
X167384387Y-118588633D01*
X167279179Y-118588633D01*
X167279179Y-118963790D01*
X166902801Y-118963790D01*
X166902801Y-119065395D01*
G37*
G36*
X151311773Y-103619255D02*
G01*
X150803687Y-103976582D01*
X150284000Y-103619988D01*
X150284000Y-103768243D01*
X150714355Y-104053763D01*
X150284000Y-104346793D01*
X150284000Y-104485462D01*
X150797520Y-104124777D01*
X151311773Y-104477280D01*
X151311773Y-104329696D01*
X150886913Y-104047596D01*
X151311773Y-103758595D01*
X151311773Y-103619255D01*
G37*
G36*
X150693248Y-102787179D02*
G01*
X150756711Y-102805361D01*
X150809684Y-102834237D01*
X150853940Y-102873948D01*
X150889275Y-102922656D01*
X150914961Y-102978436D01*
X150930990Y-103042602D01*
X150936616Y-103116847D01*
X150932274Y-103176355D01*
X150918955Y-103237678D01*
X150895970Y-103301439D01*
X150862306Y-103368234D01*
X150946634Y-103355042D01*
X151017496Y-103332636D01*
X151076983Y-103301884D01*
X151126759Y-103263027D01*
X151167775Y-103215026D01*
X151197226Y-103159863D01*
X151215488Y-103096135D01*
X151221892Y-103021898D01*
X151218650Y-102971483D01*
X151209378Y-102927146D01*
X151194537Y-102887992D01*
X151194537Y-102879810D01*
X151315010Y-102879810D01*
X151326869Y-102932104D01*
X151331313Y-103001382D01*
X151324400Y-103097590D01*
X151304724Y-103180810D01*
X151273286Y-103253142D01*
X151230249Y-103316254D01*
X151174936Y-103371287D01*
X151111606Y-103415437D01*
X151037796Y-103451011D01*
X150951912Y-103477706D01*
X150852020Y-103494710D01*
X150735910Y-103500736D01*
X150640806Y-103496125D01*
X150560068Y-103483207D01*
X150491706Y-103463109D01*
X150433963Y-103436605D01*
X150385360Y-103404077D01*
X150342158Y-103362684D01*
X150308838Y-103315835D01*
X150284701Y-103262787D01*
X150269703Y-103202401D01*
X150264460Y-103133212D01*
X150264584Y-103131807D01*
X150366065Y-103131807D01*
X150371834Y-103185780D01*
X150388415Y-103232037D01*
X150415694Y-103272251D01*
X150454847Y-103307418D01*
X150500049Y-103333452D01*
X150555683Y-103353321D01*
X150623837Y-103366245D01*
X150706967Y-103370921D01*
X150774867Y-103368173D01*
X150808759Y-103295313D01*
X150828504Y-103223025D01*
X150835011Y-103150309D01*
X150830264Y-103085325D01*
X150817380Y-103034908D01*
X150797774Y-102996071D01*
X150771936Y-102966516D01*
X150727107Y-102936259D01*
X150674556Y-102917703D01*
X150612201Y-102911195D01*
X150553814Y-102915357D01*
X150505195Y-102927003D01*
X150464653Y-102945284D01*
X150430851Y-102969935D01*
X150403021Y-103001345D01*
X150382970Y-103038027D01*
X150370472Y-103081028D01*
X150366065Y-103131807D01*
X150264584Y-103131807D01*
X150270925Y-103059721D01*
X150289658Y-102994281D01*
X150320375Y-102935352D01*
X150363745Y-102881825D01*
X150416494Y-102837804D01*
X150475362Y-102806522D01*
X150541575Y-102787356D01*
X150616841Y-102780708D01*
X150693248Y-102787179D01*
G37*
G36*
X150284000Y-101985026D02*
G01*
X150284000Y-102532863D01*
X150377789Y-102532863D01*
X150377789Y-102318356D01*
X151085116Y-102318356D01*
X151085116Y-102532863D01*
X151167182Y-102532863D01*
X151172545Y-102448856D01*
X151185407Y-102391253D01*
X151203269Y-102353222D01*
X151230710Y-102323092D01*
X151267308Y-102302807D01*
X151315681Y-102292406D01*
X151315681Y-102195380D01*
X150377789Y-102195380D01*
X150377789Y-101985026D01*
X150284000Y-101985026D01*
G37*
G36*
X150939432Y-101064832D02*
G01*
X151049967Y-101082958D01*
X151135589Y-101109999D01*
X151201009Y-101144220D01*
X151247513Y-101181971D01*
X151283291Y-101226282D01*
X151309285Y-101277999D01*
X151325564Y-101338563D01*
X151331313Y-101409895D01*
X151325553Y-101481890D01*
X151309263Y-101542853D01*
X151283295Y-101594752D01*
X151247616Y-101639065D01*
X151201315Y-101676669D01*
X151136117Y-101710672D01*
X151050389Y-101737604D01*
X150939282Y-101755694D01*
X150797215Y-101762399D01*
X150655047Y-101755710D01*
X150544049Y-101737677D01*
X150458575Y-101710858D01*
X150393726Y-101677036D01*
X150347764Y-101639593D01*
X150312297Y-101595348D01*
X150286446Y-101543402D01*
X150270208Y-101482248D01*
X150264460Y-101409895D01*
X150366065Y-101409895D01*
X150372312Y-101466118D01*
X150389901Y-101511694D01*
X150418402Y-101549003D01*
X150459122Y-101579339D01*
X150504920Y-101599105D01*
X150572086Y-101615727D01*
X150667058Y-101627428D01*
X150797215Y-101631912D01*
X150928558Y-101627412D01*
X151024073Y-101615686D01*
X151091338Y-101599062D01*
X151136957Y-101579339D01*
X151177524Y-101549022D01*
X151205934Y-101511722D01*
X151223476Y-101466141D01*
X151229708Y-101409895D01*
X151223348Y-101353444D01*
X151205451Y-101307835D01*
X151176431Y-101270624D01*
X151134881Y-101240513D01*
X151088296Y-101220902D01*
X151020894Y-101204495D01*
X150926619Y-101192999D01*
X150798558Y-101188611D01*
X150667614Y-101193078D01*
X150572221Y-101204726D01*
X150504899Y-101221254D01*
X150459122Y-101240879D01*
X150418406Y-101271046D01*
X150389909Y-101308222D01*
X150372317Y-101353706D01*
X150366065Y-101409895D01*
X150264460Y-101409895D01*
X150270209Y-101337893D01*
X150286461Y-101276978D01*
X150312353Y-101225173D01*
X150347909Y-101180992D01*
X150394031Y-101143548D01*
X150459053Y-101109704D01*
X150544751Y-101082865D01*
X150656035Y-101064819D01*
X150798558Y-101058124D01*
X150939432Y-101064832D01*
G37*
G36*
X151057761Y-99729932D02*
G01*
X150284000Y-100058500D01*
X150284000Y-100152106D01*
X151057761Y-100478597D01*
X151057761Y-100348110D01*
X150453809Y-100100143D01*
X151057761Y-99855595D01*
X151057761Y-99729932D01*
G37*
G36*
X150284000Y-98978885D02*
G01*
X150284000Y-99526722D01*
X150377789Y-99526722D01*
X150377789Y-99312215D01*
X151085116Y-99312215D01*
X151085116Y-99526722D01*
X151167182Y-99526722D01*
X151172545Y-99442715D01*
X151185407Y-99385112D01*
X151203269Y-99347081D01*
X151230710Y-99316951D01*
X151267308Y-99296666D01*
X151315681Y-99286265D01*
X151315681Y-99189239D01*
X150377789Y-99189239D01*
X150377789Y-98978885D01*
X150284000Y-98978885D01*
G37*
G36*
X150284000Y-98517205D02*
G01*
X150284000Y-98672238D01*
X150471578Y-98672238D01*
X150471578Y-98517205D01*
X150284000Y-98517205D01*
G37*
G36*
X150284000Y-97620895D02*
G01*
X150284000Y-98168732D01*
X150377789Y-98168732D01*
X150377789Y-97954225D01*
X151085116Y-97954225D01*
X151085116Y-98168732D01*
X151167182Y-98168732D01*
X151172545Y-98084725D01*
X151185407Y-98027122D01*
X151203269Y-97989091D01*
X151230710Y-97958961D01*
X151267308Y-97938676D01*
X151315681Y-97928274D01*
X151315681Y-97831249D01*
X150377789Y-97831249D01*
X150377789Y-97620895D01*
X150284000Y-97620895D01*
G37*
G36*
X150284000Y-97159215D02*
G01*
X150284000Y-97314248D01*
X150471578Y-97314248D01*
X150471578Y-97159215D01*
X150284000Y-97159215D01*
G37*
G36*
X150939432Y-96212215D02*
G01*
X151049967Y-96230341D01*
X151135589Y-96257382D01*
X151201009Y-96291603D01*
X151247513Y-96329354D01*
X151283291Y-96373665D01*
X151309285Y-96425382D01*
X151325564Y-96485946D01*
X151331313Y-96557278D01*
X151325553Y-96629273D01*
X151309263Y-96690237D01*
X151283295Y-96742135D01*
X151247616Y-96786448D01*
X151201315Y-96824053D01*
X151136117Y-96858055D01*
X151050389Y-96884987D01*
X150939282Y-96903077D01*
X150797215Y-96909782D01*
X150655047Y-96903093D01*
X150544049Y-96885060D01*
X150458575Y-96858241D01*
X150393726Y-96824419D01*
X150347764Y-96786976D01*
X150312297Y-96742731D01*
X150286446Y-96690785D01*
X150270208Y-96629632D01*
X150264460Y-96557278D01*
X150366065Y-96557278D01*
X150372312Y-96613501D01*
X150389901Y-96659077D01*
X150418402Y-96696386D01*
X150459122Y-96726722D01*
X150504920Y-96746488D01*
X150572086Y-96763110D01*
X150667058Y-96774811D01*
X150797215Y-96779295D01*
X150928558Y-96774795D01*
X151024073Y-96763069D01*
X151091338Y-96746445D01*
X151136957Y-96726722D01*
X151177524Y-96696405D01*
X151205934Y-96659105D01*
X151223476Y-96613524D01*
X151229708Y-96557278D01*
X151223348Y-96500827D01*
X151205451Y-96455218D01*
X151176431Y-96418007D01*
X151134881Y-96387896D01*
X151088296Y-96368285D01*
X151020894Y-96351878D01*
X150926619Y-96340382D01*
X150798558Y-96335994D01*
X150667614Y-96340461D01*
X150572221Y-96352109D01*
X150504899Y-96368637D01*
X150459122Y-96388262D01*
X150418406Y-96418429D01*
X150389909Y-96455606D01*
X150372317Y-96501089D01*
X150366065Y-96557278D01*
X150264460Y-96557278D01*
X150270209Y-96485276D01*
X150286461Y-96424361D01*
X150312353Y-96372557D01*
X150347909Y-96328375D01*
X150394031Y-96290931D01*
X150459053Y-96257087D01*
X150544751Y-96230248D01*
X150656035Y-96212202D01*
X150798558Y-96205508D01*
X150939432Y-96212215D01*
G37*
G36*
X171801343Y-117509000D02*
G01*
X171674275Y-117509000D01*
X171674275Y-117094764D01*
X171464593Y-117094764D01*
X171125767Y-117509000D01*
X170959743Y-117509000D01*
X171335450Y-117058677D01*
X171268977Y-117024618D01*
X171217332Y-116984892D01*
X171178263Y-116939532D01*
X171150352Y-116887907D01*
X171133128Y-116828775D01*
X171127535Y-116765219D01*
X171260345Y-116765219D01*
X171264676Y-116818766D01*
X171276777Y-116862826D01*
X171295845Y-116899186D01*
X171321833Y-116929167D01*
X171353679Y-116951675D01*
X171396183Y-116969232D01*
X171452076Y-116980978D01*
X171524677Y-116985343D01*
X171674275Y-116985343D01*
X171674275Y-116590646D01*
X171501474Y-116590646D01*
X171417917Y-116597056D01*
X171357403Y-116613975D01*
X171314418Y-116639029D01*
X171284920Y-116671549D01*
X171266820Y-116712692D01*
X171260345Y-116765219D01*
X171127535Y-116765219D01*
X171127110Y-116760395D01*
X171132915Y-116699382D01*
X171149616Y-116646309D01*
X171176924Y-116599593D01*
X171215587Y-116558162D01*
X171261110Y-116527550D01*
X171322414Y-116503472D01*
X171403614Y-116487269D01*
X171509656Y-116481226D01*
X171801343Y-116481226D01*
X171801343Y-117509000D01*
G37*
G36*
X171847260Y-115477000D02*
G01*
X171596545Y-115477000D01*
X171477761Y-115471653D01*
X171378458Y-115456790D01*
X171295867Y-115433900D01*
X171227524Y-115404071D01*
X171171322Y-115367936D01*
X171125583Y-115325630D01*
X171076324Y-115262419D01*
X171038490Y-115195385D01*
X171011424Y-115123909D01*
X170994933Y-115047163D01*
X170989296Y-114964151D01*
X170989416Y-114962075D01*
X171122469Y-114962075D01*
X171127571Y-115043610D01*
X171141941Y-115112963D01*
X171164554Y-115172011D01*
X171194933Y-115222317D01*
X171233172Y-115265058D01*
X171277865Y-115298983D01*
X171333405Y-115326936D01*
X171401840Y-115348444D01*
X171485653Y-115362492D01*
X171587691Y-115367579D01*
X171720192Y-115367579D01*
X171720192Y-114558646D01*
X171587691Y-114558646D01*
X171487288Y-114563868D01*
X171404278Y-114578340D01*
X171335966Y-114600611D01*
X171280012Y-114629732D01*
X171234516Y-114665319D01*
X171195237Y-114709858D01*
X171164384Y-114760730D01*
X171141703Y-114818853D01*
X171127469Y-114885466D01*
X171122469Y-114962075D01*
X170989416Y-114962075D01*
X170994215Y-114879372D01*
X171008292Y-114804399D01*
X171030785Y-114737904D01*
X171061347Y-114678753D01*
X171100880Y-114624044D01*
X171146497Y-114577348D01*
X171198578Y-114538044D01*
X171257780Y-114505829D01*
X171319232Y-114482980D01*
X171394900Y-114465171D01*
X171487319Y-114453469D01*
X171599292Y-114449226D01*
X171847260Y-114449226D01*
X171847260Y-115477000D01*
G37*
G36*
X167449807Y-117509000D02*
G01*
X167449807Y-116590646D01*
X167815317Y-116590646D01*
X167815317Y-116481226D01*
X166957292Y-116481226D01*
X166957292Y-116590646D01*
X167322740Y-116590646D01*
X167322740Y-117509000D01*
X167449807Y-117509000D01*
G37*
G36*
X171183457Y-119069303D02*
G01*
X171609722Y-119069303D01*
X171609722Y-118955974D01*
X171183457Y-118955974D01*
X171183457Y-119069303D01*
G37*
D11*
G36*
X157812000Y-112756777D02*
G01*
X157480611Y-112756777D01*
X157480611Y-112924523D01*
X157812000Y-113195584D01*
X157812000Y-113328403D01*
X157451741Y-113027838D01*
X157424494Y-113081016D01*
X157392713Y-113122331D01*
X157356426Y-113153587D01*
X157315125Y-113175916D01*
X157267820Y-113189695D01*
X157213116Y-113194509D01*
X157164305Y-113189865D01*
X157121847Y-113176504D01*
X157084474Y-113154658D01*
X157051330Y-113123727D01*
X157026840Y-113087309D01*
X157007578Y-113038266D01*
X156994615Y-112973306D01*
X156990153Y-112895018D01*
X157077317Y-112895018D01*
X157082445Y-112961864D01*
X157095980Y-113010275D01*
X157116023Y-113044663D01*
X157142039Y-113068262D01*
X157174953Y-113082741D01*
X157216975Y-113087921D01*
X157259812Y-113084457D01*
X157295061Y-113074776D01*
X157324148Y-113059521D01*
X157348133Y-113038731D01*
X157366140Y-113013254D01*
X157380186Y-112979251D01*
X157389582Y-112934536D01*
X157393074Y-112876456D01*
X157393074Y-112756777D01*
X157077317Y-112756777D01*
X157077317Y-112895018D01*
X156990153Y-112895018D01*
X156989780Y-112888473D01*
X156989780Y-112655123D01*
X157812000Y-112655123D01*
X157812000Y-112756777D01*
G37*
G36*
X157779857Y-113412374D02*
G01*
X157671316Y-113412374D01*
X157671316Y-113421117D01*
X157701994Y-113476200D01*
X157723307Y-113531202D01*
X157735905Y-113586611D01*
X157740094Y-113642988D01*
X157736660Y-113686856D01*
X157726905Y-113724428D01*
X157711301Y-113756797D01*
X157689829Y-113784795D01*
X157663068Y-113807581D01*
X157631661Y-113824095D01*
X157594691Y-113834433D01*
X157550904Y-113838089D01*
X157508654Y-113833664D01*
X157474449Y-113821257D01*
X157446508Y-113801299D01*
X157423793Y-113773045D01*
X157406153Y-113734680D01*
X157394348Y-113683521D01*
X157389948Y-113616219D01*
X157394705Y-113548065D01*
X157411832Y-113447886D01*
X156989780Y-113447886D01*
X156989780Y-113937007D01*
X157077317Y-113937007D01*
X157077317Y-113546267D01*
X157309543Y-113546267D01*
X157302411Y-113643525D01*
X157307082Y-113718127D01*
X157319951Y-113778575D01*
X157339732Y-113827356D01*
X157365768Y-113866519D01*
X157399962Y-113898956D01*
X157441067Y-113922449D01*
X157490499Y-113937219D01*
X157550269Y-113942478D01*
X157610057Y-113937069D01*
X157662411Y-113921489D01*
X157708760Y-113896058D01*
X157750108Y-113860217D01*
X157783380Y-113816994D01*
X157807433Y-113767593D01*
X157822389Y-113710841D01*
X157827631Y-113645186D01*
X157822092Y-113560272D01*
X157806012Y-113483043D01*
X157779857Y-113412374D01*
G37*
G36*
X162018631Y-97543882D02*
G01*
X162013688Y-97469656D01*
X161999590Y-97404907D01*
X161977070Y-97348197D01*
X161946346Y-97298349D01*
X161907110Y-97254503D01*
X161861253Y-97218410D01*
X161808123Y-97189641D01*
X161746624Y-97168228D01*
X161675366Y-97154663D01*
X161592720Y-97149869D01*
X161512027Y-97154662D01*
X161441703Y-97168293D01*
X161380283Y-97189944D01*
X161326524Y-97219219D01*
X161279454Y-97256163D01*
X161238967Y-97300834D01*
X161207438Y-97351065D01*
X161184458Y-97407643D01*
X161170147Y-97471661D01*
X161165149Y-97544468D01*
X161169457Y-97608157D01*
X161182699Y-97674334D01*
X161205575Y-97743616D01*
X161239057Y-97816603D01*
X161358980Y-97816603D01*
X161358980Y-97808934D01*
X161319316Y-97754829D01*
X161289619Y-97701102D01*
X161268969Y-97647369D01*
X161256752Y-97593157D01*
X161252685Y-97537922D01*
X161256554Y-97486341D01*
X161267672Y-97440831D01*
X161285638Y-97400395D01*
X161310513Y-97364250D01*
X161342811Y-97331879D01*
X161389460Y-97300129D01*
X161445417Y-97276457D01*
X161512503Y-97261330D01*
X161592965Y-97255919D01*
X161672757Y-97261407D01*
X161739374Y-97276769D01*
X161795042Y-97300854D01*
X161841555Y-97333247D01*
X161873730Y-97366149D01*
X161898466Y-97402569D01*
X161916287Y-97442996D01*
X161927280Y-97488161D01*
X161931094Y-97538997D01*
X161925627Y-97607111D01*
X161909454Y-97671230D01*
X161891983Y-97711510D01*
X161864467Y-97757102D01*
X161824800Y-97808934D01*
X161824800Y-97816603D01*
X161944235Y-97816603D01*
X161986978Y-97716530D01*
X162006126Y-97653449D01*
X162015621Y-97595943D01*
X162018631Y-97543882D01*
G37*
G36*
X162003000Y-98435368D02*
G01*
X162003000Y-97997099D01*
X161927968Y-97997099D01*
X161927968Y-98168704D01*
X161362106Y-98168704D01*
X161362106Y-97997099D01*
X161296454Y-97997099D01*
X161292163Y-98064304D01*
X161281874Y-98110386D01*
X161267584Y-98140811D01*
X161245631Y-98164915D01*
X161216352Y-98181143D01*
X161177654Y-98189464D01*
X161177654Y-98267085D01*
X161927968Y-98267085D01*
X161927968Y-98435368D01*
X162003000Y-98435368D01*
G37*
G36*
X161765400Y-98977441D02*
G01*
X162003000Y-98977441D01*
X162003000Y-99075773D01*
X161765400Y-99075773D01*
X161765400Y-99196575D01*
X161684116Y-99196575D01*
X161684116Y-99075773D01*
X161180780Y-99075773D01*
X161180780Y-98981788D01*
X161185876Y-98977441D01*
X161300508Y-98977441D01*
X161684116Y-98977441D01*
X161684116Y-98650057D01*
X161300508Y-98977441D01*
X161185876Y-98977441D01*
X161650362Y-98581230D01*
X161765400Y-98581230D01*
X161765400Y-98977441D01*
G37*
G36*
X154764000Y-85738976D02*
G01*
X154432611Y-85738976D01*
X154432611Y-85906722D01*
X154764000Y-86177783D01*
X154764000Y-86310602D01*
X154403741Y-86010037D01*
X154376494Y-86063215D01*
X154344713Y-86104530D01*
X154308426Y-86135786D01*
X154267125Y-86158115D01*
X154219820Y-86171894D01*
X154165116Y-86176708D01*
X154116305Y-86172064D01*
X154073847Y-86158703D01*
X154036474Y-86136857D01*
X154003330Y-86105926D01*
X153978840Y-86069508D01*
X153959578Y-86020465D01*
X153946615Y-85955505D01*
X153942153Y-85877217D01*
X154029317Y-85877217D01*
X154034445Y-85944063D01*
X154047980Y-85992474D01*
X154068023Y-86026862D01*
X154094039Y-86050461D01*
X154126953Y-86064940D01*
X154168975Y-86070120D01*
X154211812Y-86066656D01*
X154247061Y-86056975D01*
X154276148Y-86041720D01*
X154300133Y-86020930D01*
X154318140Y-85995453D01*
X154332186Y-85961450D01*
X154341582Y-85916735D01*
X154345074Y-85858655D01*
X154345074Y-85738976D01*
X154029317Y-85738976D01*
X154029317Y-85877217D01*
X153942153Y-85877217D01*
X153941780Y-85870672D01*
X153941780Y-85637322D01*
X154764000Y-85637322D01*
X154764000Y-85738976D01*
G37*
G36*
X154727852Y-86383679D02*
G01*
X154617063Y-86383679D01*
X154617063Y-86392423D01*
X154650683Y-86449966D01*
X154673906Y-86507019D01*
X154687566Y-86564125D01*
X154692094Y-86621914D01*
X154688812Y-86665364D01*
X154679505Y-86702534D01*
X154664661Y-86734490D01*
X154644321Y-86762060D01*
X154618755Y-86784671D01*
X154588730Y-86801003D01*
X154553357Y-86811210D01*
X154511404Y-86814817D01*
X154472034Y-86811527D01*
X154440471Y-86802426D01*
X154415152Y-86788207D01*
X154394949Y-86768899D01*
X154375781Y-86735994D01*
X154362632Y-86688140D01*
X154357579Y-86620253D01*
X154357579Y-86572186D01*
X154276295Y-86572186D01*
X154276295Y-86609360D01*
X154271589Y-86667333D01*
X154258721Y-86712717D01*
X154238877Y-86748139D01*
X154218282Y-86770123D01*
X154194372Y-86785612D01*
X154166495Y-86795121D01*
X154133609Y-86798453D01*
X154097519Y-86793362D01*
X154068532Y-86778836D01*
X154044900Y-86754440D01*
X154028380Y-86723579D01*
X154017626Y-86683986D01*
X154013685Y-86633393D01*
X154017951Y-86579451D01*
X154030923Y-86525160D01*
X154053158Y-86469919D01*
X154085591Y-86413184D01*
X154085591Y-86407175D01*
X153978026Y-86407175D01*
X153949061Y-86482160D01*
X153931880Y-86558238D01*
X153926149Y-86636178D01*
X153930002Y-86700749D01*
X153940684Y-86753888D01*
X153957186Y-86797488D01*
X153978954Y-86833135D01*
X154007929Y-86863843D01*
X154040775Y-86885285D01*
X154078273Y-86898317D01*
X154121690Y-86902842D01*
X154164015Y-86897724D01*
X154203028Y-86882484D01*
X154239806Y-86856387D01*
X154270241Y-86822810D01*
X154292121Y-86784321D01*
X154305849Y-86739981D01*
X154314300Y-86739981D01*
X154330162Y-86797943D01*
X154353210Y-86842184D01*
X154382875Y-86875407D01*
X154419652Y-86899302D01*
X154465032Y-86914347D01*
X154521320Y-86919744D01*
X154576179Y-86914412D01*
X154624595Y-86898966D01*
X154667902Y-86873519D01*
X154706993Y-86837238D01*
X154738115Y-86794145D01*
X154760677Y-86745133D01*
X154774716Y-86689106D01*
X154779631Y-86624649D01*
X154773917Y-86543029D01*
X154756768Y-86462948D01*
X154727852Y-86383679D01*
G37*
G36*
X154055011Y-87629025D02*
G01*
X154764000Y-87259583D01*
X154764000Y-87149771D01*
X154029317Y-87542709D01*
X154029317Y-87072151D01*
X153941780Y-87072151D01*
X153941780Y-87629025D01*
X154055011Y-87629025D01*
G37*
G36*
X167887876Y-102059000D02*
G01*
X167786222Y-102059000D01*
X167786222Y-101727611D01*
X167618476Y-101727611D01*
X167347415Y-102059000D01*
X167214596Y-102059000D01*
X167515161Y-101698741D01*
X167461983Y-101671494D01*
X167420668Y-101639713D01*
X167389412Y-101603426D01*
X167367083Y-101562125D01*
X167353304Y-101514820D01*
X167348830Y-101463975D01*
X167455078Y-101463975D01*
X167458542Y-101506812D01*
X167468223Y-101542061D01*
X167483478Y-101571148D01*
X167504268Y-101595133D01*
X167529745Y-101613140D01*
X167563748Y-101627186D01*
X167608463Y-101636582D01*
X167666543Y-101640074D01*
X167786222Y-101640074D01*
X167786222Y-101324317D01*
X167647981Y-101324317D01*
X167581135Y-101329445D01*
X167532724Y-101342980D01*
X167498336Y-101363023D01*
X167474737Y-101389039D01*
X167460258Y-101421953D01*
X167455078Y-101463975D01*
X167348830Y-101463975D01*
X167348490Y-101460116D01*
X167353134Y-101411305D01*
X167366495Y-101368847D01*
X167388341Y-101331474D01*
X167419272Y-101298330D01*
X167455690Y-101273840D01*
X167504733Y-101254578D01*
X167569693Y-101241615D01*
X167654526Y-101236780D01*
X167887876Y-101236780D01*
X167887876Y-102059000D01*
G37*
G36*
X166947848Y-101226334D02*
G01*
X167000195Y-101241361D01*
X167047342Y-101266009D01*
X167090179Y-101300821D01*
X167125385Y-101343112D01*
X167150413Y-101390324D01*
X167165751Y-101443442D01*
X167171072Y-101503836D01*
X167166122Y-101563140D01*
X167152101Y-101613402D01*
X167129668Y-101656276D01*
X167098678Y-101692977D01*
X167060615Y-101722309D01*
X167015995Y-101743745D01*
X166963549Y-101757228D01*
X166901623Y-101762000D01*
X166857400Y-101758459D01*
X166809632Y-101747352D01*
X166757584Y-101727697D01*
X166700514Y-101698204D01*
X166711795Y-101772476D01*
X166730322Y-101832298D01*
X166755062Y-101880146D01*
X166785576Y-101918015D01*
X166822061Y-101947315D01*
X166865335Y-101968754D01*
X166916756Y-101982285D01*
X166978120Y-101987094D01*
X167018452Y-101984501D01*
X167053922Y-101977083D01*
X167085245Y-101965210D01*
X167091791Y-101965210D01*
X167091791Y-102062028D01*
X167049119Y-102071233D01*
X166994533Y-102074631D01*
X166917298Y-102069101D01*
X166850581Y-102053374D01*
X166792684Y-102028266D01*
X166742254Y-101993925D01*
X166698364Y-101949823D01*
X166663161Y-101899279D01*
X166634774Y-101840280D01*
X166613456Y-101771533D01*
X166599868Y-101691473D01*
X166595050Y-101598309D01*
X166595920Y-101580332D01*
X166698902Y-101580332D01*
X166700514Y-101629327D01*
X166763281Y-101658814D01*
X166821390Y-101675415D01*
X166875929Y-101680716D01*
X166927581Y-101676902D01*
X166967737Y-101666537D01*
X166998751Y-101650736D01*
X167022426Y-101629865D01*
X167046565Y-101593725D01*
X167061443Y-101550968D01*
X167066683Y-101499830D01*
X167063343Y-101453660D01*
X167053964Y-101414928D01*
X167039178Y-101382358D01*
X167019153Y-101354945D01*
X166993696Y-101332285D01*
X166964290Y-101316041D01*
X166930156Y-101305969D01*
X166890193Y-101302433D01*
X166845314Y-101307178D01*
X166807588Y-101320702D01*
X166775485Y-101342766D01*
X166748092Y-101374240D01*
X166728055Y-101410603D01*
X166712647Y-101455820D01*
X166702565Y-101511696D01*
X166698902Y-101580332D01*
X166595920Y-101580332D01*
X166598859Y-101519569D01*
X166609467Y-101453628D01*
X166625855Y-101398630D01*
X166647317Y-101352938D01*
X166673501Y-101315182D01*
X166706921Y-101281573D01*
X166744482Y-101255638D01*
X166786751Y-101236861D01*
X166834583Y-101225212D01*
X166889069Y-101221149D01*
X166947848Y-101226334D01*
G37*
G36*
X168870677Y-109552000D02*
G01*
X168769023Y-109552000D01*
X168769023Y-109220611D01*
X168601277Y-109220611D01*
X168330216Y-109552000D01*
X168197397Y-109552000D01*
X168497962Y-109191741D01*
X168444784Y-109164494D01*
X168403469Y-109132713D01*
X168372213Y-109096426D01*
X168349884Y-109055125D01*
X168336105Y-109007820D01*
X168331631Y-108956975D01*
X168437879Y-108956975D01*
X168441343Y-108999812D01*
X168451024Y-109035061D01*
X168466279Y-109064148D01*
X168487069Y-109088133D01*
X168512546Y-109106140D01*
X168546549Y-109120186D01*
X168591264Y-109129582D01*
X168649344Y-109133074D01*
X168769023Y-109133074D01*
X168769023Y-108817317D01*
X168630782Y-108817317D01*
X168563936Y-108822445D01*
X168515525Y-108835980D01*
X168481137Y-108856023D01*
X168457538Y-108882039D01*
X168443059Y-108914953D01*
X168437879Y-108956975D01*
X168331631Y-108956975D01*
X168331291Y-108953116D01*
X168335935Y-108904305D01*
X168349296Y-108861847D01*
X168371142Y-108824474D01*
X168402073Y-108791330D01*
X168438491Y-108766840D01*
X168487534Y-108747578D01*
X168552494Y-108734615D01*
X168637327Y-108729780D01*
X168870677Y-108729780D01*
X168870677Y-109552000D01*
G37*
G36*
X168173510Y-109199362D02*
G01*
X168173510Y-109314400D01*
X167777299Y-109314400D01*
X167777299Y-109552000D01*
X167678967Y-109552000D01*
X167678967Y-109314400D01*
X167558165Y-109314400D01*
X167558165Y-109233116D01*
X167678967Y-109233116D01*
X167777299Y-109233116D01*
X168104683Y-109233116D01*
X167777299Y-108849508D01*
X167777299Y-109233116D01*
X167678967Y-109233116D01*
X167678967Y-108729780D01*
X167772952Y-108729780D01*
X168173510Y-109199362D01*
G37*
G36*
X167221260Y-108718757D02*
G01*
X167270030Y-108731789D01*
X167311549Y-108752563D01*
X167347000Y-108781106D01*
X167377083Y-108818147D01*
X167404285Y-108870306D01*
X167425830Y-108938888D01*
X167440302Y-109027774D01*
X167445666Y-109141427D01*
X167440315Y-109255161D01*
X167425889Y-109343960D01*
X167404434Y-109412339D01*
X167377376Y-109464219D01*
X167347422Y-109500988D01*
X167312026Y-109529362D01*
X167270469Y-109550042D01*
X167221546Y-109563033D01*
X167163664Y-109567631D01*
X167106062Y-109563032D01*
X167057330Y-109550031D01*
X167015886Y-109529317D01*
X166980541Y-109500872D01*
X166950586Y-109463974D01*
X166923511Y-109411956D01*
X166902040Y-109343398D01*
X166887602Y-109254371D01*
X166882247Y-109140353D01*
X166986636Y-109140353D01*
X166990210Y-109245108D01*
X166999528Y-109321422D01*
X167012751Y-109375280D01*
X167028451Y-109411902D01*
X167052585Y-109444474D01*
X167082325Y-109467272D01*
X167118712Y-109481346D01*
X167163664Y-109486347D01*
X167208642Y-109481349D01*
X167245102Y-109467278D01*
X167274950Y-109444478D01*
X167299218Y-109411902D01*
X167315032Y-109375263D01*
X167328329Y-109321530D01*
X167337690Y-109245553D01*
X167341277Y-109141427D01*
X167337677Y-109036353D01*
X167328296Y-108959941D01*
X167314997Y-108906129D01*
X167299218Y-108869634D01*
X167274965Y-108837180D01*
X167245125Y-108814452D01*
X167208660Y-108800419D01*
X167163664Y-108795433D01*
X167118502Y-108800521D01*
X167082016Y-108814838D01*
X167052246Y-108838054D01*
X167028158Y-108871295D01*
X167012469Y-108908562D01*
X166999343Y-108962484D01*
X166990147Y-109037904D01*
X166986636Y-109140353D01*
X166882247Y-109140353D01*
X166887613Y-109027653D01*
X166902114Y-108939226D01*
X166923747Y-108870728D01*
X166951124Y-108818392D01*
X166981325Y-108781189D01*
X167016773Y-108752566D01*
X167058147Y-108731771D01*
X167106598Y-108718748D01*
X167163664Y-108714149D01*
X167221260Y-108718757D01*
G37*
G36*
X164228780Y-115953833D02*
G01*
X164710525Y-115654343D01*
X165051000Y-115654343D01*
X165051000Y-115552689D01*
X164721467Y-115552689D01*
X164228780Y-115251586D01*
X164228780Y-115364720D01*
X164623819Y-115604078D01*
X164228780Y-115845096D01*
X164228780Y-115953833D01*
G37*
G36*
X165051000Y-116540114D02*
G01*
X165051000Y-116101845D01*
X164975968Y-116101845D01*
X164975968Y-116273450D01*
X164410106Y-116273450D01*
X164410106Y-116101845D01*
X164344454Y-116101845D01*
X164340163Y-116169050D01*
X164329874Y-116215132D01*
X164315584Y-116245557D01*
X164293631Y-116269661D01*
X164264352Y-116285889D01*
X164225654Y-116294210D01*
X164225654Y-116371831D01*
X164975968Y-116371831D01*
X164975968Y-116540114D01*
X165051000Y-116540114D01*
G37*
G36*
X155059117Y-106011631D02*
G01*
X155133343Y-106006688D01*
X155198092Y-105992590D01*
X155254802Y-105970070D01*
X155304650Y-105939346D01*
X155348496Y-105900110D01*
X155384589Y-105854253D01*
X155413358Y-105801123D01*
X155434771Y-105739624D01*
X155448336Y-105668366D01*
X155453130Y-105585720D01*
X155448337Y-105505027D01*
X155434706Y-105434703D01*
X155413055Y-105373283D01*
X155383780Y-105319524D01*
X155346836Y-105272454D01*
X155302165Y-105231967D01*
X155251934Y-105200438D01*
X155195356Y-105177458D01*
X155131338Y-105163147D01*
X155058531Y-105158149D01*
X154994842Y-105162457D01*
X154928665Y-105175699D01*
X154859383Y-105198575D01*
X154786396Y-105232057D01*
X154786396Y-105351980D01*
X154794065Y-105351980D01*
X154848170Y-105312316D01*
X154901897Y-105282619D01*
X154955630Y-105261969D01*
X155009842Y-105249752D01*
X155065077Y-105245685D01*
X155116658Y-105249554D01*
X155162168Y-105260672D01*
X155202604Y-105278638D01*
X155238749Y-105303513D01*
X155271120Y-105335811D01*
X155302870Y-105382460D01*
X155326542Y-105438417D01*
X155341669Y-105505503D01*
X155347080Y-105585965D01*
X155341592Y-105665757D01*
X155326230Y-105732374D01*
X155302145Y-105788042D01*
X155269752Y-105834555D01*
X155236850Y-105866730D01*
X155200430Y-105891466D01*
X155160003Y-105909287D01*
X155114838Y-105920280D01*
X155064002Y-105924094D01*
X154995888Y-105918627D01*
X154931769Y-105902454D01*
X154891489Y-105884983D01*
X154845897Y-105857467D01*
X154794065Y-105817800D01*
X154786396Y-105817800D01*
X154786396Y-105937235D01*
X154886469Y-105979978D01*
X154949550Y-105999126D01*
X155007056Y-106008621D01*
X155059117Y-106011631D01*
G37*
G36*
X154167631Y-105996000D02*
G01*
X154605900Y-105996000D01*
X154605900Y-105920968D01*
X154434295Y-105920968D01*
X154434295Y-105355106D01*
X154605900Y-105355106D01*
X154605900Y-105289454D01*
X154538695Y-105285163D01*
X154492613Y-105274874D01*
X154462188Y-105260584D01*
X154438084Y-105238631D01*
X154421856Y-105209352D01*
X154413535Y-105170654D01*
X154335914Y-105170654D01*
X154335914Y-105920968D01*
X154167631Y-105920968D01*
X154167631Y-105996000D01*
G37*
G36*
X153666475Y-105163679D02*
G01*
X153733051Y-105179420D01*
X153790916Y-105204570D01*
X153841406Y-105239000D01*
X153885433Y-105283250D01*
X153920752Y-105333915D01*
X153949212Y-105392962D01*
X153970568Y-105461670D01*
X153984171Y-105541583D01*
X153988992Y-105634471D01*
X153985303Y-105710554D01*
X153974969Y-105775144D01*
X153958890Y-105829834D01*
X153937687Y-105876029D01*
X153911665Y-105914911D01*
X153878551Y-105949472D01*
X153841071Y-105976129D01*
X153798633Y-105995438D01*
X153750324Y-106007437D01*
X153694972Y-106011631D01*
X153636180Y-106006459D01*
X153583827Y-105991473D01*
X153536685Y-105966899D01*
X153493863Y-105932203D01*
X153458646Y-105890004D01*
X153433620Y-105842909D01*
X153418287Y-105789939D01*
X153413297Y-105733438D01*
X153517359Y-105733438D01*
X153520688Y-105780148D01*
X153530006Y-105819043D01*
X153544630Y-105851477D01*
X153564351Y-105878519D01*
X153589479Y-105900782D01*
X153618825Y-105916823D01*
X153653226Y-105926821D01*
X153693849Y-105930347D01*
X153737027Y-105925732D01*
X153774032Y-105912467D01*
X153806204Y-105890644D01*
X153834337Y-105859321D01*
X153855165Y-105823160D01*
X153871060Y-105778653D01*
X153881399Y-105724129D01*
X153885140Y-105657625D01*
X153882942Y-105603306D01*
X153824653Y-105576192D01*
X153766823Y-105560396D01*
X153708650Y-105555190D01*
X153656663Y-105558988D01*
X153616330Y-105569295D01*
X153585260Y-105584980D01*
X153561616Y-105605651D01*
X153537410Y-105641513D01*
X153522565Y-105683554D01*
X153517359Y-105733438D01*
X153413297Y-105733438D01*
X153412969Y-105729726D01*
X153418146Y-105668601D01*
X153432692Y-105617830D01*
X153455792Y-105575452D01*
X153487561Y-105540047D01*
X153526528Y-105511779D01*
X153571152Y-105491230D01*
X153622484Y-105478407D01*
X153681881Y-105473906D01*
X153729487Y-105477380D01*
X153778545Y-105488035D01*
X153829554Y-105506423D01*
X153882990Y-105533355D01*
X153872436Y-105465892D01*
X153854512Y-105409203D01*
X153829910Y-105361613D01*
X153798824Y-105321792D01*
X153760424Y-105288979D01*
X153716293Y-105265418D01*
X153665311Y-105250809D01*
X153605921Y-105245685D01*
X153565589Y-105248279D01*
X153530120Y-105255697D01*
X153498796Y-105267570D01*
X153492251Y-105267570D01*
X153492251Y-105171191D01*
X153534086Y-105161704D01*
X153589508Y-105158149D01*
X153666475Y-105163679D01*
G37*
G36*
X156161000Y-106312976D02*
G01*
X155829611Y-106312976D01*
X155829611Y-106480722D01*
X156161000Y-106751783D01*
X156161000Y-106884602D01*
X155800741Y-106584037D01*
X155773494Y-106637215D01*
X155741713Y-106678530D01*
X155705426Y-106709786D01*
X155664125Y-106732115D01*
X155616820Y-106745894D01*
X155562116Y-106750708D01*
X155513305Y-106746064D01*
X155470847Y-106732703D01*
X155433474Y-106710857D01*
X155400330Y-106679926D01*
X155375840Y-106643508D01*
X155356578Y-106594465D01*
X155343615Y-106529505D01*
X155339153Y-106451217D01*
X155426317Y-106451217D01*
X155431445Y-106518063D01*
X155444980Y-106566474D01*
X155465023Y-106600862D01*
X155491039Y-106624461D01*
X155523953Y-106638940D01*
X155565975Y-106644120D01*
X155608812Y-106640656D01*
X155644061Y-106630975D01*
X155673148Y-106615720D01*
X155697133Y-106594930D01*
X155715140Y-106569453D01*
X155729186Y-106535450D01*
X155738582Y-106490735D01*
X155742074Y-106432655D01*
X155742074Y-106312976D01*
X155426317Y-106312976D01*
X155426317Y-106451217D01*
X155339153Y-106451217D01*
X155338780Y-106444672D01*
X155338780Y-106211322D01*
X156161000Y-106211322D01*
X156161000Y-106312976D01*
G37*
G36*
X156124852Y-106957679D02*
G01*
X156014063Y-106957679D01*
X156014063Y-106966423D01*
X156047683Y-107023966D01*
X156070906Y-107081019D01*
X156084566Y-107138125D01*
X156089094Y-107195914D01*
X156085812Y-107239364D01*
X156076505Y-107276534D01*
X156061661Y-107308490D01*
X156041321Y-107336060D01*
X156015755Y-107358671D01*
X155985730Y-107375003D01*
X155950357Y-107385210D01*
X155908404Y-107388817D01*
X155869034Y-107385527D01*
X155837471Y-107376426D01*
X155812152Y-107362207D01*
X155791949Y-107342899D01*
X155772781Y-107309994D01*
X155759632Y-107262140D01*
X155754579Y-107194253D01*
X155754579Y-107146186D01*
X155673295Y-107146186D01*
X155673295Y-107183360D01*
X155668589Y-107241333D01*
X155655721Y-107286717D01*
X155635877Y-107322139D01*
X155615282Y-107344123D01*
X155591372Y-107359612D01*
X155563495Y-107369121D01*
X155530609Y-107372453D01*
X155494519Y-107367362D01*
X155465532Y-107352836D01*
X155441900Y-107328440D01*
X155425380Y-107297579D01*
X155414626Y-107257986D01*
X155410685Y-107207393D01*
X155414951Y-107153451D01*
X155427923Y-107099160D01*
X155450158Y-107043919D01*
X155482591Y-106987184D01*
X155482591Y-106981175D01*
X155375026Y-106981175D01*
X155346061Y-107056160D01*
X155328880Y-107132238D01*
X155323149Y-107210178D01*
X155327002Y-107274749D01*
X155337684Y-107327888D01*
X155354186Y-107371488D01*
X155375954Y-107407135D01*
X155404929Y-107437843D01*
X155437775Y-107459285D01*
X155475273Y-107472317D01*
X155518690Y-107476842D01*
X155561015Y-107471724D01*
X155600028Y-107456484D01*
X155636806Y-107430387D01*
X155667241Y-107396810D01*
X155689121Y-107358321D01*
X155702849Y-107313981D01*
X155711300Y-107313981D01*
X155727162Y-107371943D01*
X155750210Y-107416184D01*
X155779875Y-107449407D01*
X155816652Y-107473302D01*
X155862032Y-107488347D01*
X155918320Y-107493744D01*
X155973179Y-107488412D01*
X156021595Y-107472966D01*
X156064902Y-107447519D01*
X156103993Y-107411238D01*
X156135115Y-107368145D01*
X156157677Y-107319133D01*
X156171716Y-107263106D01*
X156176631Y-107198649D01*
X156170917Y-107117029D01*
X156153768Y-107036948D01*
X156124852Y-106957679D01*
G37*
G36*
X156161000Y-108153834D02*
G01*
X156161000Y-107715565D01*
X156085968Y-107715565D01*
X156085968Y-107887170D01*
X155520106Y-107887170D01*
X155520106Y-107715565D01*
X155454454Y-107715565D01*
X155450163Y-107782770D01*
X155439874Y-107828853D01*
X155425584Y-107859277D01*
X155403631Y-107883381D01*
X155374352Y-107899610D01*
X155335654Y-107907931D01*
X155335654Y-107985551D01*
X156085968Y-107985551D01*
X156085968Y-108153834D01*
X156161000Y-108153834D01*
G37*
G36*
X154965315Y-102455631D02*
G01*
X155039541Y-102450688D01*
X155104290Y-102436590D01*
X155161000Y-102414070D01*
X155210848Y-102383346D01*
X155254694Y-102344110D01*
X155290787Y-102298253D01*
X155319556Y-102245123D01*
X155340969Y-102183624D01*
X155354534Y-102112366D01*
X155359328Y-102029720D01*
X155354535Y-101949027D01*
X155340904Y-101878703D01*
X155319253Y-101817283D01*
X155289978Y-101763524D01*
X155253034Y-101716454D01*
X155208363Y-101675967D01*
X155158132Y-101644438D01*
X155101554Y-101621458D01*
X155037536Y-101607147D01*
X154964729Y-101602149D01*
X154901040Y-101606457D01*
X154834863Y-101619699D01*
X154765581Y-101642575D01*
X154692594Y-101676057D01*
X154692594Y-101795980D01*
X154700263Y-101795980D01*
X154754368Y-101756316D01*
X154808095Y-101726619D01*
X154861828Y-101705969D01*
X154916040Y-101693752D01*
X154971275Y-101689685D01*
X155022856Y-101693554D01*
X155068366Y-101704672D01*
X155108802Y-101722638D01*
X155144947Y-101747513D01*
X155177318Y-101779811D01*
X155209068Y-101826460D01*
X155232740Y-101882417D01*
X155247867Y-101949503D01*
X155253278Y-102029965D01*
X155247790Y-102109757D01*
X155232428Y-102176374D01*
X155208343Y-102232042D01*
X155175950Y-102278555D01*
X155143048Y-102310730D01*
X155106628Y-102335466D01*
X155066201Y-102353287D01*
X155021036Y-102364280D01*
X154970200Y-102368094D01*
X154902086Y-102362627D01*
X154837967Y-102346454D01*
X154797687Y-102328983D01*
X154752095Y-102301467D01*
X154700263Y-102261800D01*
X154692594Y-102261800D01*
X154692594Y-102381235D01*
X154792667Y-102423978D01*
X154855748Y-102443126D01*
X154913254Y-102452621D01*
X154965315Y-102455631D01*
G37*
G36*
X154380710Y-101607334D02*
G01*
X154433056Y-101622361D01*
X154480204Y-101647009D01*
X154523040Y-101681821D01*
X154558247Y-101724112D01*
X154583275Y-101771324D01*
X154598613Y-101824442D01*
X154603934Y-101884836D01*
X154598984Y-101944140D01*
X154584962Y-101994402D01*
X154562530Y-102037276D01*
X154531540Y-102073977D01*
X154493476Y-102103309D01*
X154448857Y-102124745D01*
X154396411Y-102138228D01*
X154334485Y-102143000D01*
X154290262Y-102139459D01*
X154242494Y-102128352D01*
X154190445Y-102108697D01*
X154133375Y-102079204D01*
X154144656Y-102153476D01*
X154163184Y-102213298D01*
X154187924Y-102261146D01*
X154218438Y-102299015D01*
X154254923Y-102328315D01*
X154298196Y-102349754D01*
X154349618Y-102363285D01*
X154410982Y-102368094D01*
X154451314Y-102365501D01*
X154486784Y-102358083D01*
X154518107Y-102346210D01*
X154524652Y-102346210D01*
X154524652Y-102443028D01*
X154481981Y-102452233D01*
X154427395Y-102455631D01*
X154350159Y-102450101D01*
X154283443Y-102434374D01*
X154225546Y-102409266D01*
X154175116Y-102374925D01*
X154131226Y-102330823D01*
X154096023Y-102280279D01*
X154067635Y-102221280D01*
X154046317Y-102152533D01*
X154032730Y-102072473D01*
X154027911Y-101979309D01*
X154028781Y-101961332D01*
X154131763Y-101961332D01*
X154133375Y-102010327D01*
X154196143Y-102039814D01*
X154254252Y-102056415D01*
X154308791Y-102061716D01*
X154360443Y-102057902D01*
X154400599Y-102047537D01*
X154431613Y-102031736D01*
X154455288Y-102010865D01*
X154479426Y-101974725D01*
X154494305Y-101931968D01*
X154499544Y-101880830D01*
X154496205Y-101834660D01*
X154486826Y-101795928D01*
X154472040Y-101763358D01*
X154452015Y-101735945D01*
X154426558Y-101713285D01*
X154397152Y-101697041D01*
X154363017Y-101686969D01*
X154323054Y-101683433D01*
X154278175Y-101688178D01*
X154240450Y-101701702D01*
X154208347Y-101723766D01*
X154180954Y-101755240D01*
X154160917Y-101791603D01*
X154145509Y-101836820D01*
X154135426Y-101892696D01*
X154131763Y-101961332D01*
X154028781Y-101961332D01*
X154031721Y-101900569D01*
X154042329Y-101834628D01*
X154058716Y-101779630D01*
X154080179Y-101733938D01*
X154106362Y-101696182D01*
X154139783Y-101662573D01*
X154177343Y-101636638D01*
X154219612Y-101617861D01*
X154267445Y-101606212D01*
X154321931Y-101602149D01*
X154380710Y-101607334D01*
G37*
G36*
X176053702Y-108970958D02*
G01*
X176057673Y-109044961D01*
X176068682Y-109106140D01*
X176085646Y-109156503D01*
X176107877Y-109197783D01*
X176135133Y-109231370D01*
X176168834Y-109259768D01*
X176208189Y-109282364D01*
X176254064Y-109299181D01*
X176307587Y-109309851D01*
X176370094Y-109313631D01*
X176440134Y-109308875D01*
X176498424Y-109295586D01*
X176546959Y-109274797D01*
X176587347Y-109246905D01*
X176620715Y-109211646D01*
X176647621Y-109168116D01*
X176668005Y-109114845D01*
X176681193Y-109049897D01*
X176685949Y-108970958D01*
X176685949Y-108475780D01*
X176584344Y-108475780D01*
X176584344Y-108978872D01*
X176580245Y-109046316D01*
X176569195Y-109098438D01*
X176552635Y-109138257D01*
X176531343Y-109168258D01*
X176503111Y-109192417D01*
X176467923Y-109210374D01*
X176424254Y-109221919D01*
X176370094Y-109226094D01*
X176316774Y-109222024D01*
X176273391Y-109210727D01*
X176238084Y-109193096D01*
X176209431Y-109169332D01*
X176187663Y-109139748D01*
X176170763Y-109100363D01*
X176159491Y-109048674D01*
X176155307Y-108981607D01*
X176155307Y-108475780D01*
X176053702Y-108475780D01*
X176053702Y-108970958D01*
G37*
G36*
X175572623Y-108465679D02*
G01*
X175639199Y-108481420D01*
X175697064Y-108506570D01*
X175747554Y-108541000D01*
X175791581Y-108585250D01*
X175826900Y-108635915D01*
X175855360Y-108694962D01*
X175876716Y-108763670D01*
X175890319Y-108843583D01*
X175895140Y-108936471D01*
X175891451Y-109012554D01*
X175881116Y-109077144D01*
X175865038Y-109131834D01*
X175843835Y-109178029D01*
X175817812Y-109216911D01*
X175784698Y-109251472D01*
X175747219Y-109278129D01*
X175704781Y-109297438D01*
X175656472Y-109309437D01*
X175601120Y-109313631D01*
X175542328Y-109308459D01*
X175489975Y-109293473D01*
X175442833Y-109268899D01*
X175400011Y-109234203D01*
X175364794Y-109192004D01*
X175339768Y-109144909D01*
X175324435Y-109091939D01*
X175319445Y-109035438D01*
X175423507Y-109035438D01*
X175426836Y-109082148D01*
X175436154Y-109121043D01*
X175450778Y-109153477D01*
X175470499Y-109180519D01*
X175495626Y-109202782D01*
X175524973Y-109218823D01*
X175559374Y-109228821D01*
X175599997Y-109232347D01*
X175643175Y-109227732D01*
X175680180Y-109214467D01*
X175712352Y-109192644D01*
X175740485Y-109161321D01*
X175761313Y-109125160D01*
X175777208Y-109080653D01*
X175787547Y-109026129D01*
X175791288Y-108959625D01*
X175789089Y-108905306D01*
X175730801Y-108878192D01*
X175672970Y-108862396D01*
X175614798Y-108857190D01*
X175562811Y-108860988D01*
X175522478Y-108871295D01*
X175491408Y-108886980D01*
X175467764Y-108907651D01*
X175443558Y-108943513D01*
X175428713Y-108985554D01*
X175423507Y-109035438D01*
X175319445Y-109035438D01*
X175319117Y-109031726D01*
X175324294Y-108970601D01*
X175338840Y-108919830D01*
X175361940Y-108877452D01*
X175393709Y-108842047D01*
X175432676Y-108813779D01*
X175477300Y-108793230D01*
X175528632Y-108780407D01*
X175588029Y-108775906D01*
X175635635Y-108779380D01*
X175684693Y-108790035D01*
X175735702Y-108808423D01*
X175789138Y-108835355D01*
X175778584Y-108767892D01*
X175760659Y-108711203D01*
X175736058Y-108663613D01*
X175704972Y-108623792D01*
X175666572Y-108590979D01*
X175622441Y-108567418D01*
X175571459Y-108552809D01*
X175512069Y-108547685D01*
X175471737Y-108550279D01*
X175436267Y-108557697D01*
X175404944Y-108569570D01*
X175398399Y-108569570D01*
X175398399Y-108473191D01*
X175440234Y-108463704D01*
X175495656Y-108460149D01*
X175572623Y-108465679D01*
G37*
G36*
X163663677Y-105869000D02*
G01*
X163562023Y-105869000D01*
X163562023Y-105537611D01*
X163394277Y-105537611D01*
X163123216Y-105869000D01*
X162990397Y-105869000D01*
X163290962Y-105508741D01*
X163237784Y-105481494D01*
X163196469Y-105449713D01*
X163165213Y-105413426D01*
X163142884Y-105372125D01*
X163129105Y-105324820D01*
X163124631Y-105273975D01*
X163230879Y-105273975D01*
X163234343Y-105316812D01*
X163244024Y-105352061D01*
X163259279Y-105381148D01*
X163280069Y-105405133D01*
X163305546Y-105423140D01*
X163339549Y-105437186D01*
X163384264Y-105446582D01*
X163442344Y-105450074D01*
X163562023Y-105450074D01*
X163562023Y-105134317D01*
X163423782Y-105134317D01*
X163356936Y-105139445D01*
X163308525Y-105152980D01*
X163274137Y-105173023D01*
X163250538Y-105199039D01*
X163236059Y-105231953D01*
X163230879Y-105273975D01*
X163124631Y-105273975D01*
X163124291Y-105270116D01*
X163128935Y-105221305D01*
X163142296Y-105178847D01*
X163164142Y-105141474D01*
X163195073Y-105108330D01*
X163231491Y-105083840D01*
X163280534Y-105064578D01*
X163345494Y-105051615D01*
X163430327Y-105046780D01*
X163663677Y-105046780D01*
X163663677Y-105869000D01*
G37*
G36*
X162917320Y-105832852D02*
G01*
X162917320Y-105722063D01*
X162908576Y-105722063D01*
X162851033Y-105755683D01*
X162793980Y-105778906D01*
X162736874Y-105792566D01*
X162679085Y-105797094D01*
X162635635Y-105793812D01*
X162598465Y-105784505D01*
X162566509Y-105769661D01*
X162538939Y-105749321D01*
X162516328Y-105723755D01*
X162499996Y-105693730D01*
X162489789Y-105658357D01*
X162486182Y-105616404D01*
X162489472Y-105577034D01*
X162498573Y-105545471D01*
X162512792Y-105520152D01*
X162532100Y-105499949D01*
X162565005Y-105480781D01*
X162612859Y-105467632D01*
X162680746Y-105462579D01*
X162728813Y-105462579D01*
X162728813Y-105381295D01*
X162691639Y-105381295D01*
X162633666Y-105376589D01*
X162588282Y-105363721D01*
X162552860Y-105343877D01*
X162530876Y-105323282D01*
X162515387Y-105299372D01*
X162505878Y-105271495D01*
X162502546Y-105238609D01*
X162507637Y-105202519D01*
X162522163Y-105173532D01*
X162546559Y-105149900D01*
X162577420Y-105133380D01*
X162617013Y-105122626D01*
X162667606Y-105118685D01*
X162721548Y-105122951D01*
X162775839Y-105135923D01*
X162831080Y-105158158D01*
X162887815Y-105190591D01*
X162893824Y-105190591D01*
X162893824Y-105083026D01*
X162818839Y-105054061D01*
X162742761Y-105036880D01*
X162664821Y-105031149D01*
X162600250Y-105035002D01*
X162547111Y-105045684D01*
X162503511Y-105062186D01*
X162467864Y-105083954D01*
X162437156Y-105112929D01*
X162415714Y-105145775D01*
X162402682Y-105183273D01*
X162398157Y-105226690D01*
X162403275Y-105269015D01*
X162418515Y-105308028D01*
X162444612Y-105344806D01*
X162478189Y-105375241D01*
X162516678Y-105397121D01*
X162561018Y-105410849D01*
X162561018Y-105419300D01*
X162503056Y-105435162D01*
X162458815Y-105458210D01*
X162425592Y-105487875D01*
X162401697Y-105524652D01*
X162386652Y-105570032D01*
X162381255Y-105626320D01*
X162386587Y-105681179D01*
X162402033Y-105729595D01*
X162427480Y-105772902D01*
X162463761Y-105811993D01*
X162506854Y-105843115D01*
X162555866Y-105865677D01*
X162611893Y-105879716D01*
X162676350Y-105884631D01*
X162757970Y-105878917D01*
X162838051Y-105861768D01*
X162917320Y-105832852D01*
G37*
G36*
X162014260Y-105035757D02*
G01*
X162063030Y-105048789D01*
X162104549Y-105069563D01*
X162140000Y-105098106D01*
X162170083Y-105135147D01*
X162197285Y-105187306D01*
X162218830Y-105255888D01*
X162233302Y-105344774D01*
X162238666Y-105458427D01*
X162233315Y-105572161D01*
X162218889Y-105660960D01*
X162197434Y-105729339D01*
X162170376Y-105781219D01*
X162140422Y-105817988D01*
X162105026Y-105846362D01*
X162063469Y-105867042D01*
X162014546Y-105880033D01*
X161956664Y-105884631D01*
X161899062Y-105880032D01*
X161850330Y-105867031D01*
X161808886Y-105846317D01*
X161773541Y-105817872D01*
X161743586Y-105780974D01*
X161716511Y-105728956D01*
X161695040Y-105660398D01*
X161680602Y-105571371D01*
X161675247Y-105457353D01*
X161779636Y-105457353D01*
X161783210Y-105562108D01*
X161792528Y-105638422D01*
X161805751Y-105692280D01*
X161821451Y-105728902D01*
X161845585Y-105761474D01*
X161875325Y-105784272D01*
X161911712Y-105798346D01*
X161956664Y-105803347D01*
X162001642Y-105798349D01*
X162038102Y-105784278D01*
X162067950Y-105761478D01*
X162092218Y-105728902D01*
X162108032Y-105692263D01*
X162121329Y-105638530D01*
X162130690Y-105562553D01*
X162134277Y-105458427D01*
X162130677Y-105353353D01*
X162121296Y-105276941D01*
X162107997Y-105223129D01*
X162092218Y-105186634D01*
X162067965Y-105154180D01*
X162038125Y-105131452D01*
X162001660Y-105117419D01*
X161956664Y-105112433D01*
X161911502Y-105117521D01*
X161875016Y-105131838D01*
X161845246Y-105155054D01*
X161821158Y-105188295D01*
X161805469Y-105225562D01*
X161792343Y-105279484D01*
X161783147Y-105354904D01*
X161779636Y-105457353D01*
X161675247Y-105457353D01*
X161680613Y-105344653D01*
X161695114Y-105256226D01*
X161716747Y-105187728D01*
X161744124Y-105135392D01*
X161774325Y-105098189D01*
X161809773Y-105069566D01*
X161851147Y-105048771D01*
X161899598Y-105035748D01*
X161956664Y-105031149D01*
X162014260Y-105035757D01*
G37*
G36*
X156043677Y-111584000D02*
G01*
X155942023Y-111584000D01*
X155942023Y-111252611D01*
X155774277Y-111252611D01*
X155503216Y-111584000D01*
X155370397Y-111584000D01*
X155670962Y-111223741D01*
X155617784Y-111196494D01*
X155576469Y-111164713D01*
X155545213Y-111128426D01*
X155522884Y-111087125D01*
X155509105Y-111039820D01*
X155504631Y-110988975D01*
X155610879Y-110988975D01*
X155614343Y-111031812D01*
X155624024Y-111067061D01*
X155639279Y-111096148D01*
X155660069Y-111120133D01*
X155685546Y-111138140D01*
X155719549Y-111152186D01*
X155764264Y-111161582D01*
X155822344Y-111165074D01*
X155942023Y-111165074D01*
X155942023Y-110849317D01*
X155803782Y-110849317D01*
X155736936Y-110854445D01*
X155688525Y-110867980D01*
X155654137Y-110888023D01*
X155630538Y-110914039D01*
X155616059Y-110946953D01*
X155610879Y-110988975D01*
X155504631Y-110988975D01*
X155504291Y-110985116D01*
X155508935Y-110936305D01*
X155522296Y-110893847D01*
X155544142Y-110856474D01*
X155575073Y-110823330D01*
X155611491Y-110798840D01*
X155660534Y-110779578D01*
X155725494Y-110766615D01*
X155810327Y-110761780D01*
X156043677Y-110761780D01*
X156043677Y-111584000D01*
G37*
G36*
X155297320Y-111547852D02*
G01*
X155297320Y-111437063D01*
X155288576Y-111437063D01*
X155231033Y-111470683D01*
X155173980Y-111493906D01*
X155116874Y-111507566D01*
X155059085Y-111512094D01*
X155015635Y-111508812D01*
X154978465Y-111499505D01*
X154946509Y-111484661D01*
X154918939Y-111464321D01*
X154896328Y-111438755D01*
X154879996Y-111408730D01*
X154869789Y-111373357D01*
X154866182Y-111331404D01*
X154869472Y-111292034D01*
X154878573Y-111260471D01*
X154892792Y-111235152D01*
X154912100Y-111214949D01*
X154945005Y-111195781D01*
X154992859Y-111182632D01*
X155060746Y-111177579D01*
X155108813Y-111177579D01*
X155108813Y-111096295D01*
X155071639Y-111096295D01*
X155013666Y-111091589D01*
X154968282Y-111078721D01*
X154932860Y-111058877D01*
X154910876Y-111038282D01*
X154895387Y-111014372D01*
X154885878Y-110986495D01*
X154882546Y-110953609D01*
X154887637Y-110917519D01*
X154902163Y-110888532D01*
X154926559Y-110864900D01*
X154957420Y-110848380D01*
X154997013Y-110837626D01*
X155047606Y-110833685D01*
X155101548Y-110837951D01*
X155155839Y-110850923D01*
X155211080Y-110873158D01*
X155267815Y-110905591D01*
X155273824Y-110905591D01*
X155273824Y-110798026D01*
X155198839Y-110769061D01*
X155122761Y-110751880D01*
X155044821Y-110746149D01*
X154980250Y-110750002D01*
X154927111Y-110760684D01*
X154883511Y-110777186D01*
X154847864Y-110798954D01*
X154817156Y-110827929D01*
X154795714Y-110860775D01*
X154782682Y-110898273D01*
X154778157Y-110941690D01*
X154783275Y-110984015D01*
X154798515Y-111023028D01*
X154824612Y-111059806D01*
X154858189Y-111090241D01*
X154896678Y-111112121D01*
X154941018Y-111125849D01*
X154941018Y-111134300D01*
X154883056Y-111150162D01*
X154838815Y-111173210D01*
X154805592Y-111202875D01*
X154781697Y-111239652D01*
X154766652Y-111285032D01*
X154761255Y-111341320D01*
X154766587Y-111396179D01*
X154782033Y-111444595D01*
X154807480Y-111487902D01*
X154843761Y-111526993D01*
X154886854Y-111558115D01*
X154935866Y-111580677D01*
X154991893Y-111594716D01*
X155056350Y-111599631D01*
X155137970Y-111593917D01*
X155218051Y-111576768D01*
X155297320Y-111547852D01*
G37*
G36*
X154054172Y-111584000D02*
G01*
X154605038Y-111584000D01*
X154605038Y-111477852D01*
X154408569Y-111302974D01*
X154337213Y-111234151D01*
X154284265Y-111176150D01*
X154246538Y-111127510D01*
X154216193Y-111075119D01*
X154199031Y-111024980D01*
X154193489Y-110976030D01*
X154198758Y-110933383D01*
X154213634Y-110899148D01*
X154238038Y-110871348D01*
X154269746Y-110851136D01*
X154309386Y-110838312D01*
X154359085Y-110833685D01*
X154413629Y-110837980D01*
X154468131Y-110851000D01*
X154523192Y-110873243D01*
X154579343Y-110905591D01*
X154584814Y-110905591D01*
X154584814Y-110798759D01*
X154509800Y-110769356D01*
X154433905Y-110751948D01*
X154356350Y-110746149D01*
X154293833Y-110750407D01*
X154241358Y-110762351D01*
X154197255Y-110781115D01*
X154160174Y-110806379D01*
X154129079Y-110838901D01*
X154106971Y-110876377D01*
X154093338Y-110919794D01*
X154088562Y-110970608D01*
X154093175Y-111025173D01*
X154106880Y-111076903D01*
X154129836Y-111126057D01*
X154163984Y-111175528D01*
X154205299Y-111223529D01*
X154256894Y-111277426D01*
X154328936Y-111343971D01*
X154505533Y-111496463D01*
X154054172Y-111496463D01*
X154054172Y-111584000D01*
G37*
G36*
X171655000Y-113137777D02*
G01*
X171323611Y-113137777D01*
X171323611Y-113305523D01*
X171655000Y-113576584D01*
X171655000Y-113709403D01*
X171294741Y-113408838D01*
X171267494Y-113462016D01*
X171235713Y-113503331D01*
X171199426Y-113534587D01*
X171158125Y-113556916D01*
X171110820Y-113570695D01*
X171056116Y-113575509D01*
X171007305Y-113570865D01*
X170964847Y-113557504D01*
X170927474Y-113535658D01*
X170894330Y-113504727D01*
X170869840Y-113468309D01*
X170850578Y-113419266D01*
X170837615Y-113354306D01*
X170833153Y-113276018D01*
X170920317Y-113276018D01*
X170925445Y-113342864D01*
X170938980Y-113391275D01*
X170959023Y-113425663D01*
X170985039Y-113449262D01*
X171017953Y-113463741D01*
X171059975Y-113468921D01*
X171102812Y-113465457D01*
X171138061Y-113455776D01*
X171167148Y-113440521D01*
X171191133Y-113419731D01*
X171209140Y-113394254D01*
X171223186Y-113360251D01*
X171232582Y-113315536D01*
X171236074Y-113257456D01*
X171236074Y-113137777D01*
X170920317Y-113137777D01*
X170920317Y-113276018D01*
X170833153Y-113276018D01*
X170832780Y-113269473D01*
X170832780Y-113036123D01*
X171655000Y-113036123D01*
X171655000Y-113137777D01*
G37*
G36*
X171417400Y-114129501D02*
G01*
X171655000Y-114129501D01*
X171655000Y-114227833D01*
X171417400Y-114227833D01*
X171417400Y-114348635D01*
X171336116Y-114348635D01*
X171336116Y-114227833D01*
X170832780Y-114227833D01*
X170832780Y-114133848D01*
X170837876Y-114129501D01*
X170952508Y-114129501D01*
X171336116Y-114129501D01*
X171336116Y-113802117D01*
X170952508Y-114129501D01*
X170837876Y-114129501D01*
X171302362Y-113733290D01*
X171417400Y-113733290D01*
X171417400Y-114129501D01*
G37*
G36*
X156131117Y-100931631D02*
G01*
X156205343Y-100926688D01*
X156270092Y-100912590D01*
X156326802Y-100890070D01*
X156376650Y-100859346D01*
X156420496Y-100820110D01*
X156456589Y-100774253D01*
X156485358Y-100721123D01*
X156506771Y-100659624D01*
X156520336Y-100588366D01*
X156525130Y-100505720D01*
X156520337Y-100425027D01*
X156506706Y-100354703D01*
X156485055Y-100293283D01*
X156455780Y-100239524D01*
X156418836Y-100192454D01*
X156374165Y-100151967D01*
X156323934Y-100120438D01*
X156267356Y-100097458D01*
X156203338Y-100083147D01*
X156130531Y-100078149D01*
X156066842Y-100082457D01*
X156000665Y-100095699D01*
X155931383Y-100118575D01*
X155858396Y-100152057D01*
X155858396Y-100271980D01*
X155866065Y-100271980D01*
X155920170Y-100232316D01*
X155973897Y-100202619D01*
X156027630Y-100181969D01*
X156081842Y-100169752D01*
X156137077Y-100165685D01*
X156188658Y-100169554D01*
X156234168Y-100180672D01*
X156274604Y-100198638D01*
X156310749Y-100223513D01*
X156343120Y-100255811D01*
X156374870Y-100302460D01*
X156398542Y-100358417D01*
X156413669Y-100425503D01*
X156419080Y-100505965D01*
X156413592Y-100585757D01*
X156398230Y-100652374D01*
X156374145Y-100708042D01*
X156341752Y-100754555D01*
X156308850Y-100786730D01*
X156272430Y-100811466D01*
X156232003Y-100829287D01*
X156186838Y-100840280D01*
X156136002Y-100844094D01*
X156067888Y-100838627D01*
X156003769Y-100822454D01*
X155963489Y-100804983D01*
X155917897Y-100777467D01*
X155866065Y-100737800D01*
X155858396Y-100737800D01*
X155858396Y-100857235D01*
X155958469Y-100899978D01*
X156021550Y-100919126D01*
X156079056Y-100928621D01*
X156131117Y-100931631D01*
G37*
G36*
X155239631Y-100916000D02*
G01*
X155677900Y-100916000D01*
X155677900Y-100840968D01*
X155506295Y-100840968D01*
X155506295Y-100275106D01*
X155677900Y-100275106D01*
X155677900Y-100209454D01*
X155610695Y-100205163D01*
X155564613Y-100194874D01*
X155534188Y-100180584D01*
X155510084Y-100158631D01*
X155493856Y-100129352D01*
X155485535Y-100090654D01*
X155407914Y-100090654D01*
X155407914Y-100840968D01*
X155239631Y-100840968D01*
X155239631Y-100916000D01*
G37*
G36*
X155044579Y-100879852D02*
G01*
X155044579Y-100769063D01*
X155035835Y-100769063D01*
X154978292Y-100802683D01*
X154921239Y-100825906D01*
X154864133Y-100839566D01*
X154806344Y-100844094D01*
X154762894Y-100840812D01*
X154725724Y-100831505D01*
X154693768Y-100816661D01*
X154666198Y-100796321D01*
X154643587Y-100770755D01*
X154627255Y-100740730D01*
X154617048Y-100705357D01*
X154613441Y-100663404D01*
X154616731Y-100624034D01*
X154625832Y-100592471D01*
X154640051Y-100567152D01*
X154659359Y-100546949D01*
X154692264Y-100527781D01*
X154740118Y-100514632D01*
X154808005Y-100509579D01*
X154856072Y-100509579D01*
X154856072Y-100428295D01*
X154818898Y-100428295D01*
X154760925Y-100423589D01*
X154715541Y-100410721D01*
X154680120Y-100390877D01*
X154658135Y-100370282D01*
X154642646Y-100346372D01*
X154633137Y-100318495D01*
X154629805Y-100285609D01*
X154634896Y-100249519D01*
X154649422Y-100220532D01*
X154673818Y-100196900D01*
X154704679Y-100180380D01*
X154744272Y-100169626D01*
X154794865Y-100165685D01*
X154848807Y-100169951D01*
X154903098Y-100182923D01*
X154958339Y-100205158D01*
X155015074Y-100237591D01*
X155021083Y-100237591D01*
X155021083Y-100130026D01*
X154946098Y-100101061D01*
X154870020Y-100083880D01*
X154792080Y-100078149D01*
X154727509Y-100082002D01*
X154674370Y-100092684D01*
X154630770Y-100109186D01*
X154595123Y-100130954D01*
X154564415Y-100159929D01*
X154542973Y-100192775D01*
X154529941Y-100230273D01*
X154525416Y-100273690D01*
X154530534Y-100316015D01*
X154545774Y-100355028D01*
X154571871Y-100391806D01*
X154605448Y-100422241D01*
X154643937Y-100444121D01*
X154688277Y-100457849D01*
X154688277Y-100466300D01*
X154630315Y-100482162D01*
X154586074Y-100505210D01*
X154552851Y-100534875D01*
X154528956Y-100571652D01*
X154513911Y-100617032D01*
X154508514Y-100673320D01*
X154513846Y-100728179D01*
X154529292Y-100776595D01*
X154554739Y-100819902D01*
X154591020Y-100858993D01*
X154634113Y-100890115D01*
X154683125Y-100912677D01*
X154739152Y-100926716D01*
X154803609Y-100931631D01*
X154885229Y-100925917D01*
X154965310Y-100908768D01*
X155044579Y-100879852D01*
G37*
G36*
X156075117Y-103979631D02*
G01*
X156149343Y-103974688D01*
X156214092Y-103960590D01*
X156270802Y-103938070D01*
X156320650Y-103907346D01*
X156364496Y-103868110D01*
X156400589Y-103822253D01*
X156429358Y-103769123D01*
X156450771Y-103707624D01*
X156464336Y-103636366D01*
X156469130Y-103553720D01*
X156464337Y-103473027D01*
X156450706Y-103402703D01*
X156429055Y-103341283D01*
X156399780Y-103287524D01*
X156362836Y-103240454D01*
X156318165Y-103199967D01*
X156267934Y-103168438D01*
X156211356Y-103145458D01*
X156147338Y-103131147D01*
X156074531Y-103126149D01*
X156010842Y-103130457D01*
X155944665Y-103143699D01*
X155875383Y-103166575D01*
X155802396Y-103200057D01*
X155802396Y-103319980D01*
X155810065Y-103319980D01*
X155864170Y-103280316D01*
X155917897Y-103250619D01*
X155971630Y-103229969D01*
X156025842Y-103217752D01*
X156081077Y-103213685D01*
X156132658Y-103217554D01*
X156178168Y-103228672D01*
X156218604Y-103246638D01*
X156254749Y-103271513D01*
X156287120Y-103303811D01*
X156318870Y-103350460D01*
X156342542Y-103406417D01*
X156357669Y-103473503D01*
X156363080Y-103553965D01*
X156357592Y-103633757D01*
X156342230Y-103700374D01*
X156318145Y-103756042D01*
X156285752Y-103802555D01*
X156252850Y-103834730D01*
X156216430Y-103859466D01*
X156176003Y-103877287D01*
X156130838Y-103888280D01*
X156080002Y-103892094D01*
X156011888Y-103886627D01*
X155947769Y-103870454D01*
X155907489Y-103852983D01*
X155861897Y-103825467D01*
X155810065Y-103785800D01*
X155802396Y-103785800D01*
X155802396Y-103905235D01*
X155902469Y-103947978D01*
X155965550Y-103967126D01*
X156023056Y-103976621D01*
X156075117Y-103979631D01*
G37*
G36*
X155183631Y-103964000D02*
G01*
X155621900Y-103964000D01*
X155621900Y-103888968D01*
X155450295Y-103888968D01*
X155450295Y-103323106D01*
X155621900Y-103323106D01*
X155621900Y-103257454D01*
X155554695Y-103253163D01*
X155508613Y-103242874D01*
X155478188Y-103228584D01*
X155454084Y-103206631D01*
X155437856Y-103177352D01*
X155429535Y-103138654D01*
X155351914Y-103138654D01*
X155351914Y-103888968D01*
X155183631Y-103888968D01*
X155183631Y-103964000D01*
G37*
G36*
X154488027Y-103964000D02*
G01*
X154926297Y-103964000D01*
X154926297Y-103888968D01*
X154754692Y-103888968D01*
X154754692Y-103323106D01*
X154926297Y-103323106D01*
X154926297Y-103257454D01*
X154859091Y-103253163D01*
X154813009Y-103242874D01*
X154782584Y-103228584D01*
X154758480Y-103206631D01*
X154742252Y-103177352D01*
X154733931Y-103138654D01*
X154656311Y-103138654D01*
X154656311Y-103888968D01*
X154488027Y-103888968D01*
X154488027Y-103964000D01*
G37*
G36*
X164162000Y-115087703D02*
G01*
X163830611Y-115087703D01*
X163830611Y-115255449D01*
X164162000Y-115526510D01*
X164162000Y-115659329D01*
X163801741Y-115358764D01*
X163774494Y-115411942D01*
X163742713Y-115453257D01*
X163706426Y-115484513D01*
X163665125Y-115506842D01*
X163617820Y-115520621D01*
X163563116Y-115525435D01*
X163514305Y-115520791D01*
X163471847Y-115507430D01*
X163434474Y-115485584D01*
X163401330Y-115454653D01*
X163376840Y-115418235D01*
X163357578Y-115369192D01*
X163344615Y-115304232D01*
X163340153Y-115225944D01*
X163427317Y-115225944D01*
X163432445Y-115292790D01*
X163445980Y-115341201D01*
X163466023Y-115375589D01*
X163492039Y-115399188D01*
X163524953Y-115413667D01*
X163566975Y-115418847D01*
X163609812Y-115415383D01*
X163645061Y-115405702D01*
X163674148Y-115390447D01*
X163698133Y-115369657D01*
X163716140Y-115344180D01*
X163730186Y-115310177D01*
X163739582Y-115265462D01*
X163743074Y-115207382D01*
X163743074Y-115087703D01*
X163427317Y-115087703D01*
X163427317Y-115225944D01*
X163340153Y-115225944D01*
X163339780Y-115219399D01*
X163339780Y-114986049D01*
X164162000Y-114986049D01*
X164162000Y-115087703D01*
G37*
G36*
X163453011Y-116282148D02*
G01*
X164162000Y-115912706D01*
X164162000Y-115802895D01*
X163427317Y-116195833D01*
X163427317Y-115725274D01*
X163339780Y-115725274D01*
X163339780Y-116282148D01*
X163453011Y-116282148D01*
G37*
G36*
X158066000Y-106820976D02*
G01*
X157734611Y-106820976D01*
X157734611Y-106988722D01*
X158066000Y-107259783D01*
X158066000Y-107392602D01*
X157705741Y-107092037D01*
X157678494Y-107145215D01*
X157646713Y-107186530D01*
X157610426Y-107217786D01*
X157569125Y-107240115D01*
X157521820Y-107253894D01*
X157467116Y-107258708D01*
X157418305Y-107254064D01*
X157375847Y-107240703D01*
X157338474Y-107218857D01*
X157305330Y-107187926D01*
X157280840Y-107151508D01*
X157261578Y-107102465D01*
X157248615Y-107037505D01*
X157244153Y-106959217D01*
X157331317Y-106959217D01*
X157336445Y-107026063D01*
X157349980Y-107074474D01*
X157370023Y-107108862D01*
X157396039Y-107132461D01*
X157428953Y-107146940D01*
X157470975Y-107152120D01*
X157513812Y-107148656D01*
X157549061Y-107138975D01*
X157578148Y-107123720D01*
X157602133Y-107102930D01*
X157620140Y-107077453D01*
X157634186Y-107043450D01*
X157643582Y-106998735D01*
X157647074Y-106940655D01*
X157647074Y-106820976D01*
X157331317Y-106820976D01*
X157331317Y-106959217D01*
X157244153Y-106959217D01*
X157243780Y-106952672D01*
X157243780Y-106719322D01*
X158066000Y-106719322D01*
X158066000Y-106820976D01*
G37*
G36*
X158066000Y-107966231D02*
G01*
X158066000Y-107527961D01*
X157990968Y-107527961D01*
X157990968Y-107699566D01*
X157425106Y-107699566D01*
X157425106Y-107527961D01*
X157359454Y-107527961D01*
X157355163Y-107595167D01*
X157344874Y-107641249D01*
X157330584Y-107671674D01*
X157308631Y-107695778D01*
X157279352Y-107712006D01*
X157240654Y-107720327D01*
X157240654Y-107797947D01*
X157990968Y-107797947D01*
X157990968Y-107966231D01*
X158066000Y-107966231D01*
G37*
G36*
X158029852Y-108161283D02*
G01*
X157919063Y-108161283D01*
X157919063Y-108170027D01*
X157952683Y-108227570D01*
X157975906Y-108284622D01*
X157989566Y-108341728D01*
X157994094Y-108399517D01*
X157990812Y-108442968D01*
X157981505Y-108480138D01*
X157966661Y-108512094D01*
X157946321Y-108539664D01*
X157920755Y-108562274D01*
X157890730Y-108578607D01*
X157855357Y-108588813D01*
X157813404Y-108592420D01*
X157774034Y-108589130D01*
X157742471Y-108580029D01*
X157717152Y-108565811D01*
X157696949Y-108546503D01*
X157677781Y-108513597D01*
X157664632Y-108465743D01*
X157659579Y-108397857D01*
X157659579Y-108349790D01*
X157578295Y-108349790D01*
X157578295Y-108386963D01*
X157573589Y-108444937D01*
X157560721Y-108490320D01*
X157540877Y-108525742D01*
X157520282Y-108547726D01*
X157496372Y-108563215D01*
X157468495Y-108572724D01*
X157435609Y-108576056D01*
X157399519Y-108570965D01*
X157370532Y-108556440D01*
X157346900Y-108532044D01*
X157330380Y-108501183D01*
X157319626Y-108461589D01*
X157315685Y-108410997D01*
X157319951Y-108357054D01*
X157332923Y-108302764D01*
X157355158Y-108247522D01*
X157387591Y-108190787D01*
X157387591Y-108184779D01*
X157280026Y-108184779D01*
X157251061Y-108259763D01*
X157233880Y-108335842D01*
X157228149Y-108413781D01*
X157232002Y-108478353D01*
X157242684Y-108531492D01*
X157259186Y-108575091D01*
X157280954Y-108610739D01*
X157309929Y-108641447D01*
X157342775Y-108662889D01*
X157380273Y-108675920D01*
X157423690Y-108680446D01*
X157466015Y-108675327D01*
X157505028Y-108660088D01*
X157541806Y-108633991D01*
X157572241Y-108600414D01*
X157594121Y-108561925D01*
X157607849Y-108517584D01*
X157616300Y-108517584D01*
X157632162Y-108575546D01*
X157655210Y-108619788D01*
X157684875Y-108653011D01*
X157721652Y-108676906D01*
X157767032Y-108691950D01*
X157823320Y-108697347D01*
X157878179Y-108692015D01*
X157926595Y-108676570D01*
X157969902Y-108651123D01*
X158008993Y-108614842D01*
X158040115Y-108571749D01*
X158062677Y-108522737D01*
X158076716Y-108466710D01*
X158081631Y-108402253D01*
X158075917Y-108320633D01*
X158058768Y-108240551D01*
X158029852Y-108161283D01*
G37*
G36*
X156796000Y-90183976D02*
G01*
X156464611Y-90183976D01*
X156464611Y-90351722D01*
X156796000Y-90622783D01*
X156796000Y-90755602D01*
X156435741Y-90455037D01*
X156408494Y-90508215D01*
X156376713Y-90549530D01*
X156340426Y-90580786D01*
X156299125Y-90603115D01*
X156251820Y-90616894D01*
X156197116Y-90621708D01*
X156148305Y-90617064D01*
X156105847Y-90603703D01*
X156068474Y-90581857D01*
X156035330Y-90550926D01*
X156010840Y-90514508D01*
X155991578Y-90465465D01*
X155978615Y-90400505D01*
X155974153Y-90322217D01*
X156061317Y-90322217D01*
X156066445Y-90389063D01*
X156079980Y-90437474D01*
X156100023Y-90471862D01*
X156126039Y-90495461D01*
X156158953Y-90509940D01*
X156200975Y-90515120D01*
X156243812Y-90511656D01*
X156279061Y-90501975D01*
X156308148Y-90486720D01*
X156332133Y-90465930D01*
X156350140Y-90440453D01*
X156364186Y-90406450D01*
X156373582Y-90361735D01*
X156377074Y-90303655D01*
X156377074Y-90183976D01*
X156061317Y-90183976D01*
X156061317Y-90322217D01*
X155974153Y-90322217D01*
X155973780Y-90315672D01*
X155973780Y-90082322D01*
X156796000Y-90082322D01*
X156796000Y-90183976D01*
G37*
G36*
X156796000Y-91376223D02*
G01*
X156796000Y-90825358D01*
X156689852Y-90825358D01*
X156514974Y-91021827D01*
X156446151Y-91093182D01*
X156388150Y-91146130D01*
X156339510Y-91183857D01*
X156287119Y-91214202D01*
X156236980Y-91231365D01*
X156188030Y-91236907D01*
X156145383Y-91231638D01*
X156111148Y-91216762D01*
X156083348Y-91192357D01*
X156063136Y-91160649D01*
X156050312Y-91121010D01*
X156045685Y-91071310D01*
X156049980Y-91016767D01*
X156063000Y-90962264D01*
X156085243Y-90907203D01*
X156117591Y-90851052D01*
X156117591Y-90845581D01*
X156010759Y-90845581D01*
X155981356Y-90920595D01*
X155963948Y-90996490D01*
X155958149Y-91074046D01*
X155962407Y-91136562D01*
X155974351Y-91189037D01*
X155993115Y-91233141D01*
X156018379Y-91270222D01*
X156050901Y-91301317D01*
X156088377Y-91323425D01*
X156131794Y-91337058D01*
X156182608Y-91341834D01*
X156237173Y-91337220D01*
X156288903Y-91323515D01*
X156338057Y-91300559D01*
X156387528Y-91266411D01*
X156435529Y-91225096D01*
X156489426Y-91173501D01*
X156555971Y-91101460D01*
X156708463Y-90924862D01*
X156708463Y-91376223D01*
X156796000Y-91376223D01*
G37*
G36*
X156796000Y-92024834D02*
G01*
X156796000Y-91586565D01*
X156720968Y-91586565D01*
X156720968Y-91758170D01*
X156155106Y-91758170D01*
X156155106Y-91586565D01*
X156089454Y-91586565D01*
X156085163Y-91653770D01*
X156074874Y-91699853D01*
X156060584Y-91730277D01*
X156038631Y-91754381D01*
X156009352Y-91770610D01*
X155970654Y-91778931D01*
X155970654Y-91856551D01*
X156720968Y-91856551D01*
X156720968Y-92024834D01*
X156796000Y-92024834D01*
G37*
G36*
X167411315Y-114901631D02*
G01*
X167485541Y-114896688D01*
X167550290Y-114882590D01*
X167607000Y-114860070D01*
X167656848Y-114829346D01*
X167700694Y-114790110D01*
X167736787Y-114744253D01*
X167765556Y-114691123D01*
X167786969Y-114629624D01*
X167800534Y-114558366D01*
X167805328Y-114475720D01*
X167800535Y-114395027D01*
X167786904Y-114324703D01*
X167765253Y-114263283D01*
X167735978Y-114209524D01*
X167699034Y-114162454D01*
X167654363Y-114121967D01*
X167604132Y-114090438D01*
X167547554Y-114067458D01*
X167483536Y-114053147D01*
X167410729Y-114048149D01*
X167347040Y-114052457D01*
X167280863Y-114065699D01*
X167211581Y-114088575D01*
X167138594Y-114122057D01*
X167138594Y-114241980D01*
X167146263Y-114241980D01*
X167200368Y-114202316D01*
X167254095Y-114172619D01*
X167307828Y-114151969D01*
X167362040Y-114139752D01*
X167417275Y-114135685D01*
X167468856Y-114139554D01*
X167514366Y-114150672D01*
X167554802Y-114168638D01*
X167590947Y-114193513D01*
X167623318Y-114225811D01*
X167655068Y-114272460D01*
X167678740Y-114328417D01*
X167693867Y-114395503D01*
X167699278Y-114475965D01*
X167693790Y-114555757D01*
X167678428Y-114622374D01*
X167654343Y-114678042D01*
X167621950Y-114724555D01*
X167589048Y-114756730D01*
X167552628Y-114781466D01*
X167512201Y-114799287D01*
X167467036Y-114810280D01*
X167416200Y-114814094D01*
X167348086Y-114808627D01*
X167283967Y-114792454D01*
X167243687Y-114774983D01*
X167198095Y-114747467D01*
X167146263Y-114707800D01*
X167138594Y-114707800D01*
X167138594Y-114827235D01*
X167238667Y-114869978D01*
X167301748Y-114889126D01*
X167359254Y-114898621D01*
X167411315Y-114901631D01*
G37*
G36*
X166714276Y-114053679D02*
G01*
X166780853Y-114069420D01*
X166838718Y-114094570D01*
X166889208Y-114129000D01*
X166933234Y-114173250D01*
X166968554Y-114223915D01*
X166997013Y-114282962D01*
X167018370Y-114351670D01*
X167031973Y-114431583D01*
X167036793Y-114524471D01*
X167033105Y-114600554D01*
X167022770Y-114665144D01*
X167006692Y-114719834D01*
X166985488Y-114766029D01*
X166959466Y-114804911D01*
X166926352Y-114839472D01*
X166888873Y-114866129D01*
X166846434Y-114885438D01*
X166798125Y-114897437D01*
X166742774Y-114901631D01*
X166683982Y-114896459D01*
X166631629Y-114881473D01*
X166584487Y-114856899D01*
X166541664Y-114822203D01*
X166506448Y-114780004D01*
X166481422Y-114732909D01*
X166466089Y-114679939D01*
X166461099Y-114623438D01*
X166565161Y-114623438D01*
X166568490Y-114670148D01*
X166577807Y-114709043D01*
X166592432Y-114741477D01*
X166612153Y-114768519D01*
X166637280Y-114790782D01*
X166666627Y-114806823D01*
X166701027Y-114816821D01*
X166741650Y-114820347D01*
X166784829Y-114815732D01*
X166821834Y-114802467D01*
X166854005Y-114780644D01*
X166882139Y-114749321D01*
X166902967Y-114713160D01*
X166918862Y-114668653D01*
X166929201Y-114614129D01*
X166932941Y-114547625D01*
X166930743Y-114493306D01*
X166872455Y-114466192D01*
X166814624Y-114450396D01*
X166756452Y-114445190D01*
X166704465Y-114448988D01*
X166664131Y-114459295D01*
X166633062Y-114474980D01*
X166609417Y-114495651D01*
X166585211Y-114531513D01*
X166570367Y-114573554D01*
X166565161Y-114623438D01*
X166461099Y-114623438D01*
X166460771Y-114619726D01*
X166465948Y-114558601D01*
X166480494Y-114507830D01*
X166503594Y-114465452D01*
X166535363Y-114430047D01*
X166574330Y-114401779D01*
X166618953Y-114381230D01*
X166670286Y-114368407D01*
X166729682Y-114363906D01*
X166777288Y-114367380D01*
X166826347Y-114378035D01*
X166877356Y-114396423D01*
X166930792Y-114423355D01*
X166920238Y-114355892D01*
X166902313Y-114299203D01*
X166877712Y-114251613D01*
X166846626Y-114211792D01*
X166808225Y-114178979D01*
X166764095Y-114155418D01*
X166713112Y-114140809D01*
X166653723Y-114135685D01*
X166613391Y-114138279D01*
X166577921Y-114145697D01*
X166546598Y-114157570D01*
X166540052Y-114157570D01*
X166540052Y-114061191D01*
X166581888Y-114051704D01*
X166637310Y-114048149D01*
X166714276Y-114053679D01*
G37*
G36*
X155780000Y-112408976D02*
G01*
X155448611Y-112408976D01*
X155448611Y-112576722D01*
X155780000Y-112847783D01*
X155780000Y-112980602D01*
X155419741Y-112680037D01*
X155392494Y-112733215D01*
X155360713Y-112774530D01*
X155324426Y-112805786D01*
X155283125Y-112828115D01*
X155235820Y-112841894D01*
X155181116Y-112846708D01*
X155132305Y-112842064D01*
X155089847Y-112828703D01*
X155052474Y-112806857D01*
X155019330Y-112775926D01*
X154994840Y-112739508D01*
X154975578Y-112690465D01*
X154962615Y-112625505D01*
X154958153Y-112547217D01*
X155045317Y-112547217D01*
X155050445Y-112614063D01*
X155063980Y-112662474D01*
X155084023Y-112696862D01*
X155110039Y-112720461D01*
X155142953Y-112734940D01*
X155184975Y-112740120D01*
X155227812Y-112736656D01*
X155263061Y-112726975D01*
X155292148Y-112711720D01*
X155316133Y-112690930D01*
X155334140Y-112665453D01*
X155348186Y-112631450D01*
X155357582Y-112586735D01*
X155361074Y-112528655D01*
X155361074Y-112408976D01*
X155045317Y-112408976D01*
X155045317Y-112547217D01*
X154958153Y-112547217D01*
X154957780Y-112540672D01*
X154957780Y-112307322D01*
X155780000Y-112307322D01*
X155780000Y-112408976D01*
G37*
G36*
X155743852Y-113053679D02*
G01*
X155633063Y-113053679D01*
X155633063Y-113062423D01*
X155666683Y-113119966D01*
X155689906Y-113177019D01*
X155703566Y-113234125D01*
X155708094Y-113291914D01*
X155704812Y-113335364D01*
X155695505Y-113372534D01*
X155680661Y-113404490D01*
X155660321Y-113432060D01*
X155634755Y-113454671D01*
X155604730Y-113471003D01*
X155569357Y-113481210D01*
X155527404Y-113484817D01*
X155488034Y-113481527D01*
X155456471Y-113472426D01*
X155431152Y-113458207D01*
X155410949Y-113438899D01*
X155391781Y-113405994D01*
X155378632Y-113358140D01*
X155373579Y-113290253D01*
X155373579Y-113242186D01*
X155292295Y-113242186D01*
X155292295Y-113279360D01*
X155287589Y-113337333D01*
X155274721Y-113382717D01*
X155254877Y-113418139D01*
X155234282Y-113440123D01*
X155210372Y-113455612D01*
X155182495Y-113465121D01*
X155149609Y-113468453D01*
X155113519Y-113463362D01*
X155084532Y-113448836D01*
X155060900Y-113424440D01*
X155044380Y-113393579D01*
X155033626Y-113353986D01*
X155029685Y-113303393D01*
X155033951Y-113249451D01*
X155046923Y-113195160D01*
X155069158Y-113139919D01*
X155101591Y-113083184D01*
X155101591Y-113077175D01*
X154994026Y-113077175D01*
X154965061Y-113152160D01*
X154947880Y-113228238D01*
X154942149Y-113306178D01*
X154946002Y-113370749D01*
X154956684Y-113423888D01*
X154973186Y-113467488D01*
X154994954Y-113503135D01*
X155023929Y-113533843D01*
X155056775Y-113555285D01*
X155094273Y-113568317D01*
X155137690Y-113572842D01*
X155180015Y-113567724D01*
X155219028Y-113552484D01*
X155255806Y-113526387D01*
X155286241Y-113492810D01*
X155308121Y-113454321D01*
X155321849Y-113409981D01*
X155330300Y-113409981D01*
X155346162Y-113467943D01*
X155369210Y-113512184D01*
X155398875Y-113545407D01*
X155435652Y-113569302D01*
X155481032Y-113584347D01*
X155537320Y-113589744D01*
X155592179Y-113584412D01*
X155640595Y-113568966D01*
X155683902Y-113543519D01*
X155722993Y-113507238D01*
X155754115Y-113464145D01*
X155776677Y-113415133D01*
X155790716Y-113359106D01*
X155795631Y-113294649D01*
X155789917Y-113213029D01*
X155772768Y-113132948D01*
X155743852Y-113053679D01*
G37*
G36*
X155743852Y-113749283D02*
G01*
X155633063Y-113749283D01*
X155633063Y-113758027D01*
X155666683Y-113815570D01*
X155689906Y-113872622D01*
X155703566Y-113929728D01*
X155708094Y-113987517D01*
X155704812Y-114030968D01*
X155695505Y-114068138D01*
X155680661Y-114100094D01*
X155660321Y-114127664D01*
X155634755Y-114150274D01*
X155604730Y-114166607D01*
X155569357Y-114176813D01*
X155527404Y-114180420D01*
X155488034Y-114177130D01*
X155456471Y-114168029D01*
X155431152Y-114153811D01*
X155410949Y-114134503D01*
X155391781Y-114101597D01*
X155378632Y-114053743D01*
X155373579Y-113985857D01*
X155373579Y-113937790D01*
X155292295Y-113937790D01*
X155292295Y-113974963D01*
X155287589Y-114032937D01*
X155274721Y-114078320D01*
X155254877Y-114113742D01*
X155234282Y-114135726D01*
X155210372Y-114151215D01*
X155182495Y-114160724D01*
X155149609Y-114164056D01*
X155113519Y-114158965D01*
X155084532Y-114144440D01*
X155060900Y-114120044D01*
X155044380Y-114089183D01*
X155033626Y-114049589D01*
X155029685Y-113998997D01*
X155033951Y-113945054D01*
X155046923Y-113890764D01*
X155069158Y-113835522D01*
X155101591Y-113778787D01*
X155101591Y-113772779D01*
X154994026Y-113772779D01*
X154965061Y-113847763D01*
X154947880Y-113923842D01*
X154942149Y-114001781D01*
X154946002Y-114066353D01*
X154956684Y-114119492D01*
X154973186Y-114163091D01*
X154994954Y-114198739D01*
X155023929Y-114229447D01*
X155056775Y-114250889D01*
X155094273Y-114263920D01*
X155137690Y-114268446D01*
X155180015Y-114263327D01*
X155219028Y-114248088D01*
X155255806Y-114221991D01*
X155286241Y-114188414D01*
X155308121Y-114149925D01*
X155321849Y-114105584D01*
X155330300Y-114105584D01*
X155346162Y-114163546D01*
X155369210Y-114207788D01*
X155398875Y-114241011D01*
X155435652Y-114264906D01*
X155481032Y-114279950D01*
X155537320Y-114285347D01*
X155592179Y-114280015D01*
X155640595Y-114264570D01*
X155683902Y-114239123D01*
X155722993Y-114202842D01*
X155754115Y-114159749D01*
X155776677Y-114110737D01*
X155790716Y-114054710D01*
X155795631Y-113990253D01*
X155789917Y-113908633D01*
X155772768Y-113828551D01*
X155743852Y-113749283D01*
G37*
G36*
X167464000Y-90183976D02*
G01*
X167132611Y-90183976D01*
X167132611Y-90351722D01*
X167464000Y-90622783D01*
X167464000Y-90755602D01*
X167103741Y-90455037D01*
X167076494Y-90508215D01*
X167044713Y-90549530D01*
X167008426Y-90580786D01*
X166967125Y-90603115D01*
X166919820Y-90616894D01*
X166865116Y-90621708D01*
X166816305Y-90617064D01*
X166773847Y-90603703D01*
X166736474Y-90581857D01*
X166703330Y-90550926D01*
X166678840Y-90514508D01*
X166659578Y-90465465D01*
X166646615Y-90400505D01*
X166642153Y-90322217D01*
X166729317Y-90322217D01*
X166734445Y-90389063D01*
X166747980Y-90437474D01*
X166768023Y-90471862D01*
X166794039Y-90495461D01*
X166826953Y-90509940D01*
X166868975Y-90515120D01*
X166911812Y-90511656D01*
X166947061Y-90501975D01*
X166976148Y-90486720D01*
X167000133Y-90465930D01*
X167018140Y-90440453D01*
X167032186Y-90406450D01*
X167041582Y-90361735D01*
X167045074Y-90303655D01*
X167045074Y-90183976D01*
X166729317Y-90183976D01*
X166729317Y-90322217D01*
X166642153Y-90322217D01*
X166641780Y-90315672D01*
X166641780Y-90082322D01*
X167464000Y-90082322D01*
X167464000Y-90183976D01*
G37*
G36*
X167464000Y-91376223D02*
G01*
X167464000Y-90825358D01*
X167357852Y-90825358D01*
X167182974Y-91021827D01*
X167114151Y-91093182D01*
X167056150Y-91146130D01*
X167007510Y-91183857D01*
X166955119Y-91214202D01*
X166904980Y-91231365D01*
X166856030Y-91236907D01*
X166813383Y-91231638D01*
X166779148Y-91216762D01*
X166751348Y-91192357D01*
X166731136Y-91160649D01*
X166718312Y-91121010D01*
X166713685Y-91071310D01*
X166717980Y-91016767D01*
X166731000Y-90962264D01*
X166753243Y-90907203D01*
X166785591Y-90851052D01*
X166785591Y-90845581D01*
X166678759Y-90845581D01*
X166649356Y-90920595D01*
X166631948Y-90996490D01*
X166626149Y-91074046D01*
X166630407Y-91136562D01*
X166642351Y-91189037D01*
X166661115Y-91233141D01*
X166686379Y-91270222D01*
X166718901Y-91301317D01*
X166756377Y-91323425D01*
X166799794Y-91337058D01*
X166850608Y-91341834D01*
X166905173Y-91337220D01*
X166956903Y-91323515D01*
X167006057Y-91300559D01*
X167055528Y-91266411D01*
X167103529Y-91225096D01*
X167157426Y-91173501D01*
X167223971Y-91101460D01*
X167376463Y-90924862D01*
X167376463Y-91376223D01*
X167464000Y-91376223D01*
G37*
G36*
X167431857Y-91535176D02*
G01*
X167323316Y-91535176D01*
X167323316Y-91543920D01*
X167353994Y-91599002D01*
X167375307Y-91654005D01*
X167387905Y-91709414D01*
X167392094Y-91765790D01*
X167388660Y-91809659D01*
X167378905Y-91847231D01*
X167363301Y-91879600D01*
X167341829Y-91907598D01*
X167315068Y-91930384D01*
X167283661Y-91946898D01*
X167246691Y-91957236D01*
X167202904Y-91960891D01*
X167160654Y-91956467D01*
X167126449Y-91944059D01*
X167098508Y-91924102D01*
X167075793Y-91895848D01*
X167058153Y-91857483D01*
X167046348Y-91806324D01*
X167041948Y-91739021D01*
X167046705Y-91670868D01*
X167063832Y-91570689D01*
X166641780Y-91570689D01*
X166641780Y-92059810D01*
X166729317Y-92059810D01*
X166729317Y-91669070D01*
X166961543Y-91669070D01*
X166954411Y-91766328D01*
X166959082Y-91840929D01*
X166971951Y-91901378D01*
X166991732Y-91950158D01*
X167017768Y-91989321D01*
X167051962Y-92021758D01*
X167093067Y-92045252D01*
X167142499Y-92060022D01*
X167202269Y-92065281D01*
X167262057Y-92059871D01*
X167314411Y-92044291D01*
X167360760Y-92018861D01*
X167402108Y-91983020D01*
X167435380Y-91939796D01*
X167459433Y-91890395D01*
X167474389Y-91833643D01*
X167479631Y-91767988D01*
X167474092Y-91683074D01*
X167458012Y-91605846D01*
X167431857Y-91535176D01*
G37*
G36*
X160925000Y-115550777D02*
G01*
X160593611Y-115550777D01*
X160593611Y-115718523D01*
X160925000Y-115989584D01*
X160925000Y-116122403D01*
X160564741Y-115821838D01*
X160537494Y-115875016D01*
X160505713Y-115916331D01*
X160469426Y-115947587D01*
X160428125Y-115969916D01*
X160380820Y-115983695D01*
X160326116Y-115988509D01*
X160277305Y-115983865D01*
X160234847Y-115970504D01*
X160197474Y-115948658D01*
X160164330Y-115917727D01*
X160139840Y-115881309D01*
X160120578Y-115832266D01*
X160107615Y-115767306D01*
X160103153Y-115689018D01*
X160190317Y-115689018D01*
X160195445Y-115755864D01*
X160208980Y-115804275D01*
X160229023Y-115838663D01*
X160255039Y-115862262D01*
X160287953Y-115876741D01*
X160329975Y-115881921D01*
X160372812Y-115878457D01*
X160408061Y-115868776D01*
X160437148Y-115853521D01*
X160461133Y-115832731D01*
X160479140Y-115807254D01*
X160493186Y-115773251D01*
X160502582Y-115728536D01*
X160506074Y-115670456D01*
X160506074Y-115550777D01*
X160190317Y-115550777D01*
X160190317Y-115689018D01*
X160103153Y-115689018D01*
X160102780Y-115682473D01*
X160102780Y-115449123D01*
X160925000Y-115449123D01*
X160925000Y-115550777D01*
G37*
G36*
X160750368Y-116175994D02*
G01*
X160796472Y-116190795D01*
X160837200Y-116215066D01*
X160873464Y-116249556D01*
X160901873Y-116290448D01*
X160922775Y-116338231D01*
X160935963Y-116394191D01*
X160940631Y-116459946D01*
X160935961Y-116521286D01*
X160922538Y-116575398D01*
X160900828Y-116623483D01*
X160870729Y-116666478D01*
X160832888Y-116703115D01*
X160791637Y-116728529D01*
X160746187Y-116743799D01*
X160695314Y-116749032D01*
X160652998Y-116744815D01*
X160614997Y-116732500D01*
X160580337Y-116712014D01*
X160548373Y-116682538D01*
X160518849Y-116642571D01*
X160491908Y-116590030D01*
X160484874Y-116590030D01*
X160462241Y-116630621D01*
X160435024Y-116663944D01*
X160403053Y-116690854D01*
X160366711Y-116711272D01*
X160329494Y-116723219D01*
X160290701Y-116727197D01*
X160246160Y-116722507D01*
X160207114Y-116708911D01*
X160172351Y-116686392D01*
X160141127Y-116653973D01*
X160117082Y-116616237D01*
X160099283Y-116572141D01*
X160088015Y-116520531D01*
X160084023Y-116459995D01*
X160084065Y-116459409D01*
X160159054Y-116459409D01*
X160163621Y-116508774D01*
X160176328Y-116548540D01*
X160196423Y-116580700D01*
X160223895Y-116606080D01*
X160255344Y-116620974D01*
X160292166Y-116626080D01*
X160333684Y-116622061D01*
X160370933Y-116610340D01*
X160404835Y-116590908D01*
X160436015Y-116563081D01*
X160464748Y-116525550D01*
X160438289Y-116448652D01*
X160412987Y-116392460D01*
X160411497Y-116389995D01*
X160507149Y-116389995D01*
X160549729Y-116502178D01*
X160572899Y-116555299D01*
X160597196Y-116594052D01*
X160624727Y-116620609D01*
X160646266Y-116632611D01*
X160672907Y-116640270D01*
X160705914Y-116643031D01*
X160742381Y-116639720D01*
X160773397Y-116630298D01*
X160800012Y-116615095D01*
X160822955Y-116593840D01*
X160845915Y-116558765D01*
X160860396Y-116515264D01*
X160865600Y-116461070D01*
X160859899Y-116408692D01*
X160843629Y-116364668D01*
X160816995Y-116327176D01*
X160791032Y-116304380D01*
X160761654Y-116288160D01*
X160728181Y-116278187D01*
X160689647Y-116274713D01*
X160644682Y-116279312D01*
X160604874Y-116292682D01*
X160569086Y-116314848D01*
X160536592Y-116346718D01*
X160507149Y-116389995D01*
X160411497Y-116389995D01*
X160389033Y-116352822D01*
X160366523Y-116327209D01*
X160342155Y-116309810D01*
X160315478Y-116299514D01*
X160285669Y-116296011D01*
X160250031Y-116301142D01*
X160219949Y-116316087D01*
X160193981Y-116341635D01*
X160175122Y-116373739D01*
X160163275Y-116412452D01*
X160159054Y-116459409D01*
X160084065Y-116459409D01*
X160088126Y-116402088D01*
X160099845Y-116351555D01*
X160118630Y-116307227D01*
X160144399Y-116268167D01*
X160177323Y-116234598D01*
X160213320Y-116211411D01*
X160253094Y-116197509D01*
X160297784Y-116192745D01*
X160339639Y-116197597D01*
X160378072Y-116211996D01*
X160414125Y-116236523D01*
X160448411Y-116272794D01*
X160481064Y-116323317D01*
X160487561Y-116323317D01*
X160514165Y-116273789D01*
X160543825Y-116235689D01*
X160576474Y-116207240D01*
X160612445Y-116187221D01*
X160652448Y-116175056D01*
X160697512Y-116170861D01*
X160750368Y-116175994D01*
G37*
G36*
X167854677Y-105234000D02*
G01*
X167753023Y-105234000D01*
X167753023Y-104902611D01*
X167585277Y-104902611D01*
X167314216Y-105234000D01*
X167181397Y-105234000D01*
X167481962Y-104873741D01*
X167428784Y-104846494D01*
X167387469Y-104814713D01*
X167356213Y-104778426D01*
X167333884Y-104737125D01*
X167320105Y-104689820D01*
X167315631Y-104638975D01*
X167421879Y-104638975D01*
X167425343Y-104681812D01*
X167435024Y-104717061D01*
X167450279Y-104746148D01*
X167471069Y-104770133D01*
X167496546Y-104788140D01*
X167530549Y-104802186D01*
X167575264Y-104811582D01*
X167633344Y-104815074D01*
X167753023Y-104815074D01*
X167753023Y-104499317D01*
X167614782Y-104499317D01*
X167547936Y-104504445D01*
X167499525Y-104517980D01*
X167465137Y-104538023D01*
X167441538Y-104564039D01*
X167427059Y-104596953D01*
X167421879Y-104638975D01*
X167315631Y-104638975D01*
X167315291Y-104635116D01*
X167319935Y-104586305D01*
X167333296Y-104543847D01*
X167355142Y-104506474D01*
X167386073Y-104473330D01*
X167422491Y-104448840D01*
X167471534Y-104429578D01*
X167536494Y-104416615D01*
X167621327Y-104411780D01*
X167854677Y-104411780D01*
X167854677Y-105234000D01*
G37*
G36*
X167157510Y-104881362D02*
G01*
X167157510Y-104996400D01*
X166761299Y-104996400D01*
X166761299Y-105234000D01*
X166662967Y-105234000D01*
X166662967Y-104996400D01*
X166542165Y-104996400D01*
X166542165Y-104915116D01*
X166662967Y-104915116D01*
X166761299Y-104915116D01*
X167088683Y-104915116D01*
X166761299Y-104531508D01*
X166761299Y-104915116D01*
X166662967Y-104915116D01*
X166662967Y-104411780D01*
X166756952Y-104411780D01*
X167157510Y-104881362D01*
G37*
G36*
X165865172Y-105234000D02*
G01*
X166416038Y-105234000D01*
X166416038Y-105127852D01*
X166219569Y-104952974D01*
X166148213Y-104884151D01*
X166095265Y-104826150D01*
X166057538Y-104777510D01*
X166027193Y-104725119D01*
X166010031Y-104674980D01*
X166004489Y-104626030D01*
X166009758Y-104583383D01*
X166024634Y-104549148D01*
X166049038Y-104521348D01*
X166080746Y-104501136D01*
X166120386Y-104488312D01*
X166170085Y-104483685D01*
X166224629Y-104487980D01*
X166279131Y-104501000D01*
X166334192Y-104523243D01*
X166390343Y-104555591D01*
X166395814Y-104555591D01*
X166395814Y-104448759D01*
X166320800Y-104419356D01*
X166244905Y-104401948D01*
X166167350Y-104396149D01*
X166104833Y-104400407D01*
X166052358Y-104412351D01*
X166008255Y-104431115D01*
X165971174Y-104456379D01*
X165940079Y-104488901D01*
X165917971Y-104526377D01*
X165904338Y-104569794D01*
X165899562Y-104620608D01*
X165904175Y-104675173D01*
X165917880Y-104726903D01*
X165940836Y-104776057D01*
X165974984Y-104825528D01*
X166016299Y-104873529D01*
X166067894Y-104927426D01*
X166139936Y-104993971D01*
X166316533Y-105146463D01*
X165865172Y-105146463D01*
X165865172Y-105234000D01*
G37*
G36*
X157345117Y-105376631D02*
G01*
X157419343Y-105371688D01*
X157484092Y-105357590D01*
X157540802Y-105335070D01*
X157590650Y-105304346D01*
X157634496Y-105265110D01*
X157670589Y-105219253D01*
X157699358Y-105166123D01*
X157720771Y-105104624D01*
X157734336Y-105033366D01*
X157739130Y-104950720D01*
X157734337Y-104870027D01*
X157720706Y-104799703D01*
X157699055Y-104738283D01*
X157669780Y-104684524D01*
X157632836Y-104637454D01*
X157588165Y-104596967D01*
X157537934Y-104565438D01*
X157481356Y-104542458D01*
X157417338Y-104528147D01*
X157344531Y-104523149D01*
X157280842Y-104527457D01*
X157214665Y-104540699D01*
X157145383Y-104563575D01*
X157072396Y-104597057D01*
X157072396Y-104716980D01*
X157080065Y-104716980D01*
X157134170Y-104677316D01*
X157187897Y-104647619D01*
X157241630Y-104626969D01*
X157295842Y-104614752D01*
X157351077Y-104610685D01*
X157402658Y-104614554D01*
X157448168Y-104625672D01*
X157488604Y-104643638D01*
X157524749Y-104668513D01*
X157557120Y-104700811D01*
X157588870Y-104747460D01*
X157612542Y-104803417D01*
X157627669Y-104870503D01*
X157633080Y-104950965D01*
X157627592Y-105030757D01*
X157612230Y-105097374D01*
X157588145Y-105153042D01*
X157555752Y-105199555D01*
X157522850Y-105231730D01*
X157486430Y-105256466D01*
X157446003Y-105274287D01*
X157400838Y-105285280D01*
X157350002Y-105289094D01*
X157281888Y-105283627D01*
X157217769Y-105267454D01*
X157177489Y-105249983D01*
X157131897Y-105222467D01*
X157080065Y-105182800D01*
X157072396Y-105182800D01*
X157072396Y-105302235D01*
X157172469Y-105344978D01*
X157235550Y-105364126D01*
X157293056Y-105373621D01*
X157345117Y-105376631D01*
G37*
G36*
X156453631Y-105361000D02*
G01*
X156891900Y-105361000D01*
X156891900Y-105285968D01*
X156720295Y-105285968D01*
X156720295Y-104720106D01*
X156891900Y-104720106D01*
X156891900Y-104654454D01*
X156824695Y-104650163D01*
X156778613Y-104639874D01*
X156748188Y-104625584D01*
X156724084Y-104603631D01*
X156707856Y-104574352D01*
X156699535Y-104535654D01*
X156621914Y-104535654D01*
X156621914Y-105285968D01*
X156453631Y-105285968D01*
X156453631Y-105361000D01*
G37*
G36*
X155711035Y-105361000D02*
G01*
X156261900Y-105361000D01*
X156261900Y-105254852D01*
X156065431Y-105079974D01*
X155994076Y-105011151D01*
X155941128Y-104953150D01*
X155903401Y-104904510D01*
X155873056Y-104852119D01*
X155855893Y-104801980D01*
X155850351Y-104753030D01*
X155855620Y-104710383D01*
X155870496Y-104676148D01*
X155894901Y-104648348D01*
X155926609Y-104628136D01*
X155966248Y-104615312D01*
X156015948Y-104610685D01*
X156070491Y-104614980D01*
X156124994Y-104628000D01*
X156180055Y-104650243D01*
X156236206Y-104682591D01*
X156241677Y-104682591D01*
X156241677Y-104575759D01*
X156166663Y-104546356D01*
X156090768Y-104528948D01*
X156013212Y-104523149D01*
X155950696Y-104527407D01*
X155898221Y-104539351D01*
X155854117Y-104558115D01*
X155817036Y-104583379D01*
X155785941Y-104615901D01*
X155763833Y-104653377D01*
X155750200Y-104696794D01*
X155745424Y-104747608D01*
X155750038Y-104802173D01*
X155763743Y-104853903D01*
X155786699Y-104903057D01*
X155820847Y-104952528D01*
X155862162Y-105000529D01*
X155913757Y-105054426D01*
X155985798Y-105120971D01*
X156162396Y-105273463D01*
X155711035Y-105273463D01*
X155711035Y-105361000D01*
G37*
G36*
X170775677Y-97614000D02*
G01*
X170674023Y-97614000D01*
X170674023Y-97282611D01*
X170506277Y-97282611D01*
X170235216Y-97614000D01*
X170102397Y-97614000D01*
X170402962Y-97253741D01*
X170349784Y-97226494D01*
X170308469Y-97194713D01*
X170277213Y-97158426D01*
X170254884Y-97117125D01*
X170241105Y-97069820D01*
X170236631Y-97018975D01*
X170342879Y-97018975D01*
X170346343Y-97061812D01*
X170356024Y-97097061D01*
X170371279Y-97126148D01*
X170392069Y-97150133D01*
X170417546Y-97168140D01*
X170451549Y-97182186D01*
X170496264Y-97191582D01*
X170554344Y-97195074D01*
X170674023Y-97195074D01*
X170674023Y-96879317D01*
X170535782Y-96879317D01*
X170468936Y-96884445D01*
X170420525Y-96897980D01*
X170386137Y-96918023D01*
X170362538Y-96944039D01*
X170348059Y-96976953D01*
X170342879Y-97018975D01*
X170236631Y-97018975D01*
X170236291Y-97015116D01*
X170240935Y-96966305D01*
X170254296Y-96923847D01*
X170276142Y-96886474D01*
X170307073Y-96853330D01*
X170343491Y-96828840D01*
X170392534Y-96809578D01*
X170457494Y-96796615D01*
X170542327Y-96791780D01*
X170775677Y-96791780D01*
X170775677Y-97614000D01*
G37*
G36*
X169481776Y-97614000D02*
G01*
X170032641Y-97614000D01*
X170032641Y-97507852D01*
X169836172Y-97332974D01*
X169764817Y-97264151D01*
X169711869Y-97206150D01*
X169674142Y-97157510D01*
X169643797Y-97105119D01*
X169626634Y-97054980D01*
X169621092Y-97006030D01*
X169626361Y-96963383D01*
X169641237Y-96929148D01*
X169665642Y-96901348D01*
X169697350Y-96881136D01*
X169736989Y-96868312D01*
X169786689Y-96863685D01*
X169841232Y-96867980D01*
X169895735Y-96881000D01*
X169950796Y-96903243D01*
X170006947Y-96935591D01*
X170012418Y-96935591D01*
X170012418Y-96828759D01*
X169937404Y-96799356D01*
X169861509Y-96781948D01*
X169783953Y-96776149D01*
X169721437Y-96780407D01*
X169668962Y-96792351D01*
X169624858Y-96811115D01*
X169587777Y-96836379D01*
X169556682Y-96868901D01*
X169534574Y-96906377D01*
X169520941Y-96949794D01*
X169516165Y-97000608D01*
X169520779Y-97055173D01*
X169534484Y-97106903D01*
X169557440Y-97156057D01*
X169591588Y-97205528D01*
X169632903Y-97253529D01*
X169684498Y-97307426D01*
X169756539Y-97373971D01*
X169933137Y-97526463D01*
X169481776Y-97526463D01*
X169481776Y-97614000D01*
G37*
G36*
X169140045Y-96781334D02*
G01*
X169192392Y-96796361D01*
X169239539Y-96821009D01*
X169282376Y-96855821D01*
X169317583Y-96898112D01*
X169342610Y-96945324D01*
X169357949Y-96998442D01*
X169363269Y-97058836D01*
X169358320Y-97118140D01*
X169344298Y-97168402D01*
X169321865Y-97211276D01*
X169290876Y-97247977D01*
X169252812Y-97277309D01*
X169208192Y-97298745D01*
X169155747Y-97312228D01*
X169093821Y-97317000D01*
X169049598Y-97313459D01*
X169001829Y-97302352D01*
X168949781Y-97282697D01*
X168892711Y-97253204D01*
X168903992Y-97327476D01*
X168922520Y-97387298D01*
X168947259Y-97435146D01*
X168977773Y-97473015D01*
X169014259Y-97502315D01*
X169057532Y-97523754D01*
X169108953Y-97537285D01*
X169170318Y-97542094D01*
X169210650Y-97539501D01*
X169246119Y-97532083D01*
X169277442Y-97520210D01*
X169283988Y-97520210D01*
X169283988Y-97617028D01*
X169241317Y-97626233D01*
X169186731Y-97629631D01*
X169109495Y-97624101D01*
X169042778Y-97608374D01*
X168984882Y-97583266D01*
X168934452Y-97548925D01*
X168890562Y-97504823D01*
X168855358Y-97454279D01*
X168826971Y-97395280D01*
X168805653Y-97326533D01*
X168792065Y-97246473D01*
X168787247Y-97153309D01*
X168788117Y-97135332D01*
X168891099Y-97135332D01*
X168892711Y-97184327D01*
X168955478Y-97213814D01*
X169013588Y-97230415D01*
X169068126Y-97235716D01*
X169119778Y-97231902D01*
X169159935Y-97221537D01*
X169190948Y-97205736D01*
X169214623Y-97184865D01*
X169238762Y-97148725D01*
X169253640Y-97105968D01*
X169258880Y-97054830D01*
X169255540Y-97008660D01*
X169246161Y-96969928D01*
X169231375Y-96937358D01*
X169211350Y-96909945D01*
X169185893Y-96887285D01*
X169156487Y-96871041D01*
X169122353Y-96860969D01*
X169082390Y-96857433D01*
X169037511Y-96862178D01*
X168999786Y-96875702D01*
X168967682Y-96897766D01*
X168940290Y-96929240D01*
X168920252Y-96965603D01*
X168904845Y-97010820D01*
X168894762Y-97066696D01*
X168891099Y-97135332D01*
X168788117Y-97135332D01*
X168791057Y-97074569D01*
X168801665Y-97008628D01*
X168818052Y-96953630D01*
X168839514Y-96907938D01*
X168865698Y-96870182D01*
X168899119Y-96836573D01*
X168936679Y-96810638D01*
X168978948Y-96791861D01*
X169026781Y-96780212D01*
X169081267Y-96776149D01*
X169140045Y-96781334D01*
G37*
G36*
X171655000Y-111613777D02*
G01*
X171323611Y-111613777D01*
X171323611Y-111781523D01*
X171655000Y-112052584D01*
X171655000Y-112185403D01*
X171294741Y-111884838D01*
X171267494Y-111938016D01*
X171235713Y-111979331D01*
X171199426Y-112010587D01*
X171158125Y-112032916D01*
X171110820Y-112046695D01*
X171056116Y-112051509D01*
X171007305Y-112046865D01*
X170964847Y-112033504D01*
X170927474Y-112011658D01*
X170894330Y-111980727D01*
X170869840Y-111944309D01*
X170850578Y-111895266D01*
X170837615Y-111830306D01*
X170833153Y-111752018D01*
X170920317Y-111752018D01*
X170925445Y-111818864D01*
X170938980Y-111867275D01*
X170959023Y-111901663D01*
X170985039Y-111925262D01*
X171017953Y-111939741D01*
X171059975Y-111944921D01*
X171102812Y-111941457D01*
X171138061Y-111931776D01*
X171167148Y-111916521D01*
X171191133Y-111895731D01*
X171209140Y-111870254D01*
X171223186Y-111836251D01*
X171232582Y-111791536D01*
X171236074Y-111733456D01*
X171236074Y-111613777D01*
X170920317Y-111613777D01*
X170920317Y-111752018D01*
X170833153Y-111752018D01*
X170832780Y-111745473D01*
X170832780Y-111512123D01*
X171655000Y-111512123D01*
X171655000Y-111613777D01*
G37*
G36*
X171655000Y-112806024D02*
G01*
X171655000Y-112255159D01*
X171548852Y-112255159D01*
X171373974Y-112451628D01*
X171305151Y-112522983D01*
X171247150Y-112575931D01*
X171198510Y-112613658D01*
X171146119Y-112644003D01*
X171095980Y-112661166D01*
X171047030Y-112666708D01*
X171004383Y-112661439D01*
X170970148Y-112646563D01*
X170942348Y-112622158D01*
X170922136Y-112590450D01*
X170909312Y-112550811D01*
X170904685Y-112501111D01*
X170908980Y-112446568D01*
X170922000Y-112392065D01*
X170944243Y-112337004D01*
X170976591Y-112280853D01*
X170976591Y-112275382D01*
X170869759Y-112275382D01*
X170840356Y-112350396D01*
X170822948Y-112426291D01*
X170817149Y-112503847D01*
X170821407Y-112566363D01*
X170833351Y-112618838D01*
X170852115Y-112662942D01*
X170877379Y-112700023D01*
X170909901Y-112731118D01*
X170947377Y-112753226D01*
X170990794Y-112766859D01*
X171041608Y-112771635D01*
X171096173Y-112767021D01*
X171147903Y-112753316D01*
X171197057Y-112730360D01*
X171246528Y-112696212D01*
X171294529Y-112654897D01*
X171348426Y-112603302D01*
X171414971Y-112531261D01*
X171567463Y-112354663D01*
X171567463Y-112806024D01*
X171655000Y-112806024D01*
G37*
G36*
X164050631Y-98178882D02*
G01*
X164045688Y-98104656D01*
X164031590Y-98039907D01*
X164009070Y-97983197D01*
X163978346Y-97933349D01*
X163939110Y-97889503D01*
X163893253Y-97853410D01*
X163840123Y-97824641D01*
X163778624Y-97803228D01*
X163707366Y-97789663D01*
X163624720Y-97784869D01*
X163544027Y-97789662D01*
X163473703Y-97803293D01*
X163412283Y-97824944D01*
X163358524Y-97854219D01*
X163311454Y-97891163D01*
X163270967Y-97935834D01*
X163239438Y-97986065D01*
X163216458Y-98042643D01*
X163202147Y-98106661D01*
X163197149Y-98179468D01*
X163201457Y-98243157D01*
X163214699Y-98309334D01*
X163237575Y-98378616D01*
X163271057Y-98451603D01*
X163390980Y-98451603D01*
X163390980Y-98443934D01*
X163351316Y-98389829D01*
X163321619Y-98336102D01*
X163300969Y-98282369D01*
X163288752Y-98228157D01*
X163284685Y-98172922D01*
X163288554Y-98121341D01*
X163299672Y-98075831D01*
X163317638Y-98035395D01*
X163342513Y-97999250D01*
X163374811Y-97966879D01*
X163421460Y-97935129D01*
X163477417Y-97911457D01*
X163544503Y-97896330D01*
X163624965Y-97890919D01*
X163704757Y-97896407D01*
X163771374Y-97911769D01*
X163827042Y-97935854D01*
X163873555Y-97968247D01*
X163905730Y-98001149D01*
X163930466Y-98037569D01*
X163948287Y-98077996D01*
X163959280Y-98123161D01*
X163963094Y-98173997D01*
X163957627Y-98242111D01*
X163941454Y-98306230D01*
X163923983Y-98346510D01*
X163896467Y-98392102D01*
X163856800Y-98443934D01*
X163856800Y-98451603D01*
X163976235Y-98451603D01*
X164018978Y-98351530D01*
X164038126Y-98288449D01*
X164047621Y-98230943D01*
X164050631Y-98178882D01*
G37*
G36*
X164035000Y-99070368D02*
G01*
X164035000Y-98632099D01*
X163959968Y-98632099D01*
X163959968Y-98803704D01*
X163394106Y-98803704D01*
X163394106Y-98632099D01*
X163328454Y-98632099D01*
X163324163Y-98699304D01*
X163313874Y-98745386D01*
X163299584Y-98775811D01*
X163277631Y-98799915D01*
X163248352Y-98816143D01*
X163209654Y-98824464D01*
X163209654Y-98902085D01*
X163959968Y-98902085D01*
X163959968Y-99070368D01*
X164035000Y-99070368D01*
G37*
G36*
X164002857Y-99276314D02*
G01*
X163894316Y-99276314D01*
X163894316Y-99285057D01*
X163924994Y-99340140D01*
X163946307Y-99395142D01*
X163958905Y-99450551D01*
X163963094Y-99506928D01*
X163959660Y-99550796D01*
X163949905Y-99588368D01*
X163934301Y-99620737D01*
X163912829Y-99648735D01*
X163886068Y-99671521D01*
X163854661Y-99688035D01*
X163817691Y-99698373D01*
X163773904Y-99702029D01*
X163731654Y-99697604D01*
X163697449Y-99685197D01*
X163669508Y-99665239D01*
X163646793Y-99636985D01*
X163629153Y-99598620D01*
X163617348Y-99547461D01*
X163612948Y-99480159D01*
X163617705Y-99412005D01*
X163634832Y-99311826D01*
X163212780Y-99311826D01*
X163212780Y-99800947D01*
X163300317Y-99800947D01*
X163300317Y-99410207D01*
X163532543Y-99410207D01*
X163525411Y-99507465D01*
X163530082Y-99582067D01*
X163542951Y-99642515D01*
X163562732Y-99691296D01*
X163588768Y-99730459D01*
X163622962Y-99762896D01*
X163664067Y-99786389D01*
X163713499Y-99801159D01*
X163773269Y-99806418D01*
X163833057Y-99801009D01*
X163885411Y-99785429D01*
X163931760Y-99759998D01*
X163973108Y-99724157D01*
X164006380Y-99680934D01*
X164030433Y-99631533D01*
X164045389Y-99574780D01*
X164050631Y-99509126D01*
X164045092Y-99424212D01*
X164029012Y-99346983D01*
X164002857Y-99276314D01*
G37*
G36*
X160940631Y-117830684D02*
G01*
X160935688Y-117756458D01*
X160921590Y-117691709D01*
X160899070Y-117634999D01*
X160868346Y-117585151D01*
X160829110Y-117541305D01*
X160783253Y-117505212D01*
X160730123Y-117476443D01*
X160668624Y-117455030D01*
X160597366Y-117441465D01*
X160514720Y-117436671D01*
X160434027Y-117441464D01*
X160363703Y-117455095D01*
X160302283Y-117476746D01*
X160248524Y-117506021D01*
X160201454Y-117542965D01*
X160160967Y-117587636D01*
X160129438Y-117637867D01*
X160106458Y-117694445D01*
X160092147Y-117758463D01*
X160087149Y-117831270D01*
X160091457Y-117894959D01*
X160104699Y-117961136D01*
X160127575Y-118030418D01*
X160161057Y-118103405D01*
X160280980Y-118103405D01*
X160280980Y-118095736D01*
X160241316Y-118041631D01*
X160211619Y-117987904D01*
X160190969Y-117934171D01*
X160178752Y-117879959D01*
X160174685Y-117824724D01*
X160178554Y-117773143D01*
X160189672Y-117727633D01*
X160207638Y-117687197D01*
X160232513Y-117651052D01*
X160264811Y-117618681D01*
X160311460Y-117586931D01*
X160367417Y-117563259D01*
X160434503Y-117548132D01*
X160514965Y-117542721D01*
X160594757Y-117548209D01*
X160661374Y-117563571D01*
X160717042Y-117587656D01*
X160763555Y-117620049D01*
X160795730Y-117652951D01*
X160820466Y-117689371D01*
X160838287Y-117729798D01*
X160849280Y-117774963D01*
X160853094Y-117825799D01*
X160847627Y-117893913D01*
X160831454Y-117958032D01*
X160813983Y-117998312D01*
X160786467Y-118043904D01*
X160746800Y-118095736D01*
X160746800Y-118103405D01*
X160866235Y-118103405D01*
X160908978Y-118003332D01*
X160928126Y-117940251D01*
X160937621Y-117882745D01*
X160940631Y-117830684D01*
G37*
G36*
X160892857Y-118232512D02*
G01*
X160784316Y-118232512D01*
X160784316Y-118241256D01*
X160814994Y-118296338D01*
X160836307Y-118351340D01*
X160848905Y-118406750D01*
X160853094Y-118463126D01*
X160849660Y-118506995D01*
X160839905Y-118544567D01*
X160824301Y-118576935D01*
X160802829Y-118604933D01*
X160776068Y-118627719D01*
X160744661Y-118644233D01*
X160707691Y-118654572D01*
X160663904Y-118658227D01*
X160621654Y-118653803D01*
X160587449Y-118641395D01*
X160559508Y-118621437D01*
X160536793Y-118593184D01*
X160519153Y-118554818D01*
X160507348Y-118503660D01*
X160502948Y-118436357D01*
X160507705Y-118368203D01*
X160524832Y-118268025D01*
X160102780Y-118268025D01*
X160102780Y-118757146D01*
X160190317Y-118757146D01*
X160190317Y-118366406D01*
X160422543Y-118366406D01*
X160415411Y-118463663D01*
X160420082Y-118538265D01*
X160432951Y-118598714D01*
X160452732Y-118647494D01*
X160478768Y-118686657D01*
X160512962Y-118719094D01*
X160554067Y-118742587D01*
X160603499Y-118757358D01*
X160663269Y-118762617D01*
X160723057Y-118757207D01*
X160775411Y-118741627D01*
X160821760Y-118716197D01*
X160863108Y-118680356D01*
X160896380Y-118637132D01*
X160920433Y-118587731D01*
X160935389Y-118530979D01*
X160940631Y-118465324D01*
X160935092Y-118380410D01*
X160919012Y-118303182D01*
X160892857Y-118232512D01*
G37*
G36*
X165441677Y-97614000D02*
G01*
X165340023Y-97614000D01*
X165340023Y-97282611D01*
X165172277Y-97282611D01*
X164901216Y-97614000D01*
X164768397Y-97614000D01*
X165068962Y-97253741D01*
X165015784Y-97226494D01*
X164974469Y-97194713D01*
X164943213Y-97158426D01*
X164920884Y-97117125D01*
X164907105Y-97069820D01*
X164902631Y-97018975D01*
X165008879Y-97018975D01*
X165012343Y-97061812D01*
X165022024Y-97097061D01*
X165037279Y-97126148D01*
X165058069Y-97150133D01*
X165083546Y-97168140D01*
X165117549Y-97182186D01*
X165162264Y-97191582D01*
X165220344Y-97195074D01*
X165340023Y-97195074D01*
X165340023Y-96879317D01*
X165201782Y-96879317D01*
X165134936Y-96884445D01*
X165086525Y-96897980D01*
X165052137Y-96918023D01*
X165028538Y-96944039D01*
X165014059Y-96976953D01*
X165008879Y-97018975D01*
X164902631Y-97018975D01*
X164902291Y-97015116D01*
X164906935Y-96966305D01*
X164920296Y-96923847D01*
X164942142Y-96886474D01*
X164973073Y-96853330D01*
X165009491Y-96828840D01*
X165058534Y-96809578D01*
X165123494Y-96796615D01*
X165208327Y-96791780D01*
X165441677Y-96791780D01*
X165441677Y-97614000D01*
G37*
G36*
X164147776Y-97614000D02*
G01*
X164698641Y-97614000D01*
X164698641Y-97507852D01*
X164502172Y-97332974D01*
X164430817Y-97264151D01*
X164377869Y-97206150D01*
X164340142Y-97157510D01*
X164309797Y-97105119D01*
X164292634Y-97054980D01*
X164287092Y-97006030D01*
X164292361Y-96963383D01*
X164307237Y-96929148D01*
X164331642Y-96901348D01*
X164363350Y-96881136D01*
X164402989Y-96868312D01*
X164452689Y-96863685D01*
X164507232Y-96867980D01*
X164561735Y-96881000D01*
X164616796Y-96903243D01*
X164672947Y-96935591D01*
X164678418Y-96935591D01*
X164678418Y-96828759D01*
X164603404Y-96799356D01*
X164527509Y-96781948D01*
X164449953Y-96776149D01*
X164387437Y-96780407D01*
X164334962Y-96792351D01*
X164290858Y-96811115D01*
X164253777Y-96836379D01*
X164222682Y-96868901D01*
X164200574Y-96906377D01*
X164186941Y-96949794D01*
X164182165Y-97000608D01*
X164186779Y-97055173D01*
X164200484Y-97106903D01*
X164223440Y-97156057D01*
X164257588Y-97205528D01*
X164298903Y-97253529D01*
X164350498Y-97307426D01*
X164422539Y-97373971D01*
X164599137Y-97526463D01*
X164147776Y-97526463D01*
X164147776Y-97614000D01*
G37*
G36*
X163793108Y-96777126D02*
G01*
X163843641Y-96788845D01*
X163887969Y-96807630D01*
X163927029Y-96833399D01*
X163960598Y-96866323D01*
X163983785Y-96902320D01*
X163997687Y-96942094D01*
X164002452Y-96986784D01*
X163997599Y-97028639D01*
X163983201Y-97067072D01*
X163958674Y-97103125D01*
X163922402Y-97137411D01*
X163871879Y-97170064D01*
X163871879Y-97176561D01*
X163921407Y-97203165D01*
X163959507Y-97232825D01*
X163987957Y-97265474D01*
X164007975Y-97301445D01*
X164020140Y-97341448D01*
X164024336Y-97386512D01*
X164019202Y-97439368D01*
X164004402Y-97485472D01*
X163980130Y-97526200D01*
X163945641Y-97562464D01*
X163904748Y-97590873D01*
X163856966Y-97611775D01*
X163801006Y-97624963D01*
X163735250Y-97629631D01*
X163673910Y-97624961D01*
X163619799Y-97611538D01*
X163571714Y-97589828D01*
X163528718Y-97559729D01*
X163492081Y-97521888D01*
X163466668Y-97480637D01*
X163451397Y-97435187D01*
X163447254Y-97394914D01*
X163552165Y-97394914D01*
X163555477Y-97431381D01*
X163564899Y-97462397D01*
X163580102Y-97489012D01*
X163601356Y-97511955D01*
X163636431Y-97534915D01*
X163679932Y-97549396D01*
X163734126Y-97554600D01*
X163786504Y-97548899D01*
X163830529Y-97532629D01*
X163868020Y-97505995D01*
X163890816Y-97480032D01*
X163907037Y-97450654D01*
X163917009Y-97417181D01*
X163920484Y-97378647D01*
X163915884Y-97333682D01*
X163902515Y-97293874D01*
X163880348Y-97258086D01*
X163848478Y-97225592D01*
X163805201Y-97196149D01*
X163693018Y-97238729D01*
X163639897Y-97261899D01*
X163601144Y-97286196D01*
X163574587Y-97313727D01*
X163562585Y-97335266D01*
X163554927Y-97361907D01*
X163552165Y-97394914D01*
X163447254Y-97394914D01*
X163446164Y-97384314D01*
X163450381Y-97341998D01*
X163462696Y-97303997D01*
X163483182Y-97269337D01*
X163512658Y-97237373D01*
X163552626Y-97207849D01*
X163605166Y-97180908D01*
X163605166Y-97173874D01*
X163564575Y-97151241D01*
X163531252Y-97124024D01*
X163504343Y-97092053D01*
X163483924Y-97055711D01*
X163471977Y-97018494D01*
X163468149Y-96981166D01*
X163569116Y-96981166D01*
X163573135Y-97022684D01*
X163584856Y-97059933D01*
X163604288Y-97093835D01*
X163632116Y-97125015D01*
X163669646Y-97153748D01*
X163746544Y-97127289D01*
X163802736Y-97101987D01*
X163842375Y-97078033D01*
X163867988Y-97055523D01*
X163885386Y-97031155D01*
X163895682Y-97004478D01*
X163899186Y-96974669D01*
X163894054Y-96939031D01*
X163879109Y-96908949D01*
X163853561Y-96882981D01*
X163821458Y-96864122D01*
X163782745Y-96852275D01*
X163735787Y-96848054D01*
X163686422Y-96852621D01*
X163646657Y-96865328D01*
X163614496Y-96885423D01*
X163589117Y-96912895D01*
X163574223Y-96944344D01*
X163569116Y-96981166D01*
X163468149Y-96981166D01*
X163467999Y-96979701D01*
X163472690Y-96935160D01*
X163486285Y-96896114D01*
X163508804Y-96861351D01*
X163541223Y-96830127D01*
X163578959Y-96806082D01*
X163623055Y-96788283D01*
X163674666Y-96777015D01*
X163735201Y-96773023D01*
X163793108Y-96777126D01*
G37*
G36*
X159035702Y-114939958D02*
G01*
X159039673Y-115013961D01*
X159050682Y-115075140D01*
X159067646Y-115125503D01*
X159089877Y-115166783D01*
X159117133Y-115200370D01*
X159150834Y-115228768D01*
X159190189Y-115251364D01*
X159236064Y-115268181D01*
X159289587Y-115278851D01*
X159352094Y-115282631D01*
X159422134Y-115277875D01*
X159480424Y-115264586D01*
X159528959Y-115243797D01*
X159569347Y-115215905D01*
X159602715Y-115180646D01*
X159629621Y-115137116D01*
X159650005Y-115083845D01*
X159663193Y-115018897D01*
X159667949Y-114939958D01*
X159667949Y-114444780D01*
X159566344Y-114444780D01*
X159566344Y-114947872D01*
X159562245Y-115015316D01*
X159551195Y-115067438D01*
X159534635Y-115107257D01*
X159513343Y-115137258D01*
X159485111Y-115161417D01*
X159449923Y-115179374D01*
X159406254Y-115190919D01*
X159352094Y-115195094D01*
X159298774Y-115191024D01*
X159255391Y-115179727D01*
X159220084Y-115162096D01*
X159191431Y-115138332D01*
X159169663Y-115108748D01*
X159152763Y-115069363D01*
X159141491Y-115017674D01*
X159137307Y-114950607D01*
X159137307Y-114444780D01*
X159035702Y-114444780D01*
X159035702Y-114939958D01*
G37*
G36*
X158360175Y-115267000D02*
G01*
X158798445Y-115267000D01*
X158798445Y-115191968D01*
X158626840Y-115191968D01*
X158626840Y-114626106D01*
X158798445Y-114626106D01*
X158798445Y-114560454D01*
X158731239Y-114556163D01*
X158685157Y-114545874D01*
X158654732Y-114531584D01*
X158630628Y-114509631D01*
X158614400Y-114480352D01*
X158606079Y-114441654D01*
X158528459Y-114441654D01*
X158528459Y-115191968D01*
X158360175Y-115191968D01*
X158360175Y-115267000D01*
G37*
G36*
X170775677Y-111584000D02*
G01*
X170674023Y-111584000D01*
X170674023Y-111252611D01*
X170506277Y-111252611D01*
X170235216Y-111584000D01*
X170102397Y-111584000D01*
X170402962Y-111223741D01*
X170349784Y-111196494D01*
X170308469Y-111164713D01*
X170277213Y-111128426D01*
X170254884Y-111087125D01*
X170241105Y-111039820D01*
X170236631Y-110988975D01*
X170342879Y-110988975D01*
X170346343Y-111031812D01*
X170356024Y-111067061D01*
X170371279Y-111096148D01*
X170392069Y-111120133D01*
X170417546Y-111138140D01*
X170451549Y-111152186D01*
X170496264Y-111161582D01*
X170554344Y-111165074D01*
X170674023Y-111165074D01*
X170674023Y-110849317D01*
X170535782Y-110849317D01*
X170468936Y-110854445D01*
X170420525Y-110867980D01*
X170386137Y-110888023D01*
X170362538Y-110914039D01*
X170348059Y-110946953D01*
X170342879Y-110988975D01*
X170236631Y-110988975D01*
X170236291Y-110985116D01*
X170240935Y-110936305D01*
X170254296Y-110893847D01*
X170276142Y-110856474D01*
X170307073Y-110823330D01*
X170343491Y-110798840D01*
X170392534Y-110779578D01*
X170457494Y-110766615D01*
X170542327Y-110761780D01*
X170775677Y-110761780D01*
X170775677Y-111584000D01*
G37*
G36*
X170078510Y-111231362D02*
G01*
X170078510Y-111346400D01*
X169682299Y-111346400D01*
X169682299Y-111584000D01*
X169583967Y-111584000D01*
X169583967Y-111346400D01*
X169463165Y-111346400D01*
X169463165Y-111265116D01*
X169583967Y-111265116D01*
X169682299Y-111265116D01*
X170009683Y-111265116D01*
X169682299Y-110881508D01*
X169682299Y-111265116D01*
X169583967Y-111265116D01*
X169583967Y-110761780D01*
X169677952Y-110761780D01*
X170078510Y-111231362D01*
G37*
G36*
X169333716Y-111547852D02*
G01*
X169333716Y-111437063D01*
X169324972Y-111437063D01*
X169267429Y-111470683D01*
X169210377Y-111493906D01*
X169153271Y-111507566D01*
X169095482Y-111512094D01*
X169052031Y-111508812D01*
X169014861Y-111499505D01*
X168982905Y-111484661D01*
X168955335Y-111464321D01*
X168932725Y-111438755D01*
X168916392Y-111408730D01*
X168906186Y-111373357D01*
X168902579Y-111331404D01*
X168905869Y-111292034D01*
X168914970Y-111260471D01*
X168929188Y-111235152D01*
X168948496Y-111214949D01*
X168981402Y-111195781D01*
X169029256Y-111182632D01*
X169097142Y-111177579D01*
X169145209Y-111177579D01*
X169145209Y-111096295D01*
X169108036Y-111096295D01*
X169050062Y-111091589D01*
X169004679Y-111078721D01*
X168969257Y-111058877D01*
X168947273Y-111038282D01*
X168931784Y-111014372D01*
X168922275Y-110986495D01*
X168918943Y-110953609D01*
X168924034Y-110917519D01*
X168938559Y-110888532D01*
X168962955Y-110864900D01*
X168993816Y-110848380D01*
X169033410Y-110837626D01*
X169084002Y-110833685D01*
X169137945Y-110837951D01*
X169192235Y-110850923D01*
X169247477Y-110873158D01*
X169304212Y-110905591D01*
X169310220Y-110905591D01*
X169310220Y-110798026D01*
X169235236Y-110769061D01*
X169159157Y-110751880D01*
X169081218Y-110746149D01*
X169016646Y-110750002D01*
X168963507Y-110760684D01*
X168919908Y-110777186D01*
X168884260Y-110798954D01*
X168853552Y-110827929D01*
X168832110Y-110860775D01*
X168819079Y-110898273D01*
X168814553Y-110941690D01*
X168819672Y-110984015D01*
X168834911Y-111023028D01*
X168861008Y-111059806D01*
X168894585Y-111090241D01*
X168933074Y-111112121D01*
X168977415Y-111125849D01*
X168977415Y-111134300D01*
X168919453Y-111150162D01*
X168875211Y-111173210D01*
X168841988Y-111202875D01*
X168818093Y-111239652D01*
X168803049Y-111285032D01*
X168797652Y-111341320D01*
X168802984Y-111396179D01*
X168818429Y-111444595D01*
X168843876Y-111487902D01*
X168880157Y-111526993D01*
X168923250Y-111558115D01*
X168972262Y-111580677D01*
X169028289Y-111594716D01*
X169092746Y-111599631D01*
X169174366Y-111593917D01*
X169254448Y-111576768D01*
X169333716Y-111547852D01*
G37*
G36*
X166971631Y-115335610D02*
G01*
X166966688Y-115261384D01*
X166952590Y-115196635D01*
X166930070Y-115139925D01*
X166899346Y-115090077D01*
X166860110Y-115046231D01*
X166814253Y-115010138D01*
X166761123Y-114981369D01*
X166699624Y-114959956D01*
X166628366Y-114946391D01*
X166545720Y-114941597D01*
X166465027Y-114946390D01*
X166394703Y-114960021D01*
X166333283Y-114981672D01*
X166279524Y-115010947D01*
X166232454Y-115047891D01*
X166191967Y-115092562D01*
X166160438Y-115142793D01*
X166137458Y-115199371D01*
X166123147Y-115263389D01*
X166118149Y-115336196D01*
X166122457Y-115399885D01*
X166135699Y-115466062D01*
X166158575Y-115535344D01*
X166192057Y-115608331D01*
X166311980Y-115608331D01*
X166311980Y-115600662D01*
X166272316Y-115546557D01*
X166242619Y-115492830D01*
X166221969Y-115439097D01*
X166209752Y-115384885D01*
X166205685Y-115329650D01*
X166209554Y-115278069D01*
X166220672Y-115232559D01*
X166238638Y-115192123D01*
X166263513Y-115155978D01*
X166295811Y-115123607D01*
X166342460Y-115091857D01*
X166398417Y-115068185D01*
X166465503Y-115053058D01*
X166545965Y-115047647D01*
X166625757Y-115053135D01*
X166692374Y-115068497D01*
X166748042Y-115092582D01*
X166794555Y-115124975D01*
X166826730Y-115157877D01*
X166851466Y-115194297D01*
X166869287Y-115234724D01*
X166880280Y-115279889D01*
X166884094Y-115330725D01*
X166878627Y-115398839D01*
X166862454Y-115462958D01*
X166844983Y-115503238D01*
X166817467Y-115548830D01*
X166777800Y-115600662D01*
X166777800Y-115608331D01*
X166897235Y-115608331D01*
X166939978Y-115508258D01*
X166959126Y-115445177D01*
X166968621Y-115387671D01*
X166971631Y-115335610D01*
G37*
G36*
X166718400Y-116073565D02*
G01*
X166956000Y-116073565D01*
X166956000Y-116171897D01*
X166718400Y-116171897D01*
X166718400Y-116292700D01*
X166637116Y-116292700D01*
X166637116Y-116171897D01*
X166133780Y-116171897D01*
X166133780Y-116077912D01*
X166138876Y-116073565D01*
X166253508Y-116073565D01*
X166637116Y-116073565D01*
X166637116Y-115746182D01*
X166253508Y-116073565D01*
X166138876Y-116073565D01*
X166603362Y-115677354D01*
X166718400Y-115677354D01*
X166718400Y-116073565D01*
G37*
G36*
X170775677Y-108663000D02*
G01*
X170674023Y-108663000D01*
X170674023Y-108331611D01*
X170506277Y-108331611D01*
X170235216Y-108663000D01*
X170102397Y-108663000D01*
X170402962Y-108302741D01*
X170349784Y-108275494D01*
X170308469Y-108243713D01*
X170277213Y-108207426D01*
X170254884Y-108166125D01*
X170241105Y-108118820D01*
X170236631Y-108067975D01*
X170342879Y-108067975D01*
X170346343Y-108110812D01*
X170356024Y-108146061D01*
X170371279Y-108175148D01*
X170392069Y-108199133D01*
X170417546Y-108217140D01*
X170451549Y-108231186D01*
X170496264Y-108240582D01*
X170554344Y-108244074D01*
X170674023Y-108244074D01*
X170674023Y-107928317D01*
X170535782Y-107928317D01*
X170468936Y-107933445D01*
X170420525Y-107946980D01*
X170386137Y-107967023D01*
X170362538Y-107993039D01*
X170348059Y-108025953D01*
X170342879Y-108067975D01*
X170236631Y-108067975D01*
X170236291Y-108064116D01*
X170240935Y-108015305D01*
X170254296Y-107972847D01*
X170276142Y-107935474D01*
X170307073Y-107902330D01*
X170343491Y-107877840D01*
X170392534Y-107858578D01*
X170457494Y-107845615D01*
X170542327Y-107840780D01*
X170775677Y-107840780D01*
X170775677Y-108663000D01*
G37*
G36*
X170078510Y-108310362D02*
G01*
X170078510Y-108425400D01*
X169682299Y-108425400D01*
X169682299Y-108663000D01*
X169583967Y-108663000D01*
X169583967Y-108425400D01*
X169463165Y-108425400D01*
X169463165Y-108344116D01*
X169583967Y-108344116D01*
X169682299Y-108344116D01*
X170009683Y-108344116D01*
X169682299Y-107960508D01*
X169682299Y-108344116D01*
X169583967Y-108344116D01*
X169583967Y-107840780D01*
X169677952Y-107840780D01*
X170078510Y-108310362D01*
G37*
G36*
X168833165Y-108663000D02*
G01*
X169271434Y-108663000D01*
X169271434Y-108587968D01*
X169099829Y-108587968D01*
X169099829Y-108022106D01*
X169271434Y-108022106D01*
X169271434Y-107956454D01*
X169204229Y-107952163D01*
X169158146Y-107941874D01*
X169127722Y-107927584D01*
X169103618Y-107905631D01*
X169087389Y-107876352D01*
X169079068Y-107837654D01*
X169001448Y-107837654D01*
X169001448Y-108587968D01*
X168833165Y-108587968D01*
X168833165Y-108663000D01*
G37*
G36*
X157854876Y-116410000D02*
G01*
X157753222Y-116410000D01*
X157753222Y-116078611D01*
X157585476Y-116078611D01*
X157314415Y-116410000D01*
X157181596Y-116410000D01*
X157482161Y-116049741D01*
X157428983Y-116022494D01*
X157387668Y-115990713D01*
X157356412Y-115954426D01*
X157334083Y-115913125D01*
X157320304Y-115865820D01*
X157315830Y-115814975D01*
X157422078Y-115814975D01*
X157425542Y-115857812D01*
X157435223Y-115893061D01*
X157450478Y-115922148D01*
X157471268Y-115946133D01*
X157496745Y-115964140D01*
X157530748Y-115978186D01*
X157575463Y-115987582D01*
X157633543Y-115991074D01*
X157753222Y-115991074D01*
X157753222Y-115675317D01*
X157614981Y-115675317D01*
X157548135Y-115680445D01*
X157499724Y-115693980D01*
X157465336Y-115714023D01*
X157441737Y-115740039D01*
X157427258Y-115772953D01*
X157422078Y-115814975D01*
X157315830Y-115814975D01*
X157315490Y-115811116D01*
X157320134Y-115762305D01*
X157333495Y-115719847D01*
X157355341Y-115682474D01*
X157386272Y-115649330D01*
X157422690Y-115624840D01*
X157471733Y-115605578D01*
X157536693Y-115592615D01*
X157621526Y-115587780D01*
X157854876Y-115587780D01*
X157854876Y-116410000D01*
G37*
G36*
X156802415Y-115577679D02*
G01*
X156868991Y-115593420D01*
X156926856Y-115618570D01*
X156977346Y-115653000D01*
X157021373Y-115697250D01*
X157056692Y-115747915D01*
X157085152Y-115806962D01*
X157106508Y-115875670D01*
X157120111Y-115955583D01*
X157124932Y-116048471D01*
X157121243Y-116124554D01*
X157110909Y-116189144D01*
X157094830Y-116243834D01*
X157073627Y-116290029D01*
X157047605Y-116328911D01*
X157014490Y-116363472D01*
X156977011Y-116390129D01*
X156934573Y-116409438D01*
X156886264Y-116421437D01*
X156830912Y-116425631D01*
X156772120Y-116420459D01*
X156719767Y-116405473D01*
X156672625Y-116380899D01*
X156629803Y-116346203D01*
X156594586Y-116304004D01*
X156569560Y-116256909D01*
X156554227Y-116203939D01*
X156549237Y-116147438D01*
X156653299Y-116147438D01*
X156656628Y-116194148D01*
X156665946Y-116233043D01*
X156680570Y-116265477D01*
X156700291Y-116292519D01*
X156725419Y-116314782D01*
X156754765Y-116330823D01*
X156789166Y-116340821D01*
X156829789Y-116344347D01*
X156872967Y-116339732D01*
X156909972Y-116326467D01*
X156942144Y-116304644D01*
X156970277Y-116273321D01*
X156991105Y-116237160D01*
X157007000Y-116192653D01*
X157017339Y-116138129D01*
X157021080Y-116071625D01*
X157018882Y-116017306D01*
X156960593Y-115990192D01*
X156902763Y-115974396D01*
X156844590Y-115969190D01*
X156792603Y-115972988D01*
X156752270Y-115983295D01*
X156721200Y-115998980D01*
X156697556Y-116019651D01*
X156673350Y-116055513D01*
X156658505Y-116097554D01*
X156653299Y-116147438D01*
X156549237Y-116147438D01*
X156548909Y-116143726D01*
X156554086Y-116082601D01*
X156568632Y-116031830D01*
X156591732Y-115989452D01*
X156623501Y-115954047D01*
X156662468Y-115925779D01*
X156707092Y-115905230D01*
X156758424Y-115892407D01*
X156817821Y-115887906D01*
X156865427Y-115891380D01*
X156914485Y-115902035D01*
X156965494Y-115920423D01*
X157018930Y-115947355D01*
X157008376Y-115879892D01*
X156990452Y-115823203D01*
X156965850Y-115775613D01*
X156934764Y-115735792D01*
X156896364Y-115702979D01*
X156852233Y-115679418D01*
X156801251Y-115664809D01*
X156741861Y-115659685D01*
X156701529Y-115662279D01*
X156666060Y-115669697D01*
X156634736Y-115681570D01*
X156628191Y-115681570D01*
X156628191Y-115585191D01*
X156670026Y-115575704D01*
X156725448Y-115572149D01*
X156802415Y-115577679D01*
G37*
G36*
X150780702Y-105795958D02*
G01*
X150784673Y-105869961D01*
X150795682Y-105931140D01*
X150812646Y-105981503D01*
X150834877Y-106022783D01*
X150862133Y-106056370D01*
X150895834Y-106084768D01*
X150935189Y-106107364D01*
X150981064Y-106124181D01*
X151034587Y-106134851D01*
X151097094Y-106138631D01*
X151167134Y-106133875D01*
X151225424Y-106120586D01*
X151273959Y-106099797D01*
X151314347Y-106071905D01*
X151347715Y-106036646D01*
X151374621Y-105993116D01*
X151395005Y-105939845D01*
X151408193Y-105874897D01*
X151412949Y-105795958D01*
X151412949Y-105300780D01*
X151311344Y-105300780D01*
X151311344Y-105803872D01*
X151307245Y-105871316D01*
X151296195Y-105923438D01*
X151279635Y-105963257D01*
X151258343Y-105993258D01*
X151230111Y-106017417D01*
X151194923Y-106035374D01*
X151151254Y-106046919D01*
X151097094Y-106051094D01*
X151043774Y-106047024D01*
X151000391Y-106035727D01*
X150965084Y-106018096D01*
X150936431Y-105994332D01*
X150914663Y-105964748D01*
X150897763Y-105925363D01*
X150886491Y-105873674D01*
X150882307Y-105806607D01*
X150882307Y-105300780D01*
X150780702Y-105300780D01*
X150780702Y-105795958D01*
G37*
G36*
X150605727Y-106086852D02*
G01*
X150605727Y-105976063D01*
X150596983Y-105976063D01*
X150539439Y-106009683D01*
X150482387Y-106032906D01*
X150425281Y-106046566D01*
X150367492Y-106051094D01*
X150324042Y-106047812D01*
X150286872Y-106038505D01*
X150254916Y-106023661D01*
X150227346Y-106003321D01*
X150204735Y-105977755D01*
X150188403Y-105947730D01*
X150178196Y-105912357D01*
X150174589Y-105870404D01*
X150177879Y-105831034D01*
X150186980Y-105799471D01*
X150201199Y-105774152D01*
X150220507Y-105753949D01*
X150253412Y-105734781D01*
X150301266Y-105721632D01*
X150369153Y-105716579D01*
X150417220Y-105716579D01*
X150417220Y-105635295D01*
X150380046Y-105635295D01*
X150322073Y-105630589D01*
X150276689Y-105617721D01*
X150241267Y-105597877D01*
X150219283Y-105577282D01*
X150203794Y-105553372D01*
X150194285Y-105525495D01*
X150190953Y-105492609D01*
X150196044Y-105456519D01*
X150210570Y-105427532D01*
X150234966Y-105403900D01*
X150265827Y-105387380D01*
X150305420Y-105376626D01*
X150356013Y-105372685D01*
X150409955Y-105376951D01*
X150464246Y-105389923D01*
X150519487Y-105412158D01*
X150576222Y-105444591D01*
X150582230Y-105444591D01*
X150582230Y-105337026D01*
X150507246Y-105308061D01*
X150431168Y-105290880D01*
X150353228Y-105285149D01*
X150288657Y-105289002D01*
X150235517Y-105299684D01*
X150191918Y-105316186D01*
X150156271Y-105337954D01*
X150125563Y-105366929D01*
X150104121Y-105399775D01*
X150091089Y-105437273D01*
X150086564Y-105480690D01*
X150091682Y-105523015D01*
X150106922Y-105562028D01*
X150133019Y-105598806D01*
X150166596Y-105629241D01*
X150205084Y-105651121D01*
X150249425Y-105664849D01*
X150249425Y-105673300D01*
X150191463Y-105689162D01*
X150147222Y-105712210D01*
X150113999Y-105741875D01*
X150090104Y-105778652D01*
X150075059Y-105824032D01*
X150069662Y-105880320D01*
X150074994Y-105935179D01*
X150090440Y-105983595D01*
X150115887Y-106026902D01*
X150152168Y-106065993D01*
X150195261Y-106097115D01*
X150244273Y-106119677D01*
X150300300Y-106133716D01*
X150364757Y-106138631D01*
X150446377Y-106132917D01*
X150526458Y-106115768D01*
X150605727Y-106086852D01*
G37*
G36*
X168457876Y-111711000D02*
G01*
X168356222Y-111711000D01*
X168356222Y-111379611D01*
X168188476Y-111379611D01*
X167917415Y-111711000D01*
X167784596Y-111711000D01*
X168085161Y-111350741D01*
X168031983Y-111323494D01*
X167990668Y-111291713D01*
X167959412Y-111255426D01*
X167937083Y-111214125D01*
X167923304Y-111166820D01*
X167918830Y-111115975D01*
X168025078Y-111115975D01*
X168028542Y-111158812D01*
X168038223Y-111194061D01*
X168053478Y-111223148D01*
X168074268Y-111247133D01*
X168099745Y-111265140D01*
X168133748Y-111279186D01*
X168178463Y-111288582D01*
X168236543Y-111292074D01*
X168356222Y-111292074D01*
X168356222Y-110976317D01*
X168217981Y-110976317D01*
X168151135Y-110981445D01*
X168102724Y-110994980D01*
X168068336Y-111015023D01*
X168044737Y-111041039D01*
X168030258Y-111073953D01*
X168025078Y-111115975D01*
X167918830Y-111115975D01*
X167918490Y-111112116D01*
X167923134Y-111063305D01*
X167936495Y-111020847D01*
X167958341Y-110983474D01*
X167989272Y-110950330D01*
X168025690Y-110925840D01*
X168074733Y-110906578D01*
X168139693Y-110893615D01*
X168224526Y-110888780D01*
X168457876Y-110888780D01*
X168457876Y-111711000D01*
G37*
G36*
X167210967Y-111711000D02*
G01*
X167649237Y-111711000D01*
X167649237Y-111635968D01*
X167477632Y-111635968D01*
X167477632Y-111070106D01*
X167649237Y-111070106D01*
X167649237Y-111004454D01*
X167582031Y-111000163D01*
X167535949Y-110989874D01*
X167505524Y-110975584D01*
X167481420Y-110953631D01*
X167465192Y-110924352D01*
X167456871Y-110885654D01*
X167379251Y-110885654D01*
X167379251Y-111635968D01*
X167210967Y-111635968D01*
X167210967Y-111711000D01*
G37*
G36*
X165633315Y-104233631D02*
G01*
X165707541Y-104228688D01*
X165772290Y-104214590D01*
X165829000Y-104192070D01*
X165878848Y-104161346D01*
X165922694Y-104122110D01*
X165958787Y-104076253D01*
X165987556Y-104023123D01*
X166008969Y-103961624D01*
X166022534Y-103890366D01*
X166027328Y-103807720D01*
X166022535Y-103727027D01*
X166008904Y-103656703D01*
X165987253Y-103595283D01*
X165957978Y-103541524D01*
X165921034Y-103494454D01*
X165876363Y-103453967D01*
X165826132Y-103422438D01*
X165769554Y-103399458D01*
X165705536Y-103385147D01*
X165632729Y-103380149D01*
X165569040Y-103384457D01*
X165502863Y-103397699D01*
X165433581Y-103420575D01*
X165360594Y-103454057D01*
X165360594Y-103573980D01*
X165368263Y-103573980D01*
X165422368Y-103534316D01*
X165476095Y-103504619D01*
X165529828Y-103483969D01*
X165584040Y-103471752D01*
X165639275Y-103467685D01*
X165690856Y-103471554D01*
X165736366Y-103482672D01*
X165776802Y-103500638D01*
X165812947Y-103525513D01*
X165845318Y-103557811D01*
X165877068Y-103604460D01*
X165900740Y-103660417D01*
X165915867Y-103727503D01*
X165921278Y-103807965D01*
X165915790Y-103887757D01*
X165900428Y-103954374D01*
X165876343Y-104010042D01*
X165843950Y-104056555D01*
X165811048Y-104088730D01*
X165774628Y-104113466D01*
X165734201Y-104131287D01*
X165689036Y-104142280D01*
X165638200Y-104146094D01*
X165570086Y-104140627D01*
X165505967Y-104124454D01*
X165465687Y-104106983D01*
X165420095Y-104079467D01*
X165368263Y-104039800D01*
X165360594Y-104039800D01*
X165360594Y-104159235D01*
X165460667Y-104201978D01*
X165523748Y-104221126D01*
X165581254Y-104230621D01*
X165633315Y-104233631D01*
G37*
G36*
X164694837Y-104218000D02*
G01*
X165245702Y-104218000D01*
X165245702Y-104111852D01*
X165049233Y-103936974D01*
X164977878Y-103868151D01*
X164924929Y-103810150D01*
X164887202Y-103761510D01*
X164856858Y-103709119D01*
X164839695Y-103658980D01*
X164834153Y-103610030D01*
X164839422Y-103567383D01*
X164854298Y-103533148D01*
X164878703Y-103505348D01*
X164910410Y-103485136D01*
X164950050Y-103472312D01*
X164999749Y-103467685D01*
X165054293Y-103471980D01*
X165108795Y-103485000D01*
X165163857Y-103507243D01*
X165220008Y-103539591D01*
X165225479Y-103539591D01*
X165225479Y-103432759D01*
X165150464Y-103403356D01*
X165074570Y-103385948D01*
X164997014Y-103380149D01*
X164934498Y-103384407D01*
X164882023Y-103396351D01*
X164837919Y-103415115D01*
X164800838Y-103440379D01*
X164769743Y-103472901D01*
X164747635Y-103510377D01*
X164734002Y-103553794D01*
X164729226Y-103604608D01*
X164733840Y-103659173D01*
X164747544Y-103710903D01*
X164770501Y-103760057D01*
X164804648Y-103809528D01*
X164845963Y-103857529D01*
X164897558Y-103911426D01*
X164969600Y-103977971D01*
X165146197Y-104130463D01*
X164694837Y-104130463D01*
X164694837Y-104218000D01*
G37*
G36*
X168267117Y-103217631D02*
G01*
X168341343Y-103212688D01*
X168406092Y-103198590D01*
X168462802Y-103176070D01*
X168512650Y-103145346D01*
X168556496Y-103106110D01*
X168592589Y-103060253D01*
X168621358Y-103007123D01*
X168642771Y-102945624D01*
X168656336Y-102874366D01*
X168661130Y-102791720D01*
X168656337Y-102711027D01*
X168642706Y-102640703D01*
X168621055Y-102579283D01*
X168591780Y-102525524D01*
X168554836Y-102478454D01*
X168510165Y-102437967D01*
X168459934Y-102406438D01*
X168403356Y-102383458D01*
X168339338Y-102369147D01*
X168266531Y-102364149D01*
X168202842Y-102368457D01*
X168136665Y-102381699D01*
X168067383Y-102404575D01*
X167994396Y-102438057D01*
X167994396Y-102557980D01*
X168002065Y-102557980D01*
X168056170Y-102518316D01*
X168109897Y-102488619D01*
X168163630Y-102467969D01*
X168217842Y-102455752D01*
X168273077Y-102451685D01*
X168324658Y-102455554D01*
X168370168Y-102466672D01*
X168410604Y-102484638D01*
X168446749Y-102509513D01*
X168479120Y-102541811D01*
X168510870Y-102588460D01*
X168534542Y-102644417D01*
X168549669Y-102711503D01*
X168555080Y-102791965D01*
X168549592Y-102871757D01*
X168534230Y-102938374D01*
X168510145Y-102994042D01*
X168477752Y-103040555D01*
X168444850Y-103072730D01*
X168408430Y-103097466D01*
X168368003Y-103115287D01*
X168322838Y-103126280D01*
X168272002Y-103130094D01*
X168203888Y-103124627D01*
X168139769Y-103108454D01*
X168099489Y-103090983D01*
X168053897Y-103063467D01*
X168002065Y-103023800D01*
X167994396Y-103023800D01*
X167994396Y-103143235D01*
X168094469Y-103185978D01*
X168157550Y-103205126D01*
X168215056Y-103214621D01*
X168267117Y-103217631D01*
G37*
G36*
X167375631Y-103202000D02*
G01*
X167813900Y-103202000D01*
X167813900Y-103126968D01*
X167642295Y-103126968D01*
X167642295Y-102561106D01*
X167813900Y-102561106D01*
X167813900Y-102495454D01*
X167746695Y-102491163D01*
X167700613Y-102480874D01*
X167670188Y-102466584D01*
X167646084Y-102444631D01*
X167629856Y-102415352D01*
X167621535Y-102376654D01*
X167543914Y-102376654D01*
X167543914Y-103126968D01*
X167375631Y-103126968D01*
X167375631Y-103202000D01*
G37*
G36*
X166973122Y-102368757D02*
G01*
X167021893Y-102381789D01*
X167063412Y-102402563D01*
X167098862Y-102431106D01*
X167128946Y-102468147D01*
X167156147Y-102520306D01*
X167177693Y-102588888D01*
X167192165Y-102677774D01*
X167197529Y-102791427D01*
X167192178Y-102905161D01*
X167177752Y-102993960D01*
X167156297Y-103062339D01*
X167129239Y-103114219D01*
X167099285Y-103150988D01*
X167063889Y-103179362D01*
X167022331Y-103200042D01*
X166973409Y-103213033D01*
X166915526Y-103217631D01*
X166857924Y-103213032D01*
X166809192Y-103200031D01*
X166767749Y-103179317D01*
X166732403Y-103150872D01*
X166702449Y-103113974D01*
X166675374Y-103061956D01*
X166653902Y-102993398D01*
X166639465Y-102904371D01*
X166634110Y-102790353D01*
X166738499Y-102790353D01*
X166742072Y-102895108D01*
X166751391Y-102971422D01*
X166764613Y-103025280D01*
X166780314Y-103061902D01*
X166804447Y-103094474D01*
X166834188Y-103117272D01*
X166870575Y-103131346D01*
X166915526Y-103136347D01*
X166960505Y-103131349D01*
X166996965Y-103117278D01*
X167026812Y-103094478D01*
X167051081Y-103061902D01*
X167066894Y-103025263D01*
X167080192Y-102971530D01*
X167089553Y-102895553D01*
X167093140Y-102791427D01*
X167089540Y-102686353D01*
X167080159Y-102609941D01*
X167066860Y-102556129D01*
X167051081Y-102519634D01*
X167026828Y-102487180D01*
X166996988Y-102464452D01*
X166960523Y-102450419D01*
X166915526Y-102445433D01*
X166870365Y-102450521D01*
X166833878Y-102464838D01*
X166804109Y-102488054D01*
X166780020Y-102521295D01*
X166764332Y-102558562D01*
X166751206Y-102612484D01*
X166742009Y-102687904D01*
X166738499Y-102790353D01*
X166634110Y-102790353D01*
X166639476Y-102677653D01*
X166653976Y-102589226D01*
X166675609Y-102520728D01*
X166702986Y-102468392D01*
X166733187Y-102431189D01*
X166768636Y-102402566D01*
X166810009Y-102381771D01*
X166858460Y-102368748D01*
X166915526Y-102364149D01*
X166973122Y-102368757D01*
G37*
G36*
X157177000Y-95136976D02*
G01*
X156845611Y-95136976D01*
X156845611Y-95304722D01*
X157177000Y-95575783D01*
X157177000Y-95708602D01*
X156816741Y-95408037D01*
X156789494Y-95461215D01*
X156757713Y-95502530D01*
X156721426Y-95533786D01*
X156680125Y-95556115D01*
X156632820Y-95569894D01*
X156578116Y-95574708D01*
X156529305Y-95570064D01*
X156486847Y-95556703D01*
X156449474Y-95534857D01*
X156416330Y-95503926D01*
X156391840Y-95467508D01*
X156372578Y-95418465D01*
X156359615Y-95353505D01*
X156355153Y-95275217D01*
X156442317Y-95275217D01*
X156447445Y-95342063D01*
X156460980Y-95390474D01*
X156481023Y-95424862D01*
X156507039Y-95448461D01*
X156539953Y-95462940D01*
X156581975Y-95468120D01*
X156624812Y-95464656D01*
X156660061Y-95454975D01*
X156689148Y-95439720D01*
X156713133Y-95418930D01*
X156731140Y-95393453D01*
X156745186Y-95359450D01*
X156754582Y-95314735D01*
X156758074Y-95256655D01*
X156758074Y-95136976D01*
X156442317Y-95136976D01*
X156442317Y-95275217D01*
X156355153Y-95275217D01*
X156354780Y-95268672D01*
X156354780Y-95035322D01*
X157177000Y-95035322D01*
X157177000Y-95136976D01*
G37*
G36*
X157177000Y-96329223D02*
G01*
X157177000Y-95778358D01*
X157070852Y-95778358D01*
X156895974Y-95974827D01*
X156827151Y-96046182D01*
X156769150Y-96099130D01*
X156720510Y-96136857D01*
X156668119Y-96167202D01*
X156617980Y-96184365D01*
X156569030Y-96189907D01*
X156526383Y-96184638D01*
X156492148Y-96169762D01*
X156464348Y-96145357D01*
X156444136Y-96113649D01*
X156431312Y-96074010D01*
X156426685Y-96024310D01*
X156430980Y-95969767D01*
X156444000Y-95915264D01*
X156466243Y-95860203D01*
X156498591Y-95804052D01*
X156498591Y-95798581D01*
X156391759Y-95798581D01*
X156362356Y-95873595D01*
X156344948Y-95949490D01*
X156339149Y-96027046D01*
X156343407Y-96089562D01*
X156355351Y-96142037D01*
X156374115Y-96186141D01*
X156399379Y-96223222D01*
X156431901Y-96254317D01*
X156469377Y-96276425D01*
X156512794Y-96290058D01*
X156563608Y-96294834D01*
X156618173Y-96290220D01*
X156669903Y-96276515D01*
X156719057Y-96253559D01*
X156768528Y-96219411D01*
X156816529Y-96178096D01*
X156870426Y-96126501D01*
X156936971Y-96054460D01*
X157089463Y-95877862D01*
X157089463Y-96329223D01*
X157177000Y-96329223D01*
G37*
G36*
X156468011Y-97027025D02*
G01*
X157177000Y-96657583D01*
X157177000Y-96547771D01*
X156442317Y-96940709D01*
X156442317Y-96470151D01*
X156354780Y-96470151D01*
X156354780Y-97027025D01*
X156468011Y-97027025D01*
G37*
G36*
X156938631Y-111144610D02*
G01*
X156933688Y-111070384D01*
X156919590Y-111005635D01*
X156897070Y-110948925D01*
X156866346Y-110899077D01*
X156827110Y-110855231D01*
X156781253Y-110819138D01*
X156728123Y-110790369D01*
X156666624Y-110768956D01*
X156595366Y-110755391D01*
X156512720Y-110750597D01*
X156432027Y-110755390D01*
X156361703Y-110769021D01*
X156300283Y-110790672D01*
X156246524Y-110819947D01*
X156199454Y-110856891D01*
X156158967Y-110901562D01*
X156127438Y-110951793D01*
X156104458Y-111008371D01*
X156090147Y-111072389D01*
X156085149Y-111145196D01*
X156089457Y-111208885D01*
X156102699Y-111275062D01*
X156125575Y-111344344D01*
X156159057Y-111417331D01*
X156278980Y-111417331D01*
X156278980Y-111409662D01*
X156239316Y-111355557D01*
X156209619Y-111301830D01*
X156188969Y-111248097D01*
X156176752Y-111193885D01*
X156172685Y-111138650D01*
X156176554Y-111087069D01*
X156187672Y-111041559D01*
X156205638Y-111001123D01*
X156230513Y-110964978D01*
X156262811Y-110932607D01*
X156309460Y-110900857D01*
X156365417Y-110877185D01*
X156432503Y-110862058D01*
X156512965Y-110856647D01*
X156592757Y-110862135D01*
X156659374Y-110877497D01*
X156715042Y-110901582D01*
X156761555Y-110933975D01*
X156793730Y-110966877D01*
X156818466Y-111003297D01*
X156836287Y-111043724D01*
X156847280Y-111088889D01*
X156851094Y-111139725D01*
X156845627Y-111207839D01*
X156829454Y-111271958D01*
X156811983Y-111312238D01*
X156784467Y-111357830D01*
X156744800Y-111409662D01*
X156744800Y-111417331D01*
X156864235Y-111417331D01*
X156906978Y-111317258D01*
X156926126Y-111254177D01*
X156935621Y-111196671D01*
X156938631Y-111144610D01*
G37*
G36*
X156214011Y-112085286D02*
G01*
X156923000Y-111715845D01*
X156923000Y-111606033D01*
X156188317Y-111998971D01*
X156188317Y-111528413D01*
X156100780Y-111528413D01*
X156100780Y-112085286D01*
X156214011Y-112085286D01*
G37*
G36*
X157954631Y-111525610D02*
G01*
X157949688Y-111451384D01*
X157935590Y-111386635D01*
X157913070Y-111329925D01*
X157882346Y-111280077D01*
X157843110Y-111236231D01*
X157797253Y-111200138D01*
X157744123Y-111171369D01*
X157682624Y-111149956D01*
X157611366Y-111136391D01*
X157528720Y-111131597D01*
X157448027Y-111136390D01*
X157377703Y-111150021D01*
X157316283Y-111171672D01*
X157262524Y-111200947D01*
X157215454Y-111237891D01*
X157174967Y-111282562D01*
X157143438Y-111332793D01*
X157120458Y-111389371D01*
X157106147Y-111453389D01*
X157101149Y-111526196D01*
X157105457Y-111589885D01*
X157118699Y-111656062D01*
X157141575Y-111725344D01*
X157175057Y-111798331D01*
X157294980Y-111798331D01*
X157294980Y-111790662D01*
X157255316Y-111736557D01*
X157225619Y-111682830D01*
X157204969Y-111629097D01*
X157192752Y-111574885D01*
X157188685Y-111519650D01*
X157192554Y-111468069D01*
X157203672Y-111422559D01*
X157221638Y-111382123D01*
X157246513Y-111345978D01*
X157278811Y-111313607D01*
X157325460Y-111281857D01*
X157381417Y-111258185D01*
X157448503Y-111243058D01*
X157528965Y-111237647D01*
X157608757Y-111243135D01*
X157675374Y-111258497D01*
X157731042Y-111282582D01*
X157777555Y-111314975D01*
X157809730Y-111347877D01*
X157834466Y-111384297D01*
X157852287Y-111424724D01*
X157863280Y-111469889D01*
X157867094Y-111520725D01*
X157861627Y-111588839D01*
X157845454Y-111652958D01*
X157827983Y-111693238D01*
X157800467Y-111738830D01*
X157760800Y-111790662D01*
X157760800Y-111798331D01*
X157880235Y-111798331D01*
X157922978Y-111698258D01*
X157942126Y-111635177D01*
X157951621Y-111577671D01*
X157954631Y-111525610D01*
G37*
G36*
X157764368Y-111897059D02*
G01*
X157810472Y-111911859D01*
X157851200Y-111936130D01*
X157887464Y-111970620D01*
X157915873Y-112011513D01*
X157936775Y-112059295D01*
X157949963Y-112115255D01*
X157954631Y-112181011D01*
X157949961Y-112242351D01*
X157936538Y-112296462D01*
X157914828Y-112344547D01*
X157884729Y-112387543D01*
X157846888Y-112424180D01*
X157805637Y-112449593D01*
X157760187Y-112464864D01*
X157709314Y-112470097D01*
X157666998Y-112465880D01*
X157628997Y-112453564D01*
X157594337Y-112433079D01*
X157562373Y-112403602D01*
X157532849Y-112363635D01*
X157505908Y-112311095D01*
X157498874Y-112311095D01*
X157476241Y-112351686D01*
X157449024Y-112385008D01*
X157417053Y-112411918D01*
X157380711Y-112432337D01*
X157343494Y-112444283D01*
X157304701Y-112448261D01*
X157260160Y-112443571D01*
X157221114Y-112429976D01*
X157186351Y-112407457D01*
X157155127Y-112375037D01*
X157131082Y-112337301D01*
X157113283Y-112293206D01*
X157102015Y-112241595D01*
X157098023Y-112181060D01*
X157098065Y-112180473D01*
X157173054Y-112180473D01*
X157177621Y-112229838D01*
X157190328Y-112269604D01*
X157210423Y-112301764D01*
X157237895Y-112327144D01*
X157269344Y-112342038D01*
X157306166Y-112347145D01*
X157347684Y-112343125D01*
X157384933Y-112331405D01*
X157418835Y-112311973D01*
X157450015Y-112284145D01*
X157478748Y-112246614D01*
X157452289Y-112169717D01*
X157426987Y-112113525D01*
X157425497Y-112111060D01*
X157521149Y-112111060D01*
X157563729Y-112223242D01*
X157586899Y-112276363D01*
X157611196Y-112315116D01*
X157638727Y-112341674D01*
X157660266Y-112353676D01*
X157686907Y-112361334D01*
X157719914Y-112364095D01*
X157756381Y-112360784D01*
X157787397Y-112351362D01*
X157814012Y-112336159D01*
X157836955Y-112314905D01*
X157859915Y-112279829D01*
X157874396Y-112236329D01*
X157879600Y-112182134D01*
X157873899Y-112129756D01*
X157857629Y-112085732D01*
X157830995Y-112048240D01*
X157805032Y-112025444D01*
X157775654Y-112009224D01*
X157742181Y-111999252D01*
X157703647Y-111995777D01*
X157658682Y-112000377D01*
X157618874Y-112013746D01*
X157583086Y-112035913D01*
X157550592Y-112067783D01*
X157521149Y-112111060D01*
X157425497Y-112111060D01*
X157403033Y-112073886D01*
X157380523Y-112048273D01*
X157356155Y-112030874D01*
X157329478Y-112020579D01*
X157299669Y-112017075D01*
X157264031Y-112022207D01*
X157233949Y-112037152D01*
X157207981Y-112062700D01*
X157189122Y-112094803D01*
X157177275Y-112133516D01*
X157173054Y-112180473D01*
X157098065Y-112180473D01*
X157102126Y-112123152D01*
X157113845Y-112072619D01*
X157132630Y-112028291D01*
X157158399Y-111989231D01*
X157191323Y-111955663D01*
X157227320Y-111932476D01*
X157267094Y-111918573D01*
X157311784Y-111913809D01*
X157353639Y-111918662D01*
X157392072Y-111933060D01*
X157428125Y-111957587D01*
X157462411Y-111993859D01*
X157495064Y-112044381D01*
X157501561Y-112044381D01*
X157528165Y-111994853D01*
X157557825Y-111956754D01*
X157590474Y-111928304D01*
X157626445Y-111908285D01*
X157666448Y-111896121D01*
X157711512Y-111891925D01*
X157764368Y-111897059D01*
G37*
G36*
X162130000Y-90183976D02*
G01*
X161798611Y-90183976D01*
X161798611Y-90351722D01*
X162130000Y-90622783D01*
X162130000Y-90755602D01*
X161769741Y-90455037D01*
X161742494Y-90508215D01*
X161710713Y-90549530D01*
X161674426Y-90580786D01*
X161633125Y-90603115D01*
X161585820Y-90616894D01*
X161531116Y-90621708D01*
X161482305Y-90617064D01*
X161439847Y-90603703D01*
X161402474Y-90581857D01*
X161369330Y-90550926D01*
X161344840Y-90514508D01*
X161325578Y-90465465D01*
X161312615Y-90400505D01*
X161308153Y-90322217D01*
X161395317Y-90322217D01*
X161400445Y-90389063D01*
X161413980Y-90437474D01*
X161434023Y-90471862D01*
X161460039Y-90495461D01*
X161492953Y-90509940D01*
X161534975Y-90515120D01*
X161577812Y-90511656D01*
X161613061Y-90501975D01*
X161642148Y-90486720D01*
X161666133Y-90465930D01*
X161684140Y-90440453D01*
X161698186Y-90406450D01*
X161707582Y-90361735D01*
X161711074Y-90303655D01*
X161711074Y-90183976D01*
X161395317Y-90183976D01*
X161395317Y-90322217D01*
X161308153Y-90322217D01*
X161307780Y-90315672D01*
X161307780Y-90082322D01*
X162130000Y-90082322D01*
X162130000Y-90183976D01*
G37*
G36*
X162130000Y-91376223D02*
G01*
X162130000Y-90825358D01*
X162023852Y-90825358D01*
X161848974Y-91021827D01*
X161780151Y-91093182D01*
X161722150Y-91146130D01*
X161673510Y-91183857D01*
X161621119Y-91214202D01*
X161570980Y-91231365D01*
X161522030Y-91236907D01*
X161479383Y-91231638D01*
X161445148Y-91216762D01*
X161417348Y-91192357D01*
X161397136Y-91160649D01*
X161384312Y-91121010D01*
X161379685Y-91071310D01*
X161383980Y-91016767D01*
X161397000Y-90962264D01*
X161419243Y-90907203D01*
X161451591Y-90851052D01*
X161451591Y-90845581D01*
X161344759Y-90845581D01*
X161315356Y-90920595D01*
X161297948Y-90996490D01*
X161292149Y-91074046D01*
X161296407Y-91136562D01*
X161308351Y-91189037D01*
X161327115Y-91233141D01*
X161352379Y-91270222D01*
X161384901Y-91301317D01*
X161422377Y-91323425D01*
X161465794Y-91337058D01*
X161516608Y-91341834D01*
X161571173Y-91337220D01*
X161622903Y-91323515D01*
X161672057Y-91300559D01*
X161721528Y-91266411D01*
X161769529Y-91225096D01*
X161823426Y-91173501D01*
X161889971Y-91101460D01*
X162042463Y-90924862D01*
X162042463Y-91376223D01*
X162130000Y-91376223D01*
G37*
G36*
X162093852Y-91524283D02*
G01*
X161983063Y-91524283D01*
X161983063Y-91533027D01*
X162016683Y-91590570D01*
X162039906Y-91647622D01*
X162053566Y-91704728D01*
X162058094Y-91762517D01*
X162054812Y-91805968D01*
X162045505Y-91843138D01*
X162030661Y-91875094D01*
X162010321Y-91902664D01*
X161984755Y-91925274D01*
X161954730Y-91941607D01*
X161919357Y-91951813D01*
X161877404Y-91955420D01*
X161838034Y-91952130D01*
X161806471Y-91943029D01*
X161781152Y-91928811D01*
X161760949Y-91909503D01*
X161741781Y-91876597D01*
X161728632Y-91828743D01*
X161723579Y-91760857D01*
X161723579Y-91712790D01*
X161642295Y-91712790D01*
X161642295Y-91749963D01*
X161637589Y-91807937D01*
X161624721Y-91853320D01*
X161604877Y-91888742D01*
X161584282Y-91910726D01*
X161560372Y-91926215D01*
X161532495Y-91935724D01*
X161499609Y-91939056D01*
X161463519Y-91933965D01*
X161434532Y-91919440D01*
X161410900Y-91895044D01*
X161394380Y-91864183D01*
X161383626Y-91824589D01*
X161379685Y-91773997D01*
X161383951Y-91720054D01*
X161396923Y-91665764D01*
X161419158Y-91610522D01*
X161451591Y-91553787D01*
X161451591Y-91547779D01*
X161344026Y-91547779D01*
X161315061Y-91622763D01*
X161297880Y-91698842D01*
X161292149Y-91776781D01*
X161296002Y-91841353D01*
X161306684Y-91894492D01*
X161323186Y-91938091D01*
X161344954Y-91973739D01*
X161373929Y-92004447D01*
X161406775Y-92025889D01*
X161444273Y-92038920D01*
X161487690Y-92043446D01*
X161530015Y-92038327D01*
X161569028Y-92023088D01*
X161605806Y-91996991D01*
X161636241Y-91963414D01*
X161658121Y-91924925D01*
X161671849Y-91880584D01*
X161680300Y-91880584D01*
X161696162Y-91938546D01*
X161719210Y-91982788D01*
X161748875Y-92016011D01*
X161785652Y-92039906D01*
X161831032Y-92054950D01*
X161887320Y-92060347D01*
X161942179Y-92055015D01*
X161990595Y-92039570D01*
X162033902Y-92014123D01*
X162072993Y-91977842D01*
X162104115Y-91934749D01*
X162126677Y-91885737D01*
X162140716Y-91829710D01*
X162145631Y-91765253D01*
X162139917Y-91683633D01*
X162122768Y-91603551D01*
X162093852Y-91524283D01*
G37*
G36*
X166971631Y-117830684D02*
G01*
X166966688Y-117756458D01*
X166952590Y-117691709D01*
X166930070Y-117634999D01*
X166899346Y-117585151D01*
X166860110Y-117541305D01*
X166814253Y-117505212D01*
X166761123Y-117476443D01*
X166699624Y-117455030D01*
X166628366Y-117441465D01*
X166545720Y-117436671D01*
X166465027Y-117441464D01*
X166394703Y-117455095D01*
X166333283Y-117476746D01*
X166279524Y-117506021D01*
X166232454Y-117542965D01*
X166191967Y-117587636D01*
X166160438Y-117637867D01*
X166137458Y-117694445D01*
X166123147Y-117758463D01*
X166118149Y-117831270D01*
X166122457Y-117894959D01*
X166135699Y-117961136D01*
X166158575Y-118030418D01*
X166192057Y-118103405D01*
X166311980Y-118103405D01*
X166311980Y-118095736D01*
X166272316Y-118041631D01*
X166242619Y-117987904D01*
X166221969Y-117934171D01*
X166209752Y-117879959D01*
X166205685Y-117824724D01*
X166209554Y-117773143D01*
X166220672Y-117727633D01*
X166238638Y-117687197D01*
X166263513Y-117651052D01*
X166295811Y-117618681D01*
X166342460Y-117586931D01*
X166398417Y-117563259D01*
X166465503Y-117548132D01*
X166545965Y-117542721D01*
X166625757Y-117548209D01*
X166692374Y-117563571D01*
X166748042Y-117587656D01*
X166794555Y-117620049D01*
X166826730Y-117652951D01*
X166851466Y-117689371D01*
X166869287Y-117729798D01*
X166880280Y-117774963D01*
X166884094Y-117825799D01*
X166878627Y-117893913D01*
X166862454Y-117958032D01*
X166844983Y-117998312D01*
X166817467Y-118043904D01*
X166777800Y-118095736D01*
X166777800Y-118103405D01*
X166897235Y-118103405D01*
X166939978Y-118003332D01*
X166959126Y-117940251D01*
X166968621Y-117882745D01*
X166971631Y-117830684D01*
G37*
G36*
X166919852Y-118221619D02*
G01*
X166809063Y-118221619D01*
X166809063Y-118230363D01*
X166842683Y-118287906D01*
X166865906Y-118344958D01*
X166879566Y-118402064D01*
X166884094Y-118459853D01*
X166880812Y-118503304D01*
X166871505Y-118540473D01*
X166856661Y-118572429D01*
X166836321Y-118600000D01*
X166810755Y-118622610D01*
X166780730Y-118638943D01*
X166745357Y-118649149D01*
X166703404Y-118652756D01*
X166664034Y-118649466D01*
X166632471Y-118640365D01*
X166607152Y-118626146D01*
X166586949Y-118606838D01*
X166567781Y-118573933D01*
X166554632Y-118526079D01*
X166549579Y-118458192D01*
X166549579Y-118410125D01*
X166468295Y-118410125D01*
X166468295Y-118447299D01*
X166463589Y-118505272D01*
X166450721Y-118550656D01*
X166430877Y-118586078D01*
X166410282Y-118608062D01*
X166386372Y-118623551D01*
X166358495Y-118633060D01*
X166325609Y-118636392D01*
X166289519Y-118631301D01*
X166260532Y-118616775D01*
X166236900Y-118592379D01*
X166220380Y-118561518D01*
X166209626Y-118521925D01*
X166205685Y-118471333D01*
X166209951Y-118417390D01*
X166222923Y-118363100D01*
X166245158Y-118307858D01*
X166277591Y-118251123D01*
X166277591Y-118245115D01*
X166170026Y-118245115D01*
X166141061Y-118320099D01*
X166123880Y-118396177D01*
X166118149Y-118474117D01*
X166122002Y-118538688D01*
X166132684Y-118591828D01*
X166149186Y-118635427D01*
X166170954Y-118671074D01*
X166199929Y-118701783D01*
X166232775Y-118723225D01*
X166270273Y-118736256D01*
X166313690Y-118740781D01*
X166356015Y-118735663D01*
X166395028Y-118720424D01*
X166431806Y-118694326D01*
X166462241Y-118660750D01*
X166484121Y-118622261D01*
X166497849Y-118577920D01*
X166506300Y-118577920D01*
X166522162Y-118635882D01*
X166545210Y-118680123D01*
X166574875Y-118713347D01*
X166611652Y-118737241D01*
X166657032Y-118752286D01*
X166713320Y-118757683D01*
X166768179Y-118752351D01*
X166816595Y-118736906D01*
X166859902Y-118711458D01*
X166898993Y-118675178D01*
X166930115Y-118632084D01*
X166952677Y-118583073D01*
X166966716Y-118527046D01*
X166971631Y-118462589D01*
X166965917Y-118380969D01*
X166948768Y-118300887D01*
X166919852Y-118221619D01*
G37*
G36*
X158273702Y-99826958D02*
G01*
X158277673Y-99900961D01*
X158288682Y-99962140D01*
X158305646Y-100012503D01*
X158327877Y-100053783D01*
X158355133Y-100087370D01*
X158388834Y-100115768D01*
X158428189Y-100138364D01*
X158474064Y-100155181D01*
X158527587Y-100165851D01*
X158590094Y-100169631D01*
X158660134Y-100164875D01*
X158718424Y-100151586D01*
X158766959Y-100130797D01*
X158807347Y-100102905D01*
X158840715Y-100067646D01*
X158867621Y-100024116D01*
X158888005Y-99970845D01*
X158901193Y-99905897D01*
X158905949Y-99826958D01*
X158905949Y-99331780D01*
X158804344Y-99331780D01*
X158804344Y-99834872D01*
X158800245Y-99902316D01*
X158789195Y-99954438D01*
X158772635Y-99994257D01*
X158751343Y-100024258D01*
X158723111Y-100048417D01*
X158687923Y-100066374D01*
X158644254Y-100077919D01*
X158590094Y-100082094D01*
X158536774Y-100078024D01*
X158493391Y-100066727D01*
X158458084Y-100049096D01*
X158429431Y-100025332D01*
X158407663Y-99995748D01*
X158390763Y-99956363D01*
X158379491Y-99904674D01*
X158375307Y-99837607D01*
X158375307Y-99331780D01*
X158273702Y-99331780D01*
X158273702Y-99826958D01*
G37*
G36*
X157551183Y-100154000D02*
G01*
X158102048Y-100154000D01*
X158102048Y-100047852D01*
X157905579Y-99872974D01*
X157834224Y-99804151D01*
X157781276Y-99746150D01*
X157743549Y-99697510D01*
X157713204Y-99645119D01*
X157696041Y-99594980D01*
X157690499Y-99546030D01*
X157695768Y-99503383D01*
X157710644Y-99469148D01*
X157735049Y-99441348D01*
X157766757Y-99421136D01*
X157806396Y-99408312D01*
X157856096Y-99403685D01*
X157910639Y-99407980D01*
X157965142Y-99421000D01*
X158020203Y-99443243D01*
X158076354Y-99475591D01*
X158081825Y-99475591D01*
X158081825Y-99368759D01*
X158006810Y-99339356D01*
X157930916Y-99321948D01*
X157853360Y-99316149D01*
X157790844Y-99320407D01*
X157738369Y-99332351D01*
X157694265Y-99351115D01*
X157657184Y-99376379D01*
X157626089Y-99408901D01*
X157603981Y-99446377D01*
X157590348Y-99489794D01*
X157585572Y-99540608D01*
X157590186Y-99595173D01*
X157603891Y-99646903D01*
X157626847Y-99696057D01*
X157660995Y-99745528D01*
X157702310Y-99793529D01*
X157753905Y-99847426D01*
X157825946Y-99913971D01*
X158002544Y-100066463D01*
X157551183Y-100066463D01*
X157551183Y-100154000D01*
G37*
G36*
X156176631Y-108846882D02*
G01*
X156171688Y-108772656D01*
X156157590Y-108707907D01*
X156135070Y-108651197D01*
X156104346Y-108601349D01*
X156065110Y-108557503D01*
X156019253Y-108521410D01*
X155966123Y-108492641D01*
X155904624Y-108471228D01*
X155833366Y-108457663D01*
X155750720Y-108452869D01*
X155670027Y-108457662D01*
X155599703Y-108471293D01*
X155538283Y-108492944D01*
X155484524Y-108522219D01*
X155437454Y-108559163D01*
X155396967Y-108603834D01*
X155365438Y-108654065D01*
X155342458Y-108710643D01*
X155328147Y-108774661D01*
X155323149Y-108847468D01*
X155327457Y-108911157D01*
X155340699Y-108977334D01*
X155363575Y-109046616D01*
X155397057Y-109119603D01*
X155516980Y-109119603D01*
X155516980Y-109111934D01*
X155477316Y-109057829D01*
X155447619Y-109004102D01*
X155426969Y-108950369D01*
X155414752Y-108896157D01*
X155410685Y-108840922D01*
X155414554Y-108789341D01*
X155425672Y-108743831D01*
X155443638Y-108703395D01*
X155468513Y-108667250D01*
X155500811Y-108634879D01*
X155547460Y-108603129D01*
X155603417Y-108579457D01*
X155670503Y-108564330D01*
X155750965Y-108558919D01*
X155830757Y-108564407D01*
X155897374Y-108579769D01*
X155953042Y-108603854D01*
X155999555Y-108636247D01*
X156031730Y-108669149D01*
X156056466Y-108705569D01*
X156074287Y-108745996D01*
X156085280Y-108791161D01*
X156089094Y-108841997D01*
X156083627Y-108910111D01*
X156067454Y-108974230D01*
X156049983Y-109014510D01*
X156022467Y-109060102D01*
X155982800Y-109111934D01*
X155982800Y-109119603D01*
X156102235Y-109119603D01*
X156144978Y-109019530D01*
X156164126Y-108956449D01*
X156173621Y-108898943D01*
X156176631Y-108846882D01*
G37*
G36*
X156161000Y-109738368D02*
G01*
X156161000Y-109300099D01*
X156085968Y-109300099D01*
X156085968Y-109471704D01*
X155520106Y-109471704D01*
X155520106Y-109300099D01*
X155454454Y-109300099D01*
X155450163Y-109367304D01*
X155439874Y-109413386D01*
X155425584Y-109443811D01*
X155403631Y-109467915D01*
X155374352Y-109484143D01*
X155335654Y-109492464D01*
X155335654Y-109570085D01*
X156085968Y-109570085D01*
X156085968Y-109738368D01*
X156161000Y-109738368D01*
G37*
G36*
X155452011Y-110483162D02*
G01*
X156161000Y-110113720D01*
X156161000Y-110003909D01*
X155426317Y-110396847D01*
X155426317Y-109926288D01*
X155338780Y-109926288D01*
X155338780Y-110483162D01*
X155452011Y-110483162D01*
G37*
D12*
%TO.C,R5*%
X156084000Y-113130359D02*
X156084000Y-113437641D01*
X156844000Y-113130359D02*
X156844000Y-113437641D01*
%TO.C,C14*%
X160295000Y-98278836D02*
X160295000Y-98063164D01*
X161015000Y-98278836D02*
X161015000Y-98063164D01*
%TO.C,R37*%
X154941000Y-86767641D02*
X154941000Y-86460359D01*
X155701000Y-86767641D02*
X155701000Y-86460359D01*
%TO.C,R9*%
X165454359Y-101347000D02*
X165761641Y-101347000D01*
X165454359Y-102107000D02*
X165761641Y-102107000D01*
%TO.C,R40*%
X168047641Y-107824000D02*
X167740359Y-107824000D01*
X168047641Y-108584000D02*
X167740359Y-108584000D01*
%TO.C,Y1*%
X162378000Y-116717926D02*
X164778000Y-116717926D01*
X164778000Y-116717926D02*
X164778000Y-119517926D01*
%TO.C,C16*%
X152507836Y-105304000D02*
X152292164Y-105304000D01*
X152507836Y-106024000D02*
X152292164Y-106024000D01*
%TO.C,R31*%
X154433000Y-107341641D02*
X154433000Y-107034359D01*
X155193000Y-107341641D02*
X155193000Y-107034359D01*
%TO.C,C9*%
X157239580Y-101598000D02*
X156958420Y-101598000D01*
X157239580Y-102618000D02*
X156958420Y-102618000D01*
%TO.C,D7*%
X168189000Y-87161000D02*
X170849000Y-87161000D01*
X168189000Y-88861000D02*
X168189000Y-87161000D01*
X168189000Y-88861000D02*
X170849000Y-88861000D01*
%TO.C,U6*%
X176022000Y-109692000D02*
X175222000Y-109692000D01*
X176022000Y-109692000D02*
X176822000Y-109692000D01*
X176022000Y-112812000D02*
X175222000Y-112812000D01*
X176022000Y-112812000D02*
X176822000Y-112812000D01*
X174962000Y-113092000D02*
X174482000Y-113092000D01*
X174722000Y-112762000D01*
X174962000Y-113092000D01*
G36*
X174962000Y-113092000D02*
G01*
X174482000Y-113092000D01*
X174722000Y-112762000D01*
X174962000Y-113092000D01*
G37*
%TO.C,R30*%
X163831000Y-105182641D02*
X163831000Y-104875359D01*
X164591000Y-105182641D02*
X164591000Y-104875359D01*
%TO.C,R32*%
X153008359Y-110872000D02*
X153315641Y-110872000D01*
X153008359Y-111632000D02*
X153315641Y-111632000D01*
%TO.C,R4*%
X169645359Y-113158000D02*
X169952641Y-113158000D01*
X169645359Y-113918000D02*
X169952641Y-113918000D01*
%TO.C,C13*%
X157400164Y-100224000D02*
X157615836Y-100224000D01*
X157400164Y-100944000D02*
X157615836Y-100944000D01*
%TO.C,D9*%
X157775000Y-87161000D02*
X160435000Y-87161000D01*
X157775000Y-88861000D02*
X157775000Y-87161000D01*
X157775000Y-88861000D02*
X160435000Y-88861000D01*
%TO.C,C11*%
X157587836Y-103272000D02*
X157372164Y-103272000D01*
X157587836Y-103992000D02*
X157372164Y-103992000D01*
%TO.C,R7*%
X162496000Y-115768567D02*
X162496000Y-115461285D01*
X163256000Y-115768567D02*
X163256000Y-115461285D01*
%TO.C,R22*%
X156322500Y-87740258D02*
X156322500Y-87265742D01*
X157367500Y-87740258D02*
X157367500Y-87265742D01*
%TO.C,R13*%
X156211000Y-107849641D02*
X156211000Y-107542359D01*
X156971000Y-107849641D02*
X156971000Y-107542359D01*
%TO.C,R21*%
X155941500Y-93836258D02*
X155941500Y-93361742D01*
X156986500Y-93836258D02*
X156986500Y-93361742D01*
%TO.C,C6*%
X167721164Y-113178000D02*
X167936836Y-113178000D01*
X167721164Y-113898000D02*
X167936836Y-113898000D01*
%TO.C,D8*%
X162982000Y-87161000D02*
X165642000Y-87161000D01*
X162982000Y-88861000D02*
X162982000Y-87161000D01*
X162982000Y-88861000D02*
X165642000Y-88861000D01*
%TO.C,R33*%
X154052000Y-113437641D02*
X154052000Y-113130359D01*
X154812000Y-113437641D02*
X154812000Y-113130359D01*
%TO.C,R25*%
X166609500Y-93836258D02*
X166609500Y-93361742D01*
X167654500Y-93836258D02*
X167654500Y-93361742D01*
%TO.C,R8*%
X161164000Y-116231641D02*
X161164000Y-115924359D01*
X161924000Y-116231641D02*
X161924000Y-115924359D01*
%TO.C,R42*%
X167031641Y-105411000D02*
X166724359Y-105411000D01*
X167031641Y-106171000D02*
X166724359Y-106171000D01*
%TO.C,C12*%
X158642164Y-104669000D02*
X158857836Y-104669000D01*
X158642164Y-105389000D02*
X158857836Y-105389000D01*
%TO.C,R44*%
X151283641Y-110872000D02*
X150976359Y-110872000D01*
X151283641Y-111632000D02*
X150976359Y-111632000D01*
%TO.C,R29*%
X168089000Y-90786936D02*
X168089000Y-95141064D01*
X171509000Y-90786936D02*
X171509000Y-95141064D01*
%TO.C,R2*%
X169952641Y-111888000D02*
X169645359Y-111888000D01*
X169952641Y-112648000D02*
X169645359Y-112648000D01*
%TO.C,C15*%
X162327000Y-98532836D02*
X162327000Y-98317164D01*
X163047000Y-98532836D02*
X163047000Y-98317164D01*
%TO.C,C5*%
X161184000Y-118262762D02*
X161184000Y-118047090D01*
X161904000Y-118262762D02*
X161904000Y-118047090D01*
%TO.C,R28*%
X162755000Y-90786936D02*
X162755000Y-95141064D01*
X166175000Y-90786936D02*
X166175000Y-95141064D01*
%TO.C,D6*%
X159332000Y-97171000D02*
X155322000Y-97171000D01*
X159332000Y-97171000D02*
X159332000Y-99171000D01*
X159332000Y-99171000D02*
X155322000Y-99171000D01*
%TO.C,R26*%
X166736500Y-87740258D02*
X166736500Y-87265742D01*
X167781500Y-87740258D02*
X167781500Y-87265742D01*
%TO.C,U1*%
X158885000Y-106670926D02*
X159360000Y-106670926D01*
X158885000Y-107145926D02*
X158885000Y-106670926D01*
X158885000Y-113415926D02*
X158885000Y-113890926D01*
X158885000Y-113890926D02*
X159360000Y-113890926D01*
X165630000Y-113890926D02*
X165865000Y-113890926D01*
X166105000Y-106670926D02*
X165630000Y-106670926D01*
X166105000Y-107145926D02*
X166105000Y-106670926D01*
X166105000Y-113415926D02*
X166105000Y-113590926D01*
X166435000Y-114130926D02*
X166105000Y-113890926D01*
X166435000Y-113650926D01*
X166435000Y-114130926D01*
G36*
X166435000Y-114130926D02*
G01*
X166105000Y-113890926D01*
X166435000Y-113650926D01*
X166435000Y-114130926D01*
G37*
%TO.C,R24*%
X161529500Y-87740258D02*
X161529500Y-87265742D01*
X162574500Y-87740258D02*
X162574500Y-87265742D01*
%TO.C,R43*%
X169952641Y-109856000D02*
X169645359Y-109856000D01*
X169952641Y-110616000D02*
X169645359Y-110616000D01*
%TO.C,C4*%
X165183000Y-115507090D02*
X165183000Y-115722762D01*
X165903000Y-115507090D02*
X165903000Y-115722762D01*
%TO.C,R41*%
X169952641Y-108840000D02*
X169645359Y-108840000D01*
X169952641Y-109600000D02*
X169645359Y-109600000D01*
%TO.C,R6*%
X157072359Y-114682000D02*
X157379641Y-114682000D01*
X157072359Y-115442000D02*
X157379641Y-115442000D01*
%TO.C,U3*%
X150825000Y-106884000D02*
X150825000Y-109884000D01*
X154045000Y-106884000D02*
X154045000Y-109884000D01*
X151125000Y-106344000D02*
X150645000Y-106344000D01*
X151125000Y-105864000D01*
X151125000Y-106344000D01*
G36*
X151125000Y-106344000D02*
G01*
X150645000Y-106344000D01*
X151125000Y-105864000D01*
X151125000Y-106344000D01*
G37*
%TO.C,R1*%
X167982641Y-111888000D02*
X167675359Y-111888000D01*
X167982641Y-112648000D02*
X167675359Y-112648000D01*
%TO.C,C2*%
X164867000Y-105136836D02*
X164867000Y-104921164D01*
X165587000Y-105136836D02*
X165587000Y-104921164D01*
%TO.C,C10*%
X165500164Y-102510000D02*
X165715836Y-102510000D01*
X165500164Y-103230000D02*
X165715836Y-103230000D01*
%TO.C,R27*%
X157421000Y-90786936D02*
X157421000Y-95141064D01*
X160841000Y-90786936D02*
X160841000Y-95141064D01*
%TO.C,C7*%
X156231000Y-109665090D02*
X156231000Y-109880762D01*
X156951000Y-109665090D02*
X156951000Y-109880762D01*
%TO.C,C8*%
X157247000Y-109665090D02*
X157247000Y-109880762D01*
X157967000Y-109665090D02*
X157967000Y-109880762D01*
%TO.C,R23*%
X161275500Y-93836258D02*
X161275500Y-93361742D01*
X162320500Y-93836258D02*
X162320500Y-93361742D01*
%TO.C,C3*%
X165183000Y-118047090D02*
X165183000Y-118262762D01*
X165903000Y-118047090D02*
X165903000Y-118262762D01*
%TO.C,U2*%
X159249500Y-100036000D02*
X159249500Y-100586000D01*
X159249500Y-103706000D02*
X159249500Y-104016000D01*
X159799500Y-100036000D02*
X159249500Y-100036000D01*
X159799500Y-104256000D02*
X159549500Y-104256000D01*
X162919500Y-100036000D02*
X163469500Y-100036000D01*
X162919500Y-104256000D02*
X163469500Y-104256000D01*
X163469500Y-100036000D02*
X163469500Y-100586000D01*
X163469500Y-104256000D02*
X163469500Y-103706000D01*
X159489500Y-104586000D02*
X159009500Y-104586000D01*
X159249500Y-104256000D01*
X159489500Y-104586000D01*
G36*
X159489500Y-104586000D02*
G01*
X159009500Y-104586000D01*
X159249500Y-104256000D01*
X159489500Y-104586000D01*
G37*
%TO.C,C17*%
X154453000Y-109581836D02*
X154453000Y-109366164D01*
X155173000Y-109581836D02*
X155173000Y-109366164D01*
%TD*%
%LPC*%
D13*
%TO.C,SW2*%
X173714000Y-100330000D03*
X175514000Y-100330000D03*
%TD*%
D14*
%TO.C,J1*%
X153146000Y-117094000D03*
X151146000Y-117094000D03*
%TD*%
D15*
%TO.C,H2*%
X180000000Y-84000000D03*
%TD*%
%TO.C,H3*%
X180000000Y-117000000D03*
%TD*%
D13*
%TO.C,SW1*%
X168910000Y-105526000D03*
X168910000Y-107326000D03*
%TD*%
D14*
%TO.C,J3*%
X153146000Y-115046000D03*
X151146000Y-115046000D03*
X153146000Y-113046000D03*
X151146000Y-113046000D03*
%TD*%
D16*
%TO.C,J6*%
X181913000Y-112497000D03*
D17*
X180213000Y-110997000D03*
D18*
X180213000Y-108997000D03*
X180213000Y-106997000D03*
X180213000Y-104997000D03*
X180213000Y-102997000D03*
X180213000Y-100997000D03*
X180213000Y-98997000D03*
%TD*%
D19*
%TO.C,R5*%
X156464000Y-112774000D03*
X156464000Y-113794000D03*
%TD*%
D20*
%TO.C,C14*%
X160655000Y-98651000D03*
X160655000Y-97691000D03*
%TD*%
D21*
%TO.C,J7*%
X168418000Y-118999000D03*
X170418000Y-118999000D03*
X168418000Y-116999000D03*
X170418000Y-116999000D03*
X168418000Y-114999000D03*
X170418000Y-114999000D03*
%TD*%
D22*
%TO.C,R37*%
X155321000Y-87124000D03*
X155321000Y-86104000D03*
%TD*%
D23*
%TO.C,R9*%
X165098000Y-101727000D03*
X166118000Y-101727000D03*
%TD*%
D24*
%TO.C,R40*%
X168404000Y-108204000D03*
X167384000Y-108204000D03*
%TD*%
D25*
%TO.C,Y1*%
X164153000Y-117392926D03*
X164153000Y-118842926D03*
X163003000Y-118842926D03*
X163003000Y-117392926D03*
%TD*%
D26*
%TO.C,C16*%
X152880000Y-105664000D03*
X151920000Y-105664000D03*
%TD*%
D22*
%TO.C,R31*%
X154813000Y-107698000D03*
X154813000Y-106678000D03*
%TD*%
D27*
%TO.C,C9*%
X157874000Y-102108000D03*
X156324000Y-102108000D03*
%TD*%
D28*
%TO.C,D7*%
X168749000Y-88011000D03*
X170849000Y-88011000D03*
%TD*%
D29*
%TO.C,U6*%
X174884500Y-112202000D03*
X174884500Y-110302000D03*
X177159500Y-111252000D03*
%TD*%
D22*
%TO.C,R30*%
X164211000Y-105539000D03*
X164211000Y-104519000D03*
%TD*%
D23*
%TO.C,R32*%
X152652000Y-111252000D03*
X153672000Y-111252000D03*
%TD*%
%TO.C,R4*%
X169289000Y-113538000D03*
X170309000Y-113538000D03*
%TD*%
D30*
%TO.C,C13*%
X157028000Y-100584000D03*
X157988000Y-100584000D03*
%TD*%
D28*
%TO.C,D9*%
X158335000Y-88011000D03*
X160435000Y-88011000D03*
%TD*%
D26*
%TO.C,C11*%
X157960000Y-103632000D03*
X157000000Y-103632000D03*
%TD*%
D22*
%TO.C,R7*%
X162876000Y-116124926D03*
X162876000Y-115104926D03*
%TD*%
D31*
%TO.C,R22*%
X156845000Y-88328000D03*
X156845000Y-86678000D03*
%TD*%
D22*
%TO.C,R13*%
X156591000Y-108206000D03*
X156591000Y-107186000D03*
%TD*%
D31*
%TO.C,R21*%
X156464000Y-94424000D03*
X156464000Y-92774000D03*
%TD*%
D30*
%TO.C,C6*%
X167349000Y-113538000D03*
X168309000Y-113538000D03*
%TD*%
D28*
%TO.C,D8*%
X163542000Y-88011000D03*
X165642000Y-88011000D03*
%TD*%
D22*
%TO.C,R33*%
X154432000Y-113794000D03*
X154432000Y-112774000D03*
%TD*%
D31*
%TO.C,R25*%
X167132000Y-94424000D03*
X167132000Y-92774000D03*
%TD*%
D22*
%TO.C,R8*%
X161544000Y-116588000D03*
X161544000Y-115568000D03*
%TD*%
D24*
%TO.C,R42*%
X167388000Y-105791000D03*
X166368000Y-105791000D03*
%TD*%
D30*
%TO.C,C12*%
X158270000Y-105029000D03*
X159230000Y-105029000D03*
%TD*%
D24*
%TO.C,R44*%
X151640000Y-111252000D03*
X150620000Y-111252000D03*
%TD*%
D32*
%TO.C,R29*%
X169799000Y-90001500D03*
X169799000Y-95926500D03*
%TD*%
D24*
%TO.C,R2*%
X170309000Y-112268000D03*
X169289000Y-112268000D03*
%TD*%
D20*
%TO.C,C15*%
X162687000Y-98905000D03*
X162687000Y-97945000D03*
%TD*%
%TO.C,C5*%
X161544000Y-118634926D03*
X161544000Y-117674926D03*
%TD*%
D32*
%TO.C,R28*%
X164465000Y-90001500D03*
X164465000Y-95926500D03*
%TD*%
D33*
%TO.C,D6*%
X158622000Y-98171000D03*
X155322000Y-98171000D03*
%TD*%
D31*
%TO.C,R26*%
X167259000Y-88328000D03*
X167259000Y-86678000D03*
%TD*%
D34*
%TO.C,U1*%
X165245000Y-113718426D03*
X164745000Y-113718426D03*
X164245000Y-113718426D03*
X163745000Y-113718426D03*
X163245000Y-113718426D03*
X162745000Y-113718426D03*
X162245000Y-113718426D03*
X161745000Y-113718426D03*
X161245000Y-113718426D03*
X160745000Y-113718426D03*
X160245000Y-113718426D03*
X159745000Y-113718426D03*
D35*
X159057500Y-113030926D03*
X159057500Y-112530926D03*
X159057500Y-112030926D03*
X159057500Y-111530926D03*
X159057500Y-111030926D03*
X159057500Y-110530926D03*
X159057500Y-110030926D03*
X159057500Y-109530926D03*
X159057500Y-109030926D03*
X159057500Y-108530926D03*
X159057500Y-108030926D03*
X159057500Y-107530926D03*
D34*
X159745000Y-106843426D03*
X160245000Y-106843426D03*
X160745000Y-106843426D03*
X161245000Y-106843426D03*
X161745000Y-106843426D03*
X162245000Y-106843426D03*
X162745000Y-106843426D03*
X163245000Y-106843426D03*
X163745000Y-106843426D03*
X164245000Y-106843426D03*
X164745000Y-106843426D03*
X165245000Y-106843426D03*
D35*
X165932500Y-107530926D03*
X165932500Y-108030926D03*
X165932500Y-108530926D03*
X165932500Y-109030926D03*
X165932500Y-109530926D03*
X165932500Y-110030926D03*
X165932500Y-110530926D03*
X165932500Y-111030926D03*
X165932500Y-111530926D03*
X165932500Y-112030926D03*
X165932500Y-112530926D03*
X165932500Y-113030926D03*
D36*
X162495000Y-110280926D03*
%TD*%
D31*
%TO.C,R24*%
X162052000Y-88328000D03*
X162052000Y-86678000D03*
%TD*%
D24*
%TO.C,R43*%
X170309000Y-110236000D03*
X169289000Y-110236000D03*
%TD*%
D37*
%TO.C,C4*%
X165543000Y-115134926D03*
X165543000Y-116094926D03*
%TD*%
D24*
%TO.C,R41*%
X170309000Y-109220000D03*
X169289000Y-109220000D03*
%TD*%
D23*
%TO.C,R6*%
X156716000Y-115062000D03*
X157736000Y-115062000D03*
%TD*%
D38*
%TO.C,U3*%
X151460000Y-106934000D03*
X152110000Y-106934000D03*
X152760000Y-106934000D03*
X153410000Y-106934000D03*
X153410000Y-109834000D03*
X152760000Y-109834000D03*
X152110000Y-109834000D03*
X151460000Y-109834000D03*
D39*
X152435000Y-108384000D03*
%TD*%
D24*
%TO.C,R1*%
X168339000Y-112268000D03*
X167319000Y-112268000D03*
%TD*%
D20*
%TO.C,C2*%
X165227000Y-105509000D03*
X165227000Y-104549000D03*
%TD*%
D30*
%TO.C,C10*%
X165128000Y-102870000D03*
X166088000Y-102870000D03*
%TD*%
D32*
%TO.C,R27*%
X159131000Y-90001500D03*
X159131000Y-95926500D03*
%TD*%
D37*
%TO.C,C7*%
X156591000Y-109292926D03*
X156591000Y-110252926D03*
%TD*%
%TO.C,C8*%
X157607000Y-109292926D03*
X157607000Y-110252926D03*
%TD*%
D31*
%TO.C,R23*%
X161798000Y-94424000D03*
X161798000Y-92774000D03*
%TD*%
D37*
%TO.C,C3*%
X165543000Y-117674926D03*
X165543000Y-118634926D03*
%TD*%
D40*
%TO.C,U2*%
X159397000Y-103346000D03*
X159397000Y-102946000D03*
X159397000Y-102546000D03*
X159397000Y-102146000D03*
X159397000Y-101746000D03*
X159397000Y-101346000D03*
X159397000Y-100946000D03*
D41*
X160159500Y-100183500D03*
X160559500Y-100183500D03*
X160959500Y-100183500D03*
X161359500Y-100183500D03*
X161759500Y-100183500D03*
X162159500Y-100183500D03*
X162559500Y-100183500D03*
D40*
X163322000Y-100946000D03*
X163322000Y-101346000D03*
X163322000Y-101746000D03*
X163322000Y-102146000D03*
X163322000Y-102546000D03*
X163322000Y-102946000D03*
X163322000Y-103346000D03*
D41*
X162559500Y-104108500D03*
X162159500Y-104108500D03*
X161759500Y-104108500D03*
X161359500Y-104108500D03*
X160959500Y-104108500D03*
X160559500Y-104108500D03*
X160159500Y-104108500D03*
D42*
X161359500Y-102146000D03*
%TD*%
D20*
%TO.C,C17*%
X154813000Y-109954000D03*
X154813000Y-108994000D03*
%TD*%
%LPD*%
M02*
