%TF.GenerationSoftware,KiCad,Pcbnew,9.0.2*%
%TF.CreationDate,2026-03-17T13:30:53+09:00*%
%TF.ProjectId,X610,58363130-2e6b-4696-9361-645f70636258,rev?*%
%TF.SameCoordinates,Original*%
%TF.FileFunction,Copper,L5,Inr*%
%TF.FilePolarity,Positive*%
%FSLAX46Y46*%
G04 Gerber Fmt 4.6, Leading zero omitted, Abs format (unit mm)*
G04 Created by KiCad (PCBNEW 9.0.2) date 2026-03-17 13:30:53*
%MOMM*%
%LPD*%
G01*
G04 APERTURE LIST*
G04 Aperture macros list*
%AMRoundRect*
0 Rectangle with rounded corners*
0 $1 Rounding radius*
0 $2 $3 $4 $5 $6 $7 $8 $9 X,Y pos of 4 corners*
0 Add a 4 corners polygon primitive as box body*
4,1,4,$2,$3,$4,$5,$6,$7,$8,$9,$2,$3,0*
0 Add four circle primitives for the rounded corners*
1,1,$1+$1,$2,$3*
1,1,$1+$1,$4,$5*
1,1,$1+$1,$6,$7*
1,1,$1+$1,$8,$9*
0 Add four rect primitives between the rounded corners*
20,1,$1+$1,$2,$3,$4,$5,0*
20,1,$1+$1,$4,$5,$6,$7,0*
20,1,$1+$1,$6,$7,$8,$9,0*
20,1,$1+$1,$8,$9,$2,$3,0*%
G04 Aperture macros list end*
%TA.AperFunction,ComponentPad*%
%ADD10C,1.500000*%
%TD*%
%TA.AperFunction,ComponentPad*%
%ADD11RoundRect,0.195000X-0.455000X0.455000X-0.455000X-0.455000X0.455000X-0.455000X0.455000X0.455000X0*%
%TD*%
%TA.AperFunction,ComponentPad*%
%ADD12C,1.300000*%
%TD*%
%TA.AperFunction,ViaPad*%
%ADD13C,0.400000*%
%TD*%
%TA.AperFunction,ViaPad*%
%ADD14C,0.600000*%
%TD*%
%TA.AperFunction,Conductor*%
%ADD15C,0.406400*%
%TD*%
G04 APERTURE END LIST*
D10*
%TO.N,Net-(J1-Pin_1)*%
%TO.C,J1*%
X153146000Y-117094000D03*
%TO.N,/MCU/LIMIT_SW*%
X151146000Y-117094000D03*
%TD*%
%TO.N,+24V_L*%
%TO.C,J3*%
X153146000Y-115046000D03*
%TO.N,GND_L*%
X151146000Y-115046000D03*
%TO.N,/CANFD/CANFD_N*%
X153146000Y-113046000D03*
%TO.N,/CANFD/CANFD_P*%
X151146000Y-113046000D03*
%TD*%
D11*
%TO.N,Net-(J6-Pin_1)*%
%TO.C,J6*%
X180213000Y-110997000D03*
D12*
%TO.N,GND*%
X180213000Y-108997000D03*
%TO.N,Net-(J6-Pin_3)*%
X180213000Y-106997000D03*
%TO.N,Net-(J6-Pin_4)*%
X180213000Y-104997000D03*
%TO.N,GND*%
X180213000Y-102997000D03*
%TO.N,/MCU/SWD.CLK*%
X180213000Y-100997000D03*
%TO.N,Net-(J6-Pin_7)*%
X180213000Y-98997000D03*
%TD*%
D13*
%TO.N,GND*%
X160528000Y-101092000D03*
X154940000Y-118110000D03*
X153416000Y-119380000D03*
X150622000Y-119126000D03*
X155194000Y-111252000D03*
%TO.N,/DRIVER/nSLEEP*%
X156467545Y-106493045D03*
X159258000Y-114426000D03*
%TO.N,GND*%
X161036000Y-117223310D03*
X152654000Y-95758000D03*
X153162000Y-95758000D03*
X169545000Y-95631000D03*
X165989000Y-96139000D03*
X154178000Y-95250000D03*
X153670000Y-93726000D03*
X150622000Y-108966000D03*
X168910000Y-99060000D03*
X155702000Y-96266000D03*
X155194000Y-95250000D03*
X160020000Y-118110000D03*
X157480000Y-114935000D03*
X153670000Y-95250000D03*
X159131000Y-96266000D03*
X160147000Y-114427000D03*
X154178000Y-108458000D03*
X162052000Y-102616000D03*
X160528000Y-96266000D03*
X161290000Y-109474000D03*
X160020000Y-119380000D03*
X171450000Y-119380000D03*
X152654000Y-107950000D03*
X151638000Y-95250000D03*
X161290000Y-119380000D03*
X155194000Y-93726000D03*
X153670000Y-107950000D03*
X153670000Y-96774000D03*
X162673000Y-108077000D03*
X152146000Y-96774000D03*
X152146000Y-96266000D03*
X160274000Y-101600000D03*
X154178000Y-94234000D03*
X152400000Y-92710000D03*
X153670000Y-92710000D03*
X156210000Y-119380000D03*
X162433000Y-112649000D03*
X161036000Y-102616000D03*
X171450000Y-101600000D03*
X156972000Y-112141000D03*
X161544000Y-101092000D03*
X154178000Y-96774000D03*
X155194000Y-108966000D03*
X171450000Y-100330000D03*
X156210000Y-118110000D03*
X168275000Y-113792000D03*
X162052000Y-108204000D03*
X154178000Y-95758000D03*
X159131000Y-95504000D03*
X162052000Y-101092000D03*
X152654000Y-95250000D03*
X165608000Y-116967000D03*
X152146000Y-94234000D03*
X153670000Y-94742000D03*
X160782000Y-101600000D03*
X154178000Y-96266000D03*
X153162000Y-107950000D03*
X153162000Y-94742000D03*
X154686000Y-108458000D03*
X155194000Y-94742000D03*
X161544000Y-102616000D03*
X153670000Y-96266000D03*
X154686000Y-96266000D03*
X168910000Y-96266000D03*
X155194000Y-96266000D03*
X168910000Y-101600000D03*
X158750000Y-119380000D03*
X157480000Y-118110000D03*
X154686000Y-94234000D03*
X154686000Y-94742000D03*
X152654000Y-93726000D03*
X168910000Y-95631000D03*
X155194000Y-96774000D03*
X158750000Y-116840000D03*
X153670000Y-108458000D03*
X161036000Y-101092000D03*
X160782000Y-95504000D03*
X154686000Y-96774000D03*
X165989000Y-104775000D03*
X153162000Y-95250000D03*
X151638000Y-96774000D03*
X155702000Y-95250000D03*
X153670000Y-94234000D03*
X154686000Y-108966000D03*
X151130000Y-108458000D03*
X151638000Y-96266000D03*
X161798000Y-101600000D03*
X171450000Y-118110000D03*
X152654000Y-94234000D03*
X154686000Y-95758000D03*
X153162000Y-93726000D03*
X152146000Y-108458000D03*
X155194000Y-94234000D03*
X163195000Y-112649000D03*
X161290000Y-101600000D03*
X152146000Y-108966000D03*
X156464000Y-102743000D03*
X170307000Y-119126000D03*
X157480000Y-116840000D03*
X168910000Y-100330000D03*
X158750000Y-118110000D03*
X151638000Y-108966000D03*
X159893000Y-95504000D03*
X153162000Y-96774000D03*
X152146000Y-94742000D03*
X152146000Y-95758000D03*
X171323000Y-96266000D03*
X151638000Y-94234000D03*
X152654000Y-108966000D03*
X168275000Y-96266000D03*
X152654000Y-96266000D03*
X161036000Y-102108000D03*
X152654000Y-108458000D03*
X168275000Y-95631000D03*
X151130000Y-108966000D03*
X170180000Y-118110000D03*
X152146000Y-93726000D03*
X154178000Y-108966000D03*
X151638000Y-94742000D03*
X161544000Y-102108000D03*
X151638000Y-93726000D03*
X154686000Y-93726000D03*
X157480000Y-119380000D03*
X165735000Y-118872000D03*
X152146000Y-107950000D03*
X154178000Y-94742000D03*
X151638000Y-108458000D03*
X150622000Y-108458000D03*
X154178000Y-93726000D03*
X153670000Y-95758000D03*
X153162000Y-108458000D03*
X162306000Y-101600000D03*
X158496000Y-113030000D03*
X174884500Y-112202000D03*
X155194000Y-95758000D03*
X166370000Y-119380000D03*
X171323000Y-95631000D03*
X152654000Y-94742000D03*
X156210000Y-116840000D03*
X151638000Y-95758000D03*
X152654000Y-96774000D03*
X155702000Y-96774000D03*
X153670000Y-108966000D03*
X164719000Y-95504000D03*
X154686000Y-95250000D03*
X162052000Y-102108000D03*
X154940000Y-92710000D03*
X155702000Y-95758000D03*
X153162000Y-96266000D03*
X153162000Y-108966000D03*
X159893000Y-96266000D03*
X153162000Y-94234000D03*
X160528000Y-102108000D03*
X169545000Y-96266000D03*
X152146000Y-95250000D03*
%TO.N,+3.3V*%
X167386000Y-116099200D03*
X157861000Y-109220000D03*
X157859000Y-108204000D03*
X157861000Y-108712000D03*
X168783000Y-97661000D03*
X167075800Y-107150000D03*
X170344185Y-112813185D03*
X159766000Y-116332000D03*
X165227000Y-105509000D03*
X165988213Y-98679787D03*
X156434000Y-80844000D03*
%TO.N,/DRIVER/SHA*%
X157969000Y-100838000D03*
X158369000Y-92964000D03*
%TO.N,/DRIVER/SHB*%
X163576000Y-92964000D03*
X162687000Y-96935997D03*
%TO.N,/DRIVER/SHC*%
X168910000Y-92964000D03*
X162687000Y-97536000D03*
%TO.N,+5V*%
X152880000Y-105664000D03*
X157353000Y-107061000D03*
X168418000Y-118999000D03*
X173609000Y-110363000D03*
%TO.N,+24V*%
X163576000Y-91821000D03*
X169418000Y-91313000D03*
X152146000Y-88392000D03*
X159004000Y-91313000D03*
X153670000Y-91440000D03*
X152146000Y-89916000D03*
X155702000Y-89408000D03*
X164592000Y-91821000D03*
X154686000Y-89916000D03*
X153162000Y-88392000D03*
X163068000Y-91821000D03*
X155194000Y-89408000D03*
X152146000Y-90424000D03*
X155702000Y-90932000D03*
X152146000Y-91440000D03*
X152654000Y-88900000D03*
X153162000Y-89408000D03*
X154178000Y-89916000D03*
X165100000Y-91821000D03*
X152146000Y-90932000D03*
X163068000Y-91313000D03*
X159766000Y-94615000D03*
X153670000Y-88900000D03*
X168402000Y-91313000D03*
X152146000Y-88900000D03*
D14*
X155368200Y-99001200D03*
D13*
X169926000Y-94107000D03*
X154686000Y-90932000D03*
X154686000Y-90424000D03*
X168910000Y-91313000D03*
X168656000Y-94742000D03*
X165608000Y-91313000D03*
X153162000Y-90932000D03*
X154178000Y-90424000D03*
X155194000Y-88900000D03*
X152654000Y-90424000D03*
X152654000Y-91440000D03*
X164084000Y-91313000D03*
X158496000Y-91313000D03*
X155194000Y-90424000D03*
X159004000Y-93980000D03*
X152654000Y-89916000D03*
X151638000Y-89408000D03*
X158496000Y-91821000D03*
X151638000Y-89916000D03*
X169418000Y-91821000D03*
X153162000Y-89916000D03*
X163576000Y-91313000D03*
X155194000Y-89916000D03*
X168402000Y-91821000D03*
X153162000Y-88900000D03*
X153670000Y-89408000D03*
X159004000Y-91821000D03*
X151638000Y-88392000D03*
X154686000Y-89408000D03*
X155702000Y-91440000D03*
X160020000Y-91821000D03*
X155702000Y-89916000D03*
X165608000Y-91821000D03*
X167894000Y-91313000D03*
X163957000Y-94742000D03*
X168656000Y-94107000D03*
X151638000Y-90424000D03*
X155194000Y-88392000D03*
X164084000Y-91821000D03*
X159004000Y-94615000D03*
X151638000Y-90932000D03*
X165481000Y-94107000D03*
X153670000Y-88392000D03*
X160020000Y-91313000D03*
X152654000Y-88392000D03*
X169291000Y-94742000D03*
X154178000Y-90932000D03*
X155702000Y-90424000D03*
X169926000Y-91313000D03*
X154686000Y-88900000D03*
X169926000Y-91821000D03*
X155194000Y-91440000D03*
X155194000Y-90932000D03*
X154178000Y-88900000D03*
X152654000Y-90932000D03*
X163957000Y-94107000D03*
X152146000Y-89408000D03*
X151638000Y-91440000D03*
X152654000Y-89408000D03*
X151638000Y-88900000D03*
X154178000Y-89408000D03*
X153670000Y-89916000D03*
X165481000Y-94742000D03*
X160528000Y-94615000D03*
X159766000Y-93980000D03*
X165100000Y-91313000D03*
X154178000Y-91440000D03*
X153162000Y-90424000D03*
X168910000Y-91821000D03*
X159512000Y-91313000D03*
X154686000Y-88392000D03*
X154686000Y-91440000D03*
X153162000Y-91440000D03*
X154178000Y-88392000D03*
X153670000Y-90932000D03*
X164719000Y-94107000D03*
X153670000Y-90424000D03*
X164719000Y-94742000D03*
X164592000Y-91313000D03*
X159512000Y-91821000D03*
X169291000Y-94107000D03*
X169926000Y-94742000D03*
%TO.N,/MCU/USER_LED*%
X169782000Y-110821729D03*
%TO.N,/DRIVER/nFAULT*%
X160170888Y-104921000D03*
X164084000Y-114554000D03*
%TO.N,/MCU/SWD.CLK*%
X168418000Y-115570000D03*
X167680000Y-106623000D03*
%TO.N,/ENCODER/ADC_ENC1*%
X155184000Y-80844000D03*
X159745000Y-106178400D03*
%TO.N,/ENCODER/ADC_ENC2*%
X152684000Y-80844000D03*
X158496000Y-107442000D03*
%TO.N,/MCU/BOOT*%
X169293468Y-113161467D03*
%TO.N,/MCU/NRST*%
X161546000Y-115568000D03*
%TO.N,/DRIVER/OPAMP1.+*%
X157734000Y-112141000D03*
X165100000Y-99693000D03*
%TO.N,/DRIVER/SHUNT1+*%
X160020000Y-89408000D03*
X160528000Y-89916000D03*
X157988000Y-89408000D03*
X158496000Y-89916000D03*
X160020000Y-89916000D03*
X158496000Y-90424000D03*
X164084000Y-97663000D03*
X160528000Y-90424000D03*
X159004000Y-89916000D03*
X161036000Y-89408000D03*
X158496000Y-89408000D03*
X159004000Y-89408000D03*
X157988000Y-89916000D03*
X157988000Y-90424000D03*
X159512000Y-89408000D03*
X159004000Y-90424000D03*
X160020000Y-90424000D03*
X161036000Y-90424000D03*
X160528000Y-89408000D03*
X161036000Y-89916000D03*
X159512000Y-90424000D03*
X159512000Y-89916000D03*
%TO.N,/DRIVER/OPAMP2.+*%
X158423413Y-112085298D03*
X167132000Y-99314000D03*
%TO.N,/DRIVER/SHUNT2+*%
X164084000Y-89408000D03*
X163576000Y-90424000D03*
X165100000Y-89408000D03*
X164084000Y-90424000D03*
X166116000Y-89916000D03*
X166116000Y-89408000D03*
X164592000Y-90424000D03*
X165608000Y-90424000D03*
X165608000Y-89916000D03*
X163068000Y-89916000D03*
X165608000Y-89408000D03*
X164592000Y-89408000D03*
X166116000Y-90424000D03*
X165100000Y-89916000D03*
X163068000Y-89408000D03*
X164592000Y-89916000D03*
X163576000Y-89408000D03*
X164084000Y-89916000D03*
X167132000Y-97663000D03*
X165100000Y-90424000D03*
X163068000Y-90424000D03*
X163576000Y-89916000D03*
%TO.N,/DRIVER/OPAMP3.+*%
X160781947Y-114555926D03*
X170307000Y-99693000D03*
%TO.N,/DRIVER/SHUNT3+*%
X168402000Y-90424000D03*
X171323000Y-97663000D03*
X169926000Y-90424000D03*
X170434000Y-90424000D03*
X171450000Y-89408000D03*
X171450000Y-89916000D03*
X170942000Y-89916000D03*
X169418000Y-90424000D03*
X168402000Y-89408000D03*
X170942000Y-90424000D03*
X170942000Y-89408000D03*
X169926000Y-89408000D03*
X171450000Y-90424000D03*
X168910000Y-90424000D03*
X170434000Y-89916000D03*
X169418000Y-89408000D03*
X168910000Y-89916000D03*
X170434000Y-89408000D03*
X168402000Y-89916000D03*
X169926000Y-89916000D03*
X169418000Y-89916000D03*
X168910000Y-89408000D03*
%TO.N,/DRIVER/GHA*%
X156570000Y-94424000D03*
X159108908Y-100664611D03*
%TO.N,/DRIVER/GLA*%
X159769127Y-98639230D03*
X157565000Y-94131297D03*
%TO.N,Net-(U3-TXD)*%
X164211000Y-104521000D03*
X150855000Y-106436500D03*
%TO.N,/CANFD/CANFD.RX*%
X163825579Y-106172880D03*
X155807899Y-107846088D03*
%TO.N,/ENCODER/SPI.MISO*%
X167120000Y-109890001D03*
%TO.N,/ENCODER/SPI.SCK*%
X166681296Y-109480679D03*
%TO.N,/ENCODER/SPI.SS*%
X166624000Y-107950000D03*
%TO.N,/ENCODER/SPI.MOSI*%
X167120000Y-110490000D03*
%TO.N,/DRIVER/GLC*%
X167698716Y-95150540D03*
X164134499Y-100900692D03*
%TO.N,/DRIVER/GLB*%
X162814000Y-94107000D03*
X162018640Y-97590092D03*
%TO.N,/DRIVER/GHB*%
X162315769Y-94461873D03*
X161405205Y-97663000D03*
%TO.N,/DRIVER/GHC*%
X163449000Y-100711000D03*
X167215734Y-94571734D03*
%TO.N,Net-(U4-EN)*%
X159639000Y-99695000D03*
X154432000Y-112774000D03*
D14*
%TO.N,Net-(D6-K)*%
X158567949Y-98353055D03*
D13*
%TO.N,Net-(Q1-G1)*%
X156464000Y-92774000D03*
%TO.N,Net-(D7-K)*%
X167259000Y-86678000D03*
%TO.N,Net-(Q2-G1)*%
X162233115Y-93036885D03*
%TO.N,Net-(Q3-G1)*%
X167232736Y-93062736D03*
%TO.N,Net-(D8-K)*%
X162052000Y-86678000D03*
%TO.N,/DRIVER/DRVOFF*%
X171089000Y-103271000D03*
X164684003Y-114554000D03*
%TO.N,Net-(D3-A)*%
X156845000Y-85076000D03*
%TO.N,Net-(J2-Pin_1)*%
X158496000Y-85090000D03*
X161544000Y-84582000D03*
X158496000Y-87122000D03*
X162560000Y-82042000D03*
X163576000Y-83058000D03*
X162052000Y-83058000D03*
X163068000Y-84074000D03*
X161544000Y-84074000D03*
X160020000Y-84074000D03*
X159512000Y-82550000D03*
X163068000Y-81534000D03*
X163576000Y-83566000D03*
X161036000Y-82550000D03*
X162560000Y-84582000D03*
X163068000Y-85090000D03*
X163576000Y-84582000D03*
X162560000Y-85090000D03*
X163576000Y-85598000D03*
X160020000Y-84582000D03*
X159512000Y-84074000D03*
X163068000Y-83058000D03*
X159512000Y-84582000D03*
X160020000Y-85090000D03*
X160528000Y-82042000D03*
X158496000Y-85598000D03*
X159004000Y-84582000D03*
X160528000Y-87122000D03*
X160020000Y-82042000D03*
X163576000Y-81534000D03*
X163068000Y-84582000D03*
X160528000Y-85598000D03*
X163576000Y-82550000D03*
X161036000Y-84582000D03*
X161036000Y-84074000D03*
X162052000Y-82042000D03*
X160528000Y-86106000D03*
X161544000Y-81534000D03*
X161036000Y-86614000D03*
X163068000Y-85598000D03*
X160020000Y-86106000D03*
X163068000Y-82042000D03*
X161036000Y-86106000D03*
X158496000Y-84582000D03*
X159004000Y-83058000D03*
X162560000Y-81534000D03*
X162052000Y-85090000D03*
X159512000Y-85598000D03*
X161544000Y-82550000D03*
X162052000Y-81534000D03*
X161036000Y-87122000D03*
X158496000Y-86614000D03*
X162052000Y-84074000D03*
X159512000Y-86614000D03*
X159512000Y-86106000D03*
X159004000Y-83566000D03*
X158496000Y-86106000D03*
X160020000Y-83566000D03*
X163576000Y-84074000D03*
X161036000Y-85090000D03*
X160528000Y-84074000D03*
X162052000Y-83566000D03*
X161036000Y-82042000D03*
X160528000Y-84582000D03*
X159512000Y-85090000D03*
X161544000Y-82042000D03*
X163068000Y-82550000D03*
X161544000Y-85598000D03*
X163576000Y-82042000D03*
X162560000Y-85598000D03*
X162560000Y-84074000D03*
X159004000Y-84074000D03*
X160528000Y-86614000D03*
X160528000Y-83058000D03*
X160528000Y-85090000D03*
X160020000Y-86614000D03*
X161036000Y-83058000D03*
X159512000Y-87122000D03*
X159512000Y-83566000D03*
X160528000Y-81534000D03*
X161544000Y-83058000D03*
X160528000Y-82550000D03*
X161544000Y-85090000D03*
X163068000Y-83566000D03*
X162560000Y-83058000D03*
X160020000Y-85598000D03*
X161036000Y-81534000D03*
X158496000Y-83566000D03*
X162560000Y-82550000D03*
X160020000Y-87122000D03*
X161544000Y-83566000D03*
X159512000Y-83058000D03*
X160020000Y-83058000D03*
X158496000Y-84074000D03*
X159004000Y-85090000D03*
X160528000Y-83566000D03*
X162052000Y-84582000D03*
X161036000Y-83566000D03*
X159004000Y-85598000D03*
X161036000Y-85598000D03*
X162052000Y-85598000D03*
X162052000Y-82550000D03*
X159004000Y-86106000D03*
X163576000Y-85090000D03*
X160020000Y-82550000D03*
X159004000Y-87122000D03*
X159004000Y-86614000D03*
X162560000Y-83566000D03*
%TO.N,Net-(J2-Pin_3)*%
X170434000Y-84582000D03*
X170942000Y-84074000D03*
X171450000Y-84582000D03*
X168402000Y-85090000D03*
X170434000Y-83058000D03*
X170942000Y-84582000D03*
X170942000Y-81534000D03*
X171450000Y-85090000D03*
X168910000Y-83058000D03*
X171450000Y-81534000D03*
X168910000Y-84074000D03*
X168910000Y-87122000D03*
X168402000Y-84582000D03*
X168402000Y-85598000D03*
X169418000Y-86106000D03*
X171450000Y-83566000D03*
X169926000Y-84074000D03*
X170434000Y-84074000D03*
X169926000Y-82550000D03*
X171450000Y-85598000D03*
X169926000Y-86106000D03*
X171450000Y-83058000D03*
X170942000Y-86614000D03*
X169926000Y-87122000D03*
X168910000Y-82042000D03*
X169418000Y-83566000D03*
X170434000Y-85090000D03*
X169418000Y-85090000D03*
X170434000Y-85598000D03*
X171450000Y-86106000D03*
X168402000Y-83566000D03*
X170434000Y-87122000D03*
X170942000Y-85598000D03*
X168402000Y-83058000D03*
X171450000Y-84074000D03*
X168402000Y-84074000D03*
X169418000Y-87122000D03*
X169926000Y-83058000D03*
X169926000Y-84582000D03*
X168910000Y-82550000D03*
X170434000Y-82042000D03*
X169926000Y-85598000D03*
X168910000Y-86106000D03*
X169418000Y-84582000D03*
X171450000Y-86614000D03*
X170434000Y-86614000D03*
X171450000Y-87122000D03*
X169418000Y-85598000D03*
X169418000Y-84074000D03*
X169926000Y-83566000D03*
X169418000Y-82042000D03*
X168910000Y-85598000D03*
X169418000Y-86614000D03*
X170942000Y-83058000D03*
X170434000Y-81534000D03*
X170434000Y-82550000D03*
X168910000Y-83566000D03*
X168402000Y-81534000D03*
X169418000Y-81534000D03*
X170434000Y-86106000D03*
X168910000Y-85090000D03*
X168402000Y-82042000D03*
X169926000Y-81534000D03*
X169926000Y-85090000D03*
X170942000Y-82042000D03*
X169926000Y-86614000D03*
X169418000Y-82550000D03*
X168402000Y-86106000D03*
X170942000Y-82550000D03*
X169926000Y-82042000D03*
X168402000Y-82550000D03*
X170434000Y-83566000D03*
X168910000Y-81534000D03*
X170942000Y-85090000D03*
X170942000Y-86106000D03*
X168910000Y-84582000D03*
X170942000Y-83566000D03*
X168910000Y-86614000D03*
X171450000Y-82550000D03*
X171450000Y-82042000D03*
X169418000Y-83058000D03*
X170942000Y-87122000D03*
%TO.N,Net-(J2-Pin_2)*%
X166370000Y-83058000D03*
X166878000Y-81534000D03*
X166878000Y-82550000D03*
X164592000Y-86106000D03*
X166878000Y-84582000D03*
X164846000Y-83058000D03*
X165100000Y-86106000D03*
X164846000Y-82042000D03*
X166116000Y-86614000D03*
X165608000Y-86614000D03*
X165354000Y-84074000D03*
X165354000Y-83566000D03*
X165608000Y-86106000D03*
X166878000Y-85598000D03*
X165354000Y-81534000D03*
X164084000Y-87122000D03*
X165354000Y-83058000D03*
X164846000Y-85090000D03*
X164846000Y-84582000D03*
X166370000Y-85598000D03*
X164592000Y-87122000D03*
X165862000Y-82042000D03*
X165862000Y-83058000D03*
X166370000Y-84582000D03*
X166878000Y-85090000D03*
X166370000Y-84074000D03*
X166878000Y-83566000D03*
X165100000Y-86614000D03*
X166370000Y-82550000D03*
X165354000Y-82550000D03*
X166370000Y-82042000D03*
X165862000Y-82550000D03*
X165862000Y-83566000D03*
X165354000Y-85598000D03*
X165100000Y-87122000D03*
X166878000Y-82042000D03*
X165354000Y-84582000D03*
X164084000Y-86614000D03*
X164846000Y-85598000D03*
X166370000Y-83566000D03*
X166116000Y-87122000D03*
X165862000Y-81534000D03*
X164592000Y-86614000D03*
X164846000Y-82550000D03*
X166370000Y-85090000D03*
X164846000Y-83566000D03*
X165862000Y-84074000D03*
X165608000Y-87122000D03*
X166370000Y-81534000D03*
X165862000Y-84582000D03*
X164846000Y-84074000D03*
X165354000Y-85090000D03*
X166116000Y-86106000D03*
X165862000Y-85598000D03*
X164846000Y-81534000D03*
X163576000Y-86868000D03*
X166878000Y-83058000D03*
X165354000Y-82042000D03*
X166878000Y-84074000D03*
X165862000Y-85090000D03*
%TO.N,Net-(J6-Pin_7)*%
X169320000Y-114935000D03*
X168529000Y-104823000D03*
%TO.N,Net-(J6-Pin_3)*%
X168402000Y-116967000D03*
X169300000Y-108204000D03*
%TO.N,Net-(D9-K)*%
X156845000Y-86678000D03*
%TD*%
D15*
%TO.N,+3.3V*%
X166877134Y-107348666D02*
X166874268Y-107345800D01*
X166874268Y-107345800D02*
X166373732Y-107345800D01*
X167075800Y-107150000D02*
X167075800Y-100224668D01*
X158332533Y-97593996D02*
X157628529Y-98298000D01*
X157628529Y-98298000D02*
X152019000Y-98298000D01*
X160077996Y-97593996D02*
X158332533Y-97593996D01*
X166277532Y-107442000D02*
X159350468Y-107442000D01*
X167736200Y-98711800D02*
X167734200Y-98709800D01*
X170434000Y-112723370D02*
X170344185Y-112813185D01*
X169543736Y-113765667D02*
X170344185Y-112965218D01*
X165988213Y-98679787D02*
X161163787Y-98679787D01*
X167734200Y-98709800D02*
X168783000Y-97661000D01*
X167736200Y-99564268D02*
X167736200Y-98711800D01*
X166373732Y-107345800D02*
X166277532Y-107442000D01*
X169367865Y-113765667D02*
X169543736Y-113765667D01*
X159350468Y-107442000D02*
X158588468Y-108204000D01*
X167075800Y-107150000D02*
X166877134Y-107348666D01*
X170344185Y-112965218D02*
X170344185Y-112813185D01*
X152527000Y-83566000D02*
X153712000Y-83566000D01*
X165988213Y-98679787D02*
X166563187Y-98679787D01*
X167075800Y-100224668D02*
X167736200Y-99564268D01*
X167386000Y-115747532D02*
X169367865Y-113765667D01*
X152019000Y-98298000D02*
X150404200Y-96683200D01*
X153712000Y-83566000D02*
X156434000Y-80844000D01*
X167386000Y-116099200D02*
X167386000Y-115747532D01*
X161163787Y-98679787D02*
X160077996Y-97593996D01*
X150404200Y-85688800D02*
X152527000Y-83566000D01*
X150404200Y-96683200D02*
X150404200Y-85688800D01*
X166563187Y-98679787D02*
X166593200Y-98709800D01*
X158588468Y-108204000D02*
X157859000Y-108204000D01*
X166593200Y-98709800D02*
X167734200Y-98709800D01*
%TD*%
%TA.AperFunction,Conductor*%
%TO.N,+24V*%
G36*
X156534039Y-88030685D02*
G01*
X156579794Y-88083489D01*
X156591000Y-88135000D01*
X156591000Y-90551000D01*
X157099000Y-91059000D01*
X171580000Y-91059000D01*
X171647039Y-91078685D01*
X171692794Y-91131489D01*
X171704000Y-91183000D01*
X171704000Y-94872000D01*
X171684315Y-94939039D01*
X171631511Y-94984794D01*
X171580000Y-94996000D01*
X168143541Y-94996000D01*
X168076502Y-94976315D01*
X168036154Y-94934000D01*
X168019196Y-94904627D01*
X167944629Y-94830060D01*
X167853303Y-94777333D01*
X167751443Y-94750040D01*
X167740234Y-94750040D01*
X167673195Y-94730355D01*
X167627440Y-94677551D01*
X167616234Y-94626040D01*
X167616234Y-94519009D01*
X167616234Y-94519007D01*
X167588941Y-94417147D01*
X167536214Y-94325821D01*
X167461647Y-94251254D01*
X167370321Y-94198527D01*
X167268461Y-94171234D01*
X167163007Y-94171234D01*
X167061147Y-94198527D01*
X167061144Y-94198528D01*
X166969819Y-94251255D01*
X166895255Y-94325819D01*
X166842528Y-94417144D01*
X166842527Y-94417147D01*
X166815234Y-94519007D01*
X166815234Y-94624461D01*
X166842527Y-94726321D01*
X166890841Y-94810003D01*
X166907313Y-94877899D01*
X166884461Y-94943926D01*
X166829540Y-94987117D01*
X166783453Y-94996000D01*
X162647397Y-94996000D01*
X162580358Y-94976315D01*
X162534603Y-94923511D01*
X162524659Y-94854353D01*
X162553684Y-94790797D01*
X162559716Y-94784319D01*
X162593995Y-94750040D01*
X162636249Y-94707786D01*
X162688976Y-94616460D01*
X162693545Y-94599404D01*
X162729910Y-94539746D01*
X162792757Y-94509217D01*
X162813320Y-94507500D01*
X162866725Y-94507500D01*
X162866727Y-94507500D01*
X162968587Y-94480207D01*
X163059913Y-94427480D01*
X163134480Y-94352913D01*
X163187207Y-94261587D01*
X163214500Y-94159727D01*
X163214500Y-94054273D01*
X163187207Y-93952413D01*
X163134480Y-93861087D01*
X163059913Y-93786520D01*
X162968587Y-93733793D01*
X162866727Y-93706500D01*
X162761273Y-93706500D01*
X162659413Y-93733793D01*
X162659410Y-93733794D01*
X162568085Y-93786521D01*
X162493521Y-93861085D01*
X162440794Y-93952410D01*
X162440794Y-93952411D01*
X162440793Y-93952413D01*
X162436223Y-93969468D01*
X162399859Y-94029127D01*
X162337012Y-94059656D01*
X162316449Y-94061373D01*
X162263042Y-94061373D01*
X162161182Y-94088666D01*
X162161179Y-94088667D01*
X162069854Y-94141394D01*
X161995290Y-94215958D01*
X161942563Y-94307283D01*
X161942562Y-94307286D01*
X161915269Y-94409146D01*
X161915269Y-94514600D01*
X161937993Y-94599406D01*
X161942562Y-94616459D01*
X161942563Y-94616462D01*
X161995290Y-94707787D01*
X162071822Y-94784319D01*
X162105307Y-94845642D01*
X162100323Y-94915334D01*
X162058451Y-94971267D01*
X161992987Y-94995684D01*
X161984141Y-94996000D01*
X158366000Y-94996000D01*
X158298961Y-94976315D01*
X158253206Y-94923511D01*
X158242000Y-94872000D01*
X158242000Y-93488500D01*
X158261685Y-93421461D01*
X158314489Y-93375706D01*
X158366000Y-93364500D01*
X158421725Y-93364500D01*
X158421727Y-93364500D01*
X158523587Y-93337207D01*
X158614913Y-93284480D01*
X158689480Y-93209913D01*
X158742207Y-93118587D01*
X158769500Y-93016727D01*
X158769500Y-92984158D01*
X161832615Y-92984158D01*
X161832615Y-93089612D01*
X161859908Y-93191472D01*
X161912635Y-93282798D01*
X161987202Y-93357365D01*
X162078528Y-93410092D01*
X162180388Y-93437385D01*
X162180390Y-93437385D01*
X162285840Y-93437385D01*
X162285842Y-93437385D01*
X162387702Y-93410092D01*
X162479028Y-93357365D01*
X162553595Y-93282798D01*
X162606322Y-93191472D01*
X162633615Y-93089612D01*
X162633615Y-92984158D01*
X162614086Y-92911273D01*
X163175500Y-92911273D01*
X163175500Y-93016727D01*
X163202793Y-93118587D01*
X163255520Y-93209913D01*
X163330087Y-93284480D01*
X163421413Y-93337207D01*
X163523273Y-93364500D01*
X163523275Y-93364500D01*
X163628725Y-93364500D01*
X163628727Y-93364500D01*
X163730587Y-93337207D01*
X163821913Y-93284480D01*
X163896480Y-93209913D01*
X163949207Y-93118587D01*
X163976500Y-93016727D01*
X163976500Y-93010009D01*
X166832236Y-93010009D01*
X166832236Y-93115463D01*
X166859529Y-93217323D01*
X166912256Y-93308649D01*
X166986823Y-93383216D01*
X167078149Y-93435943D01*
X167180009Y-93463236D01*
X167180011Y-93463236D01*
X167285461Y-93463236D01*
X167285463Y-93463236D01*
X167387323Y-93435943D01*
X167478649Y-93383216D01*
X167553216Y-93308649D01*
X167605943Y-93217323D01*
X167633236Y-93115463D01*
X167633236Y-93010009D01*
X167606780Y-92911273D01*
X168509500Y-92911273D01*
X168509500Y-93016727D01*
X168536793Y-93118587D01*
X168589520Y-93209913D01*
X168664087Y-93284480D01*
X168755413Y-93337207D01*
X168857273Y-93364500D01*
X168857275Y-93364500D01*
X168962725Y-93364500D01*
X168962727Y-93364500D01*
X169064587Y-93337207D01*
X169155913Y-93284480D01*
X169230480Y-93209913D01*
X169283207Y-93118587D01*
X169310500Y-93016727D01*
X169310500Y-92911273D01*
X169283207Y-92809413D01*
X169230480Y-92718087D01*
X169155913Y-92643520D01*
X169064587Y-92590793D01*
X168962727Y-92563500D01*
X168857273Y-92563500D01*
X168755413Y-92590793D01*
X168755410Y-92590794D01*
X168664085Y-92643521D01*
X168589521Y-92718085D01*
X168536794Y-92809410D01*
X168536793Y-92809413D01*
X168509500Y-92911273D01*
X167606780Y-92911273D01*
X167605943Y-92908149D01*
X167553216Y-92816823D01*
X167478649Y-92742256D01*
X167387323Y-92689529D01*
X167285463Y-92662236D01*
X167180009Y-92662236D01*
X167078149Y-92689529D01*
X167078146Y-92689530D01*
X166986821Y-92742257D01*
X166912257Y-92816821D01*
X166859530Y-92908146D01*
X166859529Y-92908149D01*
X166832236Y-93010009D01*
X163976500Y-93010009D01*
X163976500Y-92911273D01*
X163949207Y-92809413D01*
X163896480Y-92718087D01*
X163821913Y-92643520D01*
X163730587Y-92590793D01*
X163628727Y-92563500D01*
X163523273Y-92563500D01*
X163421413Y-92590793D01*
X163421410Y-92590794D01*
X163330085Y-92643521D01*
X163255521Y-92718085D01*
X163202794Y-92809410D01*
X163202793Y-92809413D01*
X163175500Y-92911273D01*
X162614086Y-92911273D01*
X162606322Y-92882298D01*
X162553595Y-92790972D01*
X162479028Y-92716405D01*
X162387702Y-92663678D01*
X162285842Y-92636385D01*
X162180388Y-92636385D01*
X162078528Y-92663678D01*
X162078525Y-92663679D01*
X161987200Y-92716406D01*
X161912636Y-92790970D01*
X161859909Y-92882295D01*
X161859908Y-92882298D01*
X161832615Y-92984158D01*
X158769500Y-92984158D01*
X158769500Y-92911273D01*
X158742207Y-92809413D01*
X158689480Y-92718087D01*
X158614913Y-92643520D01*
X158523587Y-92590793D01*
X158421727Y-92563500D01*
X158366000Y-92563500D01*
X158298961Y-92543815D01*
X158253206Y-92491011D01*
X158242000Y-92439500D01*
X158242000Y-92075000D01*
X151435362Y-92075000D01*
X151405921Y-92066355D01*
X151375935Y-92059832D01*
X151370919Y-92056077D01*
X151368323Y-92055315D01*
X151347681Y-92038681D01*
X151293319Y-91984319D01*
X151259834Y-91922996D01*
X151257000Y-91896638D01*
X151257000Y-88135000D01*
X151276685Y-88067961D01*
X151329489Y-88022206D01*
X151381000Y-88011000D01*
X156467000Y-88011000D01*
X156534039Y-88030685D01*
G37*
%TD.AperFunction*%
%TD*%
%TA.AperFunction,Conductor*%
%TO.N,GND*%
G36*
X151013103Y-91861507D02*
G01*
X151050877Y-91920285D01*
X151055189Y-91941963D01*
X151055511Y-91944965D01*
X151055512Y-91944967D01*
X151079470Y-92021478D01*
X151079471Y-92021483D01*
X151093872Y-92047855D01*
X151112956Y-92082805D01*
X151112958Y-92082808D01*
X151112960Y-92082811D01*
X151147998Y-92129615D01*
X151148001Y-92129619D01*
X151148009Y-92129629D01*
X151148017Y-92129637D01*
X151202365Y-92183986D01*
X151202374Y-92183995D01*
X151213669Y-92194141D01*
X151213695Y-92194163D01*
X151218738Y-92198693D01*
X151239380Y-92215327D01*
X151239387Y-92215330D01*
X151244477Y-92218667D01*
X151244320Y-92218905D01*
X151251884Y-92223670D01*
X151252782Y-92224342D01*
X151283013Y-92238148D01*
X151310445Y-92252496D01*
X151313041Y-92253258D01*
X151313402Y-92252026D01*
X151332253Y-92260636D01*
X151350762Y-92264662D01*
X151359310Y-92266844D01*
X151377464Y-92272175D01*
X151435362Y-92280500D01*
X156091745Y-92280500D01*
X156158784Y-92300185D01*
X156204539Y-92352989D01*
X156214483Y-92422147D01*
X156185458Y-92485703D01*
X156179426Y-92492181D01*
X156143521Y-92528085D01*
X156090794Y-92619410D01*
X156090793Y-92619413D01*
X156063500Y-92721273D01*
X156063500Y-92826727D01*
X156090793Y-92928587D01*
X156143520Y-93019913D01*
X156218087Y-93094480D01*
X156309413Y-93147207D01*
X156411273Y-93174500D01*
X156411275Y-93174500D01*
X156516725Y-93174500D01*
X156516727Y-93174500D01*
X156618587Y-93147207D01*
X156709913Y-93094480D01*
X156784480Y-93019913D01*
X156837207Y-92928587D01*
X156864500Y-92826727D01*
X156864500Y-92721273D01*
X156837207Y-92619413D01*
X156784480Y-92528087D01*
X156748574Y-92492181D01*
X156715089Y-92430858D01*
X156720073Y-92361166D01*
X156761945Y-92305233D01*
X156827409Y-92280816D01*
X156836255Y-92280500D01*
X157912500Y-92280500D01*
X157979539Y-92300185D01*
X158025294Y-92352989D01*
X158033831Y-92378910D01*
X158036500Y-92391564D01*
X158036500Y-92439500D01*
X158041197Y-92483184D01*
X158052403Y-92534695D01*
X158054890Y-92544873D01*
X158077968Y-92588181D01*
X158081597Y-92605387D01*
X158080194Y-92623397D01*
X158083853Y-92641084D01*
X158077537Y-92657503D01*
X158076171Y-92675046D01*
X158065254Y-92689438D01*
X158058770Y-92706296D01*
X158049017Y-92717437D01*
X158048521Y-92718083D01*
X157995794Y-92809410D01*
X157995793Y-92809413D01*
X157968500Y-92911273D01*
X157968500Y-93016726D01*
X157995793Y-93118586D01*
X157995794Y-93118589D01*
X158048522Y-93209916D01*
X158053469Y-93216363D01*
X158052153Y-93217372D01*
X158081037Y-93270268D01*
X158076053Y-93339960D01*
X158068094Y-93357155D01*
X158064512Y-93363558D01*
X158064509Y-93363564D01*
X158044826Y-93430596D01*
X158036500Y-93488503D01*
X158036500Y-93737042D01*
X158016815Y-93804081D01*
X157964011Y-93849836D01*
X157894853Y-93859780D01*
X157831297Y-93830755D01*
X157824819Y-93824723D01*
X157810914Y-93810818D01*
X157810913Y-93810817D01*
X157719587Y-93758090D01*
X157617727Y-93730797D01*
X157512273Y-93730797D01*
X157410413Y-93758090D01*
X157410410Y-93758091D01*
X157319085Y-93810818D01*
X157244521Y-93885382D01*
X157191794Y-93976707D01*
X157191793Y-93976710D01*
X157164500Y-94078570D01*
X157164500Y-94184024D01*
X157191793Y-94285884D01*
X157244520Y-94377210D01*
X157319087Y-94451777D01*
X157410413Y-94504504D01*
X157512273Y-94531797D01*
X157512275Y-94531797D01*
X157617725Y-94531797D01*
X157617727Y-94531797D01*
X157719587Y-94504504D01*
X157810913Y-94451777D01*
X157824819Y-94437871D01*
X157886142Y-94404386D01*
X157955834Y-94409370D01*
X158011767Y-94451242D01*
X158036184Y-94516706D01*
X158036500Y-94525552D01*
X158036500Y-94872007D01*
X158041197Y-94915686D01*
X158052397Y-94967174D01*
X158054890Y-94977372D01*
X158054891Y-94977375D01*
X158097899Y-95058083D01*
X158097901Y-95058086D01*
X158143660Y-95110895D01*
X158161242Y-95128839D01*
X158161246Y-95128843D01*
X158161247Y-95128844D01*
X158161249Y-95128845D01*
X158241059Y-95173488D01*
X158241063Y-95173490D01*
X158308102Y-95193175D01*
X158366000Y-95201500D01*
X158366004Y-95201500D01*
X161984145Y-95201500D01*
X161984595Y-95201491D01*
X161991477Y-95201369D01*
X162000323Y-95201053D01*
X162064802Y-95188227D01*
X162130266Y-95163810D01*
X162153235Y-95153603D01*
X162222961Y-95094421D01*
X162222969Y-95094409D01*
X162226618Y-95090532D01*
X162286885Y-95055182D01*
X162356697Y-95058027D01*
X162410659Y-95094279D01*
X162416157Y-95100624D01*
X162425052Y-95110889D01*
X162442643Y-95128843D01*
X162442644Y-95128844D01*
X162442646Y-95128845D01*
X162522456Y-95173488D01*
X162522460Y-95173490D01*
X162589499Y-95193175D01*
X162647397Y-95201500D01*
X162647401Y-95201500D01*
X166783447Y-95201500D01*
X166783453Y-95201500D01*
X166822346Y-95197786D01*
X166868433Y-95188903D01*
X166873906Y-95187771D01*
X166956573Y-95148650D01*
X167011494Y-95105459D01*
X167030265Y-95088741D01*
X167066511Y-95030618D01*
X167073903Y-95024034D01*
X167078015Y-95015031D01*
X167099560Y-95001184D01*
X167118687Y-94984151D01*
X167130031Y-94981602D01*
X167136793Y-94977257D01*
X167171728Y-94972234D01*
X167174216Y-94972234D01*
X167241255Y-94991919D01*
X167287010Y-95044723D01*
X167298216Y-95096234D01*
X167298216Y-95097813D01*
X167298216Y-95203267D01*
X167325509Y-95305127D01*
X167378236Y-95396453D01*
X167452803Y-95471020D01*
X167544129Y-95523747D01*
X167645989Y-95551040D01*
X167645991Y-95551040D01*
X167751441Y-95551040D01*
X167751443Y-95551040D01*
X167853303Y-95523747D01*
X167944629Y-95471020D01*
X168019196Y-95396453D01*
X168071923Y-95305127D01*
X168075063Y-95293406D01*
X168111428Y-95233746D01*
X168174275Y-95203217D01*
X168194838Y-95201500D01*
X171579991Y-95201500D01*
X171580000Y-95201500D01*
X171623684Y-95196803D01*
X171649141Y-95191265D01*
X171718833Y-95196249D01*
X171774766Y-95238120D01*
X171799184Y-95303584D01*
X171799500Y-95312431D01*
X171799500Y-97273745D01*
X171779815Y-97340784D01*
X171727011Y-97386539D01*
X171657853Y-97396483D01*
X171594297Y-97367458D01*
X171587819Y-97361426D01*
X171568914Y-97342521D01*
X171568913Y-97342520D01*
X171491799Y-97297998D01*
X171477589Y-97289794D01*
X171477588Y-97289793D01*
X171477587Y-97289793D01*
X171375727Y-97262500D01*
X171270273Y-97262500D01*
X171168413Y-97289793D01*
X171168410Y-97289794D01*
X171077085Y-97342521D01*
X171002521Y-97417085D01*
X170949794Y-97508410D01*
X170949793Y-97508413D01*
X170922500Y-97610273D01*
X170922500Y-97715727D01*
X170949793Y-97817587D01*
X171002520Y-97908913D01*
X171077087Y-97983480D01*
X171168413Y-98036207D01*
X171270273Y-98063500D01*
X171270275Y-98063500D01*
X171375725Y-98063500D01*
X171375727Y-98063500D01*
X171477587Y-98036207D01*
X171568913Y-97983480D01*
X171587819Y-97964574D01*
X171649142Y-97931089D01*
X171718834Y-97936073D01*
X171774767Y-97977945D01*
X171799184Y-98043409D01*
X171799500Y-98052255D01*
X171799500Y-107078931D01*
X171834626Y-107232826D01*
X171903114Y-107375042D01*
X171903116Y-107375045D01*
X171903117Y-107375046D01*
X172001538Y-107498462D01*
X172038312Y-107527788D01*
X172078453Y-107584976D01*
X172085000Y-107624736D01*
X172085000Y-112372985D01*
X172065315Y-112440024D01*
X172048677Y-112460670D01*
X171955913Y-112553425D01*
X171955909Y-112553430D01*
X171879249Y-112668145D01*
X171879247Y-112668147D01*
X171879247Y-112668149D01*
X171865864Y-112700453D01*
X171826435Y-112795622D01*
X171809805Y-112879194D01*
X171799507Y-112930945D01*
X171799504Y-112960108D01*
X171799500Y-112960118D01*
X171799500Y-112994250D01*
X171799500Y-112999029D01*
X171799500Y-112999946D01*
X171799495Y-113052795D01*
X171799500Y-113052842D01*
X171799500Y-119490242D01*
X171797973Y-119509639D01*
X171797973Y-119509641D01*
X171787913Y-119573154D01*
X171775925Y-119610049D01*
X171751217Y-119658542D01*
X171728413Y-119689929D01*
X171689929Y-119728413D01*
X171658542Y-119751217D01*
X171610049Y-119775925D01*
X171573154Y-119787913D01*
X171535734Y-119793840D01*
X171509639Y-119797973D01*
X171490243Y-119799500D01*
X150509757Y-119799500D01*
X150490360Y-119797973D01*
X150449549Y-119791509D01*
X150426845Y-119787913D01*
X150389950Y-119775925D01*
X150341457Y-119751217D01*
X150310070Y-119728413D01*
X150271586Y-119689929D01*
X150248782Y-119658542D01*
X150224073Y-119610046D01*
X150212086Y-119573152D01*
X150211427Y-119568993D01*
X150202027Y-119509639D01*
X150200500Y-119490242D01*
X150200500Y-119380000D01*
X162560000Y-119380000D01*
X164592000Y-119380000D01*
X164592000Y-118946273D01*
X168017500Y-118946273D01*
X168017500Y-119051727D01*
X168044793Y-119153587D01*
X168097520Y-119244913D01*
X168172087Y-119319480D01*
X168263413Y-119372207D01*
X168365273Y-119399500D01*
X168365275Y-119399500D01*
X168470725Y-119399500D01*
X168470727Y-119399500D01*
X168572587Y-119372207D01*
X168663913Y-119319480D01*
X168738480Y-119244913D01*
X168791207Y-119153587D01*
X168818500Y-119051727D01*
X168818500Y-118946273D01*
X168791207Y-118844413D01*
X168738480Y-118753087D01*
X168663913Y-118678520D01*
X168572587Y-118625793D01*
X168470727Y-118598500D01*
X168365273Y-118598500D01*
X168263413Y-118625793D01*
X168263410Y-118625794D01*
X168172085Y-118678521D01*
X168097521Y-118753085D01*
X168044794Y-118844410D01*
X168044793Y-118844413D01*
X168017500Y-118946273D01*
X164592000Y-118946273D01*
X164592000Y-116914273D01*
X168001500Y-116914273D01*
X168001500Y-117019727D01*
X168028793Y-117121587D01*
X168081520Y-117212913D01*
X168156087Y-117287480D01*
X168247413Y-117340207D01*
X168349273Y-117367500D01*
X168349275Y-117367500D01*
X168454725Y-117367500D01*
X168454727Y-117367500D01*
X168556587Y-117340207D01*
X168647913Y-117287480D01*
X168722480Y-117212913D01*
X168775207Y-117121587D01*
X168802500Y-117019727D01*
X168802500Y-116914273D01*
X168775207Y-116812413D01*
X168722480Y-116721087D01*
X168647913Y-116646520D01*
X168556587Y-116593793D01*
X168454727Y-116566500D01*
X168349273Y-116566500D01*
X168247413Y-116593793D01*
X168247410Y-116593794D01*
X168156085Y-116646521D01*
X168081521Y-116721085D01*
X168028794Y-116812410D01*
X168028793Y-116812413D01*
X168001500Y-116914273D01*
X164592000Y-116914273D01*
X164592000Y-116840000D01*
X162560000Y-116840000D01*
X162560000Y-119380000D01*
X150200500Y-119380000D01*
X150200500Y-117792073D01*
X150220185Y-117725034D01*
X150272989Y-117679279D01*
X150342147Y-117669335D01*
X150405703Y-117698360D01*
X150412181Y-117704392D01*
X150540088Y-117832299D01*
X150540092Y-117832302D01*
X150695762Y-117936318D01*
X150695768Y-117936321D01*
X150695769Y-117936322D01*
X150868749Y-118007973D01*
X151052379Y-118044499D01*
X151052383Y-118044500D01*
X151052384Y-118044500D01*
X151239617Y-118044500D01*
X151239618Y-118044499D01*
X151423251Y-118007973D01*
X151596231Y-117936322D01*
X151751908Y-117832302D01*
X151884302Y-117699908D01*
X151988322Y-117544231D01*
X152031439Y-117440138D01*
X152075280Y-117385734D01*
X152141574Y-117363669D01*
X152209273Y-117380948D01*
X152256884Y-117432085D01*
X152260561Y-117440138D01*
X152303674Y-117544224D01*
X152303681Y-117544237D01*
X152407697Y-117699907D01*
X152407700Y-117699911D01*
X152540088Y-117832299D01*
X152540092Y-117832302D01*
X152695762Y-117936318D01*
X152695768Y-117936321D01*
X152695769Y-117936322D01*
X152868749Y-118007973D01*
X153052379Y-118044499D01*
X153052383Y-118044500D01*
X153052384Y-118044500D01*
X153239617Y-118044500D01*
X153239618Y-118044499D01*
X153423251Y-118007973D01*
X153596231Y-117936322D01*
X153751908Y-117832302D01*
X153884302Y-117699908D01*
X153988322Y-117544231D01*
X154059973Y-117371251D01*
X154096500Y-117187616D01*
X154096500Y-117000384D01*
X154059973Y-116816749D01*
X153991930Y-116652480D01*
X153988323Y-116643771D01*
X153988318Y-116643762D01*
X153884302Y-116488092D01*
X153884299Y-116488088D01*
X153751911Y-116355700D01*
X153751907Y-116355697D01*
X153637531Y-116279273D01*
X159365500Y-116279273D01*
X159365500Y-116384727D01*
X159370872Y-116404773D01*
X159392793Y-116486586D01*
X159392794Y-116486589D01*
X159393662Y-116488092D01*
X159445520Y-116577913D01*
X159520087Y-116652480D01*
X159611413Y-116705207D01*
X159713273Y-116732500D01*
X159713275Y-116732500D01*
X159818725Y-116732500D01*
X159818727Y-116732500D01*
X159920587Y-116705207D01*
X160011913Y-116652480D01*
X160086480Y-116577913D01*
X160139207Y-116486587D01*
X160166500Y-116384727D01*
X160166500Y-116279273D01*
X160139207Y-116177413D01*
X160086480Y-116086087D01*
X160011913Y-116011520D01*
X159922631Y-115959973D01*
X159920589Y-115958794D01*
X159920588Y-115958793D01*
X159920587Y-115958793D01*
X159818727Y-115931500D01*
X159713273Y-115931500D01*
X159611413Y-115958793D01*
X159611410Y-115958794D01*
X159520085Y-116011521D01*
X159445521Y-116086085D01*
X159392794Y-116177410D01*
X159392793Y-116177413D01*
X159365500Y-116279273D01*
X153637531Y-116279273D01*
X153596237Y-116251681D01*
X153596228Y-116251676D01*
X153491210Y-116208177D01*
X153434194Y-116184560D01*
X153379793Y-116140720D01*
X153357728Y-116074426D01*
X153375007Y-116006727D01*
X153426144Y-115959116D01*
X153434186Y-115955443D01*
X153596231Y-115888322D01*
X153751908Y-115784302D01*
X153884302Y-115651908D01*
X153975599Y-115515273D01*
X161145500Y-115515273D01*
X161145500Y-115620727D01*
X161172793Y-115722587D01*
X161225520Y-115813913D01*
X161300087Y-115888480D01*
X161391413Y-115941207D01*
X161493273Y-115968500D01*
X161493275Y-115968500D01*
X161598725Y-115968500D01*
X161598727Y-115968500D01*
X161700587Y-115941207D01*
X161791913Y-115888480D01*
X161866480Y-115813913D01*
X161919207Y-115722587D01*
X161926764Y-115694384D01*
X166982299Y-115694384D01*
X166982299Y-115800680D01*
X166982300Y-115800683D01*
X166982300Y-116152348D01*
X167009811Y-116255023D01*
X167062959Y-116347078D01*
X167138122Y-116422241D01*
X167230177Y-116475389D01*
X167332852Y-116502900D01*
X167332854Y-116502900D01*
X167439146Y-116502900D01*
X167439148Y-116502900D01*
X167541823Y-116475389D01*
X167633878Y-116422241D01*
X167709041Y-116347078D01*
X167762189Y-116255023D01*
X167789700Y-116152348D01*
X167789700Y-115966111D01*
X167798344Y-115936670D01*
X167804868Y-115906684D01*
X167808622Y-115901668D01*
X167809385Y-115899072D01*
X167826015Y-115878434D01*
X167906805Y-115797644D01*
X167968127Y-115764160D01*
X168037819Y-115769144D01*
X168092863Y-115809843D01*
X168097519Y-115815911D01*
X168097520Y-115815913D01*
X168172087Y-115890480D01*
X168263413Y-115943207D01*
X168365273Y-115970500D01*
X168365275Y-115970500D01*
X168470725Y-115970500D01*
X168470727Y-115970500D01*
X168572587Y-115943207D01*
X168663913Y-115890480D01*
X168738480Y-115815913D01*
X168791207Y-115724587D01*
X168818500Y-115622727D01*
X168818500Y-115517273D01*
X168791207Y-115415413D01*
X168738480Y-115324087D01*
X168663913Y-115249520D01*
X168663910Y-115249518D01*
X168657838Y-115244859D01*
X168647750Y-115231043D01*
X168634059Y-115220794D01*
X168627576Y-115203413D01*
X168616636Y-115188430D01*
X168615619Y-115171354D01*
X168609642Y-115155330D01*
X168613585Y-115137204D01*
X168612482Y-115118684D01*
X168620933Y-115103423D01*
X168624494Y-115087057D01*
X168645642Y-115058806D01*
X168724781Y-114979667D01*
X168786102Y-114946184D01*
X168855794Y-114951168D01*
X168911727Y-114993040D01*
X168932234Y-115035255D01*
X168946791Y-115089582D01*
X168946792Y-115089586D01*
X168946793Y-115089587D01*
X168999520Y-115180913D01*
X169074087Y-115255480D01*
X169165413Y-115308207D01*
X169267273Y-115335500D01*
X169267275Y-115335500D01*
X169372725Y-115335500D01*
X169372727Y-115335500D01*
X169474587Y-115308207D01*
X169565913Y-115255480D01*
X169640480Y-115180913D01*
X169693207Y-115089587D01*
X169720500Y-114987727D01*
X169720500Y-114882273D01*
X169693207Y-114780413D01*
X169640480Y-114689087D01*
X169565913Y-114614520D01*
X169474587Y-114561793D01*
X169420255Y-114547235D01*
X169415072Y-114544076D01*
X169409016Y-114543643D01*
X169385586Y-114526103D01*
X169360596Y-114510871D01*
X169357942Y-114505409D01*
X169353083Y-114501771D01*
X169342856Y-114474353D01*
X169330067Y-114448025D01*
X169330787Y-114441995D01*
X169328666Y-114436307D01*
X169334886Y-114407712D01*
X169338361Y-114378649D01*
X169342557Y-114372448D01*
X169343518Y-114368034D01*
X169364664Y-114339785D01*
X169498765Y-114205684D01*
X169560086Y-114172202D01*
X169586444Y-114169368D01*
X169596882Y-114169368D01*
X169596884Y-114169368D01*
X169685843Y-114145531D01*
X169699559Y-114141856D01*
X169791614Y-114088708D01*
X169866777Y-114013545D01*
X169866777Y-114013543D01*
X169876981Y-114003340D01*
X169876985Y-114003335D01*
X170581853Y-113298467D01*
X170581858Y-113298463D01*
X170592061Y-113288259D01*
X170592063Y-113288259D01*
X170667226Y-113213096D01*
X170720374Y-113121041D01*
X170736445Y-113061063D01*
X170747886Y-113018366D01*
X170747886Y-113007140D01*
X170750659Y-112994250D01*
X170758979Y-112978928D01*
X170764499Y-112958328D01*
X170810190Y-112879192D01*
X170837701Y-112776518D01*
X170837701Y-112670221D01*
X170810190Y-112567547D01*
X170810187Y-112567541D01*
X170757045Y-112475498D01*
X170757042Y-112475495D01*
X170757041Y-112475492D01*
X170681878Y-112400329D01*
X170681875Y-112400327D01*
X170681871Y-112400324D01*
X170589828Y-112347182D01*
X170589825Y-112347181D01*
X170589824Y-112347180D01*
X170589823Y-112347180D01*
X170487149Y-112319669D01*
X170380852Y-112319669D01*
X170278178Y-112347180D01*
X170278177Y-112347180D01*
X170278175Y-112347181D01*
X170278172Y-112347182D01*
X170186129Y-112400324D01*
X170186124Y-112400328D01*
X170186123Y-112400329D01*
X170096309Y-112490142D01*
X170096308Y-112490142D01*
X170021146Y-112565304D01*
X170021142Y-112565310D01*
X169968009Y-112657337D01*
X169968007Y-112657341D01*
X169967996Y-112657362D01*
X169967996Y-112657363D01*
X169940484Y-112760037D01*
X169940484Y-112764608D01*
X169937392Y-112776659D01*
X169923187Y-112800530D01*
X169911952Y-112825925D01*
X169904964Y-112833521D01*
X169804663Y-112933821D01*
X169743339Y-112967305D01*
X169673648Y-112962321D01*
X169618606Y-112921625D01*
X169613946Y-112915552D01*
X169539382Y-112840988D01*
X169539381Y-112840987D01*
X169464927Y-112798001D01*
X169448057Y-112788261D01*
X169448056Y-112788260D01*
X169448055Y-112788260D01*
X169346195Y-112760967D01*
X169240741Y-112760967D01*
X169138881Y-112788260D01*
X169138878Y-112788261D01*
X169047553Y-112840988D01*
X168972989Y-112915552D01*
X168920262Y-113006877D01*
X168920261Y-113006880D01*
X168892968Y-113108740D01*
X168892968Y-113214194D01*
X168912814Y-113288259D01*
X168920261Y-113316053D01*
X168920262Y-113316056D01*
X168930015Y-113332948D01*
X168957656Y-113380825D01*
X168972989Y-113407381D01*
X168976429Y-113410821D01*
X169009914Y-113472144D01*
X169004930Y-113541836D01*
X168976429Y-113586183D01*
X167138124Y-115424489D01*
X167062961Y-115499651D01*
X167062957Y-115499657D01*
X167009810Y-115591708D01*
X167009811Y-115591708D01*
X167009811Y-115591709D01*
X167009811Y-115591710D01*
X166982299Y-115694384D01*
X161926764Y-115694384D01*
X161946500Y-115620727D01*
X161946500Y-115515273D01*
X161919207Y-115413413D01*
X161866480Y-115322087D01*
X161791913Y-115247520D01*
X161700587Y-115194793D01*
X161598727Y-115167500D01*
X161493273Y-115167500D01*
X161391413Y-115194793D01*
X161391410Y-115194794D01*
X161300085Y-115247521D01*
X161225521Y-115322085D01*
X161172794Y-115413410D01*
X161172793Y-115413413D01*
X161145500Y-115515273D01*
X153975599Y-115515273D01*
X153988322Y-115496231D01*
X154059973Y-115323251D01*
X154096500Y-115139616D01*
X154096500Y-114952384D01*
X154059973Y-114768749D01*
X153988322Y-114595769D01*
X153988321Y-114595768D01*
X153988318Y-114595762D01*
X153884303Y-114440093D01*
X153884298Y-114440087D01*
X153817484Y-114373273D01*
X158857500Y-114373273D01*
X158857500Y-114478727D01*
X158884793Y-114580587D01*
X158937520Y-114671913D01*
X159012087Y-114746480D01*
X159103413Y-114799207D01*
X159205273Y-114826500D01*
X159205275Y-114826500D01*
X159310725Y-114826500D01*
X159310727Y-114826500D01*
X159412587Y-114799207D01*
X159503913Y-114746480D01*
X159578480Y-114671913D01*
X159631207Y-114580587D01*
X159651943Y-114503199D01*
X160381447Y-114503199D01*
X160381447Y-114608653D01*
X160408740Y-114710513D01*
X160461467Y-114801839D01*
X160536034Y-114876406D01*
X160627360Y-114929133D01*
X160729220Y-114956426D01*
X160729222Y-114956426D01*
X160834672Y-114956426D01*
X160834674Y-114956426D01*
X160936534Y-114929133D01*
X161027860Y-114876406D01*
X161102427Y-114801839D01*
X161155154Y-114710513D01*
X161182447Y-114608653D01*
X161182447Y-114503199D01*
X161181931Y-114501273D01*
X163683500Y-114501273D01*
X163683500Y-114606727D01*
X163710793Y-114708587D01*
X163763520Y-114799913D01*
X163838087Y-114874480D01*
X163929413Y-114927207D01*
X164031273Y-114954500D01*
X164031275Y-114954500D01*
X164136725Y-114954500D01*
X164136727Y-114954500D01*
X164238587Y-114927207D01*
X164322004Y-114879045D01*
X164389900Y-114862574D01*
X164445999Y-114879046D01*
X164529416Y-114927207D01*
X164631276Y-114954500D01*
X164631278Y-114954500D01*
X164736728Y-114954500D01*
X164736730Y-114954500D01*
X164838590Y-114927207D01*
X164929916Y-114874480D01*
X165004483Y-114799913D01*
X165057210Y-114708587D01*
X165084503Y-114606727D01*
X165084503Y-114501273D01*
X165057210Y-114399413D01*
X165004483Y-114308087D01*
X164929916Y-114233520D01*
X164838590Y-114180793D01*
X164736730Y-114153500D01*
X164631276Y-114153500D01*
X164529416Y-114180793D01*
X164529415Y-114180793D01*
X164445999Y-114228953D01*
X164378099Y-114245424D01*
X164322001Y-114228952D01*
X164238587Y-114180793D01*
X164136727Y-114153500D01*
X164031273Y-114153500D01*
X163929413Y-114180793D01*
X163929410Y-114180794D01*
X163838085Y-114233521D01*
X163763521Y-114308085D01*
X163710794Y-114399410D01*
X163710793Y-114399413D01*
X163683500Y-114501273D01*
X161181931Y-114501273D01*
X161155154Y-114401339D01*
X161102427Y-114310013D01*
X161027860Y-114235446D01*
X160936534Y-114182719D01*
X160834674Y-114155426D01*
X160729220Y-114155426D01*
X160627360Y-114182719D01*
X160627357Y-114182720D01*
X160536032Y-114235447D01*
X160461468Y-114310011D01*
X160408741Y-114401336D01*
X160408740Y-114401339D01*
X160381447Y-114503199D01*
X159651943Y-114503199D01*
X159658500Y-114478727D01*
X159658500Y-114373273D01*
X159631207Y-114271413D01*
X159578480Y-114180087D01*
X159503913Y-114105520D01*
X159412587Y-114052793D01*
X159310727Y-114025500D01*
X159205273Y-114025500D01*
X159103413Y-114052793D01*
X159103410Y-114052794D01*
X159012085Y-114105521D01*
X158937521Y-114180085D01*
X158884794Y-114271410D01*
X158884793Y-114271413D01*
X158857500Y-114373273D01*
X153817484Y-114373273D01*
X153751911Y-114307700D01*
X153751907Y-114307697D01*
X153596237Y-114203681D01*
X153596224Y-114203674D01*
X153492138Y-114160561D01*
X153437734Y-114116720D01*
X153415669Y-114050426D01*
X153432948Y-113982727D01*
X153484085Y-113935116D01*
X153492138Y-113931439D01*
X153596224Y-113888325D01*
X153596224Y-113888324D01*
X153596231Y-113888322D01*
X153751908Y-113784302D01*
X153884302Y-113651908D01*
X153988322Y-113496231D01*
X154059973Y-113323251D01*
X154080023Y-113222448D01*
X154112407Y-113160540D01*
X154173122Y-113125966D01*
X154242892Y-113129705D01*
X154263634Y-113139252D01*
X154277413Y-113147207D01*
X154379273Y-113174500D01*
X154379275Y-113174500D01*
X154484725Y-113174500D01*
X154484727Y-113174500D01*
X154586587Y-113147207D01*
X154677913Y-113094480D01*
X154752480Y-113019913D01*
X154805207Y-112928587D01*
X154832500Y-112826727D01*
X154832500Y-112721273D01*
X154805207Y-112619413D01*
X154752480Y-112528087D01*
X154677913Y-112453520D01*
X154595218Y-112405776D01*
X154586589Y-112400794D01*
X154586588Y-112400793D01*
X154586587Y-112400793D01*
X154484727Y-112373500D01*
X154379273Y-112373500D01*
X154277413Y-112400793D01*
X154277410Y-112400794D01*
X154186087Y-112453520D01*
X154117398Y-112522209D01*
X154056074Y-112555693D01*
X153986383Y-112550708D01*
X153930449Y-112508837D01*
X153926614Y-112503417D01*
X153917745Y-112490144D01*
X153884302Y-112440092D01*
X153884300Y-112440089D01*
X153751911Y-112307700D01*
X153751907Y-112307697D01*
X153596237Y-112203681D01*
X153596227Y-112203676D01*
X153574574Y-112194707D01*
X153423251Y-112132027D01*
X153423243Y-112132025D01*
X153239620Y-112095500D01*
X153239616Y-112095500D01*
X153052384Y-112095500D01*
X153052379Y-112095500D01*
X152868756Y-112132025D01*
X152868748Y-112132027D01*
X152695771Y-112203676D01*
X152695762Y-112203681D01*
X152540092Y-112307697D01*
X152540088Y-112307700D01*
X152407700Y-112440088D01*
X152407697Y-112440092D01*
X152303681Y-112595762D01*
X152303676Y-112595772D01*
X152260561Y-112699862D01*
X152216720Y-112754265D01*
X152150426Y-112776330D01*
X152082726Y-112759051D01*
X152035116Y-112707913D01*
X152031439Y-112699862D01*
X151998114Y-112619410D01*
X151988322Y-112595769D01*
X151988320Y-112595766D01*
X151988318Y-112595762D01*
X151884302Y-112440092D01*
X151884299Y-112440088D01*
X151751911Y-112307700D01*
X151751907Y-112307697D01*
X151596237Y-112203681D01*
X151596228Y-112203676D01*
X151423251Y-112132027D01*
X151423243Y-112132025D01*
X151239620Y-112095500D01*
X151239616Y-112095500D01*
X151052384Y-112095500D01*
X151052379Y-112095500D01*
X150868756Y-112132025D01*
X150868748Y-112132027D01*
X150695771Y-112203676D01*
X150695762Y-112203681D01*
X150540092Y-112307697D01*
X150540088Y-112307700D01*
X150412181Y-112435608D01*
X150350858Y-112469093D01*
X150281166Y-112464109D01*
X150225233Y-112422237D01*
X150200816Y-112356773D01*
X150200500Y-112347927D01*
X150200500Y-112088273D01*
X157333500Y-112088273D01*
X157333500Y-112193727D01*
X157345869Y-112239887D01*
X157360793Y-112295586D01*
X157360794Y-112295589D01*
X157374697Y-112319669D01*
X157413520Y-112386913D01*
X157488087Y-112461480D01*
X157579413Y-112514207D01*
X157681273Y-112541500D01*
X157681275Y-112541500D01*
X157786725Y-112541500D01*
X157786727Y-112541500D01*
X157888587Y-112514207D01*
X157979913Y-112461480D01*
X158020324Y-112421068D01*
X158081645Y-112387584D01*
X158151336Y-112392568D01*
X158169832Y-112402803D01*
X158170462Y-112401714D01*
X158177498Y-112405776D01*
X158177500Y-112405778D01*
X158268826Y-112458505D01*
X158370686Y-112485798D01*
X158370688Y-112485798D01*
X158476138Y-112485798D01*
X158476140Y-112485798D01*
X158578000Y-112458505D01*
X158669326Y-112405778D01*
X158743893Y-112331211D01*
X158796620Y-112239885D01*
X158823913Y-112138025D01*
X158823913Y-112032571D01*
X158796620Y-111930711D01*
X158743893Y-111839385D01*
X158669326Y-111764818D01*
X158578000Y-111712091D01*
X158476140Y-111684798D01*
X158370686Y-111684798D01*
X158268826Y-111712091D01*
X158268823Y-111712092D01*
X158177498Y-111764819D01*
X158137086Y-111805230D01*
X158075762Y-111838714D01*
X158006071Y-111833728D01*
X157987583Y-111823488D01*
X157986951Y-111824584D01*
X157979914Y-111820521D01*
X157979913Y-111820520D01*
X157888587Y-111767793D01*
X157786727Y-111740500D01*
X157681273Y-111740500D01*
X157579413Y-111767793D01*
X157579410Y-111767794D01*
X157488085Y-111820521D01*
X157413521Y-111895085D01*
X157360794Y-111986410D01*
X157360793Y-111986413D01*
X157333500Y-112088273D01*
X150200500Y-112088273D01*
X150200500Y-107793361D01*
X155407399Y-107793361D01*
X155407399Y-107898815D01*
X155426393Y-107969700D01*
X155434692Y-108000674D01*
X155434693Y-108000677D01*
X155435876Y-108002726D01*
X155487419Y-108092001D01*
X155561986Y-108166568D01*
X155653312Y-108219295D01*
X155755172Y-108246588D01*
X155755174Y-108246588D01*
X155860624Y-108246588D01*
X155860626Y-108246588D01*
X155962486Y-108219295D01*
X156053812Y-108166568D01*
X156128379Y-108092001D01*
X156181106Y-108000675D01*
X156208399Y-107898815D01*
X156208399Y-107793361D01*
X156181106Y-107691501D01*
X156128379Y-107600175D01*
X156053812Y-107525608D01*
X155962486Y-107472881D01*
X155860626Y-107445588D01*
X155755172Y-107445588D01*
X155653312Y-107472881D01*
X155653309Y-107472882D01*
X155561984Y-107525609D01*
X155487420Y-107600173D01*
X155434693Y-107691498D01*
X155434692Y-107691501D01*
X155407399Y-107793361D01*
X150200500Y-107793361D01*
X150200500Y-107008273D01*
X156952500Y-107008273D01*
X156952500Y-107113727D01*
X156979793Y-107215587D01*
X157032520Y-107306913D01*
X157107087Y-107381480D01*
X157198413Y-107434207D01*
X157300273Y-107461500D01*
X157300275Y-107461500D01*
X157405725Y-107461500D01*
X157405727Y-107461500D01*
X157507587Y-107434207D01*
X157598913Y-107381480D01*
X157673480Y-107306913D01*
X157726207Y-107215587D01*
X157753500Y-107113727D01*
X157753500Y-107008273D01*
X157726207Y-106906413D01*
X157673480Y-106815087D01*
X157598913Y-106740520D01*
X157507587Y-106687793D01*
X157405727Y-106660500D01*
X157300273Y-106660500D01*
X157198413Y-106687793D01*
X157198410Y-106687794D01*
X157107085Y-106740521D01*
X157032521Y-106815085D01*
X156979794Y-106906410D01*
X156979793Y-106906413D01*
X156952500Y-107008273D01*
X150200500Y-107008273D01*
X150200500Y-106383773D01*
X150454500Y-106383773D01*
X150454500Y-106489227D01*
X150481793Y-106591087D01*
X150534520Y-106682413D01*
X150609087Y-106756980D01*
X150700413Y-106809707D01*
X150802273Y-106837000D01*
X150802275Y-106837000D01*
X150907725Y-106837000D01*
X150907727Y-106837000D01*
X151009587Y-106809707D01*
X151100913Y-106756980D01*
X151175480Y-106682413D01*
X151228207Y-106591087D01*
X151255500Y-106489227D01*
X151255500Y-106440318D01*
X156067045Y-106440318D01*
X156067045Y-106545772D01*
X156094338Y-106647632D01*
X156147065Y-106738958D01*
X156221632Y-106813525D01*
X156312958Y-106866252D01*
X156414818Y-106893545D01*
X156414820Y-106893545D01*
X156520270Y-106893545D01*
X156520272Y-106893545D01*
X156622132Y-106866252D01*
X156713458Y-106813525D01*
X156788025Y-106738958D01*
X156840752Y-106647632D01*
X156868045Y-106545772D01*
X156868045Y-106440318D01*
X156840752Y-106338458D01*
X156788025Y-106247132D01*
X156713458Y-106172565D01*
X156632239Y-106125673D01*
X159344500Y-106125673D01*
X159344500Y-106231127D01*
X159371793Y-106332987D01*
X159424520Y-106424313D01*
X159499087Y-106498880D01*
X159590413Y-106551607D01*
X159692273Y-106578900D01*
X159692275Y-106578900D01*
X159797725Y-106578900D01*
X159797727Y-106578900D01*
X159899587Y-106551607D01*
X159990913Y-106498880D01*
X160065480Y-106424313D01*
X160118207Y-106332987D01*
X160145500Y-106231127D01*
X160145500Y-106125673D01*
X160144021Y-106120153D01*
X163425079Y-106120153D01*
X163425079Y-106225607D01*
X163452372Y-106327467D01*
X163505099Y-106418793D01*
X163579666Y-106493360D01*
X163670992Y-106546087D01*
X163772852Y-106573380D01*
X163772854Y-106573380D01*
X163878304Y-106573380D01*
X163878306Y-106573380D01*
X163980166Y-106546087D01*
X164071492Y-106493360D01*
X164146059Y-106418793D01*
X164198786Y-106327467D01*
X164226079Y-106225607D01*
X164226079Y-106120153D01*
X164198786Y-106018293D01*
X164146059Y-105926967D01*
X164071492Y-105852400D01*
X163980166Y-105799673D01*
X163878306Y-105772380D01*
X163772852Y-105772380D01*
X163670992Y-105799673D01*
X163670989Y-105799674D01*
X163579664Y-105852401D01*
X163505100Y-105926965D01*
X163452373Y-106018290D01*
X163452372Y-106018293D01*
X163425079Y-106120153D01*
X160144021Y-106120153D01*
X160118207Y-106023813D01*
X160065480Y-105932487D01*
X159990913Y-105857920D01*
X159899587Y-105805193D01*
X159797727Y-105777900D01*
X159692273Y-105777900D01*
X159590413Y-105805193D01*
X159590410Y-105805194D01*
X159499085Y-105857921D01*
X159424521Y-105932485D01*
X159371794Y-106023810D01*
X159371793Y-106023813D01*
X159344500Y-106125673D01*
X156632239Y-106125673D01*
X156622132Y-106119838D01*
X156520272Y-106092545D01*
X156414818Y-106092545D01*
X156312958Y-106119838D01*
X156312955Y-106119839D01*
X156221630Y-106172566D01*
X156147066Y-106247130D01*
X156094339Y-106338455D01*
X156094338Y-106338458D01*
X156067045Y-106440318D01*
X151255500Y-106440318D01*
X151255500Y-106383773D01*
X151228207Y-106281913D01*
X151175480Y-106190587D01*
X151100913Y-106116020D01*
X151009587Y-106063293D01*
X150907727Y-106036000D01*
X150802273Y-106036000D01*
X150700413Y-106063293D01*
X150700410Y-106063294D01*
X150609085Y-106116021D01*
X150534521Y-106190585D01*
X150481794Y-106281910D01*
X150481793Y-106281913D01*
X150454500Y-106383773D01*
X150200500Y-106383773D01*
X150200500Y-105611273D01*
X152479500Y-105611273D01*
X152479500Y-105716727D01*
X152506793Y-105818587D01*
X152559520Y-105909913D01*
X152634087Y-105984480D01*
X152725413Y-106037207D01*
X152827273Y-106064500D01*
X152827275Y-106064500D01*
X152932725Y-106064500D01*
X152932727Y-106064500D01*
X153034587Y-106037207D01*
X153125913Y-105984480D01*
X153200480Y-105909913D01*
X153253207Y-105818587D01*
X153280500Y-105716727D01*
X153280500Y-105611273D01*
X153253207Y-105509413D01*
X153222527Y-105456273D01*
X164826500Y-105456273D01*
X164826500Y-105561727D01*
X164853793Y-105663587D01*
X164906520Y-105754913D01*
X164981087Y-105829480D01*
X165072413Y-105882207D01*
X165174273Y-105909500D01*
X165174275Y-105909500D01*
X165279725Y-105909500D01*
X165279727Y-105909500D01*
X165381587Y-105882207D01*
X165472913Y-105829480D01*
X165547480Y-105754913D01*
X165600207Y-105663587D01*
X165627500Y-105561727D01*
X165627500Y-105456273D01*
X165600207Y-105354413D01*
X165547480Y-105263087D01*
X165472913Y-105188520D01*
X165381587Y-105135793D01*
X165279727Y-105108500D01*
X165174273Y-105108500D01*
X165072413Y-105135793D01*
X165072410Y-105135794D01*
X164981085Y-105188521D01*
X164906521Y-105263085D01*
X164853794Y-105354410D01*
X164853793Y-105354413D01*
X164826500Y-105456273D01*
X153222527Y-105456273D01*
X153200480Y-105418087D01*
X153125913Y-105343520D01*
X153057225Y-105303863D01*
X153034589Y-105290794D01*
X153034588Y-105290793D01*
X153034587Y-105290793D01*
X152932727Y-105263500D01*
X152827273Y-105263500D01*
X152725413Y-105290793D01*
X152725410Y-105290794D01*
X152634085Y-105343521D01*
X152559521Y-105418085D01*
X152506794Y-105509410D01*
X152506794Y-105509411D01*
X152506793Y-105509413D01*
X152479500Y-105611273D01*
X150200500Y-105611273D01*
X150200500Y-105026000D01*
X150220185Y-104958961D01*
X150272989Y-104913206D01*
X150324500Y-104902000D01*
X155575000Y-104902000D01*
X155575000Y-104868273D01*
X159770388Y-104868273D01*
X159770388Y-104973727D01*
X159797681Y-105075587D01*
X159850408Y-105166913D01*
X159924975Y-105241480D01*
X160016301Y-105294207D01*
X160118161Y-105321500D01*
X160118163Y-105321500D01*
X160223613Y-105321500D01*
X160223615Y-105321500D01*
X160325475Y-105294207D01*
X160416801Y-105241480D01*
X160491368Y-105166913D01*
X160544095Y-105075587D01*
X160571388Y-104973727D01*
X160571388Y-104868273D01*
X160544095Y-104766413D01*
X160491368Y-104675087D01*
X160416801Y-104600520D01*
X160325475Y-104547793D01*
X160223615Y-104520500D01*
X160118161Y-104520500D01*
X160016301Y-104547793D01*
X160016298Y-104547794D01*
X159924973Y-104600521D01*
X159850409Y-104675085D01*
X159797682Y-104766410D01*
X159797681Y-104766413D01*
X159770388Y-104868273D01*
X155575000Y-104868273D01*
X155575000Y-104468273D01*
X163810500Y-104468273D01*
X163810500Y-104573727D01*
X163837793Y-104675587D01*
X163890520Y-104766913D01*
X163965087Y-104841480D01*
X164056413Y-104894207D01*
X164158273Y-104921500D01*
X164158275Y-104921500D01*
X164263725Y-104921500D01*
X164263727Y-104921500D01*
X164365587Y-104894207D01*
X164456913Y-104841480D01*
X164531480Y-104766913D01*
X164584207Y-104675587D01*
X164611500Y-104573727D01*
X164611500Y-104468273D01*
X164584207Y-104366413D01*
X164531480Y-104275087D01*
X164456913Y-104200520D01*
X164365587Y-104147793D01*
X164263727Y-104120500D01*
X164158273Y-104120500D01*
X164056413Y-104147793D01*
X164056410Y-104147794D01*
X163965085Y-104200521D01*
X163890521Y-104275085D01*
X163837794Y-104366410D01*
X163837793Y-104366413D01*
X163810500Y-104468273D01*
X155575000Y-104468273D01*
X155575000Y-100785273D01*
X157568500Y-100785273D01*
X157568500Y-100890727D01*
X157595793Y-100992587D01*
X157648520Y-101083913D01*
X157723087Y-101158480D01*
X157814413Y-101211207D01*
X157916273Y-101238500D01*
X157916275Y-101238500D01*
X158021725Y-101238500D01*
X158021727Y-101238500D01*
X158123587Y-101211207D01*
X158214913Y-101158480D01*
X158289480Y-101083913D01*
X158342207Y-100992587D01*
X158369500Y-100890727D01*
X158369500Y-100785273D01*
X158342207Y-100683413D01*
X158300910Y-100611884D01*
X158708408Y-100611884D01*
X158708408Y-100717338D01*
X158735701Y-100819198D01*
X158788428Y-100910524D01*
X158862995Y-100985091D01*
X158954321Y-101037818D01*
X159056181Y-101065111D01*
X159056183Y-101065111D01*
X159161633Y-101065111D01*
X159161635Y-101065111D01*
X159263495Y-101037818D01*
X159354821Y-100985091D01*
X159429388Y-100910524D01*
X159482115Y-100819198D01*
X159509408Y-100717338D01*
X159509408Y-100658273D01*
X163048500Y-100658273D01*
X163048500Y-100763727D01*
X163075793Y-100865587D01*
X163128520Y-100956913D01*
X163203087Y-101031480D01*
X163294413Y-101084207D01*
X163396273Y-101111500D01*
X163396275Y-101111500D01*
X163501725Y-101111500D01*
X163501727Y-101111500D01*
X163603587Y-101084207D01*
X163627005Y-101070686D01*
X163694903Y-101054213D01*
X163760930Y-101077064D01*
X163796390Y-101116071D01*
X163814019Y-101146605D01*
X163888586Y-101221172D01*
X163979912Y-101273899D01*
X164081772Y-101301192D01*
X164081774Y-101301192D01*
X164187224Y-101301192D01*
X164187226Y-101301192D01*
X164289086Y-101273899D01*
X164380412Y-101221172D01*
X164454979Y-101146605D01*
X164507706Y-101055279D01*
X164534999Y-100953419D01*
X164534999Y-100847965D01*
X164507706Y-100746105D01*
X164454979Y-100654779D01*
X164380412Y-100580212D01*
X164289086Y-100527485D01*
X164187226Y-100500192D01*
X164081772Y-100500192D01*
X163979912Y-100527485D01*
X163956491Y-100541007D01*
X163888590Y-100557477D01*
X163822564Y-100534624D01*
X163787109Y-100495621D01*
X163769480Y-100465087D01*
X163694913Y-100390520D01*
X163628059Y-100351922D01*
X163603589Y-100337794D01*
X163603588Y-100337793D01*
X163603587Y-100337793D01*
X163501727Y-100310500D01*
X163396273Y-100310500D01*
X163294413Y-100337793D01*
X163294410Y-100337794D01*
X163203085Y-100390521D01*
X163128521Y-100465085D01*
X163075794Y-100556410D01*
X163075793Y-100556413D01*
X163048500Y-100658273D01*
X159509408Y-100658273D01*
X159509408Y-100611884D01*
X159482115Y-100510024D01*
X159429388Y-100418698D01*
X159354821Y-100344131D01*
X159263495Y-100291404D01*
X159161635Y-100264111D01*
X159056181Y-100264111D01*
X158954321Y-100291404D01*
X158954318Y-100291405D01*
X158862993Y-100344132D01*
X158788429Y-100418696D01*
X158735702Y-100510021D01*
X158735701Y-100510024D01*
X158708408Y-100611884D01*
X158300910Y-100611884D01*
X158289480Y-100592087D01*
X158214913Y-100517520D01*
X158123587Y-100464793D01*
X158021727Y-100437500D01*
X157916273Y-100437500D01*
X157814413Y-100464793D01*
X157814410Y-100464794D01*
X157723085Y-100517521D01*
X157648521Y-100592085D01*
X157595794Y-100683410D01*
X157595793Y-100683413D01*
X157568500Y-100785273D01*
X155575000Y-100785273D01*
X155575000Y-99642273D01*
X159238500Y-99642273D01*
X159238500Y-99747727D01*
X159265793Y-99849587D01*
X159318520Y-99940913D01*
X159393087Y-100015480D01*
X159484413Y-100068207D01*
X159586273Y-100095500D01*
X159586275Y-100095500D01*
X159691725Y-100095500D01*
X159691727Y-100095500D01*
X159793587Y-100068207D01*
X159884913Y-100015480D01*
X159959480Y-99940913D01*
X160012207Y-99849587D01*
X160039500Y-99747727D01*
X160039500Y-99642273D01*
X160012207Y-99540413D01*
X159959480Y-99449087D01*
X159884913Y-99374520D01*
X159793587Y-99321793D01*
X159691727Y-99294500D01*
X159586273Y-99294500D01*
X159484413Y-99321793D01*
X159484410Y-99321794D01*
X159393085Y-99374521D01*
X159318521Y-99449085D01*
X159265794Y-99540410D01*
X159265793Y-99540413D01*
X159238500Y-99642273D01*
X155575000Y-99642273D01*
X155575000Y-99531323D01*
X155594685Y-99464284D01*
X155637001Y-99423935D01*
X155675514Y-99401700D01*
X155768700Y-99308514D01*
X155834592Y-99194386D01*
X155868700Y-99067092D01*
X155868700Y-98935308D01*
X155847930Y-98857792D01*
X155849593Y-98787943D01*
X155888756Y-98730081D01*
X155952984Y-98702577D01*
X155967705Y-98701700D01*
X157575377Y-98701700D01*
X157575381Y-98701701D01*
X157681677Y-98701701D01*
X157763900Y-98679669D01*
X157784352Y-98674189D01*
X157876407Y-98621041D01*
X157932259Y-98565188D01*
X157993578Y-98531706D01*
X158063270Y-98536690D01*
X158119204Y-98578561D01*
X158127324Y-98590871D01*
X158167449Y-98660369D01*
X158260635Y-98753555D01*
X158374763Y-98819447D01*
X158502057Y-98853555D01*
X158502059Y-98853555D01*
X158633839Y-98853555D01*
X158633841Y-98853555D01*
X158761135Y-98819447D01*
X158875263Y-98753555D01*
X158968449Y-98660369D01*
X159034341Y-98546241D01*
X159068449Y-98418947D01*
X159068449Y-98287163D01*
X159034341Y-98159869D01*
X159032712Y-98153789D01*
X159034375Y-98083939D01*
X159073538Y-98026077D01*
X159137767Y-97998573D01*
X159152487Y-97997696D01*
X159674079Y-97997696D01*
X159741118Y-98017381D01*
X159786873Y-98070185D01*
X159796817Y-98139343D01*
X159767792Y-98202899D01*
X159709014Y-98240673D01*
X159706206Y-98241461D01*
X159625934Y-98262970D01*
X159614540Y-98266023D01*
X159614537Y-98266024D01*
X159523212Y-98318751D01*
X159448648Y-98393315D01*
X159395921Y-98484640D01*
X159395920Y-98484643D01*
X159368627Y-98586503D01*
X159368627Y-98691957D01*
X159395920Y-98793817D01*
X159448647Y-98885143D01*
X159523214Y-98959710D01*
X159614540Y-99012437D01*
X159716400Y-99039730D01*
X159716402Y-99039730D01*
X159821852Y-99039730D01*
X159821854Y-99039730D01*
X159923714Y-99012437D01*
X160015040Y-98959710D01*
X160089607Y-98885143D01*
X160142334Y-98793817D01*
X160169627Y-98691957D01*
X160169627Y-98586503D01*
X160168629Y-98582778D01*
X160168706Y-98579514D01*
X160168566Y-98578447D01*
X160168732Y-98578425D01*
X160170288Y-98512932D01*
X160209447Y-98455068D01*
X160273674Y-98427560D01*
X160342577Y-98439142D01*
X160376083Y-98463001D01*
X160840744Y-98927662D01*
X160840746Y-98927665D01*
X160915909Y-99002828D01*
X160993013Y-99047344D01*
X161007964Y-99055976D01*
X161110638Y-99083487D01*
X161110639Y-99083487D01*
X164892516Y-99083487D01*
X164959555Y-99103172D01*
X165005310Y-99155976D01*
X165015254Y-99225134D01*
X164986229Y-99288690D01*
X164951358Y-99313835D01*
X164952452Y-99315729D01*
X164854085Y-99372521D01*
X164779521Y-99447085D01*
X164726794Y-99538410D01*
X164726793Y-99538413D01*
X164699500Y-99640273D01*
X164699500Y-99745727D01*
X164726793Y-99847587D01*
X164779520Y-99938913D01*
X164854087Y-100013480D01*
X164945413Y-100066207D01*
X165047273Y-100093500D01*
X165047275Y-100093500D01*
X165152725Y-100093500D01*
X165152727Y-100093500D01*
X165254587Y-100066207D01*
X165345913Y-100013480D01*
X165420480Y-99938913D01*
X165473207Y-99847587D01*
X165500500Y-99745727D01*
X165500500Y-99640273D01*
X165473207Y-99538413D01*
X165420480Y-99447087D01*
X165345913Y-99372520D01*
X165254587Y-99319793D01*
X165247548Y-99315729D01*
X165249021Y-99313176D01*
X165205626Y-99278204D01*
X165183563Y-99211910D01*
X165200844Y-99144211D01*
X165251982Y-99096602D01*
X165307484Y-99083487D01*
X165935065Y-99083487D01*
X166411716Y-99083487D01*
X166443796Y-99087708D01*
X166459075Y-99091802D01*
X166540052Y-99113501D01*
X166540053Y-99113501D01*
X166609560Y-99113501D01*
X166676599Y-99133186D01*
X166722354Y-99185990D01*
X166732499Y-99253689D01*
X166731500Y-99261270D01*
X166731500Y-99261273D01*
X166731500Y-99366727D01*
X166758793Y-99468587D01*
X166811520Y-99559913D01*
X166886087Y-99634480D01*
X166886089Y-99634481D01*
X166892158Y-99639138D01*
X166902244Y-99652951D01*
X166915939Y-99663203D01*
X166922421Y-99680583D01*
X166933361Y-99695565D01*
X166934378Y-99712640D01*
X166940356Y-99728667D01*
X166936412Y-99746794D01*
X166937516Y-99765311D01*
X166929065Y-99780570D01*
X166925505Y-99796940D01*
X166904354Y-99825195D01*
X166827924Y-99901625D01*
X166827923Y-99901625D01*
X166827922Y-99901626D01*
X166752761Y-99976787D01*
X166752757Y-99976793D01*
X166699610Y-100068844D01*
X166699611Y-100068844D01*
X166699611Y-100068846D01*
X166672099Y-100171521D01*
X166672099Y-100287805D01*
X166672100Y-100287818D01*
X166672100Y-106818100D01*
X166652415Y-106885139D01*
X166599611Y-106930894D01*
X166548100Y-106942100D01*
X166320583Y-106942100D01*
X166253338Y-106960117D01*
X166253338Y-106960118D01*
X166241528Y-106963282D01*
X166217907Y-106969611D01*
X166217906Y-106969612D01*
X166127711Y-107021687D01*
X166065711Y-107038300D01*
X159411228Y-107038300D01*
X159411212Y-107038299D01*
X159403616Y-107038299D01*
X159297320Y-107038299D01*
X159216342Y-107059997D01*
X159216341Y-107059996D01*
X159194647Y-107065810D01*
X159194642Y-107065812D01*
X159134063Y-107100788D01*
X159102593Y-107118957D01*
X159102591Y-107118958D01*
X159007195Y-107214354D01*
X158945871Y-107247838D01*
X158876180Y-107242854D01*
X158821138Y-107202158D01*
X158816478Y-107196085D01*
X158741914Y-107121521D01*
X158741913Y-107121520D01*
X158650587Y-107068793D01*
X158548727Y-107041500D01*
X158443273Y-107041500D01*
X158341413Y-107068793D01*
X158341410Y-107068794D01*
X158250085Y-107121521D01*
X158175521Y-107196085D01*
X158122794Y-107287410D01*
X158122793Y-107287413D01*
X158095500Y-107389273D01*
X158095500Y-107494727D01*
X158109811Y-107548135D01*
X158122793Y-107596586D01*
X158122795Y-107596591D01*
X158133019Y-107614299D01*
X158149493Y-107682199D01*
X158126641Y-107748226D01*
X158071721Y-107791417D01*
X158025633Y-107800300D01*
X157805852Y-107800300D01*
X157703177Y-107827811D01*
X157703175Y-107827812D01*
X157703174Y-107827812D01*
X157611125Y-107880957D01*
X157611119Y-107880961D01*
X157535961Y-107956119D01*
X157535957Y-107956125D01*
X157482812Y-108048174D01*
X157482812Y-108048175D01*
X157482811Y-108048177D01*
X157455300Y-108150852D01*
X157455300Y-108257148D01*
X157482811Y-108359823D01*
X157482812Y-108359824D01*
X157482812Y-108359825D01*
X157506545Y-108400932D01*
X157523018Y-108468833D01*
X157506546Y-108524930D01*
X157487795Y-108557408D01*
X157487793Y-108557413D01*
X157460500Y-108659273D01*
X157460500Y-108764726D01*
X157487793Y-108866586D01*
X157487793Y-108866587D01*
X157509394Y-108904001D01*
X157525866Y-108971901D01*
X157509394Y-109027999D01*
X157487793Y-109065412D01*
X157487793Y-109065413D01*
X157460500Y-109167273D01*
X157460500Y-109272727D01*
X157487793Y-109374587D01*
X157540520Y-109465913D01*
X157615087Y-109540480D01*
X157706413Y-109593207D01*
X157808273Y-109620500D01*
X157808275Y-109620500D01*
X157913725Y-109620500D01*
X157913727Y-109620500D01*
X158015587Y-109593207D01*
X158106913Y-109540480D01*
X158181480Y-109465913D01*
X158203397Y-109427952D01*
X166280796Y-109427952D01*
X166280796Y-109533406D01*
X166308089Y-109635266D01*
X166360816Y-109726592D01*
X166435383Y-109801159D01*
X166526709Y-109853886D01*
X166628569Y-109881179D01*
X166628571Y-109881179D01*
X166636419Y-109883282D01*
X166635719Y-109885894D01*
X166687464Y-109908774D01*
X166721324Y-109954501D01*
X166724857Y-109962724D01*
X166746793Y-110044588D01*
X166798606Y-110134332D01*
X166801489Y-110141039D01*
X166804839Y-110168758D01*
X166811424Y-110195898D01*
X166809083Y-110203867D01*
X166809874Y-110210404D01*
X166802990Y-110224620D01*
X166794952Y-110251998D01*
X166746793Y-110335412D01*
X166746793Y-110335413D01*
X166719500Y-110437273D01*
X166719500Y-110542727D01*
X166746793Y-110644587D01*
X166799520Y-110735913D01*
X166874087Y-110810480D01*
X166965413Y-110863207D01*
X167067273Y-110890500D01*
X167067275Y-110890500D01*
X167172725Y-110890500D01*
X167172727Y-110890500D01*
X167274587Y-110863207D01*
X167365913Y-110810480D01*
X167407391Y-110769002D01*
X169381500Y-110769002D01*
X169381500Y-110874456D01*
X169408793Y-110976316D01*
X169461520Y-111067642D01*
X169536087Y-111142209D01*
X169627413Y-111194936D01*
X169729273Y-111222229D01*
X169729275Y-111222229D01*
X169834725Y-111222229D01*
X169834727Y-111222229D01*
X169936587Y-111194936D01*
X170027913Y-111142209D01*
X170102480Y-111067642D01*
X170155207Y-110976316D01*
X170182500Y-110874456D01*
X170182500Y-110769002D01*
X170155207Y-110667142D01*
X170102480Y-110575816D01*
X170027913Y-110501249D01*
X169936587Y-110448522D01*
X169834727Y-110421229D01*
X169729273Y-110421229D01*
X169627413Y-110448522D01*
X169627410Y-110448523D01*
X169536085Y-110501250D01*
X169461521Y-110575814D01*
X169408794Y-110667139D01*
X169408793Y-110667142D01*
X169381500Y-110769002D01*
X167407391Y-110769002D01*
X167440480Y-110735913D01*
X167454186Y-110712172D01*
X167461865Y-110698874D01*
X167480185Y-110667142D01*
X167493207Y-110644587D01*
X167520500Y-110542727D01*
X167520500Y-110437273D01*
X167493207Y-110335413D01*
X167445047Y-110251998D01*
X167428575Y-110184100D01*
X167445046Y-110128005D01*
X167493207Y-110044588D01*
X167520500Y-109942728D01*
X167520500Y-109837274D01*
X167493207Y-109735414D01*
X167440480Y-109644088D01*
X167365913Y-109569521D01*
X167274587Y-109516794D01*
X167172727Y-109489501D01*
X167172726Y-109489501D01*
X167164877Y-109487398D01*
X167165575Y-109484791D01*
X167113805Y-109461883D01*
X167075340Y-109403555D01*
X167074132Y-109399350D01*
X167054503Y-109326092D01*
X167001776Y-109234766D01*
X166927209Y-109160199D01*
X166835883Y-109107472D01*
X166734023Y-109080179D01*
X166628569Y-109080179D01*
X166526709Y-109107472D01*
X166526706Y-109107473D01*
X166435381Y-109160200D01*
X166360817Y-109234764D01*
X166308090Y-109326089D01*
X166308089Y-109326092D01*
X166280796Y-109427952D01*
X158203397Y-109427952D01*
X158234207Y-109374587D01*
X158261500Y-109272727D01*
X158261500Y-109167273D01*
X158234207Y-109065413D01*
X158212606Y-109028000D01*
X158196133Y-108960101D01*
X158200573Y-108932612D01*
X158204784Y-108917548D01*
X158234207Y-108866587D01*
X158261500Y-108764727D01*
X158261500Y-108714693D01*
X158266080Y-108698312D01*
X158275940Y-108682521D01*
X158281185Y-108664661D01*
X158294060Y-108653504D01*
X158303088Y-108639048D01*
X158319923Y-108631094D01*
X158333989Y-108618906D01*
X158355732Y-108614175D01*
X158366262Y-108609201D01*
X158373972Y-108610207D01*
X158385500Y-108607700D01*
X158527708Y-108607700D01*
X158527724Y-108607701D01*
X158535320Y-108607701D01*
X158641616Y-108607701D01*
X158722592Y-108586002D01*
X158722592Y-108586003D01*
X158722597Y-108586000D01*
X158744291Y-108580189D01*
X158836346Y-108527041D01*
X158911509Y-108451878D01*
X158911509Y-108451876D01*
X158921713Y-108441673D01*
X158921716Y-108441668D01*
X159481368Y-107882019D01*
X159542691Y-107848534D01*
X159569049Y-107845700D01*
X166099500Y-107845700D01*
X166166539Y-107865385D01*
X166212294Y-107918189D01*
X166223500Y-107969700D01*
X166223500Y-108002727D01*
X166250793Y-108104587D01*
X166303520Y-108195913D01*
X166378087Y-108270480D01*
X166469413Y-108323207D01*
X166571273Y-108350500D01*
X166571275Y-108350500D01*
X166676725Y-108350500D01*
X166676727Y-108350500D01*
X166778587Y-108323207D01*
X166869913Y-108270480D01*
X166944480Y-108195913D01*
X166997207Y-108104587D01*
X167024500Y-108002727D01*
X167024500Y-107897273D01*
X167010249Y-107844087D01*
X167011912Y-107774238D01*
X167051075Y-107716376D01*
X167068021Y-107704609D01*
X167125012Y-107671706D01*
X167313469Y-107483247D01*
X167313476Y-107483242D01*
X167323676Y-107473041D01*
X167323678Y-107473041D01*
X167398841Y-107397878D01*
X167451989Y-107305823D01*
X167466884Y-107250234D01*
X168334500Y-107250234D01*
X168334500Y-107401766D01*
X168353555Y-107472881D01*
X168373719Y-107548136D01*
X168394989Y-107584976D01*
X168449485Y-107679365D01*
X168556635Y-107786515D01*
X168687865Y-107862281D01*
X168834234Y-107901500D01*
X168834235Y-107901500D01*
X168837795Y-107902454D01*
X168897456Y-107938819D01*
X168927985Y-108001666D01*
X168925477Y-108054321D01*
X168899500Y-108151271D01*
X168899500Y-108256726D01*
X168926793Y-108358586D01*
X168926794Y-108358589D01*
X168927507Y-108359824D01*
X168979520Y-108449913D01*
X169054087Y-108524480D01*
X169145413Y-108577207D01*
X169247273Y-108604500D01*
X169247275Y-108604500D01*
X169352725Y-108604500D01*
X169352727Y-108604500D01*
X169454587Y-108577207D01*
X169545913Y-108524480D01*
X169620480Y-108449913D01*
X169673207Y-108358587D01*
X169700500Y-108256727D01*
X169700500Y-108151273D01*
X169673207Y-108049413D01*
X169620480Y-107958087D01*
X169545913Y-107883520D01*
X169454587Y-107830793D01*
X169454585Y-107830792D01*
X169447080Y-107827684D01*
X169448420Y-107824447D01*
X169402504Y-107796465D01*
X169371970Y-107733620D01*
X169380259Y-107664244D01*
X169386857Y-107651059D01*
X169446281Y-107548135D01*
X169485500Y-107401766D01*
X169485500Y-107250234D01*
X169446281Y-107103865D01*
X169444504Y-107100788D01*
X169424310Y-107065810D01*
X169370515Y-106972635D01*
X169263365Y-106865485D01*
X169181292Y-106818100D01*
X169132136Y-106789719D01*
X169058950Y-106770109D01*
X168985766Y-106750500D01*
X168834234Y-106750500D01*
X168687863Y-106789719D01*
X168556635Y-106865485D01*
X168556632Y-106865487D01*
X168449487Y-106972632D01*
X168449485Y-106972635D01*
X168373719Y-107103863D01*
X168354379Y-107176042D01*
X168334500Y-107250234D01*
X167466884Y-107250234D01*
X167479501Y-107203148D01*
X167479501Y-107141547D01*
X167479744Y-107137675D01*
X167490396Y-107108333D01*
X167499186Y-107078401D01*
X167502217Y-107075773D01*
X167503588Y-107072000D01*
X167528414Y-107053074D01*
X167551990Y-107032646D01*
X167556000Y-107032045D01*
X167559154Y-107029641D01*
X167586925Y-107027410D01*
X167619689Y-107022501D01*
X167627270Y-107023499D01*
X167627273Y-107023500D01*
X167627276Y-107023500D01*
X167732725Y-107023500D01*
X167732727Y-107023500D01*
X167834587Y-106996207D01*
X167925913Y-106943480D01*
X168000480Y-106868913D01*
X168053207Y-106777587D01*
X168080500Y-106675727D01*
X168080500Y-106570273D01*
X168053207Y-106468413D01*
X168000480Y-106377087D01*
X167925913Y-106302520D01*
X167834587Y-106249793D01*
X167732727Y-106222500D01*
X167627273Y-106222500D01*
X167627271Y-106222500D01*
X167619687Y-106223499D01*
X167550651Y-106212734D01*
X167498395Y-106166354D01*
X167479500Y-106100560D01*
X167479500Y-104770273D01*
X168128500Y-104770273D01*
X168128500Y-104875727D01*
X168155793Y-104977587D01*
X168208520Y-105068913D01*
X168283087Y-105143480D01*
X168316395Y-105162710D01*
X168364609Y-105213277D01*
X168377831Y-105281884D01*
X168374168Y-105302189D01*
X168373719Y-105303865D01*
X168334500Y-105450234D01*
X168334500Y-105601766D01*
X168337048Y-105611275D01*
X168373719Y-105748136D01*
X168403475Y-105799674D01*
X168449485Y-105879365D01*
X168556635Y-105986515D01*
X168687865Y-106062281D01*
X168834234Y-106101500D01*
X168834236Y-106101500D01*
X168985764Y-106101500D01*
X168985766Y-106101500D01*
X169132135Y-106062281D01*
X169263365Y-105986515D01*
X169370515Y-105879365D01*
X169446281Y-105748135D01*
X169485500Y-105601766D01*
X169485500Y-105450234D01*
X169446281Y-105303865D01*
X169370515Y-105172635D01*
X169263365Y-105065485D01*
X169194975Y-105026000D01*
X169132136Y-104989719D01*
X169021407Y-104960050D01*
X168961746Y-104923685D01*
X168931217Y-104860838D01*
X168929500Y-104840275D01*
X168929500Y-104770275D01*
X168929500Y-104770273D01*
X168902207Y-104668413D01*
X168849480Y-104577087D01*
X168774913Y-104502520D01*
X168683587Y-104449793D01*
X168581727Y-104422500D01*
X168476273Y-104422500D01*
X168374413Y-104449793D01*
X168374410Y-104449794D01*
X168283085Y-104502521D01*
X168208521Y-104577085D01*
X168155794Y-104668410D01*
X168155793Y-104668413D01*
X168128500Y-104770273D01*
X167479500Y-104770273D01*
X167479500Y-103218273D01*
X170688500Y-103218273D01*
X170688500Y-103323727D01*
X170715793Y-103425587D01*
X170768520Y-103516913D01*
X170843087Y-103591480D01*
X170934413Y-103644207D01*
X171036273Y-103671500D01*
X171036275Y-103671500D01*
X171141725Y-103671500D01*
X171141727Y-103671500D01*
X171243587Y-103644207D01*
X171334913Y-103591480D01*
X171409480Y-103516913D01*
X171462207Y-103425587D01*
X171489500Y-103323727D01*
X171489500Y-103218273D01*
X171462207Y-103116413D01*
X171409480Y-103025087D01*
X171334913Y-102950520D01*
X171243587Y-102897793D01*
X171141727Y-102870500D01*
X171036273Y-102870500D01*
X170934413Y-102897793D01*
X170934410Y-102897794D01*
X170843085Y-102950521D01*
X170768521Y-103025085D01*
X170715794Y-103116410D01*
X170715793Y-103116413D01*
X170688500Y-103218273D01*
X167479500Y-103218273D01*
X167479500Y-100443247D01*
X167499185Y-100376208D01*
X167515815Y-100355570D01*
X167984075Y-99887310D01*
X167984078Y-99887309D01*
X168059241Y-99812146D01*
X168112389Y-99720091D01*
X168112390Y-99720090D01*
X168133777Y-99640273D01*
X169906500Y-99640273D01*
X169906500Y-99745727D01*
X169933793Y-99847587D01*
X169986520Y-99938913D01*
X170061087Y-100013480D01*
X170152413Y-100066207D01*
X170254273Y-100093500D01*
X170254275Y-100093500D01*
X170359725Y-100093500D01*
X170359727Y-100093500D01*
X170461587Y-100066207D01*
X170552913Y-100013480D01*
X170627480Y-99938913D01*
X170680207Y-99847587D01*
X170707500Y-99745727D01*
X170707500Y-99640273D01*
X170680207Y-99538413D01*
X170627480Y-99447087D01*
X170552913Y-99372520D01*
X170461587Y-99319793D01*
X170359727Y-99292500D01*
X170254273Y-99292500D01*
X170152413Y-99319793D01*
X170152410Y-99319794D01*
X170061085Y-99372521D01*
X169986521Y-99447085D01*
X169933794Y-99538410D01*
X169933793Y-99538413D01*
X169906500Y-99640273D01*
X168133777Y-99640273D01*
X168139901Y-99617416D01*
X168139901Y-99511119D01*
X168139900Y-99511115D01*
X168139900Y-98926380D01*
X168159585Y-98859341D01*
X168176219Y-98838699D01*
X168621603Y-98393315D01*
X169106040Y-97908878D01*
X169159189Y-97816822D01*
X169186701Y-97714148D01*
X169186701Y-97607852D01*
X169159189Y-97505178D01*
X169106040Y-97413122D01*
X169030878Y-97337960D01*
X168938822Y-97284811D01*
X168836148Y-97257299D01*
X168729852Y-97257299D01*
X168678881Y-97270957D01*
X168627177Y-97284811D01*
X168535122Y-97337960D01*
X168535119Y-97337962D01*
X167603301Y-98269781D01*
X167541978Y-98303266D01*
X167515620Y-98306100D01*
X166744672Y-98306100D01*
X166712579Y-98301875D01*
X166697311Y-98297784D01*
X166616335Y-98276086D01*
X166510039Y-98276086D01*
X166502443Y-98276086D01*
X166502427Y-98276087D01*
X164282855Y-98276087D01*
X164215816Y-98256402D01*
X164170061Y-98203598D01*
X164160117Y-98134440D01*
X164189142Y-98070884D01*
X164231562Y-98040295D01*
X164231548Y-98040271D01*
X164231788Y-98040132D01*
X164235404Y-98037525D01*
X164238579Y-98036209D01*
X164238587Y-98036207D01*
X164329913Y-97983480D01*
X164404480Y-97908913D01*
X164457207Y-97817587D01*
X164484500Y-97715727D01*
X164484500Y-97610273D01*
X166731500Y-97610273D01*
X166731500Y-97715727D01*
X166758793Y-97817587D01*
X166811520Y-97908913D01*
X166886087Y-97983480D01*
X166977413Y-98036207D01*
X167079273Y-98063500D01*
X167184727Y-98063500D01*
X167286587Y-98036207D01*
X167377913Y-97983480D01*
X167452480Y-97908913D01*
X167505207Y-97817587D01*
X167532500Y-97715727D01*
X167532500Y-97610273D01*
X167505207Y-97508413D01*
X167452480Y-97417087D01*
X167377913Y-97342520D01*
X167300799Y-97297998D01*
X167286589Y-97289794D01*
X167286588Y-97289793D01*
X167286587Y-97289793D01*
X167184727Y-97262500D01*
X167079273Y-97262500D01*
X166977413Y-97289793D01*
X166977410Y-97289794D01*
X166886085Y-97342521D01*
X166811521Y-97417085D01*
X166758794Y-97508410D01*
X166758793Y-97508413D01*
X166731500Y-97610273D01*
X164484500Y-97610273D01*
X164457207Y-97508413D01*
X164404480Y-97417087D01*
X164329913Y-97342520D01*
X164252799Y-97297998D01*
X164238589Y-97289794D01*
X164238588Y-97289793D01*
X164238587Y-97289793D01*
X164136727Y-97262500D01*
X164031273Y-97262500D01*
X163929413Y-97289793D01*
X163929410Y-97289794D01*
X163838085Y-97342521D01*
X163763521Y-97417085D01*
X163710794Y-97508410D01*
X163710793Y-97508413D01*
X163683500Y-97610273D01*
X163683500Y-97715727D01*
X163710793Y-97817587D01*
X163763520Y-97908913D01*
X163838087Y-97983480D01*
X163929413Y-98036207D01*
X163929418Y-98036208D01*
X163932596Y-98037525D01*
X163934870Y-98039358D01*
X163936452Y-98040271D01*
X163936309Y-98040517D01*
X163987000Y-98081365D01*
X164009066Y-98147659D01*
X163991788Y-98215359D01*
X163940651Y-98262970D01*
X163885145Y-98276087D01*
X161604060Y-98276087D01*
X161537021Y-98256402D01*
X161491266Y-98203598D01*
X161481322Y-98134440D01*
X161510347Y-98070884D01*
X161535768Y-98048587D01*
X161550932Y-98038580D01*
X161559792Y-98036207D01*
X161651118Y-97983480D01*
X161683468Y-97951129D01*
X161693960Y-97944207D01*
X161715821Y-97937500D01*
X161735892Y-97926541D01*
X161748588Y-97927448D01*
X161760757Y-97923716D01*
X161782772Y-97929892D01*
X161805584Y-97931524D01*
X161824252Y-97940320D01*
X161864053Y-97963299D01*
X161965913Y-97990592D01*
X161965915Y-97990592D01*
X162071365Y-97990592D01*
X162071367Y-97990592D01*
X162173227Y-97963299D01*
X162264553Y-97910572D01*
X162296183Y-97878941D01*
X162357503Y-97845457D01*
X162427195Y-97850441D01*
X162445854Y-97859232D01*
X162532413Y-97909207D01*
X162634273Y-97936500D01*
X162634275Y-97936500D01*
X162739725Y-97936500D01*
X162739727Y-97936500D01*
X162841587Y-97909207D01*
X162932913Y-97856480D01*
X163007480Y-97781913D01*
X163060207Y-97690587D01*
X163087500Y-97588727D01*
X163087500Y-97483273D01*
X163060207Y-97381413D01*
X163012046Y-97297996D01*
X162995574Y-97230098D01*
X163012045Y-97174002D01*
X163060207Y-97090584D01*
X163087500Y-96988724D01*
X163087500Y-96883270D01*
X163060207Y-96781410D01*
X163007480Y-96690084D01*
X162932913Y-96615517D01*
X162841587Y-96562790D01*
X162739727Y-96535497D01*
X162634273Y-96535497D01*
X162532413Y-96562790D01*
X162532410Y-96562791D01*
X162441085Y-96615518D01*
X162366521Y-96690082D01*
X162313794Y-96781407D01*
X162313793Y-96781410D01*
X162286500Y-96883270D01*
X162286500Y-96988725D01*
X162305538Y-97059778D01*
X162303875Y-97129628D01*
X162264711Y-97187490D01*
X162200483Y-97214993D01*
X162153671Y-97211645D01*
X162071367Y-97189592D01*
X161965913Y-97189592D01*
X161864053Y-97216885D01*
X161864050Y-97216886D01*
X161772724Y-97269613D01*
X161749269Y-97293068D01*
X161687945Y-97326551D01*
X161618253Y-97321564D01*
X161599591Y-97312771D01*
X161559794Y-97289794D01*
X161559793Y-97289793D01*
X161559792Y-97289793D01*
X161457932Y-97262500D01*
X161352478Y-97262500D01*
X161250618Y-97289793D01*
X161250615Y-97289794D01*
X161159290Y-97342521D01*
X161084726Y-97417085D01*
X161031999Y-97508410D01*
X161031998Y-97508413D01*
X161004705Y-97610273D01*
X161004705Y-97650425D01*
X160985020Y-97717464D01*
X160932216Y-97763219D01*
X160863058Y-97773163D01*
X160799502Y-97744138D01*
X160793024Y-97738106D01*
X160408107Y-97353189D01*
X160408105Y-97353186D01*
X160325876Y-97270957D01*
X160325874Y-97270955D01*
X160255108Y-97230098D01*
X160233821Y-97217808D01*
X160233820Y-97217807D01*
X160226251Y-97215779D01*
X160202391Y-97209386D01*
X160131144Y-97190295D01*
X160024848Y-97190295D01*
X160024844Y-97190296D01*
X158393293Y-97190296D01*
X158393277Y-97190295D01*
X158385681Y-97190295D01*
X158279385Y-97190295D01*
X158208138Y-97209386D01*
X158208137Y-97209385D01*
X158176714Y-97217805D01*
X158176707Y-97217808D01*
X158084658Y-97270953D01*
X158084652Y-97270957D01*
X158042839Y-97312771D01*
X158009492Y-97346118D01*
X158009490Y-97346120D01*
X157745336Y-97610275D01*
X157497630Y-97857981D01*
X157436307Y-97891466D01*
X157409949Y-97894300D01*
X152237580Y-97894300D01*
X152170541Y-97874615D01*
X152149899Y-97857981D01*
X150844219Y-96552301D01*
X150810734Y-96490978D01*
X150807900Y-96464620D01*
X150807900Y-94371273D01*
X156169500Y-94371273D01*
X156169500Y-94476727D01*
X156196793Y-94578587D01*
X156249520Y-94669913D01*
X156324087Y-94744480D01*
X156415413Y-94797207D01*
X156517273Y-94824500D01*
X156517275Y-94824500D01*
X156622725Y-94824500D01*
X156622727Y-94824500D01*
X156724587Y-94797207D01*
X156815913Y-94744480D01*
X156890480Y-94669913D01*
X156943207Y-94578587D01*
X156970500Y-94476727D01*
X156970500Y-94371273D01*
X156943207Y-94269413D01*
X156890480Y-94178087D01*
X156815913Y-94103520D01*
X156724587Y-94050793D01*
X156622727Y-94023500D01*
X156517273Y-94023500D01*
X156415413Y-94050793D01*
X156415410Y-94050794D01*
X156324085Y-94103521D01*
X156249521Y-94178085D01*
X156196794Y-94269410D01*
X156196793Y-94269413D01*
X156169500Y-94371273D01*
X150807900Y-94371273D01*
X150807900Y-91955220D01*
X150827585Y-91888181D01*
X150880389Y-91842426D01*
X150949547Y-91832482D01*
X151013103Y-91861507D01*
G37*
%TD.AperFunction*%
%TD*%
%TA.AperFunction,Conductor*%
%TO.N,Net-(J2-Pin_1)*%
G36*
X163773039Y-81299685D02*
G01*
X163818794Y-81352489D01*
X163830000Y-81404000D01*
X163830000Y-85800638D01*
X163810315Y-85867677D01*
X163793681Y-85888319D01*
X163485319Y-86196681D01*
X163423996Y-86230166D01*
X163397638Y-86233000D01*
X161924999Y-86233000D01*
X161787885Y-86370114D01*
X161776595Y-86387011D01*
X161731521Y-86432085D01*
X161678794Y-86523410D01*
X161678793Y-86523413D01*
X161651500Y-86625273D01*
X161651500Y-86730727D01*
X161661645Y-86768587D01*
X161678793Y-86832586D01*
X161678794Y-86832589D01*
X161731521Y-86923914D01*
X161761681Y-86954074D01*
X161776384Y-86981001D01*
X161792977Y-87006820D01*
X161793868Y-87013020D01*
X161795166Y-87015397D01*
X161798000Y-87041755D01*
X161798000Y-87252000D01*
X161778315Y-87319039D01*
X161725511Y-87364794D01*
X161674000Y-87376000D01*
X158239000Y-87376000D01*
X158171961Y-87356315D01*
X158126206Y-87303511D01*
X158115000Y-87252000D01*
X158115000Y-83617362D01*
X158134685Y-83550323D01*
X158151319Y-83529681D01*
X160364681Y-81316319D01*
X160426004Y-81282834D01*
X160452362Y-81280000D01*
X163706000Y-81280000D01*
X163773039Y-81299685D01*
G37*
%TD.AperFunction*%
%TD*%
%TA.AperFunction,Conductor*%
%TO.N,/DRIVER/SHUNT1+*%
G36*
X161106039Y-89173685D02*
G01*
X161151794Y-89226489D01*
X161163000Y-89278000D01*
X161163000Y-90427000D01*
X161143315Y-90494039D01*
X161090511Y-90539794D01*
X161039000Y-90551000D01*
X157858000Y-90551000D01*
X157790961Y-90531315D01*
X157745206Y-90478511D01*
X157734000Y-90427000D01*
X157734000Y-89278000D01*
X157753685Y-89210961D01*
X157806489Y-89165206D01*
X157858000Y-89154000D01*
X161039000Y-89154000D01*
X161106039Y-89173685D01*
G37*
%TD.AperFunction*%
%TD*%
%TA.AperFunction,Conductor*%
%TO.N,/DRIVER/SHUNT2+*%
G36*
X166313039Y-89173685D02*
G01*
X166358794Y-89226489D01*
X166370000Y-89278000D01*
X166370000Y-90427000D01*
X166350315Y-90494039D01*
X166297511Y-90539794D01*
X166246000Y-90551000D01*
X163065000Y-90551000D01*
X162997961Y-90531315D01*
X162952206Y-90478511D01*
X162941000Y-90427000D01*
X162941000Y-89278000D01*
X162960685Y-89210961D01*
X163013489Y-89165206D01*
X163065000Y-89154000D01*
X166246000Y-89154000D01*
X166313039Y-89173685D01*
G37*
%TD.AperFunction*%
%TD*%
%TA.AperFunction,Conductor*%
%TO.N,Net-(J2-Pin_2)*%
G36*
X167329039Y-81299685D02*
G01*
X167374794Y-81352489D01*
X167386000Y-81404000D01*
X167386000Y-86109000D01*
X167366315Y-86176039D01*
X167313511Y-86221794D01*
X167262000Y-86233000D01*
X167131999Y-86233000D01*
X166994885Y-86370114D01*
X166983595Y-86387011D01*
X166938521Y-86432085D01*
X166885794Y-86523410D01*
X166885793Y-86523413D01*
X166858500Y-86625273D01*
X166858500Y-86730726D01*
X166885793Y-86832586D01*
X166885794Y-86832589D01*
X166938521Y-86923914D01*
X166968681Y-86954074D01*
X166983384Y-86981001D01*
X166999977Y-87006820D01*
X167000868Y-87013020D01*
X167002166Y-87015397D01*
X167005000Y-87041755D01*
X167005000Y-87252000D01*
X166985315Y-87319039D01*
X166932511Y-87364794D01*
X166881000Y-87376000D01*
X163446000Y-87376000D01*
X163378961Y-87356315D01*
X163333206Y-87303511D01*
X163322000Y-87252000D01*
X163322000Y-86611000D01*
X163341685Y-86543961D01*
X163394489Y-86498206D01*
X163446000Y-86487000D01*
X163830000Y-86487000D01*
X164465000Y-85852000D01*
X164465000Y-81404000D01*
X164484685Y-81336961D01*
X164537489Y-81291206D01*
X164589000Y-81280000D01*
X167262000Y-81280000D01*
X167329039Y-81299685D01*
G37*
%TD.AperFunction*%
%TD*%
%TA.AperFunction,Conductor*%
%TO.N,/DRIVER/SHUNT3+*%
G36*
X171520039Y-89173685D02*
G01*
X171565794Y-89226489D01*
X171577000Y-89278000D01*
X171577000Y-90427000D01*
X171557315Y-90494039D01*
X171504511Y-90539794D01*
X171453000Y-90551000D01*
X168272000Y-90551000D01*
X168204961Y-90531315D01*
X168159206Y-90478511D01*
X168148000Y-90427000D01*
X168148000Y-89278000D01*
X168167685Y-89210961D01*
X168220489Y-89165206D01*
X168272000Y-89154000D01*
X171453000Y-89154000D01*
X171520039Y-89173685D01*
G37*
%TD.AperFunction*%
%TD*%
%TA.AperFunction,Conductor*%
%TO.N,Net-(J2-Pin_3)*%
G36*
X171742539Y-81426685D02*
G01*
X171788294Y-81479489D01*
X171799500Y-81531000D01*
X171799500Y-83078931D01*
X171827891Y-83203315D01*
X171831000Y-83230908D01*
X171831000Y-84769090D01*
X171827891Y-84796683D01*
X171799500Y-84921069D01*
X171799500Y-87252000D01*
X171779815Y-87319039D01*
X171727011Y-87364794D01*
X171675500Y-87376000D01*
X168653000Y-87376000D01*
X168585961Y-87356315D01*
X168540206Y-87303511D01*
X168529000Y-87252000D01*
X168529000Y-86614000D01*
X168148000Y-86233000D01*
X168018000Y-86233000D01*
X167950961Y-86213315D01*
X167905206Y-86160511D01*
X167894000Y-86109000D01*
X167894000Y-81531000D01*
X167913685Y-81463961D01*
X167966489Y-81418206D01*
X168018000Y-81407000D01*
X171675500Y-81407000D01*
X171742539Y-81426685D01*
G37*
%TD.AperFunction*%
%TD*%
M02*
