%TF.GenerationSoftware,KiCad,Pcbnew,9.0.2*%
%TF.CreationDate,2026-03-17T13:30:53+09:00*%
%TF.ProjectId,X610,58363130-2e6b-4696-9361-645f70636258,rev?*%
%TF.SameCoordinates,Original*%
%TF.FileFunction,Soldermask,Bot*%
%TF.FilePolarity,Negative*%
%FSLAX46Y46*%
G04 Gerber Fmt 4.6, Leading zero omitted, Abs format (unit mm)*
G04 Created by KiCad (PCBNEW 9.0.2) date 2026-03-17 13:30:53*
%MOMM*%
%LPD*%
G01*
G04 APERTURE LIST*
G04 Aperture macros list*
%AMRoundRect*
0 Rectangle with rounded corners*
0 $1 Rounding radius*
0 $2 $3 $4 $5 $6 $7 $8 $9 X,Y pos of 4 corners*
0 Add a 4 corners polygon primitive as box body*
4,1,4,$2,$3,$4,$5,$6,$7,$8,$9,$2,$3,0*
0 Add four circle primitives for the rounded corners*
1,1,$1+$1,$2,$3*
1,1,$1+$1,$4,$5*
1,1,$1+$1,$6,$7*
1,1,$1+$1,$8,$9*
0 Add four rect primitives between the rounded corners*
20,1,$1+$1,$2,$3,$4,$5,0*
20,1,$1+$1,$4,$5,$6,$7,0*
20,1,$1+$1,$6,$7,$8,$9,0*
20,1,$1+$1,$8,$9,$2,$3,0*%
G04 Aperture macros list end*
%ADD10C,0.100000*%
%ADD11C,1.500000*%
%ADD12C,3.200000*%
%ADD13C,0.900000*%
%ADD14RoundRect,0.195000X-0.455000X0.455000X-0.455000X-0.455000X0.455000X-0.455000X0.455000X0.455000X0*%
%ADD15C,1.300000*%
%ADD16RoundRect,0.135000X-0.185000X0.135000X-0.185000X-0.135000X0.185000X-0.135000X0.185000X0.135000X0*%
%ADD17RoundRect,0.140000X0.170000X-0.140000X0.170000X0.140000X-0.170000X0.140000X-0.170000X-0.140000X0*%
%ADD18C,1.000000*%
%ADD19RoundRect,0.135000X0.185000X-0.135000X0.185000X0.135000X-0.185000X0.135000X-0.185000X-0.135000X0*%
%ADD20RoundRect,0.135000X-0.135000X-0.185000X0.135000X-0.185000X0.135000X0.185000X-0.135000X0.185000X0*%
%ADD21RoundRect,0.135000X0.135000X0.185000X-0.135000X0.185000X-0.135000X-0.185000X0.135000X-0.185000X0*%
%ADD22RoundRect,0.102000X-0.323000X0.373000X-0.323000X-0.373000X0.323000X-0.373000X0.323000X0.373000X0*%
%ADD23RoundRect,0.140000X0.140000X0.170000X-0.140000X0.170000X-0.140000X-0.170000X0.140000X-0.170000X0*%
%ADD24RoundRect,0.225000X0.225000X0.250000X-0.225000X0.250000X-0.225000X-0.250000X0.225000X-0.250000X0*%
%ADD25RoundRect,0.112500X-0.187500X-0.112500X0.187500X-0.112500X0.187500X0.112500X-0.187500X0.112500X0*%
%ADD26RoundRect,0.150000X-0.512500X-0.150000X0.512500X-0.150000X0.512500X0.150000X-0.512500X0.150000X0*%
%ADD27RoundRect,0.140000X-0.140000X-0.170000X0.140000X-0.170000X0.140000X0.170000X-0.140000X0.170000X0*%
%ADD28RoundRect,0.200000X0.275000X-0.200000X0.275000X0.200000X-0.275000X0.200000X-0.275000X-0.200000X0*%
%ADD29RoundRect,0.250000X-1.425000X0.362500X-1.425000X-0.362500X1.425000X-0.362500X1.425000X0.362500X0*%
%ADD30RoundRect,0.225000X0.225000X0.375000X-0.225000X0.375000X-0.225000X-0.375000X0.225000X-0.375000X0*%
%ADD31RoundRect,0.062500X0.062500X-0.375000X0.062500X0.375000X-0.062500X0.375000X-0.062500X-0.375000X0*%
%ADD32RoundRect,0.062500X0.375000X-0.062500X0.375000X0.062500X-0.375000X0.062500X-0.375000X-0.062500X0*%
%ADD33R,5.600000X5.600000*%
%ADD34RoundRect,0.140000X-0.170000X0.140000X-0.170000X-0.140000X0.170000X-0.140000X0.170000X0.140000X0*%
%ADD35RoundRect,0.087500X-0.087500X0.337500X-0.087500X-0.337500X0.087500X-0.337500X0.087500X0.337500X0*%
%ADD36R,2.400000X1.650000*%
%ADD37RoundRect,0.050000X-0.362500X-0.050000X0.362500X-0.050000X0.362500X0.050000X-0.362500X0.050000X0*%
%ADD38RoundRect,0.050000X-0.050000X-0.362500X0.050000X-0.362500X0.050000X0.362500X-0.050000X0.362500X0*%
%ADD39R,2.700000X2.700000*%
G04 APERTURE END LIST*
D10*
%TO.C,SW2*%
X173714000Y-100330000D03*
X175514000Y-100330000D03*
%TD*%
D11*
%TO.C,J1*%
X153146000Y-117094000D03*
X151146000Y-117094000D03*
%TD*%
D12*
%TO.C,H2*%
X180000000Y-84000000D03*
%TD*%
%TO.C,H3*%
X180000000Y-117000000D03*
%TD*%
D10*
%TO.C,SW1*%
X168910000Y-105526000D03*
X168910000Y-107326000D03*
%TD*%
D11*
%TO.C,J3*%
X153146000Y-115046000D03*
X151146000Y-115046000D03*
X153146000Y-113046000D03*
X151146000Y-113046000D03*
%TD*%
D13*
%TO.C,J6*%
X181913000Y-112497000D03*
D14*
X180213000Y-110997000D03*
D15*
X180213000Y-108997000D03*
X180213000Y-106997000D03*
X180213000Y-104997000D03*
X180213000Y-102997000D03*
X180213000Y-100997000D03*
X180213000Y-98997000D03*
%TD*%
D16*
%TO.C,R5*%
X156464000Y-112774000D03*
X156464000Y-113794000D03*
%TD*%
D17*
%TO.C,C14*%
X160655000Y-98651000D03*
X160655000Y-97691000D03*
%TD*%
D18*
%TO.C,J7*%
X168418000Y-118999000D03*
X170418000Y-118999000D03*
X168418000Y-116999000D03*
X170418000Y-116999000D03*
X168418000Y-114999000D03*
X170418000Y-114999000D03*
%TD*%
D19*
%TO.C,R37*%
X155321000Y-87124000D03*
X155321000Y-86104000D03*
%TD*%
D20*
%TO.C,R9*%
X165098000Y-101727000D03*
X166118000Y-101727000D03*
%TD*%
D21*
%TO.C,R40*%
X168404000Y-108204000D03*
X167384000Y-108204000D03*
%TD*%
D22*
%TO.C,Y1*%
X164153000Y-117392926D03*
X164153000Y-118842926D03*
X163003000Y-118842926D03*
X163003000Y-117392926D03*
%TD*%
D23*
%TO.C,C16*%
X152880000Y-105664000D03*
X151920000Y-105664000D03*
%TD*%
D19*
%TO.C,R31*%
X154813000Y-107698000D03*
X154813000Y-106678000D03*
%TD*%
D24*
%TO.C,C9*%
X157874000Y-102108000D03*
X156324000Y-102108000D03*
%TD*%
D25*
%TO.C,D7*%
X168749000Y-88011000D03*
X170849000Y-88011000D03*
%TD*%
D26*
%TO.C,U6*%
X174884500Y-112202000D03*
X174884500Y-110302000D03*
X177159500Y-111252000D03*
%TD*%
D19*
%TO.C,R30*%
X164211000Y-105539000D03*
X164211000Y-104519000D03*
%TD*%
D20*
%TO.C,R32*%
X152652000Y-111252000D03*
X153672000Y-111252000D03*
%TD*%
%TO.C,R4*%
X169289000Y-113538000D03*
X170309000Y-113538000D03*
%TD*%
D27*
%TO.C,C13*%
X157028000Y-100584000D03*
X157988000Y-100584000D03*
%TD*%
D25*
%TO.C,D9*%
X158335000Y-88011000D03*
X160435000Y-88011000D03*
%TD*%
D23*
%TO.C,C11*%
X157960000Y-103632000D03*
X157000000Y-103632000D03*
%TD*%
D19*
%TO.C,R7*%
X162876000Y-116124926D03*
X162876000Y-115104926D03*
%TD*%
D28*
%TO.C,R22*%
X156845000Y-88328000D03*
X156845000Y-86678000D03*
%TD*%
D19*
%TO.C,R13*%
X156591000Y-108206000D03*
X156591000Y-107186000D03*
%TD*%
D28*
%TO.C,R21*%
X156464000Y-94424000D03*
X156464000Y-92774000D03*
%TD*%
D27*
%TO.C,C6*%
X167349000Y-113538000D03*
X168309000Y-113538000D03*
%TD*%
D25*
%TO.C,D8*%
X163542000Y-88011000D03*
X165642000Y-88011000D03*
%TD*%
D19*
%TO.C,R33*%
X154432000Y-113794000D03*
X154432000Y-112774000D03*
%TD*%
D28*
%TO.C,R25*%
X167132000Y-94424000D03*
X167132000Y-92774000D03*
%TD*%
D19*
%TO.C,R8*%
X161544000Y-116588000D03*
X161544000Y-115568000D03*
%TD*%
D21*
%TO.C,R42*%
X167388000Y-105791000D03*
X166368000Y-105791000D03*
%TD*%
D27*
%TO.C,C12*%
X158270000Y-105029000D03*
X159230000Y-105029000D03*
%TD*%
D21*
%TO.C,R44*%
X151640000Y-111252000D03*
X150620000Y-111252000D03*
%TD*%
D29*
%TO.C,R29*%
X169799000Y-90001500D03*
X169799000Y-95926500D03*
%TD*%
D21*
%TO.C,R2*%
X170309000Y-112268000D03*
X169289000Y-112268000D03*
%TD*%
D17*
%TO.C,C15*%
X162687000Y-98905000D03*
X162687000Y-97945000D03*
%TD*%
%TO.C,C5*%
X161544000Y-118634926D03*
X161544000Y-117674926D03*
%TD*%
D29*
%TO.C,R28*%
X164465000Y-90001500D03*
X164465000Y-95926500D03*
%TD*%
D30*
%TO.C,D6*%
X158622000Y-98171000D03*
X155322000Y-98171000D03*
%TD*%
D28*
%TO.C,R26*%
X167259000Y-88328000D03*
X167259000Y-86678000D03*
%TD*%
D31*
%TO.C,U1*%
X165245000Y-113718426D03*
X164745000Y-113718426D03*
X164245000Y-113718426D03*
X163745000Y-113718426D03*
X163245000Y-113718426D03*
X162745000Y-113718426D03*
X162245000Y-113718426D03*
X161745000Y-113718426D03*
X161245000Y-113718426D03*
X160745000Y-113718426D03*
X160245000Y-113718426D03*
X159745000Y-113718426D03*
D32*
X159057500Y-113030926D03*
X159057500Y-112530926D03*
X159057500Y-112030926D03*
X159057500Y-111530926D03*
X159057500Y-111030926D03*
X159057500Y-110530926D03*
X159057500Y-110030926D03*
X159057500Y-109530926D03*
X159057500Y-109030926D03*
X159057500Y-108530926D03*
X159057500Y-108030926D03*
X159057500Y-107530926D03*
D31*
X159745000Y-106843426D03*
X160245000Y-106843426D03*
X160745000Y-106843426D03*
X161245000Y-106843426D03*
X161745000Y-106843426D03*
X162245000Y-106843426D03*
X162745000Y-106843426D03*
X163245000Y-106843426D03*
X163745000Y-106843426D03*
X164245000Y-106843426D03*
X164745000Y-106843426D03*
X165245000Y-106843426D03*
D32*
X165932500Y-107530926D03*
X165932500Y-108030926D03*
X165932500Y-108530926D03*
X165932500Y-109030926D03*
X165932500Y-109530926D03*
X165932500Y-110030926D03*
X165932500Y-110530926D03*
X165932500Y-111030926D03*
X165932500Y-111530926D03*
X165932500Y-112030926D03*
X165932500Y-112530926D03*
X165932500Y-113030926D03*
D33*
X162495000Y-110280926D03*
%TD*%
D28*
%TO.C,R24*%
X162052000Y-88328000D03*
X162052000Y-86678000D03*
%TD*%
D21*
%TO.C,R43*%
X170309000Y-110236000D03*
X169289000Y-110236000D03*
%TD*%
D34*
%TO.C,C4*%
X165543000Y-115134926D03*
X165543000Y-116094926D03*
%TD*%
D21*
%TO.C,R41*%
X170309000Y-109220000D03*
X169289000Y-109220000D03*
%TD*%
D20*
%TO.C,R6*%
X156716000Y-115062000D03*
X157736000Y-115062000D03*
%TD*%
D35*
%TO.C,U3*%
X151460000Y-106934000D03*
X152110000Y-106934000D03*
X152760000Y-106934000D03*
X153410000Y-106934000D03*
X153410000Y-109834000D03*
X152760000Y-109834000D03*
X152110000Y-109834000D03*
X151460000Y-109834000D03*
D36*
X152435000Y-108384000D03*
%TD*%
D21*
%TO.C,R1*%
X168339000Y-112268000D03*
X167319000Y-112268000D03*
%TD*%
D17*
%TO.C,C2*%
X165227000Y-105509000D03*
X165227000Y-104549000D03*
%TD*%
D27*
%TO.C,C10*%
X165128000Y-102870000D03*
X166088000Y-102870000D03*
%TD*%
D29*
%TO.C,R27*%
X159131000Y-90001500D03*
X159131000Y-95926500D03*
%TD*%
D34*
%TO.C,C7*%
X156591000Y-109292926D03*
X156591000Y-110252926D03*
%TD*%
%TO.C,C8*%
X157607000Y-109292926D03*
X157607000Y-110252926D03*
%TD*%
D28*
%TO.C,R23*%
X161798000Y-94424000D03*
X161798000Y-92774000D03*
%TD*%
D34*
%TO.C,C3*%
X165543000Y-117674926D03*
X165543000Y-118634926D03*
%TD*%
D37*
%TO.C,U2*%
X159397000Y-103346000D03*
X159397000Y-102946000D03*
X159397000Y-102546000D03*
X159397000Y-102146000D03*
X159397000Y-101746000D03*
X159397000Y-101346000D03*
X159397000Y-100946000D03*
D38*
X160159500Y-100183500D03*
X160559500Y-100183500D03*
X160959500Y-100183500D03*
X161359500Y-100183500D03*
X161759500Y-100183500D03*
X162159500Y-100183500D03*
X162559500Y-100183500D03*
D37*
X163322000Y-100946000D03*
X163322000Y-101346000D03*
X163322000Y-101746000D03*
X163322000Y-102146000D03*
X163322000Y-102546000D03*
X163322000Y-102946000D03*
X163322000Y-103346000D03*
D38*
X162559500Y-104108500D03*
X162159500Y-104108500D03*
X161759500Y-104108500D03*
X161359500Y-104108500D03*
X160959500Y-104108500D03*
X160559500Y-104108500D03*
X160159500Y-104108500D03*
D39*
X161359500Y-102146000D03*
%TD*%
D17*
%TO.C,C17*%
X154813000Y-109954000D03*
X154813000Y-108994000D03*
%TD*%
M02*
