%TF.GenerationSoftware,KiCad,Pcbnew,9.0.2*%
%TF.CreationDate,2026-03-17T13:30:53+09:00*%
%TF.ProjectId,X610,58363130-2e6b-4696-9361-645f70636258,rev?*%
%TF.SameCoordinates,Original*%
%TF.FileFunction,Profile,NP*%
%FSLAX46Y46*%
G04 Gerber Fmt 4.6, Leading zero omitted, Abs format (unit mm)*
G04 Created by KiCad (PCBNEW 9.0.2) date 2026-03-17 13:30:53*
%MOMM*%
%LPD*%
G01*
G04 APERTURE LIST*
%TA.AperFunction,Profile*%
%ADD10C,0.050000*%
%TD*%
G04 APERTURE END LIST*
D10*
X173500000Y-81000000D02*
X182500000Y-81000000D01*
X182500000Y-81000000D02*
G75*
G02*
X183000000Y-81500000I0J-500000D01*
G01*
X160000000Y-81000000D02*
G75*
G02*
X159000000Y-80000000I0J1000000D01*
G01*
X182500000Y-120000000D02*
X173500000Y-120000000D01*
X173000000Y-81500000D02*
G75*
G02*
X173500000Y-81000000I500000J0D01*
G01*
X172000000Y-107000000D02*
X172000000Y-85000000D01*
X173000000Y-83000000D02*
G75*
G02*
X172000000Y-83000000I-500000J0D01*
G01*
X173000000Y-107000000D02*
G75*
G02*
X172000000Y-107000000I-500000J0D01*
G01*
X173000000Y-85000000D02*
X173000000Y-107000000D01*
X171500000Y-120000000D02*
X150500000Y-120000000D01*
X171500000Y-81000000D02*
G75*
G02*
X172000000Y-81500000I0J-500000D01*
G01*
X173000000Y-83000000D02*
X173000000Y-81500000D01*
X159000000Y-76000000D02*
X150000000Y-76000000D01*
X172000000Y-113000000D02*
X172000000Y-119500000D01*
X172000000Y-85000000D02*
G75*
G02*
X173000000Y-85000000I500000J0D01*
G01*
X160000000Y-81000000D02*
X171500000Y-81000000D01*
X172000000Y-112999953D02*
G75*
G02*
X172500000Y-112500000I500000J-47D01*
G01*
X150000000Y-119500000D02*
X150000000Y-76000000D01*
X183000000Y-119500000D02*
G75*
G02*
X182500000Y-120000000I-500000J0D01*
G01*
X183000000Y-81500000D02*
X183000000Y-119500000D01*
X172500000Y-112499953D02*
G75*
G02*
X173000047Y-112999953I0J-500047D01*
G01*
X159000000Y-76000000D02*
X159000000Y-80000000D01*
X150500000Y-120000000D02*
G75*
G02*
X150000000Y-119500000I0J500000D01*
G01*
X173000000Y-113006855D02*
X173000000Y-119500000D01*
X173500000Y-120000000D02*
G75*
G02*
X173000000Y-119500000I0J500000D01*
G01*
X172000000Y-81500000D02*
X172000000Y-83000000D01*
X172000000Y-119500000D02*
G75*
G02*
X171500000Y-120000000I-500000J0D01*
G01*
M02*
